<svg id="svg" version="1.1" xmlns="http://www.w3.org/2000/svg" xmlns:xlink="http://www.w3.org/1999/xlink" width="400" height="400" viewBox="0, 0, 400,400"><g id="svgg"><path id="path0" d="M219.000 77.624 C 212.591 78.238,211.007 78.467,210.620 78.837 C 210.411 79.037,209.387 79.200,208.344 79.200 C 207.301 79.200,206.336 79.380,206.200 79.600 C 206.064 79.820,205.344 80.000,204.600 80.000 C 203.856 80.000,203.136 80.180,203.000 80.400 C 202.864 80.620,202.144 80.800,201.400 80.800 C 200.656 80.800,199.936 80.980,199.800 81.200 C 199.664 81.420,199.124 81.600,198.600 81.600 C 198.076 81.600,197.536 81.780,197.400 82.000 C 197.264 82.220,196.801 82.400,196.371 82.400 C 195.941 82.400,195.277 82.568,194.895 82.773 C 194.513 82.979,193.345 83.378,192.300 83.661 C 191.255 83.943,190.400 84.315,190.400 84.487 C 190.400 84.659,189.860 84.800,189.200 84.800 C 188.540 84.800,188.000 84.980,188.000 85.200 C 188.000 85.420,187.640 85.600,187.200 85.600 C 186.760 85.600,186.400 85.780,186.400 86.000 C 186.400 86.220,185.860 86.400,185.200 86.400 C 184.540 86.400,184.000 86.580,184.000 86.800 C 184.000 87.020,183.640 87.200,183.200 87.200 C 182.760 87.200,182.400 87.380,182.400 87.600 C 182.400 87.820,182.040 88.000,181.600 88.000 C 181.160 88.000,180.800 88.180,180.800 88.400 C 180.800 88.620,180.440 88.800,180.000 88.800 C 179.560 88.800,179.200 88.980,179.200 89.200 C 179.200 89.420,178.840 89.600,178.400 89.600 C 177.960 89.600,177.600 89.780,177.600 90.000 C 177.600 90.220,177.330 90.400,177.000 90.400 C 176.670 90.400,176.400 90.580,176.400 90.800 C 176.400 91.020,176.040 91.200,175.600 91.200 C 175.160 91.200,174.800 91.380,174.800 91.600 C 174.800 91.820,174.440 92.000,174.000 92.000 C 173.560 92.000,173.200 92.136,173.200 92.302 C 173.200 92.469,172.307 93.014,171.216 93.515 C 170.125 94.015,168.993 94.644,168.701 94.912 C 168.203 95.369,167.755 95.647,165.500 96.900 C 165.005 97.175,164.510 97.490,164.400 97.601 C 164.290 97.712,163.125 98.612,161.810 99.601 C 160.496 100.590,158.894 101.895,158.251 102.500 C 157.608 103.105,156.916 103.600,156.715 103.600 C 156.513 103.600,155.471 104.500,154.400 105.600 C 153.329 106.700,152.342 107.600,152.209 107.600 C 151.639 107.600,144.000 115.114,144.000 115.674 C 144.000 115.844,143.010 116.973,141.800 118.183 C 140.590 119.393,139.600 120.581,139.600 120.823 C 139.600 121.065,138.880 121.954,138.000 122.800 C 137.120 123.646,136.400 124.582,136.400 124.880 C 136.400 125.179,136.040 125.683,135.600 126.000 C 135.160 126.317,134.800 126.807,134.800 127.088 C 134.800 127.370,134.659 127.600,134.486 127.600 C 134.314 127.600,133.857 128.133,133.472 128.785 C 133.087 129.437,132.553 130.209,132.286 130.501 C 131.831 130.998,131.552 131.446,130.300 133.700 C 130.025 134.195,129.710 134.690,129.600 134.800 C 129.490 134.910,129.093 135.540,128.718 136.200 C 128.040 137.395,125.641 137.788,125.267 136.765 C 125.193 136.564,124.608 136.400,123.967 136.400 C 123.325 136.400,122.800 136.220,122.800 136.000 C 122.800 135.780,122.181 135.600,121.424 135.600 C 120.667 135.600,119.936 135.420,119.800 135.200 C 119.664 134.980,118.573 134.800,117.376 134.800 C 116.179 134.800,115.200 134.620,115.200 134.400 C 115.200 134.150,112.741 134.000,108.624 134.000 C 104.671 134.000,101.949 134.160,101.800 134.400 C 101.664 134.620,100.573 134.800,99.376 134.800 C 98.179 134.800,97.200 134.980,97.200 135.200 C 97.200 135.420,96.390 135.600,95.400 135.600 C 94.410 135.600,93.600 135.780,93.600 136.000 C 93.600 136.220,93.238 136.400,92.795 136.400 C 92.352 136.400,91.632 136.580,91.195 136.800 C 90.758 137.020,90.042 137.380,89.605 137.600 C 89.168 137.820,88.448 138.000,88.005 138.000 C 87.562 138.000,87.200 138.180,87.200 138.400 C 87.200 138.620,86.840 138.800,86.400 138.800 C 85.960 138.800,85.600 138.980,85.600 139.200 C 85.600 139.420,85.240 139.600,84.800 139.600 C 84.360 139.600,84.000 139.759,84.000 139.953 C 84.000 140.148,83.685 140.407,83.300 140.529 C 82.258 140.859,80.291 142.104,79.554 142.900 C 79.198 143.285,78.677 143.600,78.396 143.600 C 78.116 143.600,77.371 144.140,76.740 144.800 C 76.109 145.460,75.422 146.000,75.213 146.000 C 74.831 146.000,72.494 148.387,71.000 150.302 C 70.560 150.866,69.480 152.066,68.600 152.969 C 67.720 153.871,66.745 155.103,66.432 155.705 C 66.120 156.307,65.715 156.800,65.532 156.800 C 65.350 156.800,65.200 157.036,65.200 157.325 C 65.200 157.613,64.884 158.198,64.497 158.625 C 64.111 159.051,63.192 160.660,62.455 162.200 C 61.719 163.740,60.951 165.319,60.749 165.709 C 60.547 166.099,60.272 167.224,60.137 168.209 C 60.002 169.194,59.736 170.000,59.546 170.000 C 59.356 170.000,59.200 170.720,59.200 171.600 C 59.200 172.480,59.020 173.200,58.800 173.200 C 58.580 173.200,58.400 174.071,58.400 175.136 C 58.400 177.537,57.387 178.133,51.700 179.073 C 50.985 179.191,50.400 179.448,50.400 179.644 C 50.400 179.840,49.961 180.000,49.424 180.000 C 48.887 180.000,48.336 180.180,48.200 180.400 C 48.064 180.620,47.620 180.800,47.214 180.800 C 46.576 180.800,45.398 181.292,42.305 182.850 C 41.923 183.043,41.338 183.200,41.005 183.200 C 40.672 183.200,40.400 183.380,40.400 183.600 C 40.400 183.820,40.055 184.000,39.633 184.000 C 39.212 184.000,38.807 184.135,38.733 184.300 C 38.566 184.676,36.436 185.975,35.500 186.271 C 35.115 186.393,34.800 186.652,34.800 186.847 C 34.800 187.041,34.480 187.200,34.088 187.200 C 33.697 187.200,33.117 187.560,32.800 188.000 C 32.483 188.440,31.943 188.800,31.600 188.800 C 31.257 188.800,30.717 189.160,30.400 189.600 C 30.083 190.040,29.593 190.400,29.312 190.400 C 29.030 190.400,28.800 190.580,28.800 190.800 C 28.800 191.020,28.542 191.200,28.227 191.200 C 27.912 191.200,27.540 191.560,27.400 192.000 C 27.260 192.440,26.881 192.800,26.556 192.800 C 26.232 192.800,25.694 193.025,25.362 193.300 C 23.540 194.807,16.845 201.602,16.002 202.800 C 15.461 203.570,14.608 204.613,14.109 205.118 C 13.609 205.623,13.200 206.180,13.200 206.356 C 13.200 206.532,12.750 207.199,12.200 207.838 C 11.651 208.477,11.201 209.225,11.200 209.500 C 11.200 209.775,11.023 210.000,10.808 210.000 C 10.592 210.000,10.302 210.450,10.164 211.000 C 10.026 211.550,9.753 212.000,9.557 212.000 C 9.360 212.000,9.200 212.360,9.200 212.800 C 9.200 213.240,9.020 213.600,8.800 213.600 C 8.580 213.600,8.400 213.960,8.400 214.400 C 8.400 214.840,8.220 215.200,8.000 215.200 C 7.780 215.200,7.596 215.425,7.591 215.700 C 7.586 215.975,7.230 216.650,6.800 217.200 C 6.370 217.750,6.014 218.605,6.009 219.100 C 6.004 219.595,5.820 220.000,5.600 220.000 C 5.380 220.000,5.200 220.360,5.200 220.800 C 5.200 221.240,5.020 221.600,4.800 221.600 C 4.580 221.600,4.400 221.962,4.400 222.405 C 4.400 222.848,4.220 223.568,4.000 224.005 C 3.780 224.442,3.420 225.158,3.200 225.595 C 2.980 226.032,2.800 226.842,2.800 227.395 C 2.800 227.948,2.620 228.400,2.400 228.400 C 2.180 228.400,2.000 228.929,2.000 229.576 C 2.000 230.223,1.820 230.864,1.600 231.000 C 1.380 231.136,1.200 231.921,1.200 232.744 C 1.200 233.567,0.975 234.465,0.700 234.740 C -0.027 235.467,-0.027 264.858,0.700 265.100 C 0.975 265.192,1.200 265.871,1.200 266.610 C 1.200 267.348,1.380 268.064,1.600 268.200 C 1.820 268.336,2.000 269.067,2.000 269.824 C 2.000 270.581,2.180 271.200,2.400 271.200 C 2.620 271.200,2.800 271.740,2.800 272.400 C 2.800 273.060,2.980 273.600,3.200 273.600 C 3.420 273.600,3.600 273.960,3.600 274.400 C 3.600 274.840,3.780 275.200,4.000 275.200 C 4.220 275.200,4.400 275.740,4.400 276.400 C 4.400 277.060,4.580 277.600,4.800 277.600 C 5.020 277.600,5.200 277.960,5.200 278.400 C 5.200 278.840,5.380 279.200,5.600 279.200 C 5.820 279.200,6.000 279.555,6.000 279.988 C 6.000 280.421,6.360 281.417,6.800 282.200 C 7.240 282.983,7.600 283.849,7.600 284.124 C 7.600 284.399,7.960 284.883,8.400 285.200 C 8.840 285.517,9.200 286.082,9.200 286.455 C 9.200 286.828,9.335 287.193,9.500 287.267 C 9.665 287.340,10.224 288.268,10.742 289.329 C 11.261 290.390,11.936 291.354,12.242 291.472 C 12.549 291.589,12.800 291.910,12.800 292.183 C 12.800 292.457,13.340 293.246,14.000 293.937 C 14.660 294.628,15.200 295.369,15.200 295.585 C 15.200 296.200,25.633 306.460,27.620 307.800 C 28.599 308.460,29.460 309.135,29.533 309.300 C 29.607 309.465,29.882 309.600,30.145 309.600 C 30.408 309.600,30.883 309.960,31.200 310.400 C 31.517 310.840,32.097 311.200,32.488 311.200 C 32.880 311.200,33.200 311.380,33.200 311.600 C 33.200 311.820,33.436 312.000,33.725 312.000 C 34.013 312.000,34.636 312.360,35.108 312.800 C 35.580 313.240,36.244 313.600,36.583 313.600 C 36.922 313.600,37.200 313.780,37.200 314.000 C 37.200 314.220,37.560 314.400,38.000 314.400 C 38.440 314.400,38.800 314.580,38.800 314.800 C 38.800 315.020,39.160 315.200,39.600 315.200 C 40.040 315.200,40.400 315.380,40.400 315.600 C 40.400 315.820,40.760 316.000,41.200 316.000 C 41.640 316.000,42.000 316.180,42.000 316.400 C 42.000 316.620,42.360 316.800,42.800 316.800 C 43.240 316.800,43.600 316.980,43.600 317.200 C 43.600 317.420,43.962 317.600,44.405 317.600 C 44.848 317.600,45.523 317.759,45.905 317.953 C 46.287 318.148,47.140 318.529,47.800 318.800 C 48.460 319.071,49.313 319.452,49.695 319.647 C 50.077 319.841,50.932 320.000,51.595 320.000 C 52.258 320.000,52.800 320.180,52.800 320.400 C 52.800 320.620,53.419 320.800,54.176 320.800 C 54.933 320.800,55.664 320.980,55.800 321.200 C 55.936 321.420,56.811 321.600,57.744 321.600 C 58.677 321.600,59.611 321.765,59.820 321.966 C 60.704 322.818,71.780 322.891,203.800 322.911 C 334.174 322.931,346.831 322.847,347.780 321.957 C 347.989 321.760,348.833 321.600,349.656 321.600 C 350.479 321.600,351.264 321.420,351.400 321.200 C 351.536 320.980,352.267 320.800,353.024 320.800 C 353.781 320.800,354.400 320.620,354.400 320.400 C 354.400 320.180,354.839 320.000,355.376 320.000 C 355.913 320.000,356.464 319.820,356.600 319.600 C 356.736 319.380,357.287 319.200,357.824 319.200 C 358.361 319.200,358.800 319.020,358.800 318.800 C 358.800 318.580,359.340 318.400,360.000 318.400 C 360.660 318.400,361.200 318.220,361.200 318.000 C 361.200 317.780,361.560 317.600,362.000 317.600 C 362.440 317.600,362.800 317.420,362.800 317.200 C 362.800 316.980,363.160 316.800,363.600 316.800 C 364.040 316.800,364.400 316.620,364.400 316.400 C 364.400 316.180,364.760 316.000,365.200 316.000 C 365.640 316.000,366.000 315.820,366.000 315.600 C 366.000 315.380,366.360 315.200,366.800 315.200 C 367.240 315.200,367.600 315.020,367.600 314.800 C 367.600 314.580,367.870 314.400,368.200 314.400 C 368.530 314.400,368.800 314.220,368.800 314.000 C 368.800 313.780,369.070 313.600,369.400 313.600 C 369.730 313.600,370.000 313.420,370.000 313.200 C 370.000 312.980,370.320 312.800,370.712 312.800 C 371.103 312.800,371.683 312.440,372.000 312.000 C 372.317 311.560,372.792 311.200,373.054 311.200 C 373.317 311.200,374.042 310.660,374.665 310.000 C 375.288 309.340,376.021 308.800,376.295 308.800 C 376.854 308.800,386.800 298.990,386.800 298.438 C 386.800 298.244,387.331 297.516,387.980 296.822 C 388.628 296.127,389.270 295.208,389.406 294.780 C 389.543 294.351,389.804 294.000,389.987 294.000 C 390.171 294.000,390.654 293.191,391.060 292.201 C 391.467 291.212,391.935 290.402,392.100 290.401 C 392.265 290.401,392.400 290.130,392.400 289.800 C 392.400 289.470,392.580 289.200,392.800 289.200 C 393.020 289.200,393.200 288.840,393.200 288.400 C 393.200 287.960,393.380 287.600,393.600 287.600 C 393.820 287.600,394.000 287.251,394.000 286.824 C 394.000 286.397,394.180 285.936,394.400 285.800 C 394.620 285.664,394.800 285.203,394.800 284.776 C 394.800 284.349,394.980 284.000,395.200 284.000 C 395.420 284.000,395.600 283.640,395.600 283.200 C 395.600 282.760,395.780 282.400,396.000 282.400 C 396.220 282.400,396.400 281.860,396.400 281.200 C 396.400 280.540,396.580 280.000,396.800 280.000 C 397.020 280.000,397.200 279.561,397.200 279.024 C 397.200 278.487,397.380 277.936,397.600 277.800 C 397.820 277.664,398.000 277.023,398.000 276.376 C 398.000 275.729,398.180 275.200,398.400 275.200 C 398.620 275.200,398.800 274.606,398.800 273.880 C 398.800 273.154,399.025 272.335,399.300 272.060 C 399.681 271.679,399.800 268.257,399.800 257.713 C 399.800 246.992,399.687 243.829,399.300 243.700 C 399.013 243.605,398.800 242.864,398.800 241.967 C 398.800 241.105,398.620 240.400,398.400 240.400 C 398.180 240.400,398.000 239.781,398.000 239.024 C 398.000 238.267,397.820 237.536,397.600 237.400 C 397.380 237.264,397.200 236.724,397.200 236.200 C 397.200 235.676,397.020 235.136,396.800 235.000 C 396.580 234.864,396.400 234.403,396.400 233.976 C 396.400 233.549,396.220 233.200,396.000 233.200 C 395.780 233.200,395.600 232.750,395.600 232.200 C 395.600 231.650,395.420 231.200,395.200 231.200 C 394.980 231.200,394.800 230.750,394.800 230.200 C 394.800 229.650,394.654 229.200,394.475 229.200 C 394.296 229.200,393.902 228.570,393.600 227.800 C 393.298 227.030,392.904 226.400,392.725 226.400 C 392.546 226.400,392.400 226.040,392.400 225.600 C 392.400 225.160,392.247 224.800,392.061 224.800 C 391.874 224.800,391.397 224.080,391.000 223.200 C 390.603 222.320,390.126 221.600,389.939 221.600 C 389.753 221.600,389.600 221.375,389.599 221.100 C 389.599 220.825,389.059 219.970,388.400 219.200 C 387.741 218.430,387.201 217.660,387.201 217.489 C 387.200 217.319,386.435 216.383,385.500 215.411 C 384.565 214.438,383.199 213.002,382.465 212.220 C 381.730 211.437,380.937 210.915,380.703 211.060 C 380.467 211.206,380.392 211.137,380.535 210.906 C 380.677 210.676,380.319 210.177,379.739 209.797 C 379.160 209.417,377.926 208.363,376.997 207.453 C 374.785 205.287,373.681 204.400,373.195 204.400 C 372.978 204.400,372.800 204.220,372.800 204.000 C 372.800 203.780,372.612 203.600,372.383 203.600 C 372.154 203.600,371.580 203.240,371.108 202.800 C 370.636 202.360,370.013 202.000,369.725 202.000 C 369.436 202.000,369.200 201.820,369.200 201.600 C 369.200 201.380,368.855 201.200,368.433 201.200 C 368.012 201.200,367.607 201.065,367.533 200.900 C 367.341 200.468,364.028 198.800,363.362 198.800 C 363.053 198.800,362.800 198.620,362.800 198.400 C 362.800 198.180,362.440 198.000,362.000 198.000 C 361.560 198.000,361.200 197.820,361.200 197.600 C 361.200 197.380,360.870 197.200,360.467 197.200 C 360.063 197.200,359.611 197.078,359.462 196.929 C 359.091 196.558,353.948 194.823,353.180 194.810 C 352.839 194.805,352.075 194.575,351.483 194.300 L 350.406 193.800 350.403 187.924 C 350.401 184.441,350.237 181.947,350.000 181.800 C 349.780 181.664,349.600 180.573,349.600 179.376 C 349.600 178.179,349.420 177.200,349.200 177.200 C 348.975 177.200,348.800 176.075,348.800 174.624 C 348.800 173.207,348.620 171.936,348.400 171.800 C 348.180 171.664,348.000 170.843,348.000 169.976 C 348.000 169.109,347.820 168.400,347.600 168.400 C 347.380 168.400,347.200 167.781,347.200 167.024 C 347.200 166.267,347.020 165.536,346.800 165.400 C 346.580 165.264,346.400 164.634,346.400 164.000 C 346.400 163.366,346.220 162.736,346.000 162.600 C 345.780 162.464,345.600 161.823,345.600 161.176 C 345.600 160.529,345.420 160.000,345.200 160.000 C 344.980 160.000,344.800 159.460,344.800 158.800 C 344.800 158.140,344.620 157.600,344.400 157.600 C 344.180 157.600,344.000 157.060,344.000 156.400 C 344.000 155.740,343.820 155.200,343.600 155.200 C 343.380 155.200,343.200 154.840,343.200 154.400 C 343.200 153.960,343.020 153.600,342.800 153.600 C 342.580 153.600,342.400 153.060,342.400 152.400 C 342.400 151.740,342.220 151.200,342.000 151.200 C 341.780 151.200,341.600 150.718,341.600 150.130 C 341.600 149.064,338.911 143.120,338.314 142.867 C 338.141 142.793,338.000 142.388,338.000 141.967 C 338.000 141.545,337.820 141.200,337.600 141.200 C 337.380 141.200,337.200 140.840,337.200 140.400 C 337.200 139.960,337.020 139.600,336.800 139.600 C 336.580 139.600,336.400 139.240,336.400 138.800 C 336.400 138.360,336.220 138.000,336.000 138.000 C 335.780 138.000,335.600 137.764,335.600 137.475 C 335.600 137.187,335.240 136.564,334.800 136.092 C 334.360 135.620,334.000 135.038,334.000 134.800 C 334.000 134.562,333.640 133.980,333.200 133.508 C 332.760 133.036,332.400 132.413,332.400 132.125 C 332.400 131.836,332.220 131.600,332.000 131.600 C 331.780 131.600,331.600 131.364,331.600 131.075 C 331.600 130.787,331.240 130.164,330.800 129.692 C 330.360 129.220,330.000 128.690,330.000 128.515 C 330.000 128.341,329.460 127.688,328.800 127.065 C 328.140 126.442,327.600 125.750,327.600 125.527 C 327.600 125.303,327.026 124.584,326.323 123.928 C 325.621 123.273,325.022 122.393,324.991 121.973 C 324.960 121.554,324.588 120.893,324.166 120.505 C 323.743 120.117,322.677 118.904,321.798 117.808 C 319.717 115.214,310.280 106.000,309.705 106.000 C 309.534 106.000,308.840 105.415,308.161 104.700 C 306.672 103.129,305.301 102.000,304.884 102.000 C 304.715 102.000,304.317 101.640,304.000 101.200 C 303.683 100.760,303.220 100.400,302.971 100.400 C 302.722 100.400,301.954 99.860,301.263 99.200 C 300.572 98.540,299.860 98.000,299.679 98.000 C 299.499 98.000,298.993 97.685,298.555 97.300 C 298.117 96.915,297.408 96.403,296.980 96.162 C 294.743 94.907,294.185 94.558,293.687 94.100 C 293.388 93.825,292.796 93.600,292.371 93.600 C 291.947 93.600,291.600 93.420,291.600 93.200 C 291.600 92.980,291.330 92.800,291.000 92.800 C 290.670 92.800,290.400 92.620,290.400 92.400 C 290.400 92.180,290.130 92.000,289.800 92.000 C 289.470 92.000,289.200 91.820,289.200 91.600 C 289.200 91.380,288.840 91.200,288.400 91.200 C 287.960 91.200,287.600 91.020,287.600 90.800 C 287.600 90.580,287.240 90.400,286.800 90.400 C 286.360 90.400,286.000 90.220,286.000 90.000 C 286.000 89.780,285.651 89.600,285.224 89.600 C 284.797 89.600,284.336 89.420,284.200 89.200 C 284.064 88.980,283.603 88.800,283.176 88.800 C 282.749 88.800,282.400 88.620,282.400 88.400 C 282.400 88.180,282.040 88.000,281.600 88.000 C 281.160 88.000,280.800 87.820,280.800 87.600 C 280.800 87.380,280.440 87.200,280.000 87.200 C 279.560 87.200,279.200 87.020,279.200 86.800 C 279.200 86.580,278.840 86.400,278.400 86.400 C 277.960 86.400,277.600 86.220,277.600 86.000 C 277.600 85.780,277.060 85.600,276.400 85.600 C 275.740 85.600,275.200 85.420,275.200 85.200 C 275.200 84.980,274.750 84.800,274.200 84.800 C 273.650 84.800,273.200 84.620,273.200 84.400 C 273.200 84.180,272.750 84.000,272.200 84.000 C 271.650 84.000,271.200 83.820,271.200 83.600 C 271.200 83.380,270.761 83.200,270.224 83.200 C 269.687 83.200,269.136 83.020,269.000 82.800 C 268.864 82.580,268.324 82.400,267.800 82.400 C 267.276 82.400,266.736 82.220,266.600 82.000 C 266.464 81.780,265.744 81.600,265.000 81.600 C 264.256 81.600,263.536 81.420,263.400 81.200 C 263.264 80.980,262.533 80.800,261.776 80.800 C 261.019 80.800,260.400 80.620,260.400 80.400 C 260.400 80.180,259.806 80.000,259.080 80.000 C 258.354 80.000,257.589 79.837,257.380 79.637 C 257.025 79.298,255.987 79.136,250.400 78.551 C 249.190 78.425,247.992 78.150,247.737 77.942 C 247.124 77.440,223.629 77.180,219.000 77.624 " stroke="none" fill="#249cf4" fill-rule="evenodd"></path><path id="path1" d="" stroke="none" fill="#289cf4" fill-rule="evenodd"></path><path id="path2" d="" stroke="none" fill="#289cf4" fill-rule="evenodd"></path><path id="path3" d="" stroke="none" fill="#289cf4" fill-rule="evenodd"></path><path id="path4" d="" stroke="none" fill="#289cf4" fill-rule="evenodd"></path></g></svg>