<svg id="svg" version="1.1" xmlns="http://www.w3.org/2000/svg" xmlns:xlink="http://www.w3.org/1999/xlink" width="400" height="400" viewBox="0, 0, 400,400"><g id="svgg"><path id="path0" d="M38.500 23.798 C 38.225 24.111,38.000 25.004,38.000 25.783 C 38.000 26.562,37.820 27.200,37.600 27.200 C 37.380 27.200,37.200 27.524,37.200 27.920 C 37.200 28.814,36.306 30.793,35.900 30.797 C 35.735 30.799,35.600 31.025,35.600 31.300 C 35.599 31.963,33.829 34.000,33.253 34.000 C 33.004 34.000,32.800 34.180,32.800 34.400 C 32.800 34.620,32.545 34.800,32.233 34.800 C 31.922 34.800,31.607 34.935,31.533 35.100 C 31.320 35.579,27.994 37.200,27.224 37.200 C 25.023 37.200,24.000 38.351,24.000 40.829 C 24.000 43.197,24.002 43.200,25.200 43.200 C 25.860 43.200,26.400 43.380,26.400 43.600 C 26.400 43.820,27.030 44.000,27.800 44.000 C 28.570 44.000,29.200 44.180,29.200 44.400 C 29.200 44.620,29.474 44.800,29.809 44.800 C 30.601 44.800,34.800 48.999,34.800 49.791 C 34.800 50.126,34.980 50.400,35.200 50.400 C 35.420 50.400,35.600 50.760,35.600 51.200 C 35.600 51.640,35.780 52.000,36.000 52.000 C 36.220 52.000,36.400 52.360,36.400 52.800 C 36.400 53.240,36.580 53.600,36.800 53.600 C 37.020 53.600,37.200 54.140,37.200 54.800 C 37.200 55.460,37.380 56.000,37.600 56.000 C 37.820 56.000,38.000 56.521,38.000 57.157 C 38.000 58.525,38.541 58.800,41.233 58.800 C 42.715 58.800,43.200 58.652,43.200 58.200 C 43.200 57.870,43.380 57.600,43.600 57.600 C 43.820 57.600,44.000 56.700,44.000 55.600 C 44.000 54.500,44.180 53.600,44.400 53.600 C 44.620 53.600,44.800 53.280,44.800 52.888 C 44.800 52.497,45.160 51.917,45.600 51.600 C 46.040 51.283,46.400 50.836,46.400 50.607 C 46.400 50.378,46.961 49.743,47.648 49.196 C 48.334 48.648,49.316 47.795,49.829 47.300 C 50.343 46.805,51.002 46.400,51.294 46.400 C 51.585 46.400,52.083 46.040,52.400 45.600 C 52.717 45.160,53.297 44.800,53.688 44.800 C 54.080 44.800,54.400 44.620,54.400 44.400 C 54.400 44.180,54.642 44.000,54.939 44.000 C 58.007 44.000,60.320 38.827,57.574 38.109 C 57.148 37.998,56.800 37.748,56.800 37.553 C 56.800 37.359,56.080 37.200,55.200 37.200 C 54.320 37.200,53.600 37.020,53.600 36.800 C 53.600 36.580,53.240 36.400,52.800 36.400 C 52.360 36.400,52.000 36.220,52.000 36.000 C 52.000 35.780,51.724 35.600,51.387 35.600 C 50.746 35.600,48.000 33.077,48.000 32.489 C 48.000 32.303,47.675 31.802,47.278 31.375 C 46.880 30.949,46.297 30.015,45.980 29.300 C 45.664 28.585,45.269 28.000,45.102 28.000 C 44.936 28.000,44.800 27.640,44.800 27.200 C 44.800 26.760,44.620 26.400,44.400 26.400 C 44.180 26.400,44.000 25.937,44.000 25.371 C 44.000 23.366,39.910 22.197,38.500 23.798 M286.400 25.200 C 286.400 25.420,285.860 25.600,285.200 25.600 C 284.540 25.600,284.000 25.780,284.000 26.000 C 284.000 26.220,283.730 26.400,283.400 26.400 C 283.070 26.400,282.800 26.580,282.800 26.800 C 282.800 27.020,282.575 27.205,282.300 27.212 C 280.868 27.245,277.200 31.907,277.200 33.693 C 277.200 34.302,277.020 34.800,276.800 34.800 C 276.555 34.800,276.400 36.733,276.400 39.800 C 276.400 42.867,276.555 44.800,276.800 44.800 C 277.020 44.800,277.200 45.298,277.200 45.907 C 277.200 47.489,281.096 52.775,282.287 52.809 C 282.459 52.814,283.050 53.170,283.600 53.600 C 284.150 54.030,285.005 54.386,285.500 54.391 C 285.995 54.396,286.400 54.580,286.400 54.800 C 286.400 55.045,288.333 55.200,291.400 55.200 C 294.467 55.200,296.400 55.045,296.400 54.800 C 296.400 54.580,296.805 54.396,297.300 54.391 C 297.795 54.386,298.650 54.030,299.200 53.600 C 299.750 53.170,300.340 52.814,300.511 52.809 C 300.915 52.797,304.397 49.315,304.409 48.911 C 304.414 48.740,304.770 48.150,305.200 47.600 C 305.630 47.050,305.986 46.195,305.991 45.700 C 305.996 45.205,306.180 44.800,306.400 44.800 C 306.644 44.800,306.800 42.941,306.800 40.024 C 306.800 37.271,306.631 35.142,306.400 35.000 C 306.180 34.864,306.000 34.391,306.000 33.948 C 306.000 32.228,302.258 27.735,299.988 26.730 C 299.335 26.441,298.800 26.069,298.800 25.902 C 298.800 25.736,298.260 25.600,297.600 25.600 C 296.940 25.600,296.400 25.420,296.400 25.200 C 296.400 24.955,294.467 24.800,291.400 24.800 C 288.333 24.800,286.400 24.955,286.400 25.200 M295.504 30.464 C 305.624 35.075,302.488 50.000,291.400 50.000 C 280.415 50.000,277.284 35.316,287.241 30.492 C 289.631 29.334,293.001 29.323,295.504 30.464 M42.287 33.482 C 42.697 34.552,43.582 35.594,46.554 38.509 C 48.073 39.999,49.245 41.272,49.158 41.338 C 49.071 41.405,48.370 41.878,47.600 42.391 C 46.830 42.903,45.012 44.519,43.559 45.981 C 40.646 48.914,40.316 48.986,39.330 46.908 C 38.957 46.123,37.519 44.314,36.135 42.888 C 33.750 40.431,33.359 39.600,34.589 39.600 C 35.339 39.600,39.944 34.998,40.404 33.789 C 40.836 32.652,41.902 32.479,42.287 33.482 M142.800 36.000 C 142.800 36.220,142.260 36.400,141.600 36.400 C 140.940 36.400,140.400 36.580,140.400 36.800 C 140.400 37.020,140.140 37.200,139.822 37.200 C 139.070 37.200,134.000 42.270,134.000 43.022 C 134.000 43.340,133.820 43.600,133.600 43.600 C 133.380 43.600,133.200 44.039,133.200 44.576 C 133.200 45.113,133.020 45.664,132.800 45.800 C 132.568 45.943,132.400 48.137,132.400 51.024 C 132.400 54.075,132.555 56.000,132.800 56.000 C 133.020 56.000,133.200 56.450,133.200 57.000 C 133.200 57.550,133.380 58.000,133.600 58.000 C 133.820 58.000,134.000 58.246,134.000 58.546 C 134.000 59.262,137.888 63.239,139.300 63.968 C 139.905 64.280,140.400 64.685,140.400 64.868 C 140.400 65.050,140.940 65.200,141.600 65.200 C 142.260 65.200,142.800 65.380,142.800 65.600 C 142.800 65.845,144.733 66.000,147.800 66.000 C 150.867 66.000,152.800 65.845,152.800 65.600 C 152.800 65.380,153.173 65.200,153.628 65.200 C 154.414 65.200,158.058 62.985,158.326 62.345 C 158.395 62.179,159.070 61.369,159.826 60.544 C 160.582 59.719,161.200 58.809,161.200 58.522 C 161.200 58.235,161.380 58.000,161.600 58.000 C 161.820 58.000,162.000 57.550,162.000 57.000 C 162.000 56.450,162.180 56.000,162.400 56.000 C 162.646 56.000,162.800 54.000,162.800 50.800 C 162.800 47.600,162.646 45.600,162.400 45.600 C 162.180 45.600,162.000 45.150,162.000 44.600 C 162.000 44.050,161.820 43.600,161.600 43.600 C 161.380 43.600,161.200 43.365,161.200 43.078 C 161.200 42.791,160.582 41.881,159.826 41.056 C 159.070 40.231,158.395 39.421,158.326 39.255 C 158.058 38.615,154.414 36.400,153.628 36.400 C 153.173 36.400,152.800 36.220,152.800 36.000 C 152.800 35.755,150.867 35.600,147.800 35.600 C 144.733 35.600,142.800 35.755,142.800 36.000 M72.500 39.010 C 71.813 39.744,71.600 40.448,71.600 41.986 C 71.600 43.094,71.420 44.000,71.200 44.000 C 70.980 44.000,70.800 44.540,70.800 45.200 C 70.800 45.860,70.620 46.400,70.400 46.400 C 70.180 46.400,70.000 46.760,70.000 47.200 C 70.000 47.640,69.820 48.000,69.600 48.000 C 69.380 48.000,69.200 48.252,69.200 48.559 C 69.200 49.390,63.603 54.957,62.100 55.621 C 61.385 55.937,60.800 56.331,60.800 56.498 C 60.800 56.664,60.440 56.800,60.000 56.800 C 59.560 56.800,59.200 56.980,59.200 57.200 C 59.200 57.420,58.851 57.600,58.424 57.600 C 57.997 57.600,57.536 57.780,57.400 58.000 C 57.264 58.220,56.533 58.400,55.776 58.400 C 55.019 58.400,54.400 58.580,54.400 58.800 C 54.400 59.020,53.971 59.200,53.446 59.200 C 52.491 59.200,51.200 60.640,51.200 61.706 C 51.200 62.781,52.219 64.394,52.900 64.397 C 53.285 64.399,53.600 64.580,53.600 64.800 C 53.600 65.020,54.500 65.200,55.600 65.200 C 56.700 65.200,57.600 65.358,57.600 65.550 C 57.600 65.742,58.118 66.004,58.752 66.130 C 59.385 66.257,60.182 66.640,60.523 66.980 C 60.864 67.321,61.269 67.600,61.423 67.600 C 61.973 67.600,66.748 72.835,67.267 74.006 C 67.557 74.663,67.931 75.200,68.098 75.200 C 68.264 75.200,68.400 75.560,68.400 76.000 C 68.400 76.440,68.580 76.800,68.800 76.800 C 69.020 76.800,69.200 77.160,69.200 77.600 C 69.200 78.040,69.380 78.400,69.600 78.400 C 69.820 78.400,70.000 78.749,70.000 79.176 C 70.000 79.603,70.180 80.064,70.400 80.200 C 70.620 80.336,70.800 80.876,70.800 81.400 C 70.800 81.924,70.980 82.464,71.200 82.600 C 71.420 82.736,71.600 83.385,71.600 84.042 C 71.600 84.777,71.978 85.614,72.582 86.218 C 74.697 88.333,77.600 86.714,77.600 83.418 C 77.600 82.418,77.780 81.600,78.000 81.600 C 78.220 81.600,78.400 81.060,78.400 80.400 C 78.400 79.740,78.580 79.200,78.800 79.200 C 79.020 79.200,79.200 78.840,79.200 78.400 C 79.200 77.960,79.380 77.600,79.600 77.600 C 79.820 77.600,80.000 77.329,80.000 76.998 C 80.000 76.067,87.306 69.200,88.296 69.200 C 88.573 69.200,88.800 69.020,88.800 68.800 C 88.800 68.580,89.070 68.400,89.400 68.400 C 89.730 68.400,90.000 68.220,90.000 68.000 C 90.000 67.780,90.270 67.600,90.600 67.600 C 90.930 67.600,91.200 67.420,91.200 67.200 C 91.200 66.980,91.470 66.800,91.800 66.800 C 92.130 66.800,92.400 66.620,92.400 66.400 C 92.400 66.180,92.749 66.000,93.176 66.000 C 93.603 66.000,94.064 65.820,94.200 65.600 C 94.336 65.380,94.887 65.200,95.424 65.200 C 95.961 65.200,96.400 65.020,96.400 64.800 C 96.400 64.580,96.760 64.400,97.200 64.400 C 97.733 64.400,98.000 64.133,98.000 63.600 C 98.000 63.160,98.180 62.800,98.400 62.800 C 98.979 62.800,98.867 60.722,98.243 59.900 C 97.951 59.515,97.417 59.200,97.056 59.200 C 96.695 59.200,96.400 59.020,96.400 58.800 C 96.400 58.580,95.500 58.400,94.400 58.400 C 93.300 58.400,92.400 58.220,92.400 58.000 C 92.400 57.780,92.040 57.600,91.600 57.600 C 91.160 57.600,90.800 57.464,90.800 57.298 C 90.800 57.131,90.227 56.742,89.527 56.432 C 88.258 55.870,83.200 51.114,83.200 50.483 C 83.200 50.300,82.875 49.802,82.478 49.375 C 82.080 48.949,81.497 48.015,81.180 47.300 C 80.864 46.585,80.469 46.000,80.302 46.000 C 80.136 46.000,80.000 45.640,80.000 45.200 C 80.000 44.760,79.820 44.400,79.600 44.400 C 79.380 44.400,79.200 44.040,79.200 43.600 C 79.200 43.160,79.020 42.800,78.800 42.800 C 78.580 42.800,78.400 42.260,78.400 41.600 C 78.400 40.940,78.220 40.400,78.000 40.400 C 77.780 40.400,77.600 40.117,77.600 39.771 C 77.600 37.859,74.071 37.333,72.500 39.010 M151.873 41.432 C 159.794 45.042,159.872 56.554,152.000 60.103 C 143.108 64.111,134.275 54.830,138.641 46.067 C 141.010 41.314,147.004 39.214,151.873 41.432 M78.200 52.436 C 81.137 56.855,86.196 61.600,87.972 61.600 C 88.883 61.600,88.339 62.871,87.150 63.519 C 83.341 65.595,78.062 70.356,76.076 73.507 C 74.849 75.453,74.057 75.534,73.255 73.795 C 71.492 69.968,67.677 65.323,64.500 63.133 C 62.434 61.709,62.369 61.118,64.200 60.400 C 64.970 60.098,65.600 59.743,65.600 59.612 C 65.600 59.480,66.185 59.028,66.900 58.606 C 69.326 57.176,74.800 50.673,74.800 49.222 C 74.800 48.019,76.050 49.201,78.200 52.436 M356.800 60.800 C 356.800 61.020,356.510 61.200,356.154 61.200 C 354.627 61.200,348.824 65.526,348.791 66.689 C 348.786 66.860,348.430 67.450,348.000 68.000 C 347.570 68.550,347.214 69.405,347.209 69.900 C 347.204 70.395,347.020 70.800,346.800 70.800 C 346.555 70.800,346.400 72.733,346.400 75.800 C 346.400 78.867,346.555 80.800,346.800 80.800 C 347.020 80.800,347.204 81.205,347.209 81.700 C 347.214 82.195,347.570 83.050,348.000 83.600 C 348.430 84.150,348.786 84.740,348.791 84.911 C 348.824 86.074,354.627 90.400,356.154 90.400 C 356.510 90.400,356.800 90.580,356.800 90.800 C 356.800 91.292,365.705 91.348,366.705 90.863 C 367.087 90.678,368.280 90.099,369.357 89.578 C 371.553 88.513,374.715 85.478,375.060 84.104 C 375.185 83.607,375.447 83.200,375.643 83.200 C 375.840 83.200,376.000 82.660,376.000 82.000 C 376.000 81.340,376.180 80.800,376.400 80.800 C 376.645 80.800,376.800 78.867,376.800 75.800 C 376.800 72.733,376.645 70.800,376.400 70.800 C 376.180 70.800,376.000 70.260,376.000 69.600 C 376.000 68.940,375.840 68.400,375.643 68.400 C 375.447 68.400,375.185 67.993,375.060 67.496 C 374.715 66.122,371.553 63.087,369.357 62.022 C 368.280 61.501,367.087 60.922,366.705 60.737 C 365.705 60.252,356.800 60.308,356.800 60.800 M38.662 65.131 C 38.298 65.534,38.000 66.513,38.000 67.308 C 38.000 68.103,37.820 68.864,37.600 69.000 C 37.380 69.136,37.200 69.653,37.200 70.148 C 37.200 70.644,36.840 71.436,36.400 71.908 C 35.960 72.380,35.600 72.960,35.600 73.197 C 35.600 73.747,32.960 76.400,32.413 76.400 C 32.186 76.400,32.000 76.566,32.000 76.768 C 32.000 76.971,31.462 77.255,30.805 77.399 C 30.147 77.543,29.506 77.828,29.381 78.031 C 29.255 78.234,28.713 78.400,28.176 78.400 C 27.639 78.400,27.200 78.580,27.200 78.800 C 27.200 79.020,26.737 79.200,26.171 79.200 C 24.595 79.200,24.000 80.084,24.000 82.427 C 24.000 84.928,24.629 85.569,27.100 85.587 C 28.035 85.594,28.800 85.736,28.800 85.902 C 28.800 86.069,29.378 86.460,30.084 86.773 C 31.386 87.349,34.000 89.703,34.000 90.298 C 34.000 90.477,34.360 90.883,34.800 91.200 C 35.240 91.517,35.600 92.097,35.600 92.488 C 35.600 92.880,35.780 93.200,36.000 93.200 C 36.220 93.200,36.400 93.639,36.400 94.176 C 36.400 94.713,36.580 95.264,36.800 95.400 C 37.020 95.536,37.200 96.076,37.200 96.600 C 37.200 97.124,37.380 97.664,37.600 97.800 C 37.820 97.936,38.000 98.315,38.000 98.642 C 38.000 99.514,39.833 101.200,40.782 101.200 C 41.232 101.200,41.600 101.020,41.600 100.800 C 41.600 100.580,41.883 100.400,42.229 100.400 C 43.354 100.400,44.000 99.316,44.000 97.429 C 44.000 96.423,44.180 95.600,44.400 95.600 C 44.620 95.600,44.800 95.240,44.800 94.800 C 44.800 94.360,44.980 94.000,45.200 94.000 C 45.420 94.000,45.600 93.709,45.600 93.354 C 45.600 92.552,50.586 88.001,51.467 88.000 C 51.723 88.000,51.993 87.859,52.067 87.686 C 52.140 87.514,53.589 86.691,55.287 85.858 C 57.995 84.529,58.404 84.187,58.614 83.067 C 58.882 81.638,58.277 79.654,57.506 79.437 C 57.228 79.358,56.190 79.070,55.200 78.795 C 51.593 77.795,47.200 74.720,47.200 73.194 C 47.200 72.959,46.840 72.380,46.400 71.908 C 45.960 71.436,45.600 70.813,45.600 70.525 C 45.600 70.236,45.420 70.000,45.200 70.000 C 44.980 70.000,44.800 69.460,44.800 68.800 C 44.800 68.140,44.620 67.600,44.400 67.600 C 44.180 67.600,44.000 67.240,44.000 66.800 C 44.000 66.360,43.841 66.000,43.647 66.000 C 43.452 66.000,43.199 65.640,43.084 65.200 C 42.797 64.103,39.637 64.054,38.662 65.131 M365.862 66.471 C 371.085 68.926,373.446 74.931,371.129 79.862 C 366.388 89.947,351.635 86.876,351.613 75.800 C 351.598 68.382,359.258 63.367,365.862 66.471 M193.000 71.200 C 192.864 71.420,191.244 71.600,189.400 71.600 C 187.556 71.600,185.936 71.780,185.800 72.000 C 185.664 72.220,184.663 72.400,183.576 72.400 C 182.489 72.400,181.600 72.580,181.600 72.800 C 181.600 73.020,180.801 73.200,179.824 73.200 C 178.847 73.200,177.936 73.380,177.800 73.600 C 177.664 73.820,176.933 74.000,176.176 74.000 C 175.419 74.000,174.800 74.180,174.800 74.400 C 174.800 74.620,174.260 74.800,173.600 74.800 C 172.940 74.800,172.400 74.980,172.400 75.200 C 172.400 75.420,171.860 75.600,171.200 75.600 C 170.540 75.600,170.000 75.780,170.000 76.000 C 170.000 76.220,169.460 76.400,168.800 76.400 C 168.140 76.400,167.600 76.580,167.600 76.800 C 167.600 77.020,167.140 77.200,166.578 77.200 C 165.471 77.200,163.814 77.880,158.100 80.682 C 156.065 81.680,154.400 82.655,154.400 82.848 C 154.400 83.042,154.040 83.200,153.600 83.200 C 153.160 83.200,152.800 83.380,152.800 83.600 C 152.800 83.820,152.522 84.000,152.183 84.000 C 151.844 84.000,151.180 84.360,150.708 84.800 C 150.236 85.240,149.613 85.600,149.325 85.600 C 149.036 85.600,148.800 85.780,148.800 86.000 C 148.800 86.220,148.530 86.400,148.200 86.400 C 147.870 86.400,147.600 86.580,147.600 86.800 C 147.600 87.020,147.370 87.200,147.088 87.200 C 146.807 87.200,146.317 87.560,146.000 88.000 C 145.683 88.440,145.213 88.800,144.957 88.800 C 144.700 88.800,144.065 89.338,143.545 89.996 C 143.025 90.654,142.369 91.194,142.087 91.196 C 141.804 91.198,140.962 91.785,140.214 92.500 C 139.467 93.215,138.267 94.250,137.548 94.800 C 135.054 96.708,127.200 105.015,127.200 105.745 C 127.200 106.013,126.480 107.028,125.600 108.000 C 123.561 110.253,123.231 114.550,125.126 114.180 C 125.497 114.107,126.297 113.944,126.903 113.816 C 127.689 113.650,128.665 112.692,130.291 110.492 C 132.718 107.207,141.523 98.148,144.200 96.180 C 145.080 95.534,145.890 94.905,146.000 94.783 C 146.110 94.661,146.830 94.129,147.600 93.600 C 148.370 93.071,149.090 92.518,149.200 92.371 C 150.828 90.191,165.151 83.022,172.770 80.574 C 177.323 79.111,178.009 78.915,180.400 78.403 C 181.610 78.143,183.230 77.773,184.000 77.580 C 190.616 75.926,208.983 75.947,216.281 77.618 C 222.936 79.142,225.079 79.689,225.695 80.023 C 226.077 80.230,226.741 80.400,227.171 80.400 C 227.601 80.400,228.064 80.580,228.200 80.800 C 228.336 81.020,228.851 81.200,229.344 81.200 C 229.837 81.200,230.411 81.352,230.620 81.538 C 230.829 81.723,232.080 82.302,233.400 82.823 C 245.243 87.500,257.094 96.073,266.821 107.000 C 271.864 112.665,278.302 122.992,280.848 129.500 C 281.042 129.995,281.356 130.805,281.546 131.300 C 281.737 131.795,282.073 132.650,282.293 133.200 C 282.513 133.750,282.872 134.650,283.091 135.200 C 283.792 136.962,284.400 139.039,284.400 139.674 C 284.400 141.637,286.278 142.398,290.548 142.166 C 294.494 141.951,301.437 142.380,306.903 143.176 C 314.418 144.271,326.814 148.937,332.672 152.876 C 333.592 153.494,334.454 154.000,334.588 154.000 C 334.810 154.000,336.386 155.059,337.976 156.278 C 338.319 156.540,339.687 157.562,341.017 158.549 C 343.881 160.675,350.689 167.294,353.206 170.400 C 354.187 171.610,355.104 172.690,355.244 172.800 C 355.549 173.039,359.661 179.400,361.026 181.744 C 362.413 184.125,364.307 188.095,366.014 192.200 C 366.197 192.640,366.576 193.720,366.855 194.600 C 367.135 195.480,367.507 196.371,367.682 196.580 C 367.857 196.789,368.000 197.453,368.000 198.056 C 368.000 198.659,368.160 199.252,368.356 199.373 C 368.551 199.494,368.812 200.179,368.934 200.896 C 369.056 201.613,369.347 203.100,369.582 204.200 C 371.545 213.419,371.554 227.278,369.602 236.200 C 369.361 237.300,369.070 238.740,368.955 239.400 C 368.840 240.060,368.598 240.960,368.418 241.400 C 368.238 241.840,367.859 243.010,367.576 244.000 C 367.293 244.990,366.912 245.971,366.730 246.180 C 366.549 246.389,366.400 246.886,366.400 247.285 C 366.400 247.684,366.231 248.323,366.025 248.705 C 365.818 249.087,364.520 251.740,363.140 254.600 C 355.244 270.966,338.964 286.672,324.200 292.168 C 323.100 292.577,322.020 293.035,321.800 293.184 C 321.580 293.334,320.590 293.700,319.600 293.998 C 318.610 294.295,317.629 294.688,317.420 294.870 C 317.211 295.051,316.637 295.200,316.144 295.200 C 315.651 295.200,315.148 295.360,315.027 295.556 C 314.906 295.751,314.221 296.013,313.504 296.137 C 312.787 296.261,311.570 296.473,310.800 296.608 C 310.030 296.744,309.040 297.012,308.600 297.205 C 306.298 298.212,296.690 298.742,280.189 298.772 C 262.831 298.804,264.166 298.528,261.804 302.568 C 255.402 313.514,238.542 323.600,226.647 323.600 C 225.158 323.600,224.749 324.123,223.676 327.400 C 217.727 345.565,202.734 361.464,185.700 367.672 C 185.205 367.852,184.395 368.162,183.900 368.359 C 181.217 369.431,176.000 370.670,170.354 371.575 C 154.355 374.142,134.154 368.100,121.000 356.814 C 119.352 355.400,118.349 354.813,117.800 354.940 C 117.360 355.042,115.920 355.395,114.600 355.724 C 108.558 357.229,100.507 357.684,95.931 356.779 C 88.341 355.278,85.809 354.459,80.800 351.884 C 58.735 340.544,48.805 316.270,56.440 292.337 C 57.936 287.647,57.998 287.864,54.328 284.968 C 42.934 275.979,33.968 262.305,30.874 249.200 C 30.640 248.210,30.341 246.950,30.208 246.400 C 24.810 224.046,34.001 197.453,52.385 182.231 C 60.135 175.813,70.417 170.503,78.400 168.796 C 79.170 168.631,81.240 168.168,83.000 167.767 C 86.866 166.886,102.046 166.693,105.400 167.481 C 111.828 168.993,111.788 169.035,112.155 160.560 C 112.307 157.062,112.611 153.120,112.832 151.800 C 113.866 145.611,115.092 140.621,116.823 135.553 C 118.201 131.518,118.222 131.254,117.300 129.635 C 116.173 127.655,112.800 128.271,112.800 130.456 C 112.800 130.783,112.440 131.795,112.000 132.706 C 111.560 133.616,111.200 134.719,111.200 135.157 C 111.200 135.595,111.034 136.055,110.831 136.181 C 110.629 136.306,110.338 137.577,110.185 139.004 C 110.032 140.432,109.748 141.600,109.553 141.600 C 109.359 141.600,109.200 142.309,109.200 143.176 C 109.200 144.043,109.020 144.864,108.800 145.000 C 108.580 145.136,108.400 146.227,108.400 147.424 C 108.400 148.621,108.220 149.600,108.000 149.600 C 107.767 149.600,107.600 150.933,107.600 152.800 C 107.600 154.667,107.433 156.000,107.200 156.000 C 106.968 156.000,106.800 157.278,106.800 159.034 L 106.800 162.068 104.100 161.811 C 98.683 161.296,88.690 161.150,88.260 161.580 C 88.029 161.811,86.627 162.000,85.144 162.000 C 83.661 162.000,82.336 162.180,82.200 162.400 C 82.064 162.620,81.164 162.800,80.200 162.800 C 79.236 162.800,78.336 162.980,78.200 163.200 C 78.064 163.420,77.434 163.600,76.800 163.600 C 76.166 163.600,75.536 163.780,75.400 164.000 C 75.264 164.220,74.634 164.400,74.000 164.400 C 73.366 164.400,72.736 164.580,72.600 164.800 C 72.464 165.020,71.924 165.200,71.400 165.200 C 70.876 165.200,70.336 165.380,70.200 165.600 C 70.064 165.820,69.603 166.000,69.176 166.000 C 68.749 166.000,68.400 166.180,68.400 166.400 C 68.400 166.620,67.961 166.800,67.424 166.800 C 66.887 166.800,66.336 166.980,66.200 167.200 C 66.064 167.420,65.603 167.600,65.176 167.600 C 64.749 167.600,64.400 167.780,64.400 168.000 C 64.400 168.220,64.040 168.400,63.600 168.400 C 63.160 168.400,62.800 168.546,62.800 168.725 C 62.800 168.904,62.170 169.298,61.400 169.600 C 60.630 169.902,60.000 170.296,60.000 170.475 C 60.000 170.654,59.680 170.800,59.288 170.800 C 58.897 170.800,58.317 171.160,58.000 171.600 C 57.683 172.040,57.143 172.400,56.800 172.400 C 56.457 172.400,55.917 172.760,55.600 173.200 C 55.283 173.640,54.743 174.000,54.400 174.000 C 54.057 174.000,53.517 174.360,53.200 174.800 C 52.883 175.240,52.438 175.600,52.212 175.600 C 51.985 175.601,51.260 176.050,50.600 176.598 C 49.940 177.146,48.789 178.091,48.043 178.698 C 45.894 180.443,41.200 185.221,41.200 185.662 C 41.200 185.882,40.480 186.754,39.600 187.600 C 38.720 188.446,38.000 189.305,38.000 189.509 C 38.000 189.714,37.460 190.446,36.800 191.137 C 36.140 191.828,35.600 192.582,35.600 192.813 C 35.600 193.044,35.269 193.589,34.864 194.023 C 34.459 194.458,33.874 195.305,33.565 195.907 C 33.255 196.508,32.906 197.090,32.791 197.200 C 32.319 197.647,29.200 204.103,29.200 204.631 C 29.200 204.944,29.060 205.200,28.889 205.200 C 28.549 205.200,27.200 209.432,27.200 210.496 C 27.200 210.857,27.020 211.264,26.800 211.400 C 26.580 211.536,26.400 212.267,26.400 213.024 C 26.400 213.781,26.220 214.400,26.000 214.400 C 25.780 214.400,25.600 215.120,25.600 216.000 C 25.600 216.880,25.420 217.600,25.200 217.600 C 24.980 217.600,24.800 218.489,24.800 219.576 C 24.800 220.663,24.620 221.664,24.400 221.800 C 23.854 222.138,23.854 243.200,24.400 243.200 C 24.622 243.200,24.800 244.267,24.800 245.600 C 24.800 246.933,24.978 248.000,25.200 248.000 C 25.420 248.000,25.600 248.720,25.600 249.600 C 25.600 250.480,25.780 251.200,26.000 251.200 C 26.220 251.200,26.400 251.819,26.400 252.576 C 26.400 253.333,26.556 254.049,26.747 254.168 C 26.939 254.286,27.212 255.114,27.355 256.009 C 27.498 256.903,27.792 257.987,28.008 258.417 C 28.223 258.848,28.580 259.558,28.800 259.995 C 29.020 260.432,29.200 261.062,29.200 261.395 C 29.200 261.728,29.380 262.000,29.600 262.000 C 29.820 262.000,30.000 262.360,30.000 262.800 C 30.000 263.240,30.180 263.600,30.400 263.600 C 30.620 263.600,30.800 263.834,30.800 264.120 C 30.800 264.856,31.741 266.793,32.100 266.797 C 32.265 266.799,32.400 267.160,32.400 267.600 C 32.400 268.040,32.580 268.400,32.800 268.400 C 33.020 268.400,33.200 268.720,33.200 269.112 C 33.200 269.503,33.560 270.083,34.000 270.400 C 34.440 270.717,34.800 271.205,34.800 271.484 C 34.800 272.010,35.552 273.057,37.100 274.688 C 37.595 275.210,38.000 275.820,38.000 276.044 C 38.000 276.268,38.900 277.329,40.000 278.400 C 41.100 279.471,42.000 280.516,42.000 280.720 C 42.000 281.121,46.182 285.600,46.556 285.600 C 48.273 285.600,52.028 291.441,50.800 292.200 C 50.580 292.336,50.400 293.067,50.400 293.824 C 50.400 294.581,50.220 295.200,50.000 295.200 C 49.780 295.200,49.600 295.999,49.600 296.976 C 49.600 297.953,49.420 298.864,49.200 299.000 C 48.655 299.337,48.655 317.600,49.200 317.600 C 49.420 317.600,49.600 318.399,49.600 319.376 C 49.600 320.353,49.780 321.264,50.000 321.400 C 50.220 321.536,50.400 322.267,50.400 323.024 C 50.400 323.781,50.580 324.400,50.800 324.400 C 51.020 324.400,51.200 324.940,51.200 325.600 C 51.200 326.260,51.380 326.800,51.600 326.800 C 51.820 326.800,52.000 327.160,52.000 327.600 C 52.000 328.040,52.180 328.400,52.400 328.400 C 52.620 328.400,52.800 328.940,52.800 329.600 C 52.800 330.260,52.980 330.800,53.200 330.800 C 53.420 330.800,53.600 331.160,53.600 331.600 C 53.600 332.040,53.780 332.400,54.000 332.400 C 54.220 332.400,54.400 332.760,54.400 333.200 C 54.400 333.640,54.580 334.000,54.800 334.000 C 55.020 334.000,55.200 334.320,55.200 334.712 C 55.200 335.103,55.560 335.683,56.000 336.000 C 56.440 336.317,56.800 336.897,56.800 337.288 C 56.800 337.680,56.950 338.000,57.132 338.000 C 57.315 338.000,57.719 338.495,58.030 339.100 C 58.340 339.705,58.911 340.491,59.297 340.847 C 59.684 341.203,60.000 341.676,60.000 341.899 C 60.000 342.409,67.814 350.400,68.313 350.400 C 68.516 350.400,69.206 350.895,69.848 351.500 C 70.489 352.105,71.506 352.855,72.107 353.168 C 72.708 353.480,73.200 353.885,73.200 354.068 C 73.200 354.250,73.560 354.400,74.000 354.400 C 74.440 354.400,74.800 354.554,74.800 354.742 C 74.800 355.218,81.115 358.341,82.700 358.648 C 83.415 358.787,84.000 359.058,84.000 359.250 C 84.000 359.443,84.540 359.600,85.200 359.600 C 85.860 359.600,86.400 359.780,86.400 360.000 C 86.400 360.220,87.120 360.400,88.000 360.400 C 88.880 360.400,89.600 360.580,89.600 360.800 C 89.600 361.020,90.500 361.200,91.600 361.200 C 92.700 361.200,93.600 361.380,93.600 361.600 C 93.600 361.855,96.933 362.000,102.800 362.000 C 108.667 362.000,112.000 361.855,112.000 361.600 C 112.000 361.380,112.900 361.200,114.000 361.200 C 115.100 361.200,116.000 361.020,116.000 360.800 C 116.000 359.937,117.277 360.475,118.848 362.000 C 119.755 362.880,120.705 363.600,120.960 363.600 C 121.215 363.600,121.683 363.960,122.000 364.400 C 122.317 364.840,122.857 365.200,123.200 365.200 C 123.543 365.200,124.083 365.560,124.400 366.000 C 124.717 366.440,125.231 366.800,125.541 366.800 C 125.852 366.800,126.397 367.118,126.753 367.507 C 127.109 367.896,128.300 368.661,129.400 369.207 C 130.500 369.753,131.460 370.335,131.533 370.500 C 131.607 370.665,131.888 370.800,132.158 370.800 C 132.429 370.800,133.395 371.160,134.306 371.600 C 135.216 372.040,136.229 372.400,136.557 372.400 C 136.885 372.400,137.264 372.580,137.400 372.800 C 137.536 373.020,138.087 373.200,138.624 373.200 C 139.161 373.200,139.600 373.380,139.600 373.600 C 139.600 373.820,140.140 374.000,140.800 374.000 C 141.460 374.000,142.000 374.166,142.000 374.368 C 142.000 374.571,143.173 374.862,144.606 375.015 C 146.039 375.169,147.309 375.453,147.429 375.647 C 147.549 375.841,148.627 376.000,149.824 376.000 C 151.021 376.000,152.000 376.180,152.000 376.400 C 152.000 376.656,155.733 376.800,162.400 376.800 C 169.067 376.800,172.800 376.656,172.800 376.400 C 172.800 376.180,173.689 376.000,174.776 376.000 C 175.863 376.000,176.848 375.847,176.964 375.659 C 177.079 375.472,178.382 375.205,179.859 375.067 C 181.335 374.930,182.727 374.633,182.952 374.408 C 183.176 374.184,183.738 374.000,184.200 374.000 C 184.662 374.000,185.211 373.851,185.420 373.670 C 185.629 373.488,186.610 373.091,187.600 372.788 C 188.590 372.485,189.990 371.914,190.712 371.519 C 191.434 371.123,192.289 370.800,192.612 370.800 C 192.935 370.800,193.200 370.620,193.200 370.400 C 193.200 370.180,193.560 370.000,194.000 370.000 C 194.440 370.000,194.800 369.820,194.800 369.600 C 194.800 369.380,195.036 369.200,195.325 369.200 C 195.613 369.200,196.236 368.840,196.708 368.400 C 197.180 367.960,197.844 367.600,198.183 367.600 C 198.522 367.600,198.800 367.420,198.800 367.200 C 198.800 366.980,199.120 366.800,199.512 366.800 C 199.903 366.800,200.483 366.440,200.800 366.000 C 201.117 365.560,201.573 365.200,201.813 365.200 C 202.053 365.200,202.598 364.880,203.025 364.489 C 203.451 364.098,204.423 363.339,205.184 362.802 C 208.101 360.744,217.600 351.297,217.600 350.453 C 217.600 350.269,218.140 349.554,218.800 348.863 C 219.460 348.172,220.000 347.336,220.000 347.004 C 220.000 346.672,220.150 346.400,220.332 346.400 C 220.515 346.400,220.920 345.905,221.232 345.300 C 221.544 344.695,221.904 344.110,222.033 344.000 C 222.552 343.556,225.200 338.384,225.200 337.813 C 225.200 337.476,225.380 337.200,225.600 337.200 C 225.820 337.200,226.000 336.750,226.000 336.200 C 226.000 335.650,226.180 335.200,226.400 335.200 C 226.620 335.200,226.800 334.750,226.800 334.200 C 226.800 333.650,226.980 333.200,227.200 333.200 C 227.420 333.200,227.600 332.660,227.600 332.000 C 227.600 331.340,227.780 330.800,228.000 330.800 C 228.220 330.800,228.400 330.260,228.400 329.600 C 228.400 328.427,228.444 328.400,230.400 328.400 C 231.500 328.400,232.400 328.220,232.400 328.000 C 232.400 327.780,233.300 327.600,234.400 327.600 C 235.500 327.600,236.400 327.420,236.400 327.200 C 236.400 326.980,236.929 326.800,237.576 326.800 C 238.223 326.800,238.864 326.620,239.000 326.400 C 239.136 326.180,239.676 326.000,240.200 326.000 C 240.724 326.000,241.254 325.836,241.378 325.635 C 241.503 325.434,242.323 325.148,243.202 325.000 C 244.081 324.851,244.800 324.566,244.800 324.365 C 244.800 324.164,245.160 324.000,245.600 324.000 C 246.040 324.000,246.400 323.820,246.400 323.600 C 246.400 323.380,246.760 323.200,247.200 323.200 C 247.640 323.200,248.000 323.020,248.000 322.800 C 248.000 322.580,248.360 322.400,248.800 322.400 C 249.240 322.400,249.600 322.220,249.600 322.000 C 249.600 321.780,249.836 321.600,250.125 321.600 C 250.413 321.600,251.006 321.267,251.443 320.861 C 251.879 320.454,252.426 320.049,252.657 319.961 C 253.932 319.474,262.000 311.993,262.000 311.297 C 262.000 311.110,262.585 310.308,263.300 309.515 C 265.436 307.146,266.000 306.412,266.000 305.995 C 266.000 305.778,266.180 305.600,266.400 305.600 C 266.620 305.600,266.800 305.334,266.800 305.009 C 266.800 304.500,269.043 304.393,282.900 304.238 C 299.656 304.052,305.137 303.796,305.780 303.170 C 305.989 302.966,307.114 302.800,308.280 302.800 C 309.446 302.800,310.400 302.620,310.400 302.400 C 310.400 302.180,311.120 302.000,312.000 302.000 C 312.880 302.000,313.600 301.820,313.600 301.600 C 313.600 301.380,314.219 301.200,314.976 301.200 C 315.733 301.200,316.464 301.020,316.600 300.800 C 316.736 300.580,317.377 300.400,318.024 300.400 C 318.671 300.400,319.200 300.220,319.200 300.000 C 319.200 299.780,319.562 299.600,320.005 299.600 C 320.783 299.600,321.169 299.458,323.095 298.462 C 323.587 298.208,324.262 298.000,324.595 298.000 C 324.928 298.000,325.200 297.820,325.200 297.600 C 325.200 297.380,325.560 297.200,326.000 297.200 C 326.440 297.200,326.800 297.020,326.800 296.800 C 326.800 296.580,327.160 296.400,327.600 296.400 C 328.040 296.400,328.400 296.220,328.400 296.000 C 328.400 295.780,328.816 295.600,329.325 295.600 C 329.833 295.600,330.636 295.240,331.108 294.800 C 331.580 294.360,332.244 294.000,332.583 294.000 C 332.922 294.000,333.200 293.820,333.200 293.600 C 333.200 293.380,333.560 293.200,334.000 293.200 C 334.440 293.200,334.800 293.020,334.800 292.800 C 334.800 292.580,335.160 292.400,335.600 292.400 C 336.040 292.400,336.400 292.223,336.400 292.008 C 336.400 291.792,336.837 291.506,337.371 291.372 C 337.904 291.238,338.652 290.784,339.033 290.364 C 339.413 289.944,339.956 289.600,340.239 289.600 C 340.523 289.600,340.990 289.269,341.277 288.863 C 341.565 288.458,342.250 287.888,342.800 287.597 C 343.350 287.305,344.277 286.557,344.860 285.933 C 345.444 285.310,346.106 284.800,346.333 284.800 C 346.866 284.800,355.322 276.386,357.393 273.794 C 358.269 272.697,359.124 271.740,359.293 271.667 C 359.462 271.593,359.600 271.278,359.600 270.967 C 359.600 270.655,359.780 270.400,360.000 270.400 C 360.220 270.400,360.400 270.170,360.400 269.888 C 360.400 269.607,360.760 269.117,361.200 268.800 C 361.640 268.483,362.000 267.943,362.000 267.600 C 362.000 267.257,362.360 266.717,362.800 266.400 C 363.240 266.083,363.600 265.503,363.600 265.112 C 363.600 264.720,363.780 264.400,364.000 264.400 C 364.220 264.400,364.400 264.164,364.400 263.875 C 364.400 263.587,364.760 262.964,365.200 262.492 C 365.640 262.020,366.000 261.356,366.000 261.017 C 366.000 260.678,366.180 260.400,366.400 260.400 C 366.620 260.400,366.800 260.055,366.800 259.633 C 366.800 259.212,366.936 258.807,367.102 258.733 C 367.390 258.606,369.658 254.106,370.496 252.000 C 370.714 251.450,371.052 250.687,371.247 250.305 C 371.441 249.923,371.600 249.248,371.600 248.805 C 371.600 248.362,371.780 248.000,372.000 248.000 C 372.220 248.000,372.400 247.460,372.400 246.800 C 372.400 246.140,372.580 245.600,372.800 245.600 C 373.020 245.600,373.200 245.071,373.200 244.424 C 373.200 243.777,373.380 243.136,373.600 243.000 C 373.820 242.864,374.000 242.169,374.000 241.456 C 374.000 240.743,374.183 239.977,374.406 239.754 C 374.629 239.531,374.926 237.605,375.066 235.474 C 375.206 233.343,375.474 231.600,375.660 231.600 C 376.105 231.600,376.104 209.312,375.660 209.037 C 375.473 208.921,375.196 207.068,375.045 204.919 C 374.894 202.769,374.597 200.837,374.385 200.625 C 374.173 200.413,374.000 199.884,374.000 199.448 C 374.000 198.596,373.320 196.233,372.751 195.105 C 372.558 194.723,372.400 194.048,372.400 193.605 C 372.400 193.162,372.220 192.800,372.000 192.800 C 371.780 192.800,371.600 192.260,371.600 191.600 C 371.600 190.940,371.453 190.400,371.272 190.400 C 371.092 190.400,370.700 189.500,370.400 188.400 C 370.100 187.300,369.708 186.400,369.528 186.400 C 369.347 186.400,369.200 186.040,369.200 185.600 C 369.200 185.160,369.020 184.800,368.800 184.800 C 368.580 184.800,368.400 184.440,368.400 184.000 C 368.400 183.560,368.220 183.200,368.000 183.200 C 367.780 183.200,367.600 182.840,367.600 182.400 C 367.600 181.960,367.420 181.600,367.200 181.600 C 366.980 181.600,366.800 181.240,366.800 180.800 C 366.800 180.360,366.664 180.000,366.498 180.000 C 366.331 180.000,365.940 179.415,365.628 178.700 C 365.316 177.985,364.732 177.109,364.330 176.753 C 363.929 176.397,363.600 175.852,363.600 175.541 C 363.600 175.231,363.240 174.717,362.800 174.400 C 362.360 174.083,362.000 173.543,362.000 173.200 C 362.000 172.857,361.640 172.317,361.200 172.000 C 360.760 171.683,360.400 171.185,360.400 170.894 C 360.400 170.602,359.995 169.947,359.500 169.437 C 359.005 168.927,358.330 168.112,358.000 167.624 C 356.864 165.946,355.395 164.266,353.289 162.235 C 352.128 161.116,350.196 159.255,348.997 158.100 C 347.798 156.945,346.633 156.000,346.409 156.000 C 346.184 156.000,346.000 155.820,346.000 155.600 C 346.000 155.380,345.802 155.200,345.560 155.200 C 345.319 155.200,344.617 154.660,344.000 154.000 C 343.383 153.340,342.635 152.800,342.336 152.800 C 342.037 152.800,341.568 152.440,341.293 152.000 C 341.018 151.560,340.525 151.200,340.197 151.200 C 339.868 151.200,339.600 151.050,339.600 150.868 C 339.600 150.685,339.105 150.280,338.500 149.968 C 337.895 149.655,337.051 149.085,336.625 148.700 C 336.198 148.315,335.613 148.000,335.325 148.000 C 335.036 148.000,334.800 147.820,334.800 147.600 C 334.800 147.380,334.440 147.200,334.000 147.200 C 333.560 147.200,333.200 147.020,333.200 146.800 C 333.200 146.580,332.840 146.400,332.400 146.400 C 331.960 146.400,331.600 146.220,331.600 146.000 C 331.600 145.780,331.240 145.600,330.800 145.600 C 330.360 145.600,330.000 145.464,330.000 145.298 C 330.000 144.904,328.143 144.089,326.497 143.759 C 325.784 143.617,325.200 143.343,325.200 143.150 C 325.200 142.958,324.750 142.800,324.200 142.800 C 323.650 142.800,323.200 142.620,323.200 142.400 C 323.200 142.180,322.851 142.000,322.424 142.000 C 321.997 142.000,321.536 141.820,321.400 141.600 C 321.264 141.380,320.713 141.200,320.176 141.200 C 319.639 141.200,319.200 141.020,319.200 140.800 C 319.200 140.580,318.570 140.400,317.800 140.400 C 317.030 140.400,316.400 140.220,316.400 140.000 C 316.400 139.780,315.770 139.600,315.000 139.600 C 314.230 139.600,313.600 139.420,313.600 139.200 C 313.600 138.980,312.891 138.800,312.024 138.800 C 311.157 138.800,310.336 138.620,310.200 138.400 C 310.064 138.180,309.074 138.000,308.000 138.000 C 306.926 138.000,305.936 137.820,305.800 137.600 C 305.663 137.379,303.863 137.200,301.776 137.200 C 299.611 137.200,298.000 137.035,298.000 136.813 C 298.000 136.594,296.054 136.377,293.500 136.313 C 289.038 136.201,288.999 136.192,288.866 135.200 C 288.793 134.650,288.568 134.029,288.366 133.820 C 288.165 133.611,288.000 133.026,288.000 132.520 C 288.000 132.014,287.820 131.600,287.600 131.600 C 287.380 131.600,287.200 131.161,287.200 130.624 C 287.200 130.087,287.020 129.536,286.800 129.400 C 286.580 129.264,286.400 128.803,286.400 128.376 C 286.400 127.949,286.220 127.600,286.000 127.600 C 285.780 127.600,285.600 127.150,285.600 126.600 C 285.600 126.050,285.420 125.600,285.200 125.600 C 284.980 125.600,284.800 125.240,284.800 124.800 C 284.800 124.360,284.620 124.000,284.400 124.000 C 284.180 124.000,284.000 123.640,284.000 123.200 C 284.000 122.760,283.820 122.400,283.600 122.400 C 283.380 122.400,283.200 122.040,283.200 121.600 C 283.200 121.160,283.020 120.800,282.800 120.800 C 282.580 120.800,282.400 120.440,282.400 120.000 C 282.400 119.560,282.220 119.200,282.000 119.200 C 281.780 119.200,281.600 118.964,281.600 118.675 C 281.600 118.387,281.240 117.764,280.800 117.292 C 280.360 116.820,280.000 116.156,280.000 115.817 C 280.000 115.478,279.820 115.200,279.600 115.200 C 279.380 115.200,279.200 114.930,279.200 114.600 C 279.200 114.270,279.020 114.000,278.800 114.000 C 278.580 114.000,278.400 113.730,278.400 113.400 C 278.400 113.070,278.220 112.800,278.000 112.800 C 277.780 112.800,277.600 112.530,277.600 112.200 C 277.600 111.870,277.420 111.600,277.200 111.600 C 276.980 111.600,276.800 111.330,276.800 111.000 C 276.800 110.670,276.659 110.400,276.486 110.400 C 276.314 110.400,275.829 109.815,275.409 109.100 C 274.989 108.385,274.397 107.550,274.095 107.244 C 273.792 106.938,273.242 106.222,272.872 105.653 C 271.643 103.761,264.801 96.652,262.427 94.800 C 261.722 94.250,260.533 93.215,259.786 92.500 C 259.038 91.785,258.329 91.200,258.210 91.200 C 258.090 91.200,257.428 90.660,256.737 90.000 C 256.046 89.340,255.278 88.800,255.029 88.800 C 254.780 88.800,254.317 88.440,254.000 88.000 C 253.683 87.560,253.227 87.200,252.987 87.200 C 252.747 87.200,252.202 86.885,251.775 86.500 C 251.349 86.115,250.505 85.545,249.900 85.232 C 249.295 84.920,248.800 84.515,248.800 84.332 C 248.800 84.150,248.440 84.000,248.000 84.000 C 247.560 84.000,247.200 83.820,247.200 83.600 C 247.200 83.380,246.840 83.200,246.400 83.200 C 245.960 83.200,245.600 83.042,245.600 82.848 C 245.600 82.655,243.935 81.680,241.900 80.682 C 236.186 77.880,234.529 77.200,233.422 77.200 C 232.860 77.200,232.400 77.020,232.400 76.800 C 232.400 76.580,231.860 76.400,231.200 76.400 C 230.540 76.400,230.000 76.220,230.000 76.000 C 230.000 75.780,229.460 75.600,228.800 75.600 C 228.140 75.600,227.600 75.420,227.600 75.200 C 227.600 74.980,227.060 74.800,226.400 74.800 C 225.740 74.800,225.200 74.620,225.200 74.400 C 225.200 74.180,224.570 74.000,223.800 74.000 C 223.030 74.000,222.400 73.820,222.400 73.600 C 222.400 73.380,221.590 73.200,220.600 73.200 C 219.610 73.200,218.800 73.020,218.800 72.800 C 218.800 72.580,217.821 72.400,216.624 72.400 C 215.427 72.400,214.336 72.220,214.200 72.000 C 214.064 71.780,212.433 71.600,210.576 71.600 C 208.592 71.600,207.200 71.435,207.200 71.200 C 207.200 70.949,204.608 70.800,200.224 70.800 C 196.004 70.800,193.150 70.958,193.000 71.200 M42.400 75.391 C 42.400 76.031,47.291 81.209,48.600 81.955 C 49.354 82.385,49.297 82.495,47.600 83.886 C 46.610 84.697,44.703 86.473,43.362 87.831 C 41.021 90.201,39.600 90.693,39.600 89.131 C 39.600 88.539,35.803 83.914,34.810 83.297 C 33.585 82.535,33.816 81.905,35.900 80.315 C 37.892 78.795,39.089 77.552,40.217 75.831 C 40.945 74.719,42.400 74.426,42.400 75.391 M309.493 96.037 C 307.067 97.252,304.190 99.857,303.232 101.705 C 302.920 102.307,302.515 102.800,302.332 102.800 C 302.150 102.800,302.000 103.340,302.000 104.000 C 302.000 104.660,301.820 105.200,301.600 105.200 C 301.355 105.200,301.200 107.133,301.200 110.200 C 301.200 113.267,301.355 115.200,301.600 115.200 C 301.820 115.200,302.004 115.605,302.009 116.100 C 302.014 116.595,302.370 117.450,302.800 118.000 C 303.230 118.550,303.586 119.153,303.591 119.340 C 303.610 120.057,307.432 123.255,309.451 124.242 C 312.402 125.686,321.768 125.594,323.862 124.100 C 324.556 123.605,325.235 123.200,325.372 123.200 C 325.830 123.200,328.993 119.804,329.568 118.695 C 329.880 118.093,330.285 117.600,330.468 117.600 C 330.650 117.600,330.800 117.060,330.800 116.400 C 330.800 115.740,330.980 115.200,331.200 115.200 C 331.445 115.200,331.600 113.267,331.600 110.200 C 331.600 107.133,331.445 105.200,331.200 105.200 C 330.980 105.200,330.800 104.660,330.800 104.000 C 330.800 103.340,330.650 102.800,330.468 102.800 C 330.285 102.800,329.880 102.305,329.568 101.700 C 328.717 100.051,325.371 96.911,323.686 96.178 C 322.869 95.823,321.887 95.368,321.505 95.166 C 319.767 94.249,311.927 94.818,309.493 96.037 M320.578 100.832 C 325.774 103.274,328.087 109.075,325.864 114.089 C 321.334 124.304,306.362 121.339,306.280 110.210 C 306.226 102.820,313.983 97.732,320.578 100.832 M63.600 107.200 C 63.600 107.420,63.150 107.600,62.600 107.600 C 62.050 107.600,61.600 107.780,61.600 108.000 C 61.600 108.220,61.322 108.400,60.982 108.400 C 60.642 108.400,59.939 108.805,59.419 109.300 C 58.900 109.795,58.130 110.470,57.708 110.800 C 56.524 111.727,54.400 115.048,54.400 115.972 C 54.400 116.427,54.220 116.800,54.000 116.800 C 53.755 116.800,53.600 118.733,53.600 121.800 C 53.600 124.867,53.755 126.800,54.000 126.800 C 54.220 126.800,54.400 127.340,54.400 128.000 C 54.400 128.660,54.580 129.200,54.800 129.200 C 55.020 129.200,55.200 129.460,55.200 129.778 C 55.200 130.530,60.270 135.600,61.022 135.600 C 61.340 135.600,61.600 135.780,61.600 136.000 C 61.600 136.220,62.050 136.400,62.600 136.400 C 63.150 136.400,63.600 136.580,63.600 136.800 C 63.600 137.045,65.525 137.200,68.576 137.200 C 71.463 137.200,73.657 137.032,73.800 136.800 C 73.936 136.580,74.487 136.400,75.024 136.400 C 75.561 136.400,76.000 136.250,76.000 136.068 C 76.000 135.885,76.493 135.480,77.095 135.168 C 78.505 134.437,81.237 131.705,81.968 130.295 C 82.280 129.693,82.685 129.200,82.868 129.200 C 83.050 129.200,83.200 128.660,83.200 128.000 C 83.200 127.340,83.380 126.800,83.600 126.800 C 83.845 126.800,84.000 124.867,84.000 121.800 C 84.000 118.733,83.845 116.800,83.600 116.800 C 83.380 116.800,83.200 116.427,83.200 115.972 C 83.200 115.062,81.092 111.749,79.910 110.800 C 79.499 110.470,78.676 109.795,78.081 109.300 C 77.486 108.806,76.775 108.401,76.500 108.400 C 76.225 108.400,76.000 108.220,76.000 108.000 C 76.000 107.780,75.550 107.600,75.000 107.600 C 74.450 107.600,74.000 107.420,74.000 107.200 C 74.000 106.954,72.000 106.800,68.800 106.800 C 65.600 106.800,63.600 106.954,63.600 107.200 M72.888 112.569 C 82.936 117.178,79.922 131.952,68.926 131.991 C 59.231 132.026,54.780 120.538,62.044 114.228 C 65.242 111.449,69.146 110.852,72.888 112.569 M278.400 326.800 C 278.400 327.020,278.031 327.200,277.580 327.200 C 275.971 327.200,270.826 331.057,270.791 332.289 C 270.786 332.460,270.430 333.050,270.000 333.600 C 269.570 334.150,269.214 335.005,269.209 335.500 C 269.204 335.995,269.020 336.400,268.800 336.400 C 268.555 336.400,268.400 338.333,268.400 341.400 C 268.400 344.467,268.555 346.400,268.800 346.400 C 269.020 346.400,269.200 346.940,269.200 347.600 C 269.200 348.260,269.380 348.800,269.600 348.800 C 269.820 348.800,270.000 349.070,270.000 349.400 C 270.000 349.730,270.180 350.000,270.400 350.000 C 270.620 350.000,270.800 350.185,270.800 350.411 C 270.800 350.636,271.577 351.581,272.527 352.511 C 274.161 354.109,274.930 354.665,276.800 355.600 C 277.240 355.820,277.958 356.180,278.395 356.400 C 279.358 356.885,287.731 356.936,288.705 356.462 C 289.902 355.881,291.167 355.219,292.073 354.700 C 293.374 353.955,296.120 351.144,296.768 349.895 C 297.080 349.293,297.485 348.800,297.668 348.800 C 297.850 348.800,298.000 348.260,298.000 347.600 C 298.000 346.940,298.180 346.400,298.400 346.400 C 298.645 346.400,298.800 344.467,298.800 341.400 C 298.800 338.333,298.645 336.400,298.400 336.400 C 298.180 336.400,298.000 335.860,298.000 335.200 C 298.000 334.540,297.850 334.000,297.668 334.000 C 297.485 334.000,297.080 333.507,296.768 332.905 C 295.454 330.370,291.482 327.200,289.620 327.200 C 289.169 327.200,288.800 327.020,288.800 326.800 C 288.800 326.554,286.800 326.400,283.600 326.400 C 280.400 326.400,278.400 326.554,278.400 326.800 M287.378 331.817 C 292.162 333.815,294.912 339.332,293.527 344.154 C 290.806 353.634,277.468 354.177,274.015 344.948 C 270.960 336.783,279.405 328.485,287.378 331.817 M32.800 343.843 C 29.901 344.894,25.600 348.339,25.600 349.611 C 25.600 349.825,25.420 350.000,25.200 350.000 C 24.980 350.000,24.800 350.270,24.800 350.600 C 24.800 350.930,24.620 351.200,24.400 351.200 C 24.180 351.200,24.000 351.740,24.000 352.400 C 24.000 353.060,23.820 353.600,23.600 353.600 C 23.355 353.600,23.200 355.533,23.200 358.600 C 23.200 361.667,23.355 363.600,23.600 363.600 C 23.820 363.600,24.000 364.140,24.000 364.800 C 24.000 365.460,24.180 366.000,24.400 366.000 C 24.620 366.000,24.800 366.252,24.800 366.559 C 24.800 367.487,29.287 371.845,31.000 372.580 C 31.880 372.958,32.913 373.432,33.295 373.634 C 34.254 374.140,43.200 374.109,43.200 373.600 C 43.200 373.380,43.490 373.200,43.846 373.200 C 45.373 373.200,51.176 368.874,51.209 367.711 C 51.214 367.540,51.570 366.950,52.000 366.400 C 52.430 365.850,52.786 364.995,52.791 364.500 C 52.796 364.005,52.980 363.600,53.200 363.600 C 53.445 363.600,53.600 361.667,53.600 358.600 C 53.600 355.533,53.445 353.600,53.200 353.600 C 52.980 353.600,52.796 353.195,52.791 352.700 C 52.786 352.205,52.430 351.350,52.000 350.800 C 51.570 350.250,51.214 349.651,51.209 349.469 C 51.193 348.879,47.975 346.019,46.061 344.894 C 44.233 343.820,34.904 343.080,32.800 343.843 M356.800 346.800 C 356.800 347.020,356.395 347.204,355.900 347.209 C 355.405 347.214,354.550 347.570,354.000 348.000 C 353.450 348.430,352.860 348.786,352.689 348.791 C 352.519 348.796,351.574 349.605,350.589 350.589 C 349.605 351.574,348.796 352.519,348.791 352.689 C 348.786 352.860,348.430 353.450,348.000 354.000 C 347.570 354.550,347.214 355.405,347.209 355.900 C 347.204 356.395,347.020 356.800,346.800 356.800 C 346.555 356.800,346.400 358.733,346.400 361.800 C 346.400 364.867,346.555 366.800,346.800 366.800 C 347.020 366.800,347.200 367.173,347.200 367.628 C 347.200 369.406,351.583 374.580,353.496 375.060 C 353.993 375.185,354.400 375.447,354.400 375.643 C 354.400 375.840,354.940 376.000,355.600 376.000 C 356.260 376.000,356.800 376.180,356.800 376.400 C 356.800 376.645,358.733 376.800,361.800 376.800 C 364.867 376.800,366.800 376.645,366.800 376.400 C 366.800 376.180,367.340 376.000,368.000 376.000 C 368.660 376.000,369.200 375.840,369.200 375.643 C 369.200 375.447,369.620 375.181,370.133 375.052 C 371.259 374.770,375.200 370.703,375.200 369.824 C 375.200 369.481,375.380 369.200,375.600 369.200 C 375.820 369.200,376.000 368.660,376.000 368.000 C 376.000 367.340,376.180 366.800,376.400 366.800 C 376.645 366.800,376.800 364.867,376.800 361.800 C 376.800 358.733,376.645 356.800,376.400 356.800 C 376.180 356.800,376.000 356.260,376.000 355.600 C 376.000 354.940,375.840 354.400,375.643 354.400 C 375.447 354.400,375.185 353.993,375.060 353.496 C 374.580 351.583,369.406 347.200,367.628 347.200 C 367.173 347.200,366.800 347.020,366.800 346.800 C 366.800 346.555,364.867 346.400,361.800 346.400 C 358.733 346.400,356.800 346.555,356.800 346.800 M42.489 349.348 C 52.423 353.810,49.272 368.800,38.400 368.800 C 34.839 368.800,31.637 367.100,29.767 364.218 C 24.187 355.615,33.140 345.150,42.489 349.348 M366.000 352.432 C 373.630 355.886,373.977 367.254,366.559 370.747 C 365.922 371.048,365.087 371.452,364.705 371.647 C 362.346 372.847,356.626 371.350,354.324 368.931 C 346.669 360.887,355.891 347.856,366.000 352.432 " stroke="none" fill="#3c342c" fill-rule="evenodd"></path><path id="path1" d="M287.241 30.492 C 277.284 35.316,280.415 50.000,291.400 50.000 C 302.488 50.000,305.624 35.075,295.504 30.464 C 293.001 29.323,289.631 29.334,287.241 30.492 M293.754 30.478 C 299.950 32.276,302.904 38.740,300.059 44.273 C 295.697 52.754,282.989 50.340,281.708 40.787 C 280.864 34.496,287.635 28.702,293.754 30.478 M40.680 33.053 C 40.112 33.621,40.421 34.081,41.030 33.575 C 41.553 33.141,41.730 33.150,42.061 33.626 C 42.403 34.117,42.437 34.113,42.297 33.600 C 42.118 32.943,41.126 32.607,40.680 33.053 M38.555 36.281 C 37.707 37.316,37.222 38.034,37.477 37.876 C 38.021 37.540,40.555 34.400,40.282 34.400 C 40.180 34.400,39.403 35.247,38.555 36.281 M45.400 38.000 C 46.259 38.880,47.052 39.600,47.162 39.600 C 47.272 39.600,46.659 38.880,45.800 38.000 C 44.941 37.120,44.148 36.400,44.038 36.400 C 43.928 36.400,44.541 37.120,45.400 38.000 M33.836 39.941 C 33.720 40.129,33.845 40.582,34.113 40.948 C 34.543 41.537,34.600 41.497,34.600 40.607 C 34.600 39.605,34.239 39.290,33.836 39.941 M48.092 40.191 C 48.748 40.915,48.748 40.996,48.092 41.734 C 47.421 42.490,47.427 42.497,48.300 41.960 C 48.795 41.656,49.200 41.299,49.200 41.166 C 49.200 41.033,48.795 40.587,48.300 40.175 C 47.416 39.440,47.412 39.440,48.092 40.191 M144.277 41.165 C 140.444 42.710,137.545 46.296,137.636 49.379 C 137.667 50.444,137.737 50.361,138.188 48.724 C 140.842 39.087,153.416 38.342,156.808 47.622 C 158.093 51.137,157.313 54.803,154.708 57.499 C 149.256 63.140,140.327 60.641,138.188 52.876 C 137.737 51.239,137.667 51.156,137.636 52.221 C 137.412 59.850,148.715 63.826,154.730 58.236 C 162.673 50.853,154.272 37.134,144.277 41.165 M35.200 41.725 C 35.200 41.794,35.785 42.379,36.500 43.025 L 37.800 44.200 36.625 42.900 C 35.530 41.688,35.200 41.416,35.200 41.725 M43.385 45.700 L 41.400 47.800 43.592 45.800 C 44.797 44.700,45.862 43.755,45.958 43.700 C 46.055 43.645,45.962 43.600,45.752 43.600 C 45.542 43.600,44.477 44.545,43.385 45.700 M39.600 47.557 C 39.600 48.240,41.103 48.880,41.438 48.339 C 41.607 48.065,41.549 47.984,41.294 48.142 C 41.058 48.288,40.580 48.123,40.232 47.775 C 39.885 47.427,39.600 47.329,39.600 47.557 M74.800 49.267 C 74.800 49.523,74.920 49.613,75.068 49.466 C 75.215 49.319,75.690 49.514,76.124 49.899 C 76.892 50.581,76.899 50.576,76.360 49.700 C 75.776 48.749,74.800 48.478,74.800 49.267 M73.245 51.930 C 72.564 52.991,71.313 54.611,70.465 55.530 C 69.617 56.448,69.067 57.200,69.243 57.200 C 69.632 57.200,73.118 52.933,74.123 51.227 C 75.273 49.274,74.607 49.807,73.245 51.930 M77.443 51.930 C 77.859 52.662,78.703 53.832,79.317 54.530 C 80.124 55.448,80.021 55.190,78.946 53.600 C 77.138 50.926,76.415 50.123,77.443 51.930 M81.687 57.405 C 82.504 58.260,83.238 58.879,83.317 58.780 C 83.397 58.681,82.728 57.981,81.831 57.225 L 80.200 55.850 81.687 57.405 M66.811 58.620 C 66.047 59.159,65.597 59.599,65.811 59.598 C 66.025 59.597,66.740 59.153,67.400 58.612 C 68.941 57.349,68.605 57.353,66.811 58.620 M62.800 61.373 C 62.800 61.688,63.385 62.333,64.100 62.806 L 65.400 63.666 64.249 62.677 C 63.616 62.134,63.222 61.489,63.373 61.244 C 63.524 61.000,63.457 60.800,63.224 60.800 C 62.991 60.800,62.800 61.058,62.800 61.373 M87.785 61.976 C 88.014 62.346,87.785 62.617,86.200 63.849 C 85.726 64.218,85.970 64.163,86.799 63.714 C 88.147 62.984,88.937 61.600,88.006 61.600 C 87.757 61.600,87.657 61.769,87.785 61.976 M67.650 65.801 C 68.888 67.120,70.553 69.188,71.350 70.395 C 72.148 71.602,72.800 72.447,72.800 72.273 C 72.800 71.540,69.515 67.251,67.537 65.401 L 65.400 63.402 67.650 65.801 M82.421 66.415 C 81.089 67.523,80.000 68.527,80.000 68.646 C 80.000 68.823,81.475 67.660,84.980 64.719 C 85.189 64.543,85.243 64.400,85.101 64.400 C 84.958 64.400,83.752 65.307,82.421 66.415 M357.600 66.452 C 349.644 69.970,349.522 81.322,357.400 85.047 C 364.078 88.204,372.000 83.187,372.000 75.800 C 372.000 68.538,364.255 63.510,357.600 66.452 M364.725 66.613 C 369.518 68.282,372.370 73.183,371.203 77.744 C 368.943 86.574,358.148 88.326,353.412 80.631 C 348.851 73.221,356.497 63.747,364.725 66.613 M77.626 70.922 L 76.651 72.200 77.926 71.025 C 79.251 69.803,79.403 69.585,78.900 69.622 C 78.735 69.634,78.162 70.219,77.626 70.922 M73.081 73.587 C 73.194 74.020,73.565 74.605,73.905 74.887 C 74.428 75.321,74.420 75.199,73.852 74.100 C 73.092 72.631,72.776 72.420,73.081 73.587 M196.797 76.131 C 196.686 76.245,194.076 76.539,190.997 76.785 C 187.919 77.030,184.770 77.388,184.000 77.580 C 183.230 77.773,181.610 78.143,180.400 78.403 C 170.919 80.436,151.680 89.049,149.200 92.371 C 149.090 92.518,148.370 93.071,147.600 93.600 C 146.830 94.129,146.110 94.661,146.000 94.783 C 145.890 94.905,145.080 95.534,144.200 96.180 C 141.523 98.148,132.718 107.207,130.291 110.492 C 128.921 112.345,127.645 113.660,127.103 113.776 C 126.607 113.882,125.840 114.045,125.400 114.138 C 124.960 114.231,125.351 114.328,126.269 114.354 C 127.916 114.399,127.978 114.349,130.828 110.700 C 141.235 97.377,158.243 85.319,172.400 81.229 C 173.390 80.943,174.560 80.563,175.000 80.385 C 175.440 80.206,176.340 79.949,177.000 79.812 C 177.660 79.676,178.920 79.381,179.800 79.157 C 184.427 77.978,186.747 77.893,190.370 78.771 C 198.391 80.714,206.844 83.999,212.900 87.526 C 213.725 88.007,215.061 88.774,215.869 89.232 C 228.953 96.642,241.747 110.689,249.174 125.800 C 251.765 131.072,252.573 133.126,254.404 139.094 C 255.332 142.117,255.551 142.193,263.542 142.254 C 332.639 142.785,366.960 225.442,318.744 275.200 C 314.895 279.173,304.214 287.600,303.028 287.600 C 302.909 287.600,301.897 288.163,300.779 288.851 C 292.480 293.957,276.941 298.369,267.170 298.393 C 264.232 298.400,262.400 299.228,262.400 300.548 C 262.400 302.183,254.341 311.188,250.035 314.364 C 246.553 316.932,240.627 319.957,237.400 320.813 C 236.740 320.988,235.210 321.391,234.000 321.710 C 232.790 322.028,230.250 322.508,228.357 322.777 C 224.747 323.290,223.200 324.621,223.200 327.214 C 223.200 327.620,223.020 328.064,222.800 328.200 C 222.580 328.336,222.400 328.799,222.400 329.229 C 222.400 329.659,222.227 330.323,222.015 330.705 C 221.804 331.087,220.986 332.840,220.198 334.600 C 218.914 337.467,215.791 343.084,215.193 343.600 C 215.066 343.710,214.523 344.430,213.986 345.200 C 212.219 347.738,211.842 348.158,206.989 353.000 C 204.342 355.640,200.832 358.695,199.189 359.790 C 197.545 360.884,196.110 361.884,196.000 362.012 C 195.540 362.545,188.360 366.014,185.400 367.133 C 170.076 372.927,154.611 372.933,139.400 367.153 C 134.875 365.434,125.706 360.345,124.400 358.828 C 124.290 358.700,123.570 358.122,122.800 357.542 C 122.030 356.963,120.860 356.010,120.200 355.425 C 118.914 354.284,118.172 354.252,114.400 355.176 C 105.165 357.437,98.059 357.218,88.400 354.373 C 73.929 350.111,61.096 337.542,56.778 323.400 C 56.509 322.520,56.146 321.440,55.972 321.000 C 55.562 319.967,55.257 318.201,54.767 314.018 C 54.304 310.073,54.000 309.407,54.000 312.340 C 54.000 326.965,65.590 344.067,80.800 351.884 C 85.809 354.459,88.341 355.278,95.931 356.779 C 100.507 357.684,108.558 357.229,114.600 355.724 C 115.920 355.395,117.360 355.042,117.800 354.940 C 118.349 354.813,119.352 355.400,121.000 356.814 C 137.069 370.602,159.439 375.400,180.200 369.513 C 181.740 369.076,183.405 368.557,183.900 368.359 C 184.395 368.162,185.205 367.852,185.700 367.672 C 202.734 361.464,217.727 345.565,223.676 327.400 C 224.749 324.123,225.158 323.600,226.647 323.600 C 238.542 323.600,255.402 313.514,261.804 302.568 C 264.166 298.528,262.831 298.804,280.189 298.772 C 296.690 298.742,306.298 298.212,308.600 297.205 C 309.040 297.012,310.030 296.744,310.800 296.608 C 311.570 296.473,312.787 296.261,313.504 296.137 C 314.221 296.013,314.906 295.751,315.027 295.556 C 315.148 295.360,315.651 295.200,316.144 295.200 C 316.637 295.200,317.211 295.051,317.420 294.870 C 317.629 294.688,318.610 294.295,319.600 293.998 C 320.590 293.700,321.580 293.334,321.800 293.184 C 322.020 293.035,323.100 292.577,324.200 292.168 C 338.964 286.672,355.244 270.966,363.140 254.600 C 364.520 251.740,365.818 249.087,366.025 248.705 C 366.231 248.323,366.400 247.684,366.400 247.285 C 366.400 246.886,366.549 246.389,366.730 246.180 C 366.912 245.971,367.293 244.990,367.576 244.000 C 367.859 243.010,368.238 241.840,368.418 241.400 C 368.598 240.960,368.840 240.060,368.955 239.400 C 369.070 238.740,369.361 237.300,369.602 236.200 C 370.679 231.278,370.991 227.665,370.983 220.200 C 370.975 212.783,370.672 209.318,369.582 204.200 C 369.347 203.100,369.056 201.613,368.934 200.896 C 368.812 200.179,368.551 199.494,368.356 199.373 C 368.160 199.252,368.000 198.659,368.000 198.056 C 368.000 197.453,367.857 196.789,367.682 196.580 C 367.507 196.371,367.135 195.480,366.855 194.600 C 366.576 193.720,366.197 192.640,366.014 192.200 C 364.307 188.095,362.413 184.125,361.026 181.744 C 359.661 179.400,355.549 173.039,355.244 172.800 C 355.104 172.690,354.187 171.610,353.206 170.400 C 350.689 167.294,343.881 160.675,341.017 158.549 C 339.687 157.562,338.319 156.540,337.976 156.278 C 336.386 155.059,334.810 154.000,334.588 154.000 C 334.454 154.000,333.592 153.494,332.672 152.876 C 328.053 149.770,320.022 146.449,311.303 144.039 C 306.964 142.839,296.130 141.862,290.548 142.166 C 286.278 142.398,284.400 141.637,284.400 139.674 C 284.400 138.866,283.536 136.124,282.454 133.500 C 282.204 132.895,281.796 131.905,281.546 131.300 C 281.297 130.695,280.959 129.840,280.794 129.400 C 278.562 123.419,271.829 112.626,266.821 107.000 C 257.094 96.073,245.243 87.500,233.400 82.823 C 232.080 82.302,230.829 81.723,230.620 81.538 C 230.411 81.352,229.837 81.200,229.344 81.200 C 228.851 81.200,228.336 81.020,228.200 80.800 C 228.064 80.580,227.601 80.400,227.171 80.400 C 226.741 80.400,226.077 80.230,225.695 80.023 C 225.078 79.689,222.971 79.151,216.266 77.614 C 213.003 76.867,197.249 75.666,196.797 76.131 M38.034 78.553 L 37.069 79.800 38.213 78.712 C 38.843 78.114,39.277 77.553,39.179 77.465 C 39.080 77.377,38.565 77.867,38.034 78.553 M43.600 77.450 C 43.600 77.661,44.455 78.636,45.500 79.617 L 47.400 81.400 45.600 79.407 C 44.610 78.312,43.755 77.337,43.700 77.241 C 43.645 77.145,43.600 77.239,43.600 77.450 M34.133 81.831 C 33.995 82.190,34.207 82.751,34.623 83.131 C 35.311 83.759,35.324 83.758,34.833 83.105 C 34.546 82.723,34.415 82.138,34.543 81.805 C 34.670 81.472,34.685 81.200,34.575 81.200 C 34.465 81.200,34.266 81.484,34.133 81.831 M48.111 81.887 C 48.802 82.665,48.780 82.720,47.311 83.832 C 45.088 85.515,42.000 88.453,42.000 88.885 C 42.000 89.092,42.459 88.716,43.020 88.049 C 43.581 87.383,45.201 85.913,46.620 84.784 C 49.515 82.481,49.553 82.409,48.300 81.640 C 47.420 81.099,47.416 81.105,48.111 81.887 M36.417 84.686 C 36.426 84.859,37.176 85.810,38.083 86.800 C 39.800 88.675,39.435 87.965,37.510 85.686 C 36.899 84.963,36.408 84.513,36.417 84.686 M312.209 100.825 C 308.825 102.513,306.735 105.448,306.244 109.200 C 306.031 110.830,306.082 110.761,306.784 108.461 C 309.264 100.339,317.678 97.758,323.311 103.391 C 325.331 105.411,326.719 109.062,326.229 111.067 C 326.076 111.690,325.852 112.695,325.730 113.300 C 325.609 113.905,325.394 114.400,325.252 114.400 C 325.111 114.400,324.768 114.895,324.491 115.500 C 323.845 116.910,321.069 118.932,318.954 119.532 C 313.648 121.039,308.868 118.139,306.867 112.200 C 306.516 111.156,306.459 111.120,306.432 111.922 C 306.183 119.182,317.365 123.013,323.273 117.691 C 331.762 110.042,322.386 95.749,312.209 100.825 M65.200 112.199 C 60.365 113.938,57.264 120.146,58.906 124.800 C 62.249 134.275,74.899 134.615,78.400 125.325 C 81.406 117.350,73.297 109.287,65.200 112.199 M71.081 112.450 C 73.717 113.510,74.269 113.823,75.526 114.980 C 82.468 121.364,76.526 132.937,67.082 131.428 C 63.650 130.879,60.187 127.787,59.435 124.600 C 58.617 121.134,58.629 121.023,60.256 117.320 C 61.862 113.665,67.639 111.066,71.081 112.450 M116.800 128.646 C 116.800 128.867,117.064 129.396,117.387 129.824 C 118.222 130.928,118.149 131.668,116.823 135.553 C 115.092 140.621,113.866 145.611,112.832 151.800 C 112.611 153.120,112.307 157.062,112.155 160.560 C 111.788 169.035,111.828 168.993,105.400 167.481 C 102.119 166.710,86.889 166.886,83.012 167.741 C 77.809 168.887,78.413 169.184,83.962 168.207 C 91.212 166.931,97.859 167.006,107.547 168.471 L 110.894 168.977 111.845 167.788 C 112.739 166.671,112.796 166.282,112.798 161.246 C 112.799 158.301,112.991 154.701,113.225 153.246 C 114.370 146.108,115.270 142.287,117.238 136.200 C 119.084 130.492,119.020 131.253,117.800 129.600 C 117.250 128.855,116.800 128.425,116.800 128.646 M73.200 170.366 C 46.571 179.782,28.744 204.789,28.813 232.633 C 28.824 237.136,29.441 243.222,30.208 246.400 C 30.341 246.950,30.640 248.210,30.874 249.200 C 33.968 262.305,42.934 275.979,54.328 284.968 C 57.998 287.864,57.936 287.647,56.440 292.337 C 54.888 297.202,53.983 301.828,54.054 304.535 C 54.108 306.578,54.112 306.570,54.465 303.800 C 54.865 300.661,55.529 297.105,55.996 295.600 C 56.167 295.050,56.539 293.790,56.823 292.800 C 57.107 291.810,57.488 290.829,57.670 290.620 C 59.040 289.044,58.083 287.332,53.900 283.879 C 49.656 280.375,45.985 276.715,43.590 273.600 C 42.829 272.610,42.070 271.740,41.903 271.667 C 41.736 271.593,41.600 271.278,41.600 270.967 C 41.600 270.655,41.450 270.400,41.268 270.400 C 41.085 270.400,40.685 269.905,40.380 269.300 C 40.074 268.695,39.348 267.480,38.766 266.600 C 37.157 264.167,34.182 257.784,32.988 254.200 C 28.127 239.617,28.039 226.857,32.699 212.200 C 34.404 206.837,39.363 196.959,41.055 195.554 C 41.355 195.306,41.600 194.869,41.600 194.584 C 41.600 194.300,41.735 194.007,41.900 193.933 C 42.065 193.860,42.738 193.080,43.396 192.200 C 47.341 186.924,60.121 176.000,62.349 176.000 C 62.560 176.000,62.793 175.864,62.867 175.698 C 62.993 175.413,67.563 173.106,69.500 172.351 C 69.995 172.158,70.805 171.829,71.300 171.621 C 71.795 171.412,73.460 170.850,75.000 170.371 C 79.084 169.103,79.654 168.851,78.400 168.867 C 77.850 168.875,75.510 169.549,73.200 170.366 M279.405 332.027 C 272.679 335.382,271.255 343.831,276.588 348.746 C 284.657 356.184,297.010 348.076,293.185 337.852 C 291.152 332.419,284.369 329.552,279.405 332.027 M286.885 332.397 C 289.314 333.311,291.319 335.036,292.127 336.905 C 293.823 340.824,293.887 341.244,293.145 343.572 C 290.765 351.035,282.413 353.628,277.050 348.569 C 269.338 341.295,277.012 328.678,286.885 332.397 M34.200 349.219 C 24.108 354.133,27.254 368.800,38.400 368.800 C 49.272 368.800,52.423 353.810,42.489 349.348 C 39.833 348.155,36.491 348.103,34.200 349.219 M41.359 349.448 C 51.591 352.934,49.193 368.112,38.400 368.183 C 33.918 368.212,30.086 365.454,29.078 361.473 C 28.900 360.773,28.651 359.780,28.525 359.267 C 28.049 357.344,29.594 353.620,31.734 351.527 C 34.242 349.075,37.929 348.279,41.359 349.448 M357.409 352.425 C 347.607 357.315,350.914 372.000,361.817 372.000 C 363.024 372.000,364.323 371.841,364.705 371.647 C 365.087 371.452,365.922 371.048,366.559 370.747 C 373.977 367.254,373.630 355.886,366.000 352.432 C 363.583 351.338,359.595 351.335,357.409 352.425 M366.601 353.379 C 375.901 358.830,370.276 373.713,359.861 371.215 C 349.795 368.800,349.349 355.998,359.200 352.243 C 360.666 351.684,364.788 352.317,366.601 353.379 " stroke="none" fill="#6c5d55" fill-rule="evenodd"></path><path id="path2" d="M288.792 30.542 C 281.067 33.056,279.244 42.620,285.561 47.489 C 291.597 52.141,300.167 48.460,301.071 40.828 C 301.857 34.193,295.063 28.502,288.792 30.542 M145.367 41.352 C 135.268 44.121,135.645 57.836,145.890 60.355 C 151.302 61.686,157.600 56.547,157.600 50.800 C 157.600 47.773,154.844 43.390,152.200 42.213 C 148.902 40.745,147.997 40.631,145.367 41.352 M358.636 66.629 C 350.991 69.430,349.777 79.341,356.523 83.877 C 362.181 87.682,369.435 84.651,371.203 77.744 C 372.992 70.750,365.493 64.117,358.636 66.629 M183.200 78.424 C 182.210 78.599,180.680 78.927,179.800 79.153 C 178.920 79.379,177.660 79.676,177.000 79.812 C 176.340 79.949,175.440 80.206,175.000 80.385 C 174.560 80.563,173.390 80.943,172.400 81.229 C 158.243 85.319,141.235 97.377,130.828 110.700 C 127.943 114.394,127.936 114.400,126.132 114.400 C 124.662 114.400,124.286 114.549,124.116 115.200 C 124.001 115.640,123.748 116.000,123.553 116.000 C 123.359 116.000,123.200 116.360,123.200 116.800 C 123.200 117.240,123.020 117.600,122.800 117.600 C 122.580 117.600,122.400 117.870,122.400 118.200 C 122.400 118.530,122.265 118.805,122.100 118.811 C 121.935 118.817,121.351 119.807,120.803 121.011 C 120.255 122.215,119.670 123.200,119.503 123.200 C 119.336 123.200,119.200 123.560,119.200 124.000 C 119.200 124.440,119.020 124.800,118.800 124.800 C 118.580 124.800,118.400 125.160,118.400 125.600 C 118.400 126.040,118.249 126.400,118.064 126.400 C 117.005 126.400,116.888 128.334,117.865 129.707 L 118.867 131.115 117.277 136.058 C 115.263 142.319,114.371 146.100,113.225 153.246 C 112.991 154.701,112.799 158.301,112.798 161.246 C 112.796 166.282,112.739 166.671,111.845 167.788 L 110.894 168.977 107.547 168.471 C 96.277 166.766,86.444 167.033,78.600 169.254 C 76.128 169.954,72.308 171.206,71.200 171.680 C 70.650 171.915,69.840 172.241,69.400 172.405 C 67.711 173.033,62.994 175.411,62.867 175.698 C 62.793 175.864,62.560 176.000,62.349 176.000 C 60.121 176.000,47.341 186.924,43.396 192.200 C 42.738 193.080,42.065 193.860,41.900 193.933 C 41.735 194.007,41.600 194.300,41.600 194.584 C 41.600 194.869,41.355 195.306,41.055 195.554 C 39.363 196.959,34.404 206.837,32.699 212.200 C 28.039 226.857,28.127 239.617,32.988 254.200 C 34.182 257.784,37.157 264.167,38.766 266.600 C 39.348 267.480,40.074 268.695,40.380 269.300 C 40.685 269.905,41.085 270.400,41.268 270.400 C 41.450 270.400,41.600 270.655,41.600 270.967 C 41.600 271.278,41.736 271.593,41.903 271.667 C 42.070 271.740,42.829 272.610,43.590 273.600 C 45.985 276.715,49.656 280.375,53.900 283.879 C 58.083 287.332,59.040 289.044,57.670 290.620 C 57.488 290.829,57.107 291.810,56.823 292.800 C 56.539 293.790,56.167 295.050,55.996 295.600 C 54.641 299.960,53.842 307.822,54.357 311.722 C 55.114 317.458,55.542 319.916,55.972 321.000 C 56.146 321.440,56.509 322.520,56.778 323.400 C 61.096 337.542,73.929 350.111,88.400 354.373 C 98.059 357.218,105.165 357.437,114.400 355.176 C 118.172 354.252,118.914 354.284,120.200 355.425 C 120.860 356.010,122.030 356.963,122.800 357.542 C 123.570 358.122,124.290 358.700,124.400 358.828 C 125.706 360.345,134.875 365.434,139.400 367.153 C 154.611 372.933,170.076 372.927,185.400 367.133 C 188.360 366.014,195.540 362.545,196.000 362.012 C 196.110 361.884,197.545 360.884,199.189 359.790 C 200.832 358.695,204.342 355.640,206.989 353.000 C 211.842 348.158,212.219 347.738,213.986 345.200 C 214.523 344.430,215.066 343.710,215.193 343.600 C 215.791 343.084,218.914 337.467,220.198 334.600 C 220.986 332.840,221.804 331.087,222.015 330.705 C 222.227 330.323,222.400 329.659,222.400 329.229 C 222.400 328.799,222.580 328.336,222.800 328.200 C 223.020 328.064,223.200 327.620,223.200 327.214 C 223.200 324.621,224.747 323.290,228.357 322.777 C 230.250 322.508,232.790 322.028,234.000 321.710 C 235.210 321.391,236.740 320.988,237.400 320.813 C 240.627 319.957,246.553 316.932,250.035 314.364 C 254.424 311.127,262.400 302.178,262.400 300.492 C 262.400 299.232,264.314 298.400,267.226 298.393 C 276.941 298.369,292.503 293.943,300.779 288.851 C 301.897 288.163,302.909 287.600,303.028 287.600 C 304.214 287.600,314.895 279.173,318.744 275.200 C 366.960 225.442,332.639 142.785,263.542 142.254 C 255.551 142.193,255.332 142.117,254.404 139.094 C 252.573 133.126,251.765 131.072,249.174 125.800 C 241.747 110.689,228.953 96.642,215.869 89.232 C 215.061 88.774,213.725 88.007,212.900 87.526 C 206.993 84.086,199.314 81.063,191.200 78.982 C 187.245 77.968,186.203 77.895,183.200 78.424 M313.400 100.867 C 304.557 104.160,304.375 115.851,313.115 119.192 C 317.306 120.794,322.896 118.980,324.491 115.500 C 324.768 114.895,325.111 114.400,325.252 114.400 C 325.394 114.400,325.609 113.905,325.730 113.300 C 325.852 112.695,326.076 111.690,326.229 111.067 C 326.719 109.062,325.331 105.411,323.311 103.391 C 320.824 100.904,316.356 99.767,313.400 100.867 M65.822 112.572 C 63.863 113.178,61.005 115.616,60.256 117.320 C 58.629 121.023,58.617 121.134,59.435 124.600 C 60.187 127.787,63.650 130.879,67.082 131.428 C 76.526 132.937,82.468 121.364,75.526 114.980 C 72.654 112.339,69.282 111.502,65.822 112.572 M280.600 332.143 C 273.741 334.039,271.693 343.516,277.050 348.569 C 282.413 353.628,290.765 351.035,293.145 343.572 C 293.887 341.244,293.823 340.824,292.127 336.905 C 290.452 333.032,285.214 330.868,280.600 332.143 M35.134 349.455 C 33.183 350.054,30.540 352.289,29.746 354.014 C 28.856 355.945,28.297 358.347,28.525 359.267 C 28.651 359.780,28.900 360.773,29.078 361.473 C 30.412 366.744,37.570 369.949,42.400 367.438 C 53.184 361.833,46.745 345.896,35.134 349.455 M359.200 352.243 C 349.349 355.998,349.795 368.800,359.861 371.215 C 368.261 373.230,374.699 363.102,369.543 355.985 C 367.475 353.130,362.036 351.162,359.200 352.243 " stroke="none" fill="#847c6c" fill-rule="evenodd"></path><path id="path3" d="M40.303 35.134 C 39.586 36.348,36.659 39.188,35.378 39.914 C 34.649 40.326,34.716 40.475,36.444 42.277 C 37.458 43.335,38.871 45.069,39.584 46.131 L 40.881 48.062 41.524 47.131 C 42.474 45.756,46.498 42.000,47.021 42.000 C 48.498 42.000,47.954 40.858,45.100 37.966 C 43.395 36.239,42.000 34.640,42.000 34.413 C 42.000 33.585,40.955 34.029,40.303 35.134 M74.378 51.525 C 72.618 54.844,65.823 61.200,64.035 61.200 C 63.809 61.200,63.729 61.470,63.855 61.800 C 63.982 62.130,64.321 62.400,64.609 62.400 C 66.025 62.400,71.472 68.740,73.597 72.860 C 74.513 74.637,74.577 74.681,75.012 73.842 C 76.375 71.214,80.506 67.092,84.319 64.555 C 86.454 63.135,87.549 62.186,87.186 62.069 C 84.849 61.320,80.450 57.092,77.423 52.687 L 75.356 49.680 74.378 51.525 M40.802 76.100 C 40.804 76.375,39.440 77.898,37.771 79.485 L 34.738 82.370 36.202 83.655 C 37.007 84.362,38.388 86.004,39.271 87.305 L 40.877 89.669 41.518 88.734 C 42.377 87.484,45.532 84.531,46.900 83.698 C 48.348 82.816,48.349 82.818,45.800 80.618 C 44.590 79.573,43.600 78.467,43.600 78.159 C 43.600 77.852,43.450 77.600,43.268 77.600 C 43.085 77.600,42.694 77.150,42.400 76.600 C 41.843 75.558,40.798 75.232,40.802 76.100 " stroke="none" fill="#d1e053" fill-rule="evenodd"></path><path id="path4" d="M39.814 35.180 C 39.015 36.270,37.470 37.815,36.380 38.614 C 34.139 40.260,33.967 40.824,35.415 41.773 C 35.973 42.139,37.233 43.554,38.214 44.919 C 41.004 48.797,40.667 48.663,42.475 46.610 C 43.359 45.605,45.138 43.971,46.428 42.978 L 48.774 41.174 45.626 38.026 C 43.895 36.295,42.359 34.501,42.213 34.039 C 41.819 32.800,41.423 32.988,39.814 35.180 M42.000 34.413 C 42.000 34.640,43.395 36.239,45.100 37.966 C 47.954 40.858,48.498 42.000,47.021 42.000 C 46.498 42.000,42.474 45.756,41.524 47.131 L 40.881 48.062 39.584 46.131 C 38.871 45.069,37.458 43.335,36.444 42.277 C 34.716 40.475,34.649 40.326,35.378 39.914 C 36.659 39.188,39.586 36.348,40.303 35.134 C 40.955 34.029,42.000 33.585,42.000 34.413 M73.802 51.650 C 71.886 54.754,68.751 57.888,65.641 59.807 C 63.153 61.343,62.839 61.730,63.668 62.242 C 63.983 62.436,64.052 62.313,63.881 61.866 C 63.740 61.500,63.809 61.200,64.035 61.200 C 65.823 61.200,72.618 54.844,74.378 51.525 L 75.356 49.680 77.423 52.687 C 80.450 57.092,84.849 61.320,87.186 62.069 C 87.549 62.186,86.454 63.135,84.319 64.555 C 80.188 67.304,74.856 72.813,74.790 74.400 C 74.776 74.730,74.400 74.308,73.953 73.462 C 73.507 72.616,73.058 72.009,72.955 72.112 C 72.781 72.285,74.332 75.200,74.598 75.200 C 74.663 75.200,75.273 74.345,75.954 73.300 C 78.130 69.958,82.886 65.508,86.093 63.814 C 88.241 62.680,88.214 62.200,85.921 60.789 C 83.145 59.082,80.017 55.870,77.818 52.470 C 75.442 48.797,75.549 48.819,73.802 51.650 M67.108 64.997 C 68.651 66.426,70.496 68.502,71.208 69.612 C 71.920 70.722,72.587 71.546,72.690 71.443 C 73.281 70.853,65.829 62.400,64.718 62.400 C 64.490 62.400,65.565 63.569,67.108 64.997 M40.537 75.993 C 38.584 78.329,36.644 80.253,35.500 80.986 C 34.019 81.936,34.081 82.173,36.438 84.547 C 37.558 85.676,38.925 87.365,39.476 88.300 C 40.709 90.396,40.700 90.396,42.509 88.232 C 43.322 87.259,45.076 85.608,46.407 84.562 L 48.828 82.660 46.314 80.374 C 44.931 79.116,43.710 78.173,43.600 78.278 C 43.490 78.383,44.480 79.447,45.800 80.643 C 47.945 82.586,48.123 82.862,47.476 83.242 C 45.933 84.147,42.535 87.284,41.526 88.734 L 40.877 89.669 39.271 87.305 C 38.388 86.004,37.007 84.362,36.202 83.655 L 34.738 82.370 37.771 79.485 C 39.440 77.898,40.804 76.375,40.802 76.100 C 40.798 75.232,41.843 75.558,42.400 76.600 C 42.694 77.150,43.113 77.600,43.330 77.600 C 43.547 77.600,43.451 77.285,43.118 76.900 C 42.785 76.515,42.324 75.847,42.093 75.416 C 41.698 74.677,41.611 74.709,40.537 75.993 " stroke="none" fill="#9c9c44" fill-rule="evenodd"></path></g></svg>