<svg id="svg" version="1.1" xmlns="http://www.w3.org/2000/svg" xmlns:xlink="http://www.w3.org/1999/xlink" width="400" height="210" viewBox="0, 0, 400,210"><g id="svgg"><path id="path0" d="M213.470 3.828 C 211.619 4.726,210.891 6.877,211.635 9.259 C 211.795 9.770,212.031 10.567,212.159 11.029 C 214.209 18.393,214.575 19.248,215.976 19.963 C 218.631 21.317,221.639 19.493,221.639 16.527 C 221.639 15.632,219.123 6.485,218.601 5.482 C 217.628 3.613,215.398 2.894,213.470 3.828 M258.484 8.935 C 256.956 9.605,251.681 18.828,251.681 20.829 C 251.681 23.110,253.315 24.790,255.535 24.790 C 257.357 24.790,258.348 23.876,260.236 20.457 C 260.929 19.201,261.758 17.700,262.076 17.122 C 262.395 16.544,262.928 15.587,263.261 14.995 C 265.389 11.209,262.282 7.269,258.484 8.935 M228.256 27.038 C 211.047 28.609,197.510 41.281,194.657 58.493 L 194.207 61.209 193.059 61.500 C 187.029 63.028,182.646 64.771,178.151 67.431 C 171.082 71.613,163.503 79.074,160.431 84.874 C 160.216 85.278,159.964 85.691,159.871 85.791 C 159.776 85.891,158.545 85.681,157.109 85.319 C 136.725 80.180,116.321 91.422,109.681 111.450 C 102.794 132.223,114.905 155.186,136.042 161.428 C 141.265 162.971,139.580 162.880,165.441 163.012 L 188.761 163.130 189.297 164.212 C 190.909 167.462,193.748 169.781,197.219 170.680 C 199.086 171.164,236.725 171.176,238.593 170.693 C 242.124 169.781,244.904 167.458,246.574 164.023 L 247.060 163.025 250.578 163.023 C 252.513 163.022,254.569 162.966,255.147 162.899 L 256.197 162.776 256.920 164.319 C 258.323 167.312,261.390 169.813,264.755 170.709 C 266.382 171.142,276.609 171.130,278.299 170.693 C 290.085 167.647,290.284 150.915,278.571 147.774 C 276.719 147.277,276.750 147.366,277.598 144.980 C 283.300 128.947,273.609 111.468,257.311 108.389 C 255.573 108.060,255.476 107.941,255.256 105.866 C 255.153 104.893,254.865 103.104,254.617 101.891 C 254.368 100.678,254.115 99.449,254.056 99.160 C 253.997 98.871,253.722 97.897,253.445 96.995 C 252.767 94.791,252.769 94.787,254.313 93.624 C 266.751 84.258,271.868 67.020,266.663 52.024 C 261.099 35.995,244.984 25.511,228.256 27.038 M179.307 31.616 C 179.191 31.655,178.838 31.743,178.523 31.812 C 176.608 32.234,175.313 34.917,176.063 36.909 C 176.290 37.511,177.678 39.076,177.986 39.076 C 178.079 39.076,179.056 39.596,180.156 40.231 C 181.257 40.867,182.194 41.387,182.239 41.387 C 182.283 41.387,183.154 41.870,184.175 42.462 C 187.846 44.590,189.863 44.550,191.370 42.322 C 193.030 39.868,192.000 37.800,188.025 35.607 C 186.812 34.938,185.110 33.991,184.244 33.504 C 181.332 31.868,180.039 31.374,179.307 31.616 M237.710 35.490 C 260.720 40.972,268.588 68.631,251.871 85.269 C 249.541 87.587,249.715 87.584,248.424 85.341 C 241.577 73.441,228.194 64.049,213.971 61.161 C 210.951 60.547,204.475 59.935,203.363 60.157 C 202.193 60.391,202.229 59.084,203.501 55.215 C 207.091 44.292,216.387 36.635,228.046 34.998 C 229.841 34.746,235.879 35.053,237.710 35.490 M285.924 44.525 C 277.164 47.011,276.660 47.202,275.931 48.303 C 274.372 50.659,275.576 53.798,278.260 54.370 C 280.354 54.817,290.259 51.679,291.434 50.196 C 294.096 46.838,290.569 43.207,285.924 44.525 M207.684 68.289 C 218.048 69.289,227.512 73.658,234.779 80.797 C 240.444 86.362,243.490 91.564,246.206 100.315 C 246.666 101.797,247.284 105.257,247.327 106.595 L 247.374 108.043 246.008 108.324 C 241.743 109.204,236.417 111.779,235.440 113.433 C 233.152 117.306,237.287 120.809,241.449 118.524 C 254.064 111.601,268.455 118.234,271.143 132.210 C 272.196 137.685,269.386 147.269,266.727 147.269 C 263.476 147.269,259.172 149.980,257.275 153.223 C 256.323 154.851,256.456 154.789,253.385 155.043 C 247.608 155.522,247.212 155.446,246.324 153.692 C 245.067 151.210,242.677 149.109,239.805 147.960 L 238.340 147.374 218.547 147.315 C 196.481 147.250,197.296 147.203,194.457 148.688 C 192.512 149.704,190.479 151.757,189.496 153.697 L 188.761 155.147 166.387 155.144 C 145.957 155.140,143.839 155.108,142.017 154.771 C 129.778 152.509,120.554 144.190,116.814 132.038 C 113.598 121.591,117.317 108.299,125.614 100.591 C 142.197 85.185,169.023 91.424,176.918 112.524 C 178.969 118.005,186.306 115.618,184.454 110.072 C 181.956 102.589,175.799 94.879,168.671 90.307 L 167.010 89.241 167.469 88.476 C 170.272 83.797,175.351 78.644,180.450 75.303 C 188.397 70.096,198.759 67.427,207.684 68.289 M272.763 84.980 C 270.731 86.198,270.249 88.941,271.752 90.728 C 272.039 91.069,273.762 92.173,275.580 93.180 C 277.399 94.188,279.548 95.401,280.357 95.875 C 283.701 97.835,286.972 96.416,286.974 93.004 C 286.975 91.176,286.301 90.195,284.244 89.029 C 275.501 84.075,274.727 83.803,272.763 84.980 M237.563 155.703 C 240.387 157.070,240.387 161.261,237.563 162.730 C 236.514 163.276,199.193 163.158,198.110 162.605 C 195.307 161.176,195.489 157.105,198.424 155.582 C 199.579 154.982,236.309 155.096,237.563 155.703 M277.268 155.703 C 280.093 157.070,280.093 161.261,277.269 162.730 C 276.287 163.241,266.489 163.150,265.623 162.622 C 262.781 160.889,263.213 156.148,266.282 155.403 C 267.804 155.033,276.368 155.267,277.268 155.703 M107.983 167.333 C 105.194 167.992,103.606 168.853,101.786 170.692 C 97.203 175.322,97.273 182.650,101.945 187.269 C 105.363 190.649,105.872 190.749,119.578 190.753 C 125.932 190.755,130.487 190.836,130.556 190.949 C 130.622 191.055,130.534 191.740,130.362 192.472 C 128.955 198.441,133.011 204.788,139.250 206.383 C 141.562 206.974,200.760 206.893,202.914 206.296 C 213.465 203.372,215.043 189.173,205.354 184.334 C 202.715 183.016,202.522 182.999,190.470 182.991 L 179.574 182.983 179.715 182.300 C 181.250 174.835,177.205 168.515,170.077 167.240 C 168.105 166.887,109.497 166.975,107.983 167.333 M169.914 175.400 C 173.457 177.217,172.798 181.993,168.895 182.783 C 166.650 183.238,166.173 183.428,165.478 184.143 C 164.034 185.631,163.929 187.491,165.185 189.341 C 166.116 190.712,165.170 190.641,183.929 190.756 C 202.778 190.873,201.446 190.767,202.877 192.261 C 204.677 194.142,203.961 197.441,201.533 198.456 C 200.225 199.002,141.189 198.862,140.107 198.310 C 136.451 196.444,137.759 191.391,142.039 190.844 C 146.289 190.301,147.393 185.289,143.679 183.394 C 142.900 182.997,142.336 182.983,126.405 182.983 C 114.652 182.983,109.732 182.915,109.223 182.744 C 105.718 181.571,105.275 177.039,108.508 175.434 C 109.800 174.793,168.666 174.760,169.914 175.400 M229.010 183.307 C 217.136 186.198,216.966 203.044,228.777 206.291 C 230.922 206.880,289.837 206.979,292.346 206.397 C 301.220 204.339,304.598 193.550,298.468 186.842 C 297.304 185.569,295.284 184.151,294.155 183.815 C 287.750 181.905,283.403 183.226,283.403 187.081 C 283.403 189.342,285.187 190.657,288.445 190.801 C 290.862 190.907,292.018 191.313,292.825 192.339 C 294.321 194.241,293.708 197.242,291.605 198.315 C 290.637 198.809,231.606 199.003,230.318 198.516 C 227.286 197.370,226.973 193.098,229.800 191.436 L 230.777 190.861 243.908 190.756 L 257.038 190.651 257.815 190.168 C 260.326 188.607,260.026 184.748,257.292 183.425 C 256.151 182.872,231.222 182.768,229.010 183.307 M269.884 183.404 C 267.274 184.707,266.817 187.960,268.977 189.856 C 271.385 191.971,275.374 190.223,275.410 187.037 C 275.444 184.098,272.444 182.126,269.884 183.404 " stroke="none" fill="#070707" fill-rule="evenodd"></path><path id="path1" d="M201.576 68.211 C 187.224 69.464,174.238 77.179,167.469 88.476 L 167.010 89.241 168.671 90.307 C 175.799 94.879,181.956 102.589,184.454 110.072 C 186.306 115.618,178.969 118.005,176.918 112.524 C 169.023 91.424,142.197 85.185,125.614 100.591 C 117.973 107.689,114.119 119.628,116.240 129.622 C 119.017 142.700,128.905 152.348,142.017 154.771 C 143.839 155.108,145.957 155.140,166.387 155.144 L 188.761 155.147 189.496 153.697 C 190.479 151.757,192.512 149.704,194.457 148.688 C 197.296 147.203,196.481 147.250,218.547 147.315 L 238.340 147.374 239.805 147.960 C 242.677 149.109,245.067 151.210,246.324 153.692 C 247.212 155.446,247.608 155.522,253.385 155.043 C 256.456 154.789,256.323 154.851,257.275 153.223 C 259.172 149.980,263.476 147.269,266.727 147.269 C 269.386 147.269,272.196 137.685,271.143 132.210 C 268.455 118.234,254.064 111.601,241.449 118.524 C 237.287 120.809,233.152 117.306,235.440 113.433 C 236.417 111.779,241.743 109.204,246.008 108.324 L 247.374 108.043 247.327 106.595 C 247.284 105.257,246.666 101.797,246.206 100.315 C 241.699 85.793,232.632 75.896,219.282 70.926 C 213.513 68.779,206.825 67.753,201.576 68.211 " stroke="none" fill="#a3caf9" fill-rule="evenodd"></path><path id="path2" d="M0.000 105.042 L 0.000 210.084 200.000 210.084 L 400.000 210.084 400.000 105.042 L 400.000 0.000 200.000 0.000 L 0.000 0.000 0.000 105.042 M216.744 3.402 C 217.771 3.840,218.983 5.283,219.366 6.523 C 219.680 7.545,219.858 8.180,220.596 10.924 C 220.705 11.329,221.089 12.594,221.450 13.736 C 222.521 17.124,222.023 19.001,219.719 20.264 C 217.069 21.718,214.476 20.288,213.453 16.807 C 213.300 16.287,213.047 15.456,212.890 14.961 C 212.733 14.466,212.605 13.874,212.605 13.645 C 212.605 13.417,212.519 13.065,212.415 12.865 C 212.008 12.085,210.924 8.032,210.924 7.290 C 210.924 5.762,211.808 4.461,213.550 3.426 C 214.101 3.098,215.999 3.084,216.744 3.402 M261.916 8.623 C 262.952 9.184,264.076 10.447,264.076 11.052 C 264.076 11.315,264.170 11.588,264.286 11.660 C 264.801 11.978,264.186 14.112,263.043 15.969 C 262.687 16.549,262.395 17.072,262.395 17.132 C 262.395 17.192,261.954 18.018,261.415 18.967 C 260.876 19.917,260.143 21.247,259.787 21.923 C 257.699 25.884,253.316 26.249,251.658 22.599 C 250.949 21.036,251.949 17.533,253.758 15.249 C 253.857 15.123,254.269 14.407,254.672 13.655 C 256.748 9.791,257.120 9.288,258.403 8.604 C 259.396 8.075,260.918 8.083,261.916 8.623 M235.399 26.800 C 236.439 26.870,237.574 27.006,237.920 27.102 C 238.267 27.199,239.259 27.440,240.126 27.638 C 243.585 28.428,248.517 30.433,250.773 31.966 C 251.256 32.294,251.745 32.563,251.859 32.563 C 251.973 32.563,252.097 32.634,252.136 32.721 C 252.174 32.807,252.584 33.128,253.046 33.434 C 256.211 35.528,260.208 39.648,262.853 43.544 C 263.913 45.104,266.387 49.903,266.387 50.398 C 266.387 50.595,266.472 50.846,266.575 50.956 C 267.314 51.736,268.484 56.927,268.917 61.345 C 269.224 64.473,268.960 68.770,268.286 71.639 C 268.190 72.043,267.954 73.055,267.760 73.888 C 267.146 76.523,265.914 79.520,264.020 82.983 C 263.620 83.716,262.177 85.935,261.972 86.134 C 261.912 86.192,261.323 86.949,260.663 87.815 C 258.991 90.009,255.899 92.968,253.585 94.589 C 253.098 94.930,253.094 94.959,253.407 95.841 C 253.583 96.337,253.831 97.122,253.957 97.584 C 254.084 98.046,254.344 98.992,254.535 99.685 C 254.930 101.118,255.174 102.593,255.489 105.462 C 255.744 107.773,255.759 107.798,257.085 108.001 C 258.381 108.199,260.348 108.755,261.434 109.231 C 261.905 109.437,262.715 109.782,263.235 109.997 C 269.448 112.567,274.725 118.211,277.951 125.735 C 279.346 128.988,280.007 135.726,279.312 139.601 C 278.710 142.954,278.395 144.083,277.450 146.268 L 277.110 147.053 277.683 147.171 C 281.950 148.052,285.334 150.954,286.984 155.147 C 287.792 157.199,287.804 161.153,287.008 163.130 C 285.527 166.813,282.240 170.007,279.087 170.830 C 276.625 171.472,265.245 171.632,264.645 171.032 C 264.517 170.903,264.225 170.798,263.998 170.798 C 263.470 170.798,260.924 169.566,260.924 169.310 C 260.924 169.204,260.800 169.118,260.649 169.118 C 259.848 169.118,256.629 165.130,256.365 163.812 L 256.238 163.174 253.716 163.310 C 252.329 163.384,250.274 163.445,249.149 163.445 C 247.183 163.445,247.100 163.464,246.981 163.935 C 246.678 165.142,243.402 169.118,242.710 169.118 C 242.560 169.118,242.437 169.201,242.437 169.303 C 242.437 169.405,242.272 169.546,242.069 169.615 C 241.867 169.685,241.390 169.933,241.009 170.166 C 240.124 170.709,238.997 170.996,236.765 171.248 C 234.157 171.542,197.633 171.395,197.249 171.088 C 197.086 170.959,196.619 170.793,196.210 170.719 C 194.029 170.327,190.654 167.462,189.292 164.845 L 188.564 163.445 167.234 163.426 C 141.986 163.402,141.459 163.374,135.819 161.757 C 135.357 161.624,134.889 161.430,134.779 161.325 C 134.670 161.220,134.400 161.134,134.181 161.134 C 133.962 161.134,133.460 160.993,133.067 160.819 C 132.674 160.646,131.998 160.358,131.565 160.179 C 131.132 160.000,130.622 159.769,130.433 159.666 C 130.243 159.563,129.227 159.032,128.174 158.486 C 127.122 157.940,126.261 157.415,126.261 157.318 C 126.261 157.222,126.170 157.143,126.060 157.143 C 125.869 157.143,123.255 155.394,122.773 154.943 C 122.645 154.824,122.078 154.354,121.512 153.898 C 119.575 152.337,116.237 148.765,115.239 147.186 C 115.013 146.827,114.776 146.486,114.714 146.429 C 114.340 146.081,111.555 141.522,111.555 141.257 C 111.555 141.219,111.326 140.689,111.046 140.079 C 110.111 138.040,109.664 136.924,109.664 136.630 C 109.664 136.470,109.578 136.175,109.473 135.974 C 109.144 135.344,108.613 133.380,108.613 132.791 C 108.613 132.481,108.531 132.137,108.430 132.027 C 107.261 130.759,107.170 119.493,108.297 115.546 C 108.445 115.026,108.630 114.223,108.708 113.761 C 108.850 112.915,109.158 111.809,109.470 111.029 C 109.562 110.798,109.704 110.373,109.785 110.084 C 111.805 102.893,120.599 92.448,127.521 89.019 C 128.041 88.762,128.514 88.503,128.571 88.446 C 128.658 88.359,130.339 87.513,131.982 86.729 C 132.183 86.633,132.467 86.554,132.613 86.553 C 132.759 86.553,133.114 86.431,133.403 86.283 C 135.083 85.421,137.396 84.812,141.387 84.182 C 143.445 83.857,151.361 83.856,153.256 84.181 C 156.460 84.730,157.269 84.890,157.773 85.075 C 159.267 85.623,159.586 85.576,160.097 84.728 C 163.825 78.541,171.503 70.767,176.677 67.941 C 177.079 67.722,177.528 67.430,177.675 67.294 C 178.018 66.975,184.196 63.866,184.486 63.866 C 184.607 63.866,185.003 63.737,185.367 63.580 C 186.805 62.960,187.338 62.758,188.550 62.377 C 189.244 62.159,189.978 61.979,190.181 61.978 C 190.385 61.976,190.716 61.887,190.917 61.779 C 191.117 61.671,191.861 61.465,192.570 61.321 L 193.858 61.059 194.079 59.994 C 194.200 59.408,194.360 58.361,194.433 57.668 C 194.581 56.268,194.627 56.080,195.611 52.941 C 196.432 50.322,196.278 50.697,197.759 47.684 C 199.767 43.597,201.299 41.453,204.727 37.933 C 207.514 35.071,212.455 31.303,213.420 31.303 C 213.550 31.303,213.655 31.208,213.655 31.092 C 213.655 30.977,213.762 30.882,213.892 30.882 C 214.021 30.882,214.849 30.524,215.730 30.086 C 219.267 28.327,224.179 27.018,228.466 26.690 C 230.705 26.520,231.369 26.530,235.399 26.800 M181.381 31.620 C 183.212 32.575,184.333 33.186,186.089 34.185 C 187.162 34.795,188.083 35.294,188.135 35.294 C 188.362 35.294,190.495 36.672,191.034 37.166 C 193.178 39.135,192.605 42.595,189.910 43.952 C 188.244 44.791,187.388 44.690,185.189 43.394 C 184.611 43.054,183.430 42.405,182.563 41.951 C 181.696 41.498,180.940 41.067,180.882 40.994 C 180.825 40.921,180.399 40.677,179.937 40.451 C 176.671 38.857,175.630 37.662,175.630 35.504 C 175.630 32.444,178.824 30.287,181.381 31.620 M289.870 44.024 C 294.584 45.993,292.989 51.534,287.395 52.623 C 286.991 52.701,286.376 52.853,286.029 52.959 C 285.683 53.066,284.454 53.438,283.298 53.787 C 282.143 54.136,280.907 54.513,280.552 54.626 C 277.998 55.440,275.256 53.718,275.045 51.167 C 274.815 48.402,275.697 47.256,278.812 46.271 C 282.422 45.131,283.029 44.958,283.430 44.958 C 283.650 44.958,283.993 44.874,284.194 44.772 C 286.053 43.826,288.595 43.491,289.870 44.024 M277.689 85.014 C 278.463 85.428,279.191 85.837,279.307 85.922 C 279.422 86.006,280.273 86.481,281.197 86.977 C 282.122 87.472,283.129 88.053,283.436 88.267 C 283.742 88.480,284.073 88.656,284.171 88.656 C 284.601 88.659,286.213 89.933,286.726 90.676 C 287.360 91.595,287.579 94.512,287.027 94.695 C 286.883 94.744,286.765 94.909,286.765 95.064 C 286.765 95.551,285.100 96.795,284.117 97.042 C 282.677 97.405,281.551 97.000,277.734 94.749 C 277.144 94.402,276.621 94.118,276.570 94.118 C 276.519 94.118,275.885 93.761,275.161 93.324 C 274.437 92.888,273.606 92.427,273.314 92.300 C 271.097 91.335,270.012 88.760,270.913 86.603 C 271.985 84.039,274.685 83.406,277.689 85.014 M170.630 167.029 C 177.305 168.364,182.132 175.938,180.095 181.880 L 179.861 182.563 190.340 182.563 C 202.343 182.563,202.448 182.574,205.656 184.111 C 207.077 184.792,210.084 187.518,210.084 188.126 C 210.084 188.302,210.155 188.445,210.242 188.445 C 210.329 188.445,210.675 189.029,211.012 189.742 C 213.371 194.738,211.841 201.122,207.499 204.399 C 206.132 205.430,203.972 206.513,203.280 206.513 C 202.992 206.513,202.697 206.607,202.626 206.723 C 202.540 206.861,191.774 206.933,171.008 206.933 C 150.243 206.933,139.476 206.861,139.391 206.723 C 139.319 206.607,139.042 206.513,138.774 206.513 C 136.297 206.513,131.820 202.528,130.594 199.232 C 129.811 197.126,129.614 193.806,130.150 191.754 L 130.301 191.176 119.430 191.176 L 108.558 191.176 106.653 190.522 C 103.206 189.339,100.705 187.173,99.282 184.139 C 99.065 183.676,98.811 183.140,98.717 182.947 C 98.033 181.541,98.030 176.482,98.712 175.036 C 100.326 171.613,102.008 169.579,104.127 168.487 C 104.688 168.199,105.179 167.891,105.217 167.805 C 105.256 167.718,105.497 167.647,105.753 167.647 C 106.009 167.647,106.308 167.558,106.418 167.450 C 106.528 167.341,107.090 167.162,107.668 167.053 C 109.194 166.764,169.189 166.741,170.630 167.029 M256.752 182.807 C 258.455 183.317,259.874 185.075,259.874 186.676 L 259.874 187.376 263.551 187.438 L 267.227 187.500 267.227 186.843 C 267.226 184.801,269.479 182.563,271.534 182.563 C 273.569 182.563,275.766 184.801,275.864 186.975 C 275.887 187.473,275.927 187.558,275.989 187.237 C 276.039 186.977,276.165 186.765,276.269 186.765 C 276.372 186.765,276.403 186.907,276.336 187.080 C 276.232 187.352,276.690 187.395,279.704 187.395 L 283.193 187.395 283.193 186.685 C 283.193 184.186,285.388 182.563,288.768 182.563 C 294.666 182.563,299.051 185.448,301.221 190.756 C 302.098 192.902,302.106 197.076,301.236 198.789 C 301.134 198.990,301.050 199.261,301.050 199.392 C 301.050 201.378,296.387 205.601,293.107 206.585 C 292.158 206.870,229.746 207.040,229.097 206.759 C 228.866 206.660,228.157 206.409,227.521 206.203 C 216.068 202.485,217.434 185.633,229.412 182.872 C 231.001 182.506,255.552 182.447,256.752 182.807 M175.683 191.334 C 180.160 191.366,187.487 191.366,191.964 191.334 C 196.442 191.302,192.778 191.276,183.824 191.276 C 174.869 191.276,171.205 191.302,175.683 191.334 M237.883 191.334 C 241.328 191.366,246.906 191.366,250.278 191.334 C 253.649 191.301,250.830 191.275,244.013 191.275 C 237.195 191.275,234.437 191.302,237.883 191.334 M287.658 191.330 C 288.091 191.375,288.800 191.375,289.233 191.330 C 289.666 191.284,289.312 191.247,288.445 191.247 C 287.579 191.247,287.224 191.284,287.658 191.330 " stroke="none" fill="#fbfbfb" fill-rule="evenodd"></path><path id="path3" d="M211.183 7.353 C 211.183 7.757,211.226 7.923,211.279 7.721 C 211.332 7.518,211.332 7.188,211.279 6.985 C 211.226 6.783,211.183 6.949,211.183 7.353 M221.687 16.597 C 221.687 17.001,221.731 17.166,221.783 16.964 C 221.836 16.762,221.836 16.431,221.783 16.229 C 221.731 16.027,221.687 16.192,221.687 16.597 M228.046 34.998 C 216.387 36.635,207.091 44.292,203.501 55.215 C 202.229 59.084,202.193 60.391,203.363 60.157 C 204.475 59.935,210.951 60.547,213.971 61.161 C 228.194 64.049,241.577 73.441,248.424 85.341 C 249.715 87.584,249.541 87.587,251.871 85.269 C 268.588 68.631,260.720 40.972,237.710 35.490 C 235.879 35.053,229.841 34.746,228.046 34.998 M258.193 38.340 C 258.585 38.745,258.953 39.076,259.011 39.076 C 259.069 39.076,258.795 38.745,258.403 38.340 C 258.011 37.936,257.643 37.605,257.586 37.605 C 257.528 37.605,257.801 37.936,258.193 38.340 M287.975 44.056 C 288.236 44.106,288.615 44.104,288.815 44.052 C 289.016 43.999,288.803 43.958,288.340 43.961 C 287.878 43.963,287.714 44.006,287.975 44.056 M274.422 84.389 C 274.624 84.441,274.955 84.441,275.158 84.389 C 275.360 84.336,275.194 84.292,274.790 84.292 C 274.386 84.292,274.220 84.336,274.422 84.389 M287.028 92.962 C 287.030 93.424,287.073 93.589,287.123 93.327 C 287.174 93.066,287.172 92.688,287.119 92.487 C 287.067 92.286,287.025 92.500,287.028 92.962 M119.420 95.431 L 118.803 96.113 119.485 95.496 C 119.861 95.157,120.168 94.850,120.168 94.814 C 120.168 94.651,119.995 94.794,119.420 95.431 M157.632 163.183 C 163.389 163.214,172.748 163.214,178.430 163.183 C 184.112 163.152,179.401 163.126,167.962 163.126 C 156.523 163.126,151.874 163.152,157.632 163.183 M246.986 163.183 C 246.932 163.269,247.659 163.315,248.601 163.284 C 251.546 163.187,251.880 163.097,249.435 163.061 C 248.142 163.041,247.039 163.096,246.986 163.183 M244.209 167.489 L 243.592 168.172 244.275 167.555 C 244.912 166.980,245.055 166.807,244.892 166.807 C 244.856 166.807,244.549 167.114,244.209 167.489 M259.034 167.542 C 259.426 167.946,259.794 168.277,259.851 168.277 C 259.909 168.277,259.636 167.946,259.244 167.542 C 258.852 167.138,258.484 166.807,258.426 166.807 C 258.368 166.807,258.642 167.138,259.034 167.542 M283.915 167.489 L 283.298 168.172 283.981 167.555 C 284.618 166.980,284.760 166.807,284.598 166.807 C 284.562 166.807,284.255 167.114,283.915 167.489 M180.091 178.992 C 180.091 179.396,180.134 179.561,180.187 179.359 C 180.240 179.157,180.240 178.826,180.187 178.624 C 180.134 178.422,180.091 178.587,180.091 178.992 M101.681 187.290 C 102.073 187.694,102.441 188.025,102.498 188.025 C 102.556 188.025,102.283 187.694,101.891 187.290 C 101.499 186.886,101.131 186.555,101.073 186.555 C 101.015 186.555,101.289 186.886,101.681 187.290 M175.803 190.914 C 180.347 190.945,187.721 190.945,192.190 190.914 C 196.659 190.882,192.941 190.856,183.929 190.856 C 174.916 190.856,171.260 190.882,175.803 190.914 M237.673 190.914 C 241.118 190.946,246.696 190.946,250.068 190.914 C 253.439 190.881,250.620 190.855,243.803 190.855 C 236.985 190.855,234.227 190.881,237.673 190.914 M287.658 190.909 C 288.091 190.955,288.800 190.955,289.233 190.909 C 289.666 190.864,289.312 190.827,288.445 190.827 C 287.579 190.827,287.224 190.864,287.658 190.909 " stroke="none" fill="#facb6b" fill-rule="evenodd"></path><path id="path4" d="M213.550 3.426 C 210.867 5.021,210.451 6.470,211.579 10.286 C 211.939 11.504,212.272 12.632,212.319 12.793 C 212.366 12.954,212.460 13.030,212.528 12.962 C 212.646 12.844,212.281 11.465,211.599 9.454 C 210.479 6.153,212.306 3.228,215.370 3.417 C 217.702 3.561,218.527 4.533,219.663 8.477 C 219.991 9.616,220.294 10.442,220.337 10.312 C 220.412 10.089,220.148 9.062,219.366 6.523 C 218.571 3.946,215.462 2.290,213.550 3.426 M258.403 8.604 C 257.120 9.288,256.748 9.791,254.672 13.655 C 254.269 14.407,253.857 15.123,253.758 15.249 C 251.949 17.533,250.949 21.036,251.658 22.599 C 253.316 26.249,257.699 25.884,259.787 21.923 C 260.143 21.247,260.876 19.917,261.415 18.967 C 261.954 18.018,262.395 17.201,262.395 17.152 C 262.395 17.103,262.773 16.416,263.235 15.625 C 263.697 14.834,264.072 14.044,264.067 13.869 C 264.063 13.694,263.890 13.881,263.684 14.286 C 263.060 15.506,259.871 21.239,259.097 22.532 C 256.828 26.317,251.576 25.098,251.629 20.798 C 251.654 18.805,256.824 9.750,258.403 8.935 C 260.335 7.938,262.924 8.843,263.783 10.815 C 264.004 11.322,264.061 11.362,264.067 11.012 C 264.102 9.163,260.349 7.567,258.403 8.604 M220.392 10.795 C 220.385 10.898,220.723 12.220,221.143 13.735 C 222.356 18.099,221.234 20.403,217.879 20.433 C 215.449 20.456,214.516 19.473,213.437 15.756 C 212.679 13.147,212.641 13.047,212.622 13.596 C 212.613 13.852,212.733 14.466,212.890 14.961 C 213.047 15.456,213.300 16.287,213.453 16.807 C 214.476 20.288,217.069 21.718,219.719 20.264 C 222.040 18.992,222.515 17.153,221.430 13.638 C 220.710 11.302,220.415 10.496,220.392 10.795 M264.079 12.540 C 264.081 13.270,264.139 13.463,264.286 13.235 C 264.553 12.822,264.553 11.825,264.286 11.660 C 264.157 11.580,264.077 11.919,264.079 12.540 M228.466 26.690 C 225.385 26.926,222.303 27.597,218.592 28.841 C 217.425 29.233,214.855 30.472,214.971 30.587 C 215.034 30.650,215.468 30.506,215.936 30.268 C 222.567 26.885,234.560 25.870,241.176 28.133 C 241.465 28.232,242.127 28.435,242.647 28.584 C 248.023 30.129,255.300 34.717,258.825 38.783 C 261.731 42.136,263.513 44.802,265.265 48.424 C 265.880 49.695,266.384 50.579,266.385 50.388 C 266.387 49.903,263.906 45.094,262.853 43.544 C 260.208 39.648,256.211 35.528,253.046 33.434 C 252.584 33.128,252.174 32.807,252.136 32.721 C 252.097 32.634,251.973 32.563,251.859 32.563 C 251.745 32.563,251.256 32.294,250.773 31.966 C 248.517 30.433,243.585 28.428,240.126 27.638 C 239.259 27.440,238.267 27.199,237.920 27.102 C 237.344 26.942,235.839 26.809,232.143 26.594 C 231.392 26.550,229.737 26.593,228.466 26.690 M214.023 30.817 C 213.821 30.870,213.655 31.001,213.655 31.108 C 213.655 31.215,213.550 31.303,213.420 31.303 C 212.455 31.303,207.514 35.071,204.727 37.933 C 201.299 41.453,199.767 43.597,197.759 47.684 C 196.278 50.697,196.432 50.322,195.611 52.941 C 194.595 56.183,194.570 56.286,194.448 57.773 L 194.337 59.139 194.637 57.773 C 195.732 52.785,196.469 50.645,198.364 46.954 C 201.590 40.670,207.773 34.372,213.603 31.432 C 214.926 30.764,215.078 30.541,214.023 30.817 M177.470 31.984 C 176.363 32.755,175.620 33.905,175.652 34.798 C 175.673 35.399,175.673 35.399,175.836 34.713 C 176.408 32.303,178.985 30.917,181.185 31.836 C 182.076 32.208,189.227 36.164,190.352 36.906 C 193.012 38.662,192.406 42.912,189.353 43.920 C 188.018 44.361,186.977 44.067,183.994 42.411 C 180.716 40.591,180.882 40.672,180.882 40.906 C 180.882 41.007,181.520 41.414,182.300 41.808 C 183.080 42.203,184.286 42.862,184.979 43.273 C 187.388 44.700,188.202 44.812,189.910 43.952 C 192.605 42.595,193.178 39.135,191.034 37.166 C 190.495 36.672,188.362 35.294,188.135 35.294 C 188.083 35.294,187.162 34.795,186.089 34.185 C 184.333 33.186,183.212 32.575,181.381 31.620 C 180.283 31.047,178.590 31.205,177.470 31.984 M175.652 36.211 C 175.619 37.113,176.378 38.276,177.482 39.017 C 178.842 39.928,180.479 40.810,180.595 40.693 C 180.649 40.640,179.871 40.136,178.866 39.573 C 176.953 38.502,176.154 37.638,175.836 36.295 C 175.673 35.609,175.673 35.609,175.652 36.211 M285.924 44.158 C 285.173 44.398,284.427 44.631,284.266 44.676 C 284.105 44.721,284.023 44.807,284.084 44.868 C 284.144 44.929,285.051 44.737,286.098 44.443 C 289.827 43.394,292.227 44.774,292.227 47.966 C 292.227 50.076,291.185 51.167,288.235 52.143 C 287.129 52.509,286.769 52.688,287.290 52.611 C 290.909 52.082,293.069 49.758,292.459 47.051 C 291.826 44.243,289.238 43.097,285.924 44.158 M281.828 45.316 C 281.250 45.498,279.942 45.913,278.921 46.237 C 276.265 47.080,274.960 48.279,275.019 49.822 C 275.034 50.202,275.086 50.147,275.247 49.580 C 275.731 47.875,276.774 47.099,279.727 46.248 C 283.045 45.290,283.903 44.997,283.403 44.991 C 283.114 44.987,282.405 45.133,281.828 45.316 M266.453 51.100 C 266.585 51.475,267.468 54.363,267.850 55.672 C 268.063 56.399,268.064 56.396,267.972 55.462 C 267.866 54.396,266.876 51.266,266.543 50.945 C 266.394 50.802,266.365 50.851,266.453 51.100 M275.106 51.680 C 275.440 53.830,278.261 55.356,280.552 54.626 C 282.344 54.055,285.259 53.185,285.792 53.061 C 286.123 52.984,286.343 52.869,286.280 52.806 C 286.217 52.744,284.649 53.126,282.796 53.657 C 277.998 55.031,276.426 54.637,275.316 51.779 L 274.992 50.945 275.106 51.680 M268.082 56.618 C 268.075 56.733,268.209 57.679,268.379 58.718 C 268.797 61.263,268.794 67.053,268.373 69.670 C 268.091 71.423,268.078 72.783,268.357 71.401 C 269.054 67.946,269.220 62.289,268.720 59.034 C 268.473 57.425,268.117 56.077,268.082 56.618 M194.044 60.201 C 193.885 61.048,193.877 61.055,192.583 61.322 C 191.013 61.648,190.670 61.749,190.779 61.856 C 190.824 61.901,191.597 61.784,192.497 61.596 C 194.236 61.232,194.470 61.002,194.283 59.843 C 194.222 59.466,194.165 59.550,194.044 60.201 M188.130 62.531 C 187.321 62.818,186.446 63.105,186.184 63.169 C 185.730 63.280,185.294 63.667,185.649 63.645 C 186.165 63.611,190.564 61.998,190.126 62.002 C 189.837 62.006,188.939 62.243,188.130 62.531 M184.609 63.801 C 184.083 63.938,180.462 65.728,180.462 65.851 C 180.462 65.981,180.891 65.815,182.345 65.124 C 182.985 64.820,183.839 64.444,184.244 64.289 C 185.407 63.845,185.641 63.531,184.609 63.801 M178.782 66.629 C 178.146 66.991,177.579 67.345,177.521 67.415 C 177.463 67.485,177.085 67.722,176.681 67.941 C 171.534 70.737,163.825 78.540,160.101 84.722 C 159.610 85.537,158.884 85.647,157.773 85.077 C 157.401 84.886,155.309 84.561,155.462 84.718 C 155.520 84.777,156.329 85.021,157.259 85.261 C 158.190 85.500,159.098 85.752,159.277 85.821 C 159.516 85.913,160.030 85.304,161.214 83.527 C 165.795 76.648,171.259 71.406,177.940 67.483 C 180.078 66.227,180.458 65.965,180.137 65.968 C 180.027 65.969,179.417 66.267,178.782 66.629 M267.672 73.214 C 265.937 80.815,260.518 89.078,254.079 93.939 C 252.791 94.912,252.809 94.847,253.360 96.493 C 253.584 97.164,253.917 98.346,254.100 99.119 C 254.282 99.892,254.476 100.714,254.531 100.945 C 254.763 101.927,255.224 104.830,255.350 106.099 C 255.529 107.910,255.572 107.958,257.335 108.323 C 258.170 108.496,259.527 108.865,260.350 109.144 C 261.956 109.687,262.530 109.691,261.236 109.151 C 260.166 108.704,258.297 108.186,257.085 108.001 C 255.759 107.798,255.744 107.773,255.489 105.462 C 255.174 102.593,254.930 101.118,254.535 99.685 C 254.344 98.992,254.084 98.046,253.957 97.584 C 253.831 97.122,253.583 96.337,253.407 95.841 C 253.094 94.959,253.098 94.930,253.585 94.589 C 255.899 92.968,258.991 90.009,260.663 87.815 C 261.323 86.949,261.912 86.192,261.972 86.134 C 262.455 85.664,263.941 83.193,265.065 80.987 C 266.607 77.963,268.174 73.437,268.028 72.427 C 267.987 72.137,267.849 72.442,267.672 73.214 M142.542 84.034 C 142.195 84.122,141.486 84.207,140.966 84.222 C 140.446 84.237,139.879 84.342,139.706 84.454 C 139.264 84.739,139.573 84.725,142.017 84.349 C 144.590 83.952,149.911 83.954,152.714 84.352 C 153.918 84.523,154.945 84.621,154.997 84.569 C 155.104 84.462,154.736 84.384,152.570 84.055 C 150.874 83.798,143.530 83.782,142.542 84.034 M273.845 84.167 C 269.794 85.178,269.439 90.613,273.314 92.300 C 273.606 92.427,274.437 92.888,275.161 93.324 C 275.885 93.761,276.519 94.118,276.570 94.118 C 276.621 94.118,277.144 94.402,277.734 94.749 C 281.551 97.000,282.677 97.405,284.117 97.042 C 285.060 96.805,286.765 95.558,286.765 95.105 C 286.765 94.973,286.483 95.173,286.138 95.551 C 284.297 97.566,282.973 97.393,277.731 94.455 C 276.980 94.034,275.492 93.211,274.424 92.626 C 270.634 90.550,269.698 87.924,271.923 85.611 C 273.476 83.996,275.085 83.891,277.521 85.245 C 278.272 85.662,279.076 86.105,279.307 86.228 C 286.731 90.188,287.769 91.233,287.011 93.980 C 286.894 94.402,286.880 94.748,286.979 94.748 C 287.249 94.748,287.463 92.968,287.298 92.089 C 287.053 90.784,285.119 88.661,284.171 88.656 C 284.073 88.656,283.742 88.480,283.436 88.267 C 283.129 88.053,282.122 87.472,281.197 86.977 C 280.273 86.481,279.422 86.006,279.307 85.922 C 277.674 84.724,275.024 83.873,273.845 84.167 M137.920 84.760 C 137.805 84.795,137.285 84.940,136.765 85.083 C 134.923 85.589,133.527 86.118,133.665 86.256 C 133.725 86.316,134.376 86.162,135.112 85.914 C 135.848 85.666,137.111 85.291,137.920 85.081 C 138.842 84.842,139.156 84.699,138.761 84.698 C 138.414 84.698,138.036 84.725,137.920 84.760 M132.773 86.482 C 131.540 86.888,128.592 88.295,128.580 88.484 C 128.575 88.562,129.446 88.226,130.515 87.735 C 131.584 87.245,132.694 86.738,132.983 86.608 C 133.509 86.373,133.366 86.286,132.773 86.482 M127.199 89.160 C 122.399 91.923,117.399 96.649,114.226 101.420 C 112.714 103.695,110.863 107.067,110.964 107.364 C 111.000 107.469,111.402 106.825,111.856 105.931 C 115.509 98.756,120.293 93.738,128.062 88.930 C 128.812 88.467,128.054 88.669,127.199 89.160 M110.332 108.682 C 110.102 109.202,109.852 109.848,109.776 110.118 C 109.700 110.388,109.562 110.798,109.470 111.029 C 109.137 111.862,108.847 112.936,108.731 113.761 C 108.595 114.729,108.753 114.358,109.356 112.290 C 109.558 111.597,109.997 110.332,110.332 109.480 C 111.000 107.780,111.000 107.172,110.332 108.682 M263.866 110.571 C 274.671 115.983,280.979 127.919,279.094 139.391 C 278.744 141.521,278.727 141.721,278.915 141.534 C 279.213 141.235,279.613 137.766,279.610 135.504 C 279.606 132.302,278.844 127.818,277.951 125.735 C 275.779 120.669,273.293 117.149,269.751 114.127 C 267.657 112.341,263.185 109.650,262.343 109.670 C 262.198 109.674,262.883 110.079,263.866 110.571 M108.235 115.683 C 107.652 118.087,107.500 119.717,107.501 123.522 C 107.502 127.623,107.941 131.527,108.458 132.038 C 108.601 132.179,108.627 132.076,108.537 131.723 C 107.704 128.433,107.571 120.451,108.289 116.837 C 108.641 115.067,108.599 114.179,108.235 115.683 M108.635 132.907 C 108.612 133.382,109.153 135.362,109.473 135.974 C 109.578 136.175,109.664 136.470,109.664 136.630 C 109.664 136.924,110.111 138.040,111.046 140.079 C 111.326 140.689,111.555 141.219,111.555 141.257 C 111.555 141.522,114.340 146.081,114.714 146.429 C 114.776 146.486,115.013 146.827,115.239 147.186 C 116.237 148.765,119.575 152.337,121.512 153.898 C 122.078 154.354,122.645 154.824,122.773 154.943 C 123.241 155.381,125.892 157.161,125.966 157.087 C 126.008 157.046,125.122 156.341,123.998 155.522 C 116.548 150.092,111.573 142.751,108.865 133.193 C 108.725 132.700,108.649 132.606,108.635 132.907 M278.507 142.437 C 278.426 142.841,278.028 144.062,277.623 145.149 C 277.219 146.236,276.921 147.159,276.962 147.200 C 277.003 147.242,277.588 147.419,278.262 147.594 C 287.367 149.966,290.465 161.148,283.816 167.640 C 280.812 170.573,279.242 171.003,271.534 171.003 C 265.100 171.003,264.390 170.910,262.164 169.771 C 261.482 169.422,260.924 169.219,260.924 169.320 C 260.924 169.568,263.480 170.798,263.998 170.798 C 264.225 170.798,264.517 170.903,264.645 171.032 C 265.245 171.632,276.625 171.472,279.087 170.830 C 282.240 170.007,285.527 166.813,287.008 163.130 C 287.804 161.153,287.792 157.199,286.984 155.147 C 285.334 150.954,281.950 148.052,277.683 147.171 L 277.110 147.053 277.450 146.268 C 278.303 144.297,278.837 142.551,278.734 142.072 C 278.686 141.850,278.595 141.995,278.507 142.437 M198.400 155.654 C 195.420 157.007,195.457 161.249,198.463 162.790 C 199.427 163.284,236.625 163.105,237.613 162.601 C 240.644 161.055,240.037 156.043,236.739 155.383 C 234.848 155.005,199.276 155.256,198.400 155.654 M266.243 155.484 C 263.098 156.394,262.806 161.099,265.800 162.627 C 267.018 163.249,276.090 163.228,277.319 162.601 C 280.255 161.103,279.833 156.335,276.688 155.461 C 275.759 155.203,267.149 155.221,266.243 155.484 M126.261 157.297 C 126.261 157.405,127.122 157.940,128.174 158.486 C 129.227 159.032,130.243 159.563,130.433 159.666 C 130.622 159.769,131.155 160.011,131.618 160.204 C 132.080 160.396,132.769 160.691,133.149 160.858 C 133.529 161.025,134.002 161.129,134.199 161.089 C 134.397 161.049,134.044 160.845,133.414 160.637 C 132.253 160.253,128.491 158.443,127.048 157.575 C 126.615 157.315,126.261 157.190,126.261 157.297 M134.769 161.301 C 135.158 161.698,139.494 162.818,140.546 162.793 C 141.107 162.780,140.957 162.710,139.916 162.499 C 138.747 162.263,136.648 161.717,135.012 161.224 C 134.706 161.131,134.627 161.157,134.769 161.301 M142.017 163.071 C 142.422 163.271,147.819 163.347,165.559 163.401 L 188.577 163.470 189.299 164.858 C 190.654 167.462,194.033 170.328,196.210 170.719 C 196.619 170.793,197.086 170.959,197.249 171.088 C 197.633 171.395,234.157 171.542,236.765 171.248 C 238.997 170.996,240.124 170.709,241.009 170.166 C 241.390 169.933,241.867 169.685,242.069 169.615 C 242.272 169.546,242.437 169.405,242.437 169.303 C 242.437 169.201,242.560 169.118,242.710 169.118 C 243.402 169.118,246.678 165.142,246.981 163.935 C 247.100 163.464,247.183 163.445,249.149 163.445 C 252.214 163.445,256.344 163.191,256.154 163.014 C 256.062 162.928,254.853 162.937,253.466 163.033 C 252.080 163.130,250.072 163.214,249.006 163.222 L 247.066 163.235 246.514 164.338 C 244.926 167.511,242.120 169.822,238.761 170.722 C 237.918 170.948,233.777 171.004,217.832 171.006 L 197.954 171.008 196.496 170.533 C 193.489 169.553,190.909 167.388,189.492 164.655 L 188.773 163.269 165.973 163.164 C 153.433 163.106,142.794 163.003,142.332 162.935 C 141.558 162.821,141.533 162.832,142.017 163.071 M256.397 163.916 C 256.658 165.142,259.885 169.134,260.596 169.110 C 260.719 169.106,260.372 168.720,259.826 168.252 C 258.708 167.295,257.654 165.933,256.831 164.385 C 256.455 163.679,256.314 163.527,256.397 163.916 M107.668 167.053 C 107.090 167.162,106.528 167.341,106.418 167.450 C 106.308 167.558,106.001 167.647,105.735 167.647 C 105.470 167.647,105.252 167.742,105.252 167.857 C 105.252 168.121,105.302 168.120,106.026 167.834 C 108.068 167.028,107.911 167.032,139.286 167.032 C 172.834 167.032,170.777 166.950,173.721 168.405 C 178.431 170.732,181.107 176.524,179.871 181.711 C 179.748 182.225,179.695 182.721,179.752 182.814 C 179.810 182.907,184.763 182.983,190.758 182.983 C 204.443 182.983,205.001 183.097,208.456 186.580 C 209.351 187.483,210.084 188.128,210.084 188.014 C 210.084 187.497,206.942 184.727,205.656 184.111 C 202.448 182.574,202.343 182.563,190.340 182.563 L 179.861 182.563 180.095 181.880 C 181.711 177.165,178.574 170.376,173.739 168.122 C 172.096 167.356,171.874 167.278,170.630 167.029 C 169.189 166.741,109.194 166.764,107.668 167.053 M103.735 168.698 C 102.162 169.686,100.394 171.624,99.596 173.234 C 98.568 175.309,98.594 175.241,98.451 176.269 C 98.360 176.920,98.380 177.078,98.515 176.786 C 98.622 176.555,98.717 176.183,98.725 175.961 C 98.788 174.235,101.463 170.535,103.766 168.991 C 105.305 167.958,105.280 167.728,103.735 168.698 M108.718 175.397 C 105.674 176.802,105.533 180.838,108.474 182.410 L 109.349 182.878 126.366 182.983 L 143.382 183.088 144.155 183.569 C 147.172 185.445,146.200 190.044,142.634 190.767 C 139.826 191.336,138.994 191.851,138.334 193.431 C 137.538 195.334,138.630 197.769,140.612 198.517 C 141.888 198.997,200.720 198.809,201.677 198.321 C 204.659 196.800,204.578 192.841,201.534 191.305 C 200.932 191.002,199.131 190.966,184.391 190.966 C 172.636 190.966,167.715 190.898,167.206 190.727 C 162.714 189.223,163.534 183.475,168.326 182.876 C 172.560 182.347,173.624 177.215,169.866 175.448 L 168.912 175.000 139.235 175.005 C 110.832 175.009,109.523 175.026,108.718 175.397 M98.180 178.992 C 98.180 179.858,98.217 180.213,98.262 179.779 C 98.308 179.346,98.308 178.637,98.262 178.204 C 98.217 177.770,98.180 178.125,98.180 178.992 M98.437 181.596 C 98.507 182.162,98.637 182.776,98.726 182.962 C 98.815 183.147,99.065 183.676,99.282 184.139 C 100.452 186.635,104.871 190.788,105.590 190.068 C 105.645 190.013,105.285 189.758,104.788 189.502 C 101.832 187.975,99.834 185.522,98.794 182.143 C 98.354 180.712,98.321 180.662,98.437 181.596 M229.412 182.872 C 217.434 185.633,216.068 202.485,227.521 206.203 C 228.157 206.409,228.866 206.660,229.097 206.759 C 229.746 207.040,292.158 206.870,293.107 206.585 C 296.387 205.601,301.050 201.378,301.050 199.392 C 301.050 199.261,301.134 198.990,301.236 198.789 C 301.873 197.534,302.095 194.140,301.663 192.267 C 300.941 189.141,298.789 186.097,296.155 184.477 C 294.960 183.742,295.006 184.068,296.207 184.846 C 304.778 190.400,302.762 203.500,292.904 206.319 C 290.756 206.933,230.685 206.948,228.676 206.335 C 216.910 202.743,217.072 186.120,228.901 183.296 C 230.696 182.867,256.186 182.841,257.205 183.267 C 259.445 184.203,260.293 187.160,258.891 189.144 C 257.630 190.930,258.318 190.848,243.592 190.966 C 229.205 191.082,229.907 191.013,228.707 192.439 C 227.096 194.353,227.803 197.197,230.189 198.400 C 231.017 198.818,290.012 198.930,291.110 198.517 C 293.086 197.772,294.195 195.309,293.388 193.461 C 292.568 191.581,291.713 191.119,288.759 190.958 C 283.602 190.676,281.557 186.856,284.962 183.867 C 286.202 182.778,290.968 182.615,293.578 183.572 C 295.057 184.114,295.384 184.032,294.066 183.449 C 289.059 181.234,283.193 182.980,283.193 186.685 L 283.193 187.395 279.704 187.395 C 276.690 187.395,276.232 187.352,276.336 187.080 C 276.403 186.907,276.372 186.765,276.269 186.765 C 276.165 186.765,276.039 186.977,275.989 187.237 C 275.927 187.558,275.887 187.473,275.864 186.975 C 275.766 184.801,273.569 182.563,271.534 182.563 C 269.479 182.563,267.226 184.801,267.227 186.843 L 267.227 187.500 263.551 187.438 L 259.874 187.376 259.874 186.676 C 259.874 185.075,258.455 183.317,256.752 182.807 C 255.552 182.447,231.001 182.506,229.412 182.872 M273.172 183.323 C 276.960 185.236,275.738 190.845,271.534 190.845 C 268.274 190.845,266.427 187.104,268.406 184.510 C 269.471 183.112,271.671 182.565,273.172 183.323 M210.619 189.516 C 214.049 196.284,210.342 204.322,202.836 206.391 C 201.685 206.708,198.869 206.733,170.451 206.678 C 153.332 206.645,139.370 206.689,139.423 206.775 C 139.577 207.023,202.472 206.971,202.626 206.723 C 202.697 206.607,202.992 206.513,203.280 206.513 C 203.972 206.513,206.132 205.430,207.499 204.399 C 211.841 201.122,213.371 194.738,211.012 189.742 C 210.675 189.029,210.327 188.445,210.238 188.445 C 210.150 188.445,210.321 188.927,210.619 189.516 M105.882 190.223 C 105.882 190.983,108.645 191.176,119.479 191.176 L 130.301 191.176 130.150 191.754 C 129.612 193.813,129.811 197.127,130.600 199.247 C 131.814 202.505,136.338 206.543,138.734 206.506 C 138.980 206.502,138.696 206.331,138.103 206.126 C 132.508 204.193,128.894 197.715,130.352 192.235 C 130.767 190.676,131.554 190.779,119.191 190.762 C 110.196 190.749,108.044 190.691,107.212 190.438 C 106.128 190.109,105.882 190.070,105.882 190.223 M191.964 191.334 C 187.487 191.366,180.160 191.366,175.683 191.334 C 171.205 191.302,174.869 191.276,183.824 191.276 C 192.778 191.276,196.442 191.302,191.964 191.334 M250.278 191.334 C 246.906 191.366,241.328 191.366,237.883 191.334 C 234.437 191.302,237.195 191.275,244.013 191.275 C 250.830 191.275,253.649 191.301,250.278 191.334 M289.233 191.330 C 288.800 191.375,288.091 191.375,287.658 191.330 C 287.224 191.284,287.579 191.247,288.445 191.247 C 289.312 191.247,289.666 191.284,289.233 191.330 " stroke="none" fill="#ccd3dc" fill-rule="evenodd"></path></g></svg>