<svg id="svg" version="1.1" xmlns="http://www.w3.org/2000/svg" xmlns:xlink="http://www.w3.org/1999/xlink" width="400" height="400" viewBox="0, 0, 400,400"><g id="svgg"><path id="path0" d="M294.400 18.000 C 294.400 18.229,293.200 18.400,291.600 18.400 C 290.000 18.400,288.800 18.571,288.800 18.800 C 288.800 19.020,288.080 19.200,287.200 19.200 C 286.320 19.200,285.600 19.380,285.600 19.600 C 285.600 19.820,284.880 20.000,284.000 20.000 C 283.120 20.000,282.400 20.180,282.400 20.400 C 282.400 20.620,281.770 20.800,281.000 20.800 C 280.230 20.800,279.600 20.980,279.600 21.200 C 279.600 21.420,279.060 21.600,278.400 21.600 C 277.740 21.600,277.200 21.747,277.200 21.928 C 277.200 22.108,276.300 22.500,275.200 22.800 C 274.100 23.100,273.200 23.492,273.200 23.672 C 273.200 23.853,272.840 24.000,272.400 24.000 C 271.960 24.000,271.600 24.180,271.600 24.400 C 271.600 24.620,271.060 24.800,270.400 24.800 C 269.740 24.800,269.199 24.935,269.197 25.100 C 269.193 25.459,267.256 26.400,266.520 26.400 C 266.234 26.400,266.000 26.580,266.000 26.800 C 266.000 27.020,265.667 27.200,265.260 27.200 C 264.853 27.200,263.818 27.697,262.960 28.305 C 262.102 28.912,260.725 29.763,259.900 30.196 C 259.075 30.628,258.400 31.121,258.400 31.291 C 258.400 31.461,258.157 31.600,257.859 31.600 C 257.562 31.600,256.754 32.140,256.063 32.800 C 255.372 33.460,254.608 34.000,254.364 34.000 C 254.120 34.000,253.444 34.495,252.860 35.100 C 252.277 35.705,251.311 36.452,250.714 36.760 C 250.116 37.068,249.722 37.473,249.837 37.660 C 249.953 37.847,249.856 38.000,249.623 38.000 C 249.149 38.000,238.800 48.261,238.800 48.730 C 238.800 48.895,238.085 49.832,237.211 50.814 C 236.338 51.797,235.618 52.785,235.611 53.012 C 235.605 53.238,235.240 53.683,234.800 54.000 C 234.360 54.317,234.000 54.814,234.000 55.105 C 234.000 55.396,233.640 56.020,233.200 56.492 C 232.760 56.964,232.400 57.587,232.400 57.875 C 232.400 58.164,232.241 58.400,232.047 58.400 C 231.852 58.400,231.593 58.715,231.471 59.100 C 231.242 59.822,229.969 62.046,229.581 62.400 C 229.121 62.820,227.200 67.110,227.200 67.716 C 227.200 68.066,227.020 68.464,226.800 68.600 C 226.580 68.736,226.400 69.287,226.400 69.824 C 226.400 70.361,226.220 70.800,226.000 70.800 C 225.780 70.800,225.600 71.160,225.600 71.600 C 225.600 72.040,225.420 72.400,225.200 72.400 C 224.980 72.400,224.800 72.925,224.800 73.567 C 224.800 74.208,224.592 74.803,224.337 74.888 C 223.534 75.155,224.305 77.200,225.208 77.200 C 225.643 77.200,226.000 77.380,226.000 77.600 C 226.000 77.820,226.414 78.000,226.920 78.000 C 227.426 78.000,228.011 78.143,228.220 78.318 C 228.429 78.493,229.320 78.865,230.200 79.145 C 232.567 79.896,234.495 80.727,240.621 83.632 C 242.833 84.681,246.131 86.453,247.951 87.570 C 249.770 88.686,251.426 89.600,251.629 89.600 C 251.833 89.600,252.000 89.780,252.000 90.000 C 252.000 90.220,252.270 90.400,252.600 90.400 C 252.930 90.400,253.200 90.580,253.200 90.800 C 253.200 91.020,253.436 91.200,253.725 91.200 C 254.013 91.200,254.598 91.520,255.025 91.911 C 255.451 92.302,256.430 93.058,257.200 93.592 C 257.970 94.125,258.690 94.669,258.800 94.800 C 258.910 94.931,259.630 95.477,260.400 96.014 C 264.915 99.158,277.050 110.864,279.486 114.424 C 279.853 114.961,280.260 115.490,280.391 115.600 C 280.944 116.067,286.320 123.519,287.027 124.800 C 287.452 125.570,287.903 126.290,288.030 126.400 C 288.156 126.510,288.696 127.410,289.230 128.400 C 289.763 129.390,290.290 130.290,290.400 130.400 C 291.358 131.358,298.000 145.086,298.000 146.108 C 298.000 146.415,298.118 146.784,298.262 146.928 C 298.938 147.605,301.220 154.772,302.232 159.400 C 302.569 160.940,303.029 162.920,303.255 163.800 C 303.481 164.680,303.826 166.480,304.021 167.800 C 304.216 169.120,304.571 171.370,304.808 172.800 C 305.046 174.230,305.366 178.130,305.520 181.467 C 305.674 184.805,305.941 187.676,306.114 187.848 C 306.912 188.644,319.083 189.155,319.820 188.423 C 320.029 188.215,321.145 188.003,322.300 187.951 C 323.455 187.899,324.400 187.709,324.400 187.529 C 324.400 187.348,325.120 187.200,326.000 187.200 C 326.880 187.200,327.600 187.020,327.600 186.800 C 327.600 186.580,328.305 186.400,329.167 186.400 C 330.028 186.400,330.793 186.222,330.867 186.003 C 330.940 185.785,331.495 185.566,332.100 185.516 C 332.705 185.466,333.200 185.285,333.200 185.113 C 333.200 184.941,333.549 184.800,333.976 184.800 C 334.403 184.800,334.864 184.620,335.000 184.400 C 335.136 184.180,335.687 184.000,336.224 184.000 C 336.761 184.000,337.200 183.820,337.200 183.600 C 337.200 183.380,337.740 183.200,338.400 183.200 C 339.060 183.200,339.600 183.020,339.600 182.800 C 339.600 182.580,339.960 182.400,340.400 182.400 C 340.840 182.400,341.200 182.220,341.200 182.000 C 341.200 181.780,341.470 181.600,341.800 181.600 C 342.130 181.600,342.400 181.420,342.400 181.200 C 342.400 180.980,342.760 180.800,343.200 180.800 C 343.640 180.800,344.000 180.620,344.000 180.400 C 344.000 180.180,344.360 180.000,344.800 180.000 C 345.240 180.000,345.600 179.820,345.600 179.600 C 345.600 179.380,345.960 179.200,346.400 179.200 C 346.840 179.200,347.200 179.020,347.200 178.800 C 347.200 178.580,347.560 178.400,348.000 178.400 C 348.440 178.400,348.800 178.242,348.800 178.049 C 348.800 177.855,349.340 177.473,350.000 177.200 C 350.660 176.927,351.200 176.545,351.200 176.351 C 351.200 176.158,351.560 176.000,352.000 176.000 C 352.440 176.000,352.800 175.823,352.800 175.608 C 352.800 175.392,353.230 175.107,353.756 174.975 C 354.282 174.843,355.216 174.210,355.831 173.568 C 356.446 172.925,357.098 172.400,357.278 172.400 C 357.459 172.400,358.172 171.860,358.863 171.200 C 359.554 170.540,360.273 170.000,360.463 170.000 C 360.855 170.000,372.400 158.542,372.400 158.152 C 372.400 158.012,373.030 157.200,373.800 156.347 C 374.570 155.495,375.200 154.568,375.200 154.287 C 375.200 154.006,375.560 153.517,376.000 153.200 C 376.440 152.883,376.800 152.343,376.800 152.000 C 376.800 151.657,377.160 151.117,377.600 150.800 C 378.040 150.483,378.400 149.943,378.400 149.600 C 378.400 149.257,378.760 148.717,379.200 148.400 C 379.640 148.083,380.000 147.503,380.000 147.112 C 380.000 146.720,380.180 146.400,380.400 146.400 C 380.620 146.400,380.800 146.040,380.800 145.600 C 380.800 145.160,380.980 144.800,381.200 144.800 C 381.420 144.800,381.600 144.440,381.600 144.000 C 381.600 143.560,381.780 143.200,382.000 143.200 C 382.220 143.200,382.400 142.840,382.400 142.400 C 382.400 141.960,382.580 141.600,382.800 141.600 C 383.020 141.600,383.200 141.330,383.200 141.000 C 383.200 140.670,383.380 140.400,383.600 140.400 C 383.820 140.400,384.000 140.040,384.000 139.600 C 384.000 139.160,384.180 138.800,384.400 138.800 C 384.620 138.800,384.800 138.350,384.800 137.800 C 384.800 137.250,384.980 136.800,385.200 136.800 C 385.420 136.800,385.600 136.365,385.600 135.833 C 385.600 135.302,385.735 134.807,385.901 134.733 C 386.269 134.570,388.000 129.548,388.000 128.642 C 388.000 128.283,388.158 127.677,388.351 127.295 C 388.968 126.073,389.600 123.774,389.600 122.752 C 389.600 122.206,389.763 121.589,389.961 121.380 C 390.579 120.730,391.814 107.708,391.411 106.100 C 391.219 105.336,390.917 105.200,389.416 105.200 C 388.443 105.200,387.536 105.020,387.400 104.800 C 387.264 104.580,386.454 104.400,385.600 104.400 C 384.746 104.400,383.936 104.220,383.800 104.000 C 383.664 103.780,382.933 103.600,382.176 103.600 C 381.419 103.600,380.800 103.420,380.800 103.200 C 380.800 102.980,380.260 102.800,379.600 102.800 C 378.940 102.800,378.400 102.620,378.400 102.400 C 378.400 102.180,377.680 102.000,376.800 102.000 C 375.920 102.000,375.200 101.820,375.200 101.600 C 375.200 101.380,374.928 101.200,374.595 101.200 C 374.262 101.200,373.632 101.020,373.195 100.800 C 372.758 100.580,372.042 100.220,371.605 100.000 C 371.168 99.780,370.570 99.600,370.276 99.600 C 369.793 99.600,365.631 97.765,363.905 96.792 C 363.523 96.576,362.938 96.400,362.605 96.400 C 362.272 96.400,362.000 96.220,362.000 96.000 C 362.000 95.780,361.640 95.600,361.200 95.600 C 360.760 95.600,360.400 95.420,360.400 95.200 C 360.400 94.980,360.117 94.800,359.771 94.800 C 359.426 94.800,358.873 94.530,358.543 94.200 C 358.213 93.870,357.596 93.600,357.171 93.600 C 356.747 93.600,356.400 93.420,356.400 93.200 C 356.400 92.980,356.130 92.800,355.800 92.800 C 355.470 92.800,355.200 92.620,355.200 92.400 C 355.200 92.180,354.840 92.000,354.400 92.000 C 353.960 92.000,353.600 91.850,353.600 91.668 C 353.600 91.485,353.105 91.081,352.500 90.770 C 351.895 90.460,351.109 89.889,350.753 89.503 C 350.397 89.116,349.852 88.800,349.541 88.800 C 349.231 88.800,348.717 88.440,348.400 88.000 C 348.083 87.560,347.591 87.200,347.308 87.200 C 347.025 87.200,346.228 86.660,345.537 86.000 C 344.846 85.340,344.122 84.800,343.927 84.800 C 343.733 84.800,342.962 84.215,342.215 83.500 C 341.468 82.785,339.739 81.210,338.372 80.000 C 334.327 76.418,326.800 68.873,326.800 68.401 C 326.800 68.160,326.395 67.530,325.900 67.001 C 324.782 65.806,324.454 65.380,323.200 63.503 C 322.650 62.679,322.065 62.004,321.900 62.003 C 321.735 62.001,321.600 61.770,321.600 61.488 C 321.600 61.207,321.240 60.717,320.800 60.400 C 320.360 60.083,320.000 59.543,320.000 59.200 C 320.000 58.857,319.640 58.317,319.200 58.000 C 318.760 57.683,318.400 57.103,318.400 56.712 C 318.400 56.320,318.220 56.000,318.000 56.000 C 317.780 56.000,317.600 55.680,317.600 55.288 C 317.600 54.897,317.240 54.317,316.800 54.000 C 316.360 53.683,316.000 53.103,316.000 52.712 C 316.000 52.320,315.820 52.000,315.600 52.000 C 315.380 52.000,315.200 51.640,315.200 51.200 C 315.200 50.760,315.046 50.400,314.857 50.400 C 314.668 50.400,314.087 49.410,313.564 48.200 C 313.042 46.990,312.476 46.000,312.307 46.000 C 312.138 46.000,312.000 45.550,312.000 45.000 C 312.000 44.450,311.820 44.000,311.600 44.000 C 311.380 44.000,311.200 43.730,311.200 43.400 C 311.200 43.070,311.020 42.800,310.800 42.800 C 310.580 42.800,310.400 42.440,310.400 42.000 C 310.400 41.560,310.220 41.200,310.000 41.200 C 309.780 41.200,309.600 40.660,309.600 40.000 C 309.600 39.340,309.437 38.800,309.238 38.800 C 309.038 38.800,308.751 37.900,308.600 36.800 C 308.449 35.700,308.162 34.800,307.962 34.800 C 307.763 34.800,307.600 34.361,307.600 33.824 C 307.600 33.287,307.454 32.757,307.276 32.647 C 307.098 32.537,306.706 31.266,306.405 29.823 C 306.104 28.381,305.710 27.200,305.529 27.200 C 305.348 27.200,305.200 26.480,305.200 25.600 C 305.200 24.720,305.020 24.000,304.800 24.000 C 304.580 24.000,304.400 23.100,304.400 22.000 C 304.400 20.900,304.220 20.000,304.000 20.000 C 303.780 20.000,303.600 19.460,303.600 18.800 L 303.600 17.600 299.000 17.600 C 296.200 17.600,294.400 17.757,294.400 18.000 " stroke="none" fill="#f7e27b" fill-rule="evenodd"></path><path id="path1" d="M188.800 159.167 C 188.800 207.329,188.909 247.019,189.043 247.367 C 189.263 247.942,197.371 248.000,276.843 248.000 L 364.400 248.000 364.400 243.280 C 364.400 240.684,364.237 238.389,364.037 238.180 C 363.837 237.971,363.577 236.900,363.458 235.800 C 363.112 232.584,362.737 230.808,362.356 230.573 C 362.160 230.452,362.000 229.924,362.000 229.400 C 362.000 228.876,361.820 228.336,361.600 228.200 C 361.380 228.064,361.200 227.603,361.200 227.176 C 361.200 226.749,361.020 226.400,360.800 226.400 C 360.580 226.400,360.400 225.860,360.400 225.200 C 360.400 224.540,360.220 224.000,360.000 224.000 C 359.780 224.000,359.600 223.640,359.600 223.200 C 359.600 222.760,359.420 222.400,359.200 222.400 C 358.980 222.400,358.800 222.051,358.800 221.624 C 358.800 221.197,358.617 220.734,358.393 220.596 C 358.170 220.458,358.091 220.176,358.219 219.970 C 358.346 219.763,358.170 219.487,357.828 219.355 C 357.485 219.224,357.321 218.928,357.463 218.697 C 357.606 218.467,357.452 218.081,357.121 217.839 C 356.525 217.403,356.442 217.247,356.090 215.900 C 355.989 215.515,355.748 215.200,355.553 215.200 C 355.359 215.200,355.200 214.958,355.200 214.662 C 355.200 214.366,354.840 213.798,354.400 213.400 C 353.960 213.002,353.600 212.518,353.600 212.325 C 353.600 212.131,353.015 211.369,352.300 210.630 C 351.585 209.891,350.550 208.694,350.000 207.970 C 348.417 205.887,345.315 202.818,345.055 203.078 C 344.925 203.208,344.705 203.019,344.567 202.657 C 344.428 202.296,344.152 202.000,343.954 202.000 C 343.755 202.000,343.009 201.439,342.296 200.753 C 340.843 199.356,336.400 196.237,336.400 196.614 C 336.400 196.748,335.926 196.485,335.346 196.029 C 334.766 195.573,334.046 195.200,333.746 195.200 C 333.446 195.200,333.200 195.049,333.200 194.864 C 333.200 194.679,332.480 194.290,331.600 194.000 C 330.720 193.710,330.000 193.321,330.000 193.136 C 330.000 192.951,329.460 192.800,328.800 192.800 C 328.140 192.800,327.600 192.620,327.600 192.400 C 327.600 192.180,327.251 192.000,326.824 192.000 C 326.397 192.000,325.936 191.820,325.800 191.600 C 325.664 191.380,325.113 191.200,324.576 191.200 C 324.039 191.200,323.600 191.020,323.600 190.800 C 323.600 190.580,322.970 190.400,322.200 190.400 C 321.430 190.400,320.800 190.220,320.800 190.000 C 320.800 189.780,320.091 189.600,319.224 189.600 C 318.357 189.600,317.522 189.397,317.369 189.150 C 317.177 188.839,316.272 188.792,314.445 189.000 C 311.010 189.391,306.833 189.471,307.036 189.143 C 307.123 189.001,306.746 188.773,306.197 188.635 C 305.201 188.385,305.200 188.380,305.200 183.392 C 305.200 180.331,305.045 178.400,304.800 178.400 C 304.569 178.400,304.400 177.133,304.400 175.400 C 304.400 173.667,304.231 172.400,304.000 172.400 C 303.774 172.400,303.600 171.267,303.600 169.800 C 303.600 168.333,303.426 167.200,303.200 167.200 C 302.980 167.200,302.800 166.210,302.800 165.000 C 302.800 163.790,302.620 162.800,302.400 162.800 C 302.180 162.800,302.000 162.387,302.000 161.882 C 302.000 160.880,300.188 153.491,299.626 152.200 C 299.435 151.760,298.886 150.320,298.407 149.000 C 297.928 147.680,297.370 146.287,297.168 145.905 C 296.966 145.523,296.800 145.012,296.800 144.769 C 296.800 144.273,291.315 133.074,289.860 130.600 C 286.428 124.763,281.109 117.170,277.904 113.533 C 271.014 105.715,265.991 101.010,258.800 95.639 C 256.270 93.750,254.110 92.113,254.000 92.002 C 253.890 91.891,253.350 91.542,252.800 91.227 C 252.250 90.912,250.360 89.765,248.600 88.677 C 243.972 85.817,235.843 81.873,230.677 79.981 C 224.459 77.704,224.405 77.680,224.146 77.003 C 224.013 76.658,223.420 76.400,222.757 76.400 C 222.121 76.400,221.600 76.220,221.600 76.000 C 221.600 75.780,220.970 75.600,220.200 75.600 C 219.430 75.600,218.800 75.439,218.800 75.242 C 218.800 75.045,218.125 74.790,217.300 74.675 C 216.475 74.559,214.990 74.250,214.000 73.987 C 213.010 73.725,211.075 73.425,209.700 73.321 C 208.325 73.217,207.200 72.967,207.200 72.766 C 207.200 72.565,206.030 72.400,204.600 72.400 C 203.133 72.400,202.000 72.226,202.000 72.000 C 202.000 71.749,199.533 71.600,195.400 71.600 L 188.800 71.600 188.800 159.167 M0.000 278.400 L 0.000 291.200 186.269 291.200 C 359.032 291.200,372.590 291.248,373.269 291.862 C 373.706 292.258,374.000 292.338,374.000 292.062 C 374.000 291.808,373.865 291.600,373.700 291.600 C 373.535 291.600,373.450 285.863,373.511 278.850 L 373.621 266.099 372.711 265.855 C 372.210 265.721,288.145 265.608,185.900 265.605 L 0.000 265.600 0.000 278.400 M26.637 310.400 C 26.494 310.950,26.427 317.070,26.488 324.000 L 26.600 336.600 213.300 336.700 L 400.000 336.801 400.000 323.600 L 400.000 310.400 213.633 310.400 C 64.905 310.400,27.230 310.299,27.083 309.900 C 26.981 309.625,26.781 309.850,26.637 310.400 M120.133 337.500 C 171.576 337.556,255.636 337.556,306.933 337.500 C 358.230 337.444,316.140 337.398,213.400 337.398 C 110.660 337.398,68.690 337.444,120.133 337.500 M186.400 354.801 L -0.200 355.001 186.100 355.101 C 309.967 355.167,372.400 355.334,372.400 355.600 C 372.400 355.866,310.067 356.000,186.200 356.000 L 0.000 356.000 0.000 368.400 L 0.000 380.799 186.300 380.900 C 335.084 380.980,372.580 381.101,372.500 381.500 C 372.416 381.919,373.012 382.223,373.284 381.900 C 373.514 381.627,373.763 354.899,373.534 355.040 C 373.388 355.131,373.208 355.069,373.134 354.902 C 373.060 354.736,289.030 354.690,186.400 354.801 " stroke="none" fill="#2c4c9c" fill-rule="evenodd"></path><path id="path2" d="M176.235 71.898 C 176.071 72.062,174.736 72.328,173.268 72.488 C 169.075 72.945,165.556 73.494,163.600 73.996 C 162.610 74.250,161.213 74.555,160.496 74.673 C 159.779 74.792,159.094 75.049,158.973 75.244 C 158.852 75.440,158.234 75.600,157.600 75.600 C 156.966 75.600,156.336 75.780,156.200 76.000 C 156.064 76.220,155.243 76.400,154.376 76.400 C 153.509 76.400,152.800 76.580,152.800 76.800 C 152.800 77.020,152.350 77.200,151.800 77.200 C 151.250 77.200,150.800 77.380,150.800 77.600 C 150.800 77.820,150.665 77.970,150.500 77.933 C 149.900 77.798,147.185 78.500,146.972 78.845 C 146.851 79.040,146.403 79.200,145.976 79.200 C 145.549 79.200,145.200 79.380,145.200 79.600 C 145.200 79.820,144.856 80.000,144.434 80.000 C 144.013 80.000,142.618 80.518,141.334 81.151 C 140.051 81.784,138.415 82.526,137.700 82.799 C 136.985 83.073,136.400 83.455,136.400 83.649 C 136.400 83.842,136.050 84.000,135.623 84.000 C 134.837 84.000,132.221 85.367,131.298 86.261 C 131.021 86.529,130.436 86.862,129.998 87.001 C 129.559 87.140,129.200 87.422,129.200 87.627 C 129.200 87.832,128.840 88.000,128.400 88.000 C 127.960 88.000,127.600 88.180,127.600 88.400 C 127.600 88.620,127.330 88.800,127.000 88.800 C 126.670 88.800,126.400 88.958,126.400 89.151 C 126.400 89.345,125.860 89.727,125.200 90.000 C 124.540 90.273,124.000 90.655,124.000 90.849 C 124.000 91.042,123.730 91.200,123.400 91.200 C 123.070 91.200,122.800 91.380,122.800 91.600 C 122.800 91.820,122.530 92.000,122.200 92.000 C 121.870 92.000,121.600 92.180,121.600 92.400 C 121.600 92.620,121.358 92.800,121.062 92.800 C 120.766 92.800,120.202 93.156,119.809 93.591 C 119.415 94.025,118.933 94.282,118.737 94.161 C 118.541 94.040,118.430 94.179,118.490 94.470 C 118.551 94.762,118.375 94.955,118.100 94.900 C 117.825 94.845,117.600 94.980,117.600 95.200 C 117.600 95.420,117.410 95.600,117.178 95.600 C 116.946 95.600,116.181 96.139,115.478 96.798 C 114.775 97.457,114.059 97.997,113.887 97.998 C 113.715 97.999,112.146 99.440,110.400 101.200 C 108.654 102.960,107.059 104.400,106.856 104.400 C 106.652 104.400,106.378 104.681,106.246 105.025 C 106.114 105.369,105.820 105.536,105.593 105.396 C 105.366 105.255,105.226 105.289,105.283 105.470 C 105.417 105.902,104.428 107.077,100.900 110.675 C 99.305 112.302,97.999 113.760,97.998 113.916 C 97.997 114.072,97.457 114.775,96.798 115.478 C 96.139 116.181,95.600 116.946,95.600 117.178 C 95.600 117.410,95.409 117.600,95.176 117.600 C 94.943 117.600,94.860 117.774,94.992 117.987 C 95.123 118.200,94.864 118.603,94.416 118.883 C 93.967 119.163,93.600 119.619,93.600 119.896 C 93.600 120.173,93.420 120.400,93.200 120.400 C 92.980 120.400,92.800 120.630,92.800 120.912 C 92.800 121.193,92.440 121.683,92.000 122.000 C 91.560 122.317,91.200 122.897,91.200 123.288 C 91.200 123.680,91.020 124.000,90.800 124.000 C 90.580 124.000,90.400 124.270,90.400 124.600 C 90.400 124.930,90.220 125.200,90.000 125.200 C 89.780 125.200,89.600 125.470,89.600 125.800 C 89.600 126.130,89.420 126.400,89.200 126.400 C 88.980 126.400,88.800 126.670,88.800 127.000 C 88.800 127.330,88.620 127.600,88.400 127.600 C 88.180 127.600,88.000 127.865,88.000 128.188 C 88.000 128.792,85.638 132.494,85.100 132.733 C 84.935 132.807,84.796 133.167,84.791 133.533 C 84.786 133.900,84.430 134.650,84.000 135.200 C 83.570 135.750,83.214 136.459,83.209 136.776 C 83.198 137.475,80.722 142.546,80.300 142.733 C 80.135 142.807,80.000 143.176,80.000 143.553 C 80.000 143.931,79.833 144.411,79.629 144.620 C 79.426 144.829,79.145 145.810,79.006 146.800 C 78.867 147.790,78.523 148.780,78.242 149.000 C 77.960 149.220,77.704 149.670,77.672 150.000 C 77.515 151.613,77.081 153.174,76.832 153.020 C 76.679 152.925,76.509 153.602,76.455 154.524 C 76.401 155.446,76.187 156.371,75.979 156.580 C 75.770 156.789,75.600 157.464,75.600 158.080 C 75.600 158.696,75.420 159.200,75.200 159.200 C 74.980 159.200,74.800 159.920,74.800 160.800 C 74.800 161.680,74.620 162.400,74.400 162.400 C 74.180 162.400,74.000 163.030,74.000 163.800 C 74.000 164.570,73.820 165.200,73.600 165.200 C 73.371 165.200,73.200 166.400,73.200 168.000 C 73.200 169.540,73.051 170.800,72.868 170.800 C 72.686 170.800,72.495 171.830,72.444 173.088 C 72.393 174.347,72.200 175.562,72.015 175.788 C 71.830 176.015,71.652 178.804,71.619 181.986 C 71.550 188.799,71.970 187.991,68.470 188.044 C 66.895 188.068,65.706 188.248,65.827 188.444 C 65.948 188.640,64.766 188.800,63.200 188.800 C 61.404 188.800,60.444 188.948,60.600 189.200 C 60.809 189.537,58.291 189.849,57.070 189.637 C 56.889 189.606,56.855 189.765,56.994 189.990 C 57.149 190.240,56.698 190.400,55.836 190.400 C 55.059 190.400,53.783 190.760,53.000 191.200 C 52.217 191.640,51.131 192.000,50.588 192.000 C 50.045 192.000,49.600 192.146,49.600 192.325 C 49.600 192.690,46.819 193.856,46.320 193.700 C 46.144 193.645,46.000 193.780,46.000 194.000 C 46.000 194.220,45.865 194.372,45.700 194.338 C 45.180 194.229,42.775 195.442,43.022 195.689 C 43.151 195.818,42.686 196.049,41.988 196.203 C 41.290 196.356,40.377 196.823,39.959 197.241 C 39.542 197.658,38.970 198.000,38.688 198.000 C 38.407 198.000,37.917 198.360,37.600 198.800 C 37.283 199.240,36.783 199.600,36.488 199.600 C 36.194 199.600,36.064 199.780,36.200 200.000 C 36.336 200.220,36.122 200.405,35.724 200.411 C 35.326 200.417,34.280 201.247,33.400 202.256 C 32.520 203.265,31.384 204.250,30.876 204.444 C 30.368 204.639,30.063 204.979,30.200 205.199 C 30.336 205.420,30.191 205.600,29.877 205.600 C 29.563 205.600,28.831 206.319,28.249 207.197 C 27.234 208.731,26.549 209.563,23.700 212.724 C 22.985 213.518,22.400 214.455,22.400 214.808 C 22.400 215.161,22.040 215.836,21.600 216.308 C 21.160 216.780,20.800 217.365,20.800 217.607 C 20.800 217.849,20.620 217.936,20.400 217.800 C 20.180 217.664,20.000 217.923,20.000 218.376 C 20.000 218.829,19.820 219.200,19.600 219.200 C 19.380 219.200,19.200 219.539,19.200 219.954 C 19.200 220.803,18.217 222.884,17.944 222.611 C 17.847 222.514,17.738 222.829,17.702 223.311 C 17.665 223.794,17.448 224.251,17.218 224.327 C 16.988 224.404,16.800 224.902,16.800 225.433 C 16.800 225.965,16.620 226.400,16.400 226.400 C 16.180 226.400,16.000 226.696,16.000 227.057 C 16.000 227.418,15.628 228.964,15.172 230.492 C 14.717 232.021,14.319 233.615,14.287 234.036 C 14.256 234.456,14.120 234.800,13.986 234.800 C 13.852 234.800,13.700 235.739,13.648 236.888 C 13.595 238.036,13.415 239.161,13.246 239.388 C 13.078 239.614,12.954 241.600,12.970 243.800 L 13.000 247.800 101.143 247.901 C 181.432 247.993,189.265 247.945,189.043 247.368 C 188.909 247.020,188.800 207.329,188.800 159.167 L 188.800 71.600 182.667 71.600 C 179.293 71.600,176.399 71.734,176.235 71.898 " stroke="none" fill="#3b64cc" fill-rule="evenodd"></path><path id="path3" d="M302.800 165.733 C 302.800 166.540,302.976 167.200,303.190 167.200 C 303.414 167.200,303.475 166.647,303.333 165.900 C 302.986 164.077,302.800 164.019,302.800 165.733 M303.600 170.533 C 303.600 171.560,303.763 172.400,303.962 172.400 C 304.288 172.400,304.095 169.236,303.745 168.833 C 303.665 168.742,303.600 169.507,303.600 170.533 M304.447 176.500 C 304.421 177.545,304.580 178.400,304.800 178.400 C 305.250 178.400,305.250 177.569,304.800 175.800 C 304.527 174.729,304.490 174.804,304.447 176.500 M307.065 189.100 C 306.965 189.265,307.960 189.453,309.276 189.517 C 310.862 189.595,311.582 189.494,311.411 189.217 C 311.118 188.743,307.344 188.641,307.065 189.100 M0.000 265.000 C 0.000 265.533,20.866 265.601,185.900 265.605 C 288.145 265.608,372.207 265.720,372.706 265.854 L 373.611 266.096 373.506 278.650 L 373.400 291.204 186.700 291.201 C 20.778 291.199,0.000 291.265,-0.000 291.800 C -0.000 292.335,20.791 292.401,186.823 292.399 C 310.741 292.397,373.562 292.263,373.399 291.998 C 373.264 291.779,373.346 291.600,373.582 291.600 C 373.881 291.600,373.979 287.506,373.905 278.100 L 373.800 264.600 186.900 264.500 C 20.930 264.410,0.000 264.466,0.000 265.000 M26.406 309.900 C 26.411 310.498,26.469 310.513,26.800 310.000 C 27.058 309.600,27.190 309.567,27.194 309.900 C 27.199 310.299,64.750 310.400,213.600 310.400 C 379.022 310.400,400.000 310.332,400.000 309.800 C 400.000 309.268,378.978 309.200,213.200 309.200 C 35.560 309.200,26.400 309.234,26.406 309.900 M26.400 337.300 C 26.400 337.966,35.529 337.995,213.300 337.900 L 400.200 337.801 213.400 337.601 L 26.600 337.401 213.400 337.200 L 400.200 337.000 213.300 336.800 C 35.491 336.610,26.400 336.634,26.400 337.300 M93.100 354.700 C 144.415 354.756,228.385 354.756,279.700 354.700 C 331.015 354.644,289.030 354.598,186.400 354.598 C 83.770 354.598,41.785 354.644,93.100 354.700 M373.043 355.033 C 372.679 355.981,372.761 356.279,373.200 355.600 C 373.628 354.938,373.782 380.260,373.357 381.367 C 373.070 382.114,372.355 382.225,372.500 381.500 C 372.580 381.101,335.084 380.980,186.300 380.900 C 0.200 380.799,0.000 380.800,0.000 381.600 C 0.000 382.399,0.233 382.400,187.009 382.400 L 374.018 382.400 373.990 368.400 C 373.964 355.726,373.779 353.114,373.043 355.033 M0.000 355.600 C 0.000 355.866,62.333 356.000,186.200 356.000 C 310.067 356.000,372.400 355.866,372.400 355.600 C 372.400 355.334,310.067 355.200,186.200 355.200 C 62.333 355.200,0.000 355.334,0.000 355.600 " stroke="none" fill="#2c4c94" fill-rule="evenodd"></path><path id="path4" d="M224.032 76.706 C 223.994 77.313,225.979 78.236,231.400 80.136 C 235.709 81.646,246.615 87.087,249.662 89.247 C 250.246 89.661,250.921 90.000,251.162 90.000 C 251.403 90.000,251.600 90.159,251.600 90.353 C 251.600 90.548,251.915 90.793,252.300 90.898 C 254.414 91.475,265.020 100.153,271.205 106.365 C 281.091 116.296,287.263 124.851,293.309 137.000 C 296.396 143.205,296.817 144.156,298.000 147.600 C 298.264 148.370,298.633 149.360,298.820 149.800 C 299.319 150.977,300.704 155.395,301.579 158.600 C 301.999 160.140,302.354 161.040,302.367 160.600 C 302.417 158.900,299.063 147.730,298.262 146.928 C 298.118 146.784,298.000 146.415,298.000 146.108 C 298.000 145.086,291.358 131.358,290.400 130.400 C 290.290 130.290,289.763 129.390,289.230 128.400 C 288.696 127.410,288.156 126.510,288.030 126.400 C 287.903 126.290,287.452 125.570,287.027 124.800 C 286.320 123.519,280.944 116.067,280.391 115.600 C 280.260 115.490,279.853 114.961,279.486 114.424 C 277.050 110.864,264.915 99.158,260.400 96.014 C 259.630 95.477,258.910 94.931,258.800 94.800 C 258.690 94.669,257.970 94.125,257.200 93.592 C 256.430 93.058,255.451 92.302,255.025 91.911 C 254.598 91.520,254.013 91.200,253.725 91.200 C 253.436 91.200,253.200 91.020,253.200 90.800 C 253.200 90.580,252.930 90.400,252.600 90.400 C 252.270 90.400,252.000 90.220,252.000 90.000 C 252.000 89.780,251.833 89.600,251.629 89.600 C 251.426 89.600,249.770 88.686,247.951 87.570 C 246.131 86.453,242.833 84.681,240.621 83.632 C 234.495 80.727,232.567 79.896,230.200 79.145 C 229.320 78.865,228.429 78.493,228.220 78.318 C 228.011 78.143,227.426 78.000,226.920 78.000 C 226.414 78.000,226.000 77.820,226.000 77.600 C 226.000 77.380,225.655 77.200,225.233 77.200 C 224.812 77.200,224.376 76.975,224.265 76.700 C 224.105 76.304,224.057 76.306,224.032 76.706 M302.446 162.000 C 302.465 162.330,302.624 163.050,302.800 163.600 L 303.120 164.600 303.154 163.600 C 303.173 163.050,303.013 162.330,302.800 162.000 C 302.455 161.467,302.416 161.467,302.446 162.000 M303.435 166.600 C 303.582 167.700,303.769 168.675,303.851 168.767 C 304.210 169.168,303.946 165.739,303.577 165.200 C 303.286 164.774,303.245 165.180,303.435 166.600 M304.217 172.007 C 304.365 173.213,304.642 174.920,304.833 175.800 C 305.024 176.680,305.203 179.470,305.230 182.000 C 305.302 188.640,305.277 188.589,308.417 188.652 L 311.000 188.704 308.731 188.450 C 305.715 188.112,305.839 188.382,305.520 181.467 C 305.214 174.818,304.747 170.614,304.261 170.128 C 304.089 169.955,304.069 170.801,304.217 172.007 " stroke="none" fill="#a8aca4" fill-rule="evenodd"></path></g></svg>