<svg id="svg" version="1.1" xmlns="http://www.w3.org/2000/svg" xmlns:xlink="http://www.w3.org/1999/xlink" width="400" height="210" viewBox="0, 0, 400,210"><g id="svgg"><path id="path0" d="M217.752 3.594 C 214.253 4.101,213.388 4.258,211.450 4.745 C 202.782 6.922,196.011 11.016,189.513 18.008 C 186.887 20.833,186.744 22.849,189.084 24.059 C 190.668 24.878,191.243 24.574,194.643 21.119 C 200.151 15.521,206.417 11.883,213.235 10.326 C 213.755 10.207,214.417 10.054,214.706 9.987 C 232.033 5.919,252.018 17.201,257.861 34.349 C 258.879 37.336,260.013 37.853,263.655 36.992 C 273.612 34.639,285.582 39.746,291.437 48.845 C 301.864 65.047,292.176 86.747,273.139 89.829 C 271.368 90.116,217.551 90.310,217.272 90.031 C 217.216 89.975,217.861 89.241,218.705 88.399 C 235.962 71.199,223.825 42.421,199.420 42.673 C 197.310 42.695,195.553 42.674,195.515 42.627 C 195.476 42.580,195.039 41.691,194.543 40.651 C 188.588 28.172,175.411 20.334,161.266 20.857 C 148.040 21.347,136.694 28.651,130.680 40.546 L 129.565 42.752 125.969 42.677 C 117.101 42.490,109.687 45.881,104.300 52.586 C 91.501 68.514,100.607 92.188,120.878 95.686 C 124.116 96.245,270.898 96.167,274.082 95.605 C 301.069 90.841,311.046 58.099,291.189 39.463 C 283.923 32.643,273.355 29.401,263.626 31.007 C 262.887 31.129,262.852 31.105,262.599 30.325 C 261.037 25.515,255.422 17.929,250.176 13.541 C 241.377 6.181,228.076 2.101,217.752 3.594 M168.697 27.275 C 179.346 29.775,186.477 36.089,190.858 46.898 C 191.777 49.166,192.578 49.478,195.903 48.859 C 219.423 44.483,230.672 76.389,209.623 87.772 C 205.005 90.269,207.361 90.156,161.450 90.084 L 121.534 90.021 119.688 89.442 C 113.822 87.602,109.539 84.206,106.913 79.312 C 98.450 63.544,111.930 45.422,129.528 48.909 C 132.709 49.540,133.850 48.863,134.772 45.798 C 138.573 33.159,155.167 24.099,168.697 27.275 M124.370 102.247 C 123.743 102.367,122.971 103.041,122.564 103.824 C 122.041 104.829,122.142 117.541,122.680 118.423 C 123.796 120.254,126.382 120.322,127.550 118.551 C 128.077 117.752,128.153 104.591,127.637 103.592 C 127.100 102.555,125.721 101.987,124.370 102.247 M149.273 102.245 C 147.342 102.778,147.269 103.098,147.269 111.022 C 147.269 117.761,147.276 117.874,147.742 118.590 C 148.681 120.034,150.727 120.242,152.051 119.029 L 152.836 118.310 152.897 111.357 C 152.963 103.807,152.908 103.381,151.782 102.643 C 151.232 102.283,149.902 102.072,149.273 102.245 M174.265 102.246 C 172.301 102.780,172.164 103.352,172.164 111.029 C 172.164 116.099,172.228 117.694,172.454 118.230 C 173.348 120.348,176.500 120.368,177.573 118.262 C 178.163 117.106,178.126 104.613,177.530 103.635 C 176.839 102.502,175.468 101.918,174.265 102.246 M199.020 102.325 C 198.114 102.596,197.322 103.599,197.163 104.675 C 196.839 106.869,197.145 117.934,197.546 118.525 C 198.726 120.263,201.274 120.263,202.454 118.525 C 203.038 117.665,203.146 104.892,202.579 103.796 C 201.902 102.489,200.461 101.893,199.020 102.325 M224.085 102.310 C 223.284 102.559,222.693 103.110,222.345 103.932 C 221.927 104.919,221.932 117.146,222.350 118.148 C 223.256 120.316,226.643 120.370,227.546 118.230 C 228.042 117.053,227.963 104.283,227.454 103.534 C 226.711 102.439,225.309 101.930,224.085 102.310 M248.619 102.489 C 247.097 103.198,247.059 103.409,247.060 111.061 C 247.060 117.323,247.087 117.795,247.470 118.423 C 248.579 120.242,251.086 120.337,252.273 118.605 C 252.864 117.743,252.998 104.696,252.427 103.592 C 251.765 102.312,250.059 101.818,248.619 102.489 M274.063 102.250 C 272.136 102.760,272.059 103.098,272.059 111.047 C 272.059 117.556,272.081 117.948,272.481 118.595 C 273.534 120.300,276.227 120.204,277.325 118.423 C 277.962 117.389,277.858 104.195,277.206 103.329 C 276.517 102.415,275.177 101.955,274.063 102.250 M136.359 131.460 C 134.767 132.272,134.776 132.226,134.705 139.632 C 134.644 146.047,134.655 146.279,135.094 147.185 C 136.038 149.135,138.826 149.336,140.042 147.542 C 140.696 146.578,140.768 133.995,140.128 132.672 C 139.417 131.204,137.851 130.700,136.359 131.460 M161.555 131.229 C 161.052 131.432,160.279 132.200,159.959 132.815 C 159.428 133.835,159.537 146.197,160.086 147.273 C 161.071 149.203,163.909 149.275,165.045 147.398 C 165.469 146.698,165.766 136.489,165.440 133.853 C 165.197 131.895,163.218 130.558,161.555 131.229 M186.131 131.478 C 184.711 132.226,184.665 132.494,184.664 139.979 C 184.664 145.477,184.719 146.766,184.976 147.263 C 185.868 148.988,188.094 149.301,189.496 147.899 L 190.336 147.059 190.335 140.074 C 190.335 133.438,190.313 133.053,189.911 132.393 C 189.165 131.170,187.487 130.764,186.131 131.478 M211.191 131.404 C 209.703 132.051,209.666 132.262,209.665 140.074 L 209.664 147.059 210.504 147.899 C 211.906 149.301,214.132 148.988,215.024 147.263 C 215.552 146.243,215.478 133.324,214.940 132.441 C 214.214 131.251,212.582 130.799,211.191 131.404 M236.218 131.393 C 234.607 132.094,233.880 138.309,234.560 145.568 C 234.883 149.014,238.794 150.134,240.045 147.139 C 240.560 145.906,240.460 133.630,239.926 132.584 C 239.255 131.267,237.673 130.759,236.218 131.393 M261.407 131.229 C 260.664 131.390,259.709 132.645,259.559 133.657 C 259.224 135.925,259.540 146.926,259.958 147.542 C 261.163 149.321,264.056 149.123,264.928 147.202 C 265.449 146.054,265.550 134.101,265.048 132.924 C 264.450 131.520,263.057 130.871,261.407 131.229 M123.592 160.496 C 122.298 161.285,122.269 161.467,122.269 168.799 C 122.269 176.163,122.328 176.549,123.569 177.306 C 124.953 178.149,126.910 177.645,127.626 176.261 C 128.141 175.264,128.100 162.204,127.579 161.321 C 126.872 160.125,124.877 159.712,123.592 160.496 M148.592 160.496 C 147.295 161.287,147.269 161.451,147.270 168.950 C 147.271 176.486,147.303 176.673,148.720 177.406 C 150.058 178.098,151.773 177.649,152.530 176.408 C 153.215 175.283,153.158 162.358,152.462 161.326 C 151.602 160.050,149.917 159.688,148.592 160.496 M173.827 160.288 C 172.191 160.949,171.993 162.069,172.093 170.063 C 172.162 175.610,172.175 175.750,172.653 176.421 C 173.966 178.262,176.670 178.141,177.590 176.201 C 178.078 175.173,178.119 162.808,177.639 161.658 C 177.103 160.376,175.252 159.711,173.827 160.288 M198.391 160.516 C 197.156 161.308,197.059 161.908,197.060 168.754 C 197.061 175.632,197.138 176.159,198.269 177.092 C 199.812 178.363,202.166 177.616,202.740 175.672 C 203.145 174.301,202.921 161.990,202.480 161.367 C 201.562 160.071,199.693 159.682,198.391 160.516 M223.408 160.480 C 222.120 161.266,222.059 161.645,222.059 168.895 C 222.059 174.915,222.091 175.499,222.459 176.216 C 223.452 178.151,226.036 178.259,227.347 176.421 C 227.863 175.698,228.212 165.895,227.832 162.822 C 227.547 160.524,225.292 159.331,223.408 160.480 M248.382 160.483 C 247.086 161.298,247.059 161.467,247.059 168.813 C 247.059 176.938,247.306 177.728,249.853 177.730 C 252.540 177.733,252.729 177.144,252.730 168.785 L 252.731 161.835 252.038 161.033 C 251.157 160.014,249.521 159.768,248.382 160.483 M273.634 160.284 C 273.403 160.380,272.978 160.712,272.689 161.023 L 272.164 161.588 272.103 168.604 C 272.031 177.034,272.239 177.728,274.853 177.730 C 277.532 177.733,277.730 177.128,277.730 168.908 C 277.730 162.506,277.704 162.038,277.319 161.407 C 276.624 160.267,274.927 159.750,273.634 160.284 M136.388 189.284 C 134.713 190.044,134.631 190.477,134.705 198.174 C 134.776 205.452,134.774 205.443,136.198 206.312 C 137.473 207.089,139.194 206.649,140.062 205.324 C 140.408 204.796,140.441 204.140,140.441 197.787 L 140.441 190.829 139.882 190.096 C 139.533 189.637,139.013 189.271,138.493 189.115 C 137.439 188.799,137.461 188.797,136.388 189.284 M161.337 189.338 C 159.691 190.168,159.665 190.304,159.665 197.794 C 159.665 205.064,159.706 205.306,161.113 206.246 C 162.395 207.102,163.994 206.755,164.952 205.413 C 165.634 204.457,165.726 191.594,165.060 190.372 C 164.334 189.042,162.780 188.610,161.337 189.338 M186.690 189.079 C 185.958 189.301,185.348 189.832,184.957 190.588 C 184.430 191.608,184.539 204.309,185.083 205.202 C 186.239 207.097,188.829 207.196,189.933 205.385 C 190.504 204.449,190.556 191.298,189.993 190.345 C 189.377 189.303,187.864 188.723,186.690 189.079 M211.660 189.095 C 210.906 189.329,210.502 189.634,210.022 190.330 C 209.521 191.058,209.476 204.279,209.971 205.237 C 210.958 207.146,214.076 207.110,214.992 205.178 C 215.560 203.982,215.502 191.347,214.925 190.400 C 214.211 189.229,212.906 188.708,211.660 189.095 M236.179 189.304 C 234.565 190.117,234.559 190.149,234.559 197.899 C 234.559 204.665,234.563 204.733,235.037 205.397 C 236.322 207.198,238.759 207.101,239.917 205.202 C 240.520 204.212,240.564 191.730,239.968 190.561 C 239.206 189.066,237.667 188.555,236.179 189.304 M261.231 189.260 C 259.544 190.027,259.559 189.952,259.559 197.794 C 259.559 204.717,259.560 204.728,260.048 205.413 C 261.375 207.274,263.932 207.079,264.974 205.038 C 265.608 203.796,265.426 191.135,264.761 190.202 C 263.922 189.026,262.552 188.661,261.231 189.260 " stroke="none" fill="#070708" fill-rule="evenodd"></path><path id="path1" d="M0.000 105.042 L 0.000 210.084 200.000 210.084 L 400.000 210.084 400.000 105.042 L 400.000 0.000 200.000 0.000 L 0.000 0.000 0.000 105.042 M228.466 3.551 C 231.476 4.049,232.106 4.175,233.298 4.511 C 243.911 7.510,252.027 13.168,258.321 21.954 C 258.900 22.763,259.441 23.566,259.522 23.739 C 259.603 23.913,259.958 24.527,260.310 25.105 C 260.663 25.683,261.441 27.184,262.041 28.441 L 263.130 30.727 264.916 30.554 C 268.532 30.202,273.912 30.455,276.155 31.081 C 277.458 31.444,281.210 32.650,281.513 32.802 C 281.686 32.890,282.726 33.403,283.824 33.942 C 288.162 36.075,291.883 39.213,295.389 43.697 C 296.890 45.616,297.878 47.371,299.589 51.155 C 302.551 57.705,302.551 69.026,299.588 75.525 C 297.986 79.039,297.320 80.259,295.914 82.248 C 293.077 86.260,288.534 90.364,284.979 92.126 C 284.517 92.355,284.091 92.589,284.034 92.647 C 283.935 92.746,281.276 93.976,280.357 94.348 C 280.126 94.441,279.606 94.610,279.202 94.722 C 278.797 94.834,277.805 95.110,276.996 95.335 C 273.273 96.373,277.276 96.324,197.059 96.324 C 118.020 96.324,121.296 96.360,118.172 95.451 C 117.595 95.283,116.977 95.068,116.800 94.973 C 116.623 94.879,116.158 94.731,115.766 94.645 C 115.078 94.494,113.209 93.586,111.029 92.344 C 107.431 90.294,102.896 85.431,101.124 81.723 C 100.237 79.868,99.600 78.301,99.287 77.206 C 99.089 76.513,98.835 75.649,98.723 75.287 C 98.168 73.489,98.157 65.194,98.708 63.403 C 98.825 63.022,99.039 62.285,99.183 61.765 C 101.671 52.771,108.897 45.771,118.487 43.064 C 121.011 42.351,126.033 42.019,128.137 42.425 C 129.070 42.605,129.622 42.533,129.622 42.231 C 129.622 41.488,131.917 37.441,133.780 34.900 C 135.738 32.230,142.088 26.261,142.972 26.261 C 143.049 26.261,143.503 25.996,143.982 25.673 C 145.140 24.891,148.974 23.052,150.420 22.585 C 151.056 22.380,151.765 22.137,151.996 22.045 C 152.541 21.829,155.630 21.108,157.261 20.816 C 158.905 20.522,166.440 20.521,167.894 20.815 C 174.010 22.053,177.194 23.229,181.408 25.809 C 182.447 26.446,183.346 27.021,183.403 27.087 C 183.691 27.414,185.294 28.571,185.459 28.571 C 185.753 28.571,188.281 24.152,188.143 23.878 C 188.076 23.744,187.839 23.351,187.618 23.004 C 187.135 22.247,187.072 20.854,187.485 20.058 C 188.485 18.130,196.928 10.294,198.006 10.294 C 198.072 10.294,198.241 10.192,198.381 10.068 C 201.109 7.639,210.161 4.358,216.807 3.389 C 218.468 3.147,226.719 3.261,228.466 3.551 M127.063 102.461 C 128.320 103.399,128.361 103.674,128.361 111.004 L 128.361 117.708 127.795 118.604 C 126.416 120.783,123.625 120.667,122.328 118.376 C 121.731 117.322,121.579 105.317,122.146 103.965 C 122.980 101.974,125.413 101.230,127.063 102.461 M151.658 102.299 C 151.909 102.433,152.395 102.930,152.738 103.404 L 153.361 104.265 153.361 111.029 L 153.361 117.794 152.735 118.658 C 151.230 120.737,148.784 120.667,147.326 118.504 C 146.687 117.555,146.571 104.927,147.191 103.729 C 148.109 101.954,149.927 101.372,151.658 102.299 M176.643 102.291 C 176.885 102.420,177.348 102.872,177.670 103.295 L 178.256 104.063 178.317 110.742 C 178.375 117.091,178.357 117.462,177.954 118.252 C 176.685 120.739,173.460 120.783,172.191 118.330 C 171.679 117.340,171.678 104.730,172.190 103.652 C 172.971 102.005,174.968 101.394,176.643 102.291 M226.629 102.283 C 226.884 102.420,227.331 102.882,227.622 103.310 L 228.151 104.089 228.151 110.981 C 228.151 117.165,228.114 117.930,227.786 118.442 C 226.286 120.786,223.292 120.695,222.054 118.268 C 221.430 117.045,221.416 105.042,222.036 103.826 C 222.986 101.965,224.859 101.336,226.629 102.283 M251.931 102.591 C 253.123 103.620,253.151 103.815,253.151 111.029 C 253.151 118.732,253.118 118.893,251.313 119.826 C 249.920 120.546,248.377 120.136,247.332 118.767 L 246.744 117.996 246.683 111.189 C 246.625 104.684,246.641 104.353,247.044 103.701 C 248.247 101.754,250.397 101.266,251.931 102.591 M276.494 102.321 C 277.008 102.594,277.425 103.085,277.889 103.963 C 278.083 104.330,278.151 106.184,278.151 111.056 C 278.151 117.937,278.146 117.983,277.206 119.085 C 275.818 120.712,273.392 120.479,272.205 118.604 L 271.639 117.708 271.639 111.052 C 271.639 104.894,271.669 104.336,272.043 103.602 C 272.915 101.893,274.713 101.376,276.494 102.321 M201.691 102.364 C 203.211 103.389,203.249 103.579,203.320 110.544 C 203.392 117.561,203.312 118.166,202.166 119.247 C 200.374 120.937,197.497 120.056,196.841 117.617 C 196.393 115.955,196.667 104.436,197.175 103.572 C 197.811 102.490,198.818 101.891,200.000 101.891 C 200.677 101.891,201.209 102.040,201.691 102.364 M138.718 130.956 C 139.943 131.468,140.701 132.571,140.860 134.073 C 141.183 137.119,140.893 146.714,140.459 147.384 C 138.806 149.929,135.437 149.521,134.482 146.660 C 134.036 145.324,134.164 134.044,134.637 132.948 C 135.428 131.116,137.122 130.289,138.718 130.956 M163.964 131.152 C 165.767 132.172,165.756 132.122,165.756 139.966 L 165.756 146.887 165.179 147.702 C 163.619 149.902,160.698 149.473,159.555 146.876 C 159.110 145.862,159.097 134.015,159.540 132.956 C 160.347 131.030,162.325 130.223,163.964 131.152 M188.867 131.093 C 189.320 131.324,189.931 131.866,190.224 132.297 L 190.756 133.081 190.756 139.933 L 190.756 146.786 190.150 147.622 C 188.620 149.734,185.828 149.550,184.659 147.260 C 184.082 146.129,184.016 133.822,184.581 132.730 C 185.514 130.925,187.244 130.265,188.867 131.093 M213.865 131.154 C 215.706 132.058,215.749 132.260,215.753 139.973 L 215.756 146.647 215.253 147.445 C 213.861 149.649,211.055 149.626,209.679 147.398 C 209.262 146.724,209.244 146.404,209.244 139.940 L 209.244 133.185 209.768 132.354 C 210.755 130.791,212.240 130.355,213.865 131.154 M238.710 131.093 C 239.200 131.324,239.837 131.861,240.126 132.285 L 240.651 133.057 240.705 139.795 C 240.758 146.452,240.753 146.544,240.284 147.374 C 239.306 149.105,237.128 149.597,235.601 148.432 C 234.246 147.399,234.244 147.383,234.244 139.870 L 234.244 133.081 234.775 132.298 C 235.784 130.814,237.201 130.380,238.710 131.093 M263.611 131.070 C 264.574 131.561,265.016 132.039,265.433 133.037 C 265.846 134.025,265.884 145.682,265.478 146.779 C 264.457 149.534,261.177 149.907,259.584 147.448 C 259.097 146.697,259.059 133.529,259.541 132.597 C 260.390 130.955,262.117 130.307,263.611 131.070 M126.485 159.987 C 126.828 160.164,127.391 160.698,127.735 161.174 L 128.361 162.038 128.361 168.862 C 128.361 175.396,128.343 175.716,127.926 176.390 C 126.510 178.681,123.470 178.493,122.217 176.035 C 121.580 174.787,121.674 162.611,122.329 161.454 C 123.187 159.939,125.092 159.266,126.485 159.987 M151.440 159.995 C 151.805 160.177,152.363 160.666,152.680 161.081 L 153.256 161.836 153.317 168.623 C 153.382 175.845,153.347 176.145,152.324 177.125 C 150.825 178.561,148.360 178.180,147.325 176.354 C 146.739 175.320,146.580 163.017,147.135 161.705 C 147.856 160.001,149.858 159.206,151.440 159.995 M176.576 160.141 C 178.269 161.088,178.361 161.539,178.361 168.854 C 178.361 175.528,178.306 175.994,177.390 177.015 C 175.990 178.577,173.255 178.178,172.238 176.264 C 171.720 175.290,171.638 162.572,172.142 161.596 C 173.050 159.842,174.935 159.223,176.576 160.141 M201.313 160.006 C 202.072 160.399,202.261 160.578,202.839 161.450 C 203.449 162.371,203.484 174.825,202.880 176.162 C 201.648 178.887,197.655 178.422,196.859 175.460 C 196.420 173.828,196.649 162.464,197.139 161.565 C 198.075 159.845,199.775 159.211,201.313 160.006 M226.106 159.926 C 226.875 160.356,227.542 160.993,227.856 161.597 C 228.304 162.458,228.287 175.389,227.836 176.260 C 226.563 178.722,223.116 178.511,221.942 175.900 C 221.369 174.624,221.509 162.741,222.111 161.547 C 222.884 160.017,224.844 159.221,226.106 159.926 M251.106 159.926 C 253.138 161.063,253.151 161.119,253.151 168.901 L 253.151 175.639 252.627 176.469 C 251.250 178.651,248.476 178.536,247.075 176.238 C 246.373 175.087,246.410 162.706,247.119 161.454 C 247.937 160.009,249.905 159.255,251.106 159.926 M276.082 159.962 C 276.890 160.299,277.320 160.732,277.811 161.702 C 278.318 162.704,278.321 175.113,277.814 176.094 C 276.584 178.471,273.645 178.695,272.170 176.525 L 271.639 175.743 271.639 168.908 L 271.639 162.072 272.180 161.275 C 273.191 159.788,274.561 159.326,276.082 159.962 M139.054 188.991 C 139.424 189.176,139.983 189.713,140.294 190.184 L 140.861 191.041 140.861 197.779 L 140.861 204.517 140.358 205.326 C 138.824 207.794,135.476 207.383,134.557 204.615 C 134.028 203.024,134.183 191.616,134.749 190.476 C 135.534 188.895,137.501 188.217,139.054 188.991 M164.031 189.020 C 165.797 190.150,165.756 189.945,165.756 197.792 L 165.756 204.734 165.225 205.516 C 163.818 207.586,160.999 207.394,159.723 205.141 C 159.040 203.934,158.978 191.891,159.649 190.576 C 160.533 188.843,162.604 188.108,164.031 189.020 M189.231 189.205 C 190.771 190.380,190.755 190.285,190.756 197.854 C 190.756 205.093,190.760 205.063,189.688 206.089 C 188.120 207.590,185.595 207.055,184.572 205.005 C 184.110 204.078,184.083 191.822,184.540 190.729 C 185.357 188.780,187.683 188.024,189.231 189.205 M214.092 189.133 C 215.767 190.262,215.756 190.205,215.756 197.773 C 215.755 205.299,215.771 205.209,214.231 206.383 C 212.771 207.497,210.413 206.841,209.574 205.087 C 209.097 204.092,209.081 191.471,209.554 190.555 C 210.469 188.786,212.591 188.121,214.092 189.133 M238.711 188.918 C 240.702 190.031,240.756 190.267,240.756 197.760 C 240.756 202.790,240.693 204.301,240.460 204.859 C 239.429 207.318,236.243 207.677,234.765 205.501 L 234.244 204.734 234.244 197.792 C 234.244 190.500,234.243 190.507,235.180 189.599 C 236.127 188.683,237.735 188.373,238.711 188.918 M263.711 188.918 C 265.660 190.008,265.756 190.427,265.756 197.818 C 265.756 202.911,265.699 204.142,265.433 204.778 C 264.363 207.339,261.286 207.740,259.775 205.516 L 259.244 204.734 259.244 197.794 L 259.244 190.854 259.769 190.081 C 260.640 188.799,262.510 188.247,263.711 188.918 " stroke="none" fill="#fbfbfb" fill-rule="evenodd"></path><path id="path2" d="M224.212 9.599 C 224.414 9.651,224.745 9.651,224.947 9.599 C 225.150 9.546,224.984 9.503,224.580 9.503 C 224.175 9.503,224.010 9.546,224.212 9.599 M217.595 9.812 C 217.855 9.862,218.280 9.862,218.540 9.812 C 218.800 9.762,218.587 9.721,218.067 9.721 C 217.547 9.721,217.335 9.762,217.595 9.812 M225.788 9.812 C 226.048 9.862,226.473 9.862,226.733 9.812 C 226.993 9.762,226.780 9.721,226.261 9.721 C 225.741 9.721,225.528 9.762,225.788 9.812 M190.756 16.282 C 190.246 16.801,189.876 17.227,189.934 17.227 C 189.991 17.227,190.456 16.801,190.966 16.282 C 191.477 15.762,191.847 15.336,191.789 15.336 C 191.731 15.336,191.267 15.762,190.756 16.282 M246.954 18.908 C 247.405 19.370,247.822 19.748,247.879 19.748 C 247.937 19.748,247.615 19.370,247.164 18.908 C 246.713 18.445,246.296 18.067,246.238 18.067 C 246.180 18.067,246.502 18.445,246.954 18.908 M195.367 20.536 L 194.643 21.324 195.431 20.600 C 196.164 19.926,196.315 19.748,196.155 19.748 C 196.120 19.748,195.765 20.102,195.367 20.536 M159.719 20.739 C 160.039 20.787,160.511 20.786,160.770 20.736 C 161.028 20.686,160.767 20.647,160.189 20.648 C 159.611 20.650,159.400 20.691,159.719 20.739 M164.338 20.739 C 164.656 20.787,165.176 20.787,165.494 20.739 C 165.811 20.691,165.551 20.651,164.916 20.651 C 164.280 20.651,164.020 20.691,164.338 20.739 M187.234 21.429 C 187.234 21.833,187.277 21.998,187.330 21.796 C 187.383 21.594,187.383 21.263,187.330 21.061 C 187.277 20.859,187.234 21.024,187.234 21.429 M252.667 25.226 C 252.875 25.582,253.180 25.984,253.345 26.119 C 253.509 26.255,253.378 25.964,253.054 25.473 C 252.374 24.442,252.106 24.271,252.667 25.226 M159.244 27.130 C 158.262 27.231,157.184 27.407,156.849 27.522 C 156.514 27.637,155.976 27.731,155.653 27.731 C 155.331 27.731,155.008 27.826,154.937 27.941 C 154.866 28.057,154.592 28.151,154.329 28.151 C 153.637 28.151,150.008 29.671,147.977 30.811 C 142.177 34.066,137.073 39.997,135.079 45.798 C 133.773 49.596,132.626 50.129,128.361 48.920 C 127.499 48.675,122.379 48.800,121.008 49.099 C 113.383 50.761,107.374 56.444,105.284 63.971 C 102.161 75.212,109.288 86.830,120.903 89.434 C 122.487 89.789,124.883 89.811,162.605 89.811 C 210.728 89.811,206.346 90.126,208.194 86.531 C 213.144 76.903,213.210 62.314,208.350 52.355 C 207.131 49.858,206.911 49.690,204.097 49.105 C 202.649 48.804,196.979 48.824,195.693 49.135 C 193.730 49.609,193.482 49.629,192.802 49.361 C 191.832 48.978,191.072 48.214,190.655 47.201 C 190.456 46.718,190.208 46.159,190.104 45.959 C 190.001 45.758,189.916 45.465,189.916 45.306 C 189.916 45.148,189.587 44.414,189.185 43.675 C 188.783 42.936,188.249 41.936,187.998 41.451 C 186.828 39.188,183.159 35.002,180.672 33.093 C 179.574 32.250,176.132 30.042,175.915 30.042 C 175.859 30.042,175.323 29.821,174.724 29.551 C 174.125 29.281,172.973 28.844,172.164 28.579 C 171.355 28.314,170.504 28.021,170.273 27.928 C 169.762 27.723,169.062 27.604,166.071 27.210 C 163.520 26.873,161.924 26.855,159.244 27.130 M187.710 30.882 C 188.396 31.576,189.005 32.143,189.062 32.143 C 189.120 32.143,188.606 31.576,187.920 30.882 C 187.234 30.189,186.626 29.622,186.568 29.622 C 186.510 29.622,187.024 30.189,187.710 30.882 M256.948 32.878 C 256.948 32.994,257.083 33.325,257.248 33.613 C 257.413 33.902,257.548 34.044,257.548 33.929 C 257.548 33.813,257.413 33.482,257.248 33.193 C 257.083 32.904,256.948 32.763,256.948 32.878 M258.193 36.084 C 258.193 36.894,260.152 37.895,261.470 37.760 C 262.253 37.679,262.245 37.674,261.282 37.640 C 260.104 37.599,259.246 37.206,258.632 36.425 C 258.391 36.119,258.193 35.965,258.193 36.084 M264.811 36.975 C 264.546 37.089,264.507 37.155,264.706 37.155 C 264.879 37.155,265.210 37.074,265.441 36.975 C 265.706 36.861,265.745 36.794,265.546 36.794 C 265.373 36.794,265.042 36.875,264.811 36.975 M272.374 36.975 C 272.605 37.074,272.983 37.153,273.214 37.149 C 273.552 37.144,273.531 37.110,273.109 36.975 C 272.391 36.745,271.839 36.745,272.374 36.975 M280.623 40.914 C 286.716 49.997,288.428 63.507,285.074 76.050 C 283.968 80.185,281.199 85.612,279.215 87.535 C 278.541 88.187,278.565 88.181,280.493 87.220 C 281.574 86.681,282.505 86.192,282.563 86.134 C 282.621 86.077,283.347 85.575,284.176 85.020 C 288.545 82.094,292.316 77.048,294.021 71.849 C 294.748 69.631,294.789 69.446,295.371 65.732 C 295.727 63.456,295.682 62.704,294.919 58.193 C 293.655 50.721,288.235 43.468,281.181 39.808 C 280.182 39.290,279.338 38.866,279.306 38.866 C 279.275 38.866,279.867 39.787,280.623 40.914 M124.425 42.378 C 124.744 42.426,125.217 42.425,125.476 42.375 C 125.734 42.325,125.473 42.285,124.895 42.287 C 124.317 42.289,124.106 42.329,124.425 42.378 M197.847 42.375 C 198.107 42.425,198.532 42.425,198.792 42.375 C 199.052 42.325,198.839 42.284,198.319 42.284 C 197.799 42.284,197.587 42.325,197.847 42.375 M201.631 42.375 C 201.892 42.426,202.270 42.424,202.471 42.371 C 202.672 42.319,202.458 42.278,201.996 42.280 C 201.534 42.282,201.369 42.325,201.631 42.375 M203.204 42.582 C 203.406 42.635,203.737 42.635,203.939 42.582 C 204.141 42.529,203.976 42.486,203.571 42.486 C 203.167 42.486,203.002 42.529,203.204 42.582 M213.043 45.656 C 213.091 45.694,213.461 45.938,213.866 46.199 L 214.601 46.673 213.971 46.132 C 213.624 45.834,213.254 45.590,213.148 45.589 C 213.042 45.589,212.995 45.619,213.043 45.656 M215.756 47.331 C 215.756 47.385,216.201 47.793,216.744 48.238 C 217.288 48.683,217.665 48.938,217.582 48.804 C 217.405 48.518,215.756 47.188,215.756 47.331 M218.908 50.105 C 219.300 50.509,219.668 50.840,219.725 50.840 C 219.783 50.840,219.510 50.509,219.118 50.105 C 218.726 49.701,218.358 49.370,218.300 49.370 C 218.242 49.370,218.516 49.701,218.908 50.105 M221.090 52.583 C 221.535 53.127,221.943 53.571,221.997 53.571 C 222.140 53.571,220.810 51.922,220.524 51.746 C 220.390 51.663,220.644 52.040,221.090 52.583 M225.035 59.465 C 225.158 59.817,225.298 60.066,225.345 60.019 C 225.449 59.915,225.053 58.824,224.911 58.824 C 224.856 58.824,224.912 59.112,225.035 59.465 M226.179 62.920 C 226.351 63.693,226.472 63.860,226.467 63.323 C 226.466 63.101,226.368 62.778,226.251 62.605 C 226.095 62.375,226.076 62.460,226.179 62.920 M226.951 67.752 C 226.952 68.330,226.993 68.541,227.042 68.222 C 227.090 67.903,227.089 67.430,227.039 67.171 C 226.989 66.913,226.949 67.174,226.951 67.752 M226.951 70.693 C 226.952 71.271,226.993 71.482,227.042 71.163 C 227.090 70.844,227.089 70.371,227.039 70.113 C 226.989 69.854,226.949 70.116,226.951 70.693 M226.729 72.479 C 226.729 72.883,226.773 73.049,226.825 72.847 C 226.878 72.644,226.878 72.314,226.825 72.111 C 226.773 71.909,226.729 72.075,226.729 72.479 M105.987 88.235 C 106.556 88.813,107.069 89.286,107.127 89.286 C 107.185 89.286,106.767 88.813,106.197 88.235 C 105.628 87.658,105.116 87.185,105.058 87.185 C 105.000 87.185,105.418 87.658,105.987 88.235 M270.539 89.858 C 270.917 89.905,271.484 89.904,271.800 89.856 C 272.116 89.808,271.807 89.770,271.113 89.771 C 270.420 89.772,270.162 89.811,270.539 89.858 M161.065 96.376 C 180.727 96.406,212.965 96.406,232.704 96.376 C 252.442 96.346,236.355 96.322,196.954 96.322 C 157.553 96.322,141.403 96.346,161.065 96.376 M174.632 102.036 C 174.835 102.088,175.165 102.088,175.368 102.036 C 175.570 101.983,175.404 101.939,175.000 101.939 C 174.596 101.939,174.430 101.983,174.632 102.036 M199.632 102.036 C 199.835 102.088,200.165 102.088,200.368 102.036 C 200.570 101.983,200.404 101.939,200.000 101.939 C 199.596 101.939,199.430 101.983,199.632 102.036 M224.632 102.036 C 224.835 102.088,225.165 102.088,225.368 102.036 C 225.570 101.983,225.404 101.939,225.000 101.939 C 224.596 101.939,224.430 101.983,224.632 102.036 M128.244 110.924 C 128.244 114.333,128.273 115.727,128.308 114.023 C 128.344 112.319,128.344 109.530,128.308 107.826 C 128.273 106.121,128.244 107.516,128.244 110.924 M171.942 110.924 C 171.942 114.333,171.971 115.727,172.006 114.023 C 172.041 112.319,172.041 109.530,172.006 107.826 C 171.971 106.121,171.942 107.516,171.942 110.924 M228.034 111.029 C 228.034 114.496,228.063 115.943,228.098 114.246 C 228.133 112.549,228.134 109.713,228.098 107.944 C 228.063 106.174,228.034 107.563,228.034 111.029 M134.547 139.916 C 134.547 143.556,134.576 145.045,134.611 143.225 C 134.646 141.405,134.646 138.427,134.611 136.607 C 134.576 134.787,134.547 136.276,134.547 139.916 M165.640 140.021 C 165.640 143.603,165.668 145.098,165.703 143.343 C 165.738 141.588,165.738 138.657,165.703 136.830 C 165.668 135.003,165.640 136.439,165.640 140.021 M234.337 140.021 C 234.337 143.487,234.365 144.935,234.401 143.238 C 234.436 141.541,234.436 138.704,234.401 136.935 C 234.366 135.166,234.337 136.555,234.337 140.021 M190.639 140.021 C 190.639 143.372,190.668 144.713,190.703 143.002 C 190.739 141.290,190.739 138.549,190.703 136.909 C 190.668 135.270,190.639 136.670,190.639 140.021 M228.034 168.908 C 228.034 172.432,228.063 173.873,228.098 172.111 C 228.133 170.349,228.133 167.466,228.098 165.704 C 228.063 163.942,228.034 165.383,228.034 168.908 M128.244 168.908 C 128.244 172.316,128.273 173.711,128.308 172.006 C 128.344 170.302,128.344 167.513,128.308 165.809 C 128.273 164.105,128.244 165.499,128.244 168.908 M171.942 168.908 C 171.942 172.316,171.971 173.711,172.006 172.006 C 172.041 170.302,172.041 167.513,172.006 165.809 C 171.971 164.105,171.942 165.499,171.942 168.908 M262.027 188.800 C 262.230 188.853,262.560 188.853,262.763 188.800 C 262.965 188.747,262.799 188.704,262.395 188.704 C 261.991 188.704,261.825 188.747,262.027 188.800 M134.547 197.794 C 134.547 201.376,134.576 202.871,134.611 201.116 C 134.646 199.361,134.646 196.431,134.611 194.603 C 134.576 192.776,134.547 194.212,134.547 197.794 M165.640 197.794 C 165.640 201.376,165.668 202.871,165.703 201.116 C 165.738 199.361,165.738 196.431,165.703 194.603 C 165.668 192.776,165.640 194.212,165.640 197.794 M234.337 197.794 C 234.337 201.261,234.365 202.708,234.401 201.011 C 234.436 199.314,234.436 196.478,234.401 194.708 C 234.366 192.939,234.337 194.328,234.337 197.794 M190.639 197.794 C 190.639 201.145,190.668 202.486,190.703 200.775 C 190.739 199.064,190.739 196.322,190.703 194.683 C 190.668 193.043,190.639 194.443,190.639 197.794 M137.237 206.868 C 137.440 206.920,137.770 206.920,137.973 206.868 C 138.175 206.815,138.009 206.771,137.605 206.771 C 137.201 206.771,137.035 206.815,137.237 206.868 M162.237 206.868 C 162.440 206.920,162.770 206.920,162.973 206.868 C 163.175 206.815,163.009 206.771,162.605 206.771 C 162.201 206.771,162.035 206.815,162.237 206.868 M237.027 206.868 C 237.230 206.920,237.560 206.920,237.763 206.868 C 237.965 206.815,237.799 206.771,237.395 206.771 C 236.991 206.771,236.825 206.815,237.027 206.868 M262.027 206.868 C 262.230 206.920,262.560 206.920,262.763 206.868 C 262.965 206.815,262.799 206.771,262.395 206.771 C 261.991 206.771,261.825 206.815,262.027 206.868 " stroke="none" fill="#8ddaf8" fill-rule="evenodd"></path><path id="path3" d="M216.439 3.716 C 216.641 3.769,216.972 3.769,217.174 3.716 C 217.377 3.663,217.211 3.620,216.807 3.620 C 216.402 3.620,216.237 3.663,216.439 3.716 M227.153 3.716 C 227.356 3.769,227.686 3.769,227.889 3.716 C 228.091 3.663,227.925 3.620,227.521 3.620 C 227.117 3.620,226.951 3.663,227.153 3.716 M220.851 9.399 C 221.631 9.440,222.907 9.440,223.687 9.399 C 224.467 9.359,223.829 9.326,222.269 9.326 C 220.709 9.326,220.071 9.359,220.851 9.399 M218.015 9.602 C 218.275 9.652,218.700 9.652,218.960 9.602 C 219.220 9.552,219.007 9.511,218.487 9.511 C 217.967 9.511,217.755 9.552,218.015 9.602 M225.580 9.602 C 225.842 9.653,226.220 9.651,226.421 9.598 C 226.621 9.546,226.408 9.504,225.945 9.507 C 225.483 9.509,225.319 9.552,225.580 9.602 M215.336 9.874 C 214.599 10.110,215.369 10.118,216.492 9.886 L 217.332 9.712 216.597 9.709 C 216.192 9.707,215.625 9.781,215.336 9.874 M227.836 9.886 C 228.958 10.118,229.729 10.110,228.992 9.874 C 228.703 9.781,228.136 9.707,227.731 9.709 L 226.996 9.712 227.836 9.886 M213.340 10.294 L 212.920 10.475 213.340 10.475 C 213.571 10.475,213.950 10.393,214.181 10.294 L 214.601 10.114 214.181 10.114 C 213.950 10.114,213.571 10.195,213.340 10.294 M230.572 10.379 C 231.036 10.533,231.745 10.716,232.147 10.785 C 232.844 10.905,232.839 10.897,232.033 10.630 C 231.569 10.475,230.860 10.292,230.458 10.223 C 229.761 10.104,229.766 10.111,230.572 10.379 M211.029 10.924 C 209.634 11.439,210.068 11.445,211.660 10.933 C 212.353 10.709,212.731 10.529,212.500 10.532 C 212.269 10.535,211.607 10.711,211.029 10.924 M233.298 11.134 C 233.529 11.234,233.860 11.315,234.034 11.315 C 234.232 11.315,234.193 11.248,233.929 11.134 C 233.697 11.035,233.367 10.954,233.193 10.954 C 232.995 10.954,233.033 11.021,233.298 11.134 M247.269 11.211 C 247.269 11.269,247.553 11.518,247.899 11.765 C 248.246 12.012,248.529 12.166,248.529 12.108 C 248.529 12.051,248.246 11.801,247.899 11.555 C 247.553 11.308,247.269 11.153,247.269 11.211 M208.088 11.951 C 207.171 12.266,205.869 12.872,205.946 12.949 C 206.043 13.046,208.215 12.187,208.498 11.939 C 208.721 11.744,208.687 11.745,208.088 11.951 M235.924 12.015 C 236.213 12.153,237.063 12.541,237.813 12.877 C 238.563 13.212,239.438 13.622,239.756 13.787 C 240.075 13.952,240.336 14.032,240.336 13.965 C 240.336 13.811,236.629 12.071,235.924 11.894 L 235.399 11.762 235.924 12.015 M203.139 14.349 C 201.170 15.544,200.210 16.178,200.210 16.283 C 200.210 16.384,203.923 14.155,204.296 13.829 C 204.709 13.470,204.244 13.678,203.139 14.349 M192.437 14.811 C 191.927 15.331,191.556 15.756,191.614 15.756 C 191.672 15.756,192.137 15.331,192.647 14.811 C 193.157 14.291,193.528 13.866,193.470 13.866 C 193.412 13.866,192.947 14.291,192.437 14.811 M240.546 14.158 C 240.546 14.209,240.974 14.489,241.497 14.781 C 242.019 15.073,242.391 15.222,242.323 15.111 C 242.186 14.891,240.546 14.011,240.546 14.158 M253.256 16.387 C 254.407 17.542,255.397 18.487,255.454 18.487 C 255.512 18.487,254.618 17.542,253.466 16.387 C 252.315 15.231,251.326 14.286,251.268 14.286 C 251.211 14.286,252.105 15.231,253.256 16.387 M242.647 15.386 C 242.967 15.741,246.273 18.078,246.019 17.769 C 245.852 17.565,245.143 16.997,244.444 16.505 C 243.190 15.624,242.442 15.158,242.647 15.386 M190.223 17.069 L 189.181 18.172 190.284 17.130 C 191.308 16.161,191.483 15.966,191.326 15.966 C 191.293 15.966,190.797 16.463,190.223 17.069 M198.537 17.485 C 196.979 18.729,193.908 21.621,193.908 21.845 C 193.908 21.927,194.593 21.323,195.431 20.502 C 196.268 19.680,197.639 18.462,198.477 17.794 C 199.777 16.757,200.193 16.360,199.947 16.394 C 199.919 16.398,199.284 16.889,198.537 17.485 M248.097 19.719 C 249.073 20.659,249.914 21.429,249.968 21.429 C 250.158 21.429,249.243 20.522,247.794 19.276 C 246.405 18.080,246.421 18.104,248.097 19.719 M161.707 20.740 C 162.080 20.786,162.742 20.787,163.178 20.742 C 163.614 20.696,163.309 20.658,162.500 20.657 C 161.691 20.656,161.335 20.693,161.707 20.740 M158.456 20.943 C 158.658 20.996,158.989 20.996,159.191 20.943 C 159.393 20.890,159.228 20.847,158.824 20.847 C 158.419 20.847,158.254 20.890,158.456 20.943 M257.563 21.429 C 257.810 21.775,258.059 22.059,258.117 22.059 C 258.175 22.059,258.020 21.775,257.773 21.429 C 257.526 21.082,257.277 20.798,257.219 20.798 C 257.162 20.798,257.316 21.082,257.563 21.429 M169.328 21.429 C 170.046 21.659,170.598 21.659,170.063 21.429 C 169.832 21.329,169.454 21.251,169.223 21.254 C 168.885 21.259,168.906 21.293,169.328 21.429 M251.326 23.214 C 252.849 25.110,254.717 27.923,255.545 29.569 C 255.850 30.176,256.147 30.672,256.204 30.672 C 256.718 30.672,252.709 24.457,251.056 22.689 C 250.085 21.652,250.113 21.705,251.326 23.214 M192.949 22.926 C 192.610 23.287,192.048 23.759,191.702 23.975 C 191.355 24.191,191.160 24.369,191.269 24.369 C 191.593 24.370,192.718 23.516,193.241 22.871 C 193.889 22.072,193.721 22.103,192.949 22.926 M178.571 24.466 C 178.571 24.524,178.950 24.764,179.412 25.000 C 179.874 25.236,180.252 25.381,180.252 25.324 C 180.252 25.266,179.874 25.026,179.412 24.790 C 178.950 24.554,178.571 24.408,178.571 24.466 M145.116 25.120 C 144.330 25.546,144.378 25.724,145.168 25.315 C 145.515 25.136,145.798 24.944,145.798 24.890 C 145.798 24.754,145.776 24.762,145.116 25.120 M260.609 26.261 C 260.788 26.607,260.982 26.891,261.040 26.891 C 261.098 26.891,260.999 26.607,260.819 26.261 C 260.640 25.914,260.446 25.630,260.388 25.630 C 260.331 25.630,260.430 25.914,260.609 26.261 M157.983 26.982 C 147.254 28.914,137.463 36.851,134.772 45.798 C 133.902 48.689,132.636 49.550,130.048 49.010 C 128.765 48.742,127.405 48.735,128.571 49.003 C 131.311 49.630,131.542 49.654,132.315 49.382 C 133.731 48.883,134.249 48.212,135.079 45.798 C 137.073 39.997,142.177 34.066,147.977 30.811 C 150.008 29.671,153.637 28.151,154.329 28.151 C 154.592 28.151,154.866 28.057,154.937 27.941 C 155.008 27.826,155.339 27.731,155.671 27.731 C 156.003 27.731,156.522 27.637,156.823 27.523 C 159.000 26.695,167.865 26.962,170.273 27.928 C 170.504 28.021,171.355 28.314,172.164 28.579 C 172.973 28.844,174.125 29.281,174.724 29.551 C 175.323 29.821,175.859 30.042,175.915 30.042 C 176.132 30.042,179.574 32.250,180.672 33.093 C 183.159 35.002,186.828 39.188,187.998 41.451 C 188.249 41.936,188.783 42.936,189.185 43.675 C 189.587 44.414,189.916 45.148,189.916 45.306 C 189.916 45.465,190.001 45.758,190.104 45.959 C 190.208 46.159,190.456 46.718,190.655 47.201 C 191.272 48.700,192.840 49.761,194.062 49.508 C 194.382 49.443,195.093 49.305,195.643 49.202 C 196.689 49.007,197.207 48.736,196.516 48.745 C 196.295 48.747,195.688 48.852,195.168 48.977 C 192.826 49.541,191.711 49.004,190.858 46.898 C 186.477 36.089,179.346 29.775,168.697 27.275 C 166.369 26.728,160.312 26.563,157.983 26.982 M186.534 29.955 C 188.448 31.703,190.803 34.455,192.173 36.544 C 193.468 38.521,194.039 39.233,193.277 37.920 C 191.686 35.180,187.560 30.325,185.834 29.162 C 185.479 28.923,185.794 29.280,186.534 29.955 M137.185 31.197 C 136.324 32.064,135.667 32.773,135.725 32.773 C 135.783 32.773,136.534 32.064,137.395 31.197 C 138.256 30.331,138.913 29.622,138.855 29.622 C 138.797 29.622,138.046 30.331,137.185 31.197 M262.682 30.532 C 262.755 30.744,262.815 30.956,262.815 31.005 C 262.815 31.053,263.122 31.080,263.498 31.064 C 264.065 31.040,264.092 31.020,263.655 30.944 C 263.367 30.894,262.999 30.694,262.839 30.500 C 262.571 30.174,262.559 30.176,262.682 30.532 M267.910 30.617 C 268.459 30.660,269.357 30.660,269.905 30.617 C 270.454 30.573,270.005 30.538,268.908 30.538 C 267.810 30.538,267.361 30.573,267.910 30.617 M264.548 30.817 C 264.751 30.870,265.081 30.870,265.284 30.817 C 265.486 30.764,265.320 30.721,264.916 30.721 C 264.512 30.721,264.346 30.764,264.548 30.817 M272.532 30.817 C 272.734 30.870,273.065 30.870,273.267 30.817 C 273.469 30.764,273.304 30.721,272.899 30.721 C 272.495 30.721,272.329 30.764,272.532 30.817 M256.328 30.987 C 256.332 31.103,256.611 31.765,256.948 32.458 C 257.285 33.151,257.502 33.482,257.430 33.193 C 257.280 32.593,256.319 30.668,256.328 30.987 M280.882 32.843 C 280.882 32.898,281.187 33.048,281.560 33.178 C 281.933 33.308,282.146 33.328,282.033 33.223 C 281.794 32.999,280.882 32.698,280.882 32.843 M134.953 33.666 C 134.333 34.374,133.970 34.874,134.078 34.874 C 134.130 34.874,134.477 34.496,134.849 34.034 C 135.570 33.136,135.643 32.879,134.953 33.666 M257.569 34.034 C 257.569 34.207,257.661 34.491,257.773 34.664 C 257.954 34.944,257.977 34.944,257.977 34.664 C 257.977 34.491,257.885 34.207,257.773 34.034 C 257.592 33.754,257.569 33.754,257.569 34.034 M258.718 36.522 C 258.947 36.792,259.324 37.111,259.556 37.230 C 260.003 37.459,259.938 37.388,258.930 36.551 C 258.323 36.048,258.316 36.047,258.718 36.522 M267.489 36.710 C 268.269 36.751,269.546 36.751,270.326 36.710 C 271.106 36.670,270.467 36.637,268.908 36.637 C 267.348 36.637,266.710 36.670,267.489 36.710 M263.550 37.007 C 263.088 37.114,262.096 37.278,261.345 37.373 C 260.040 37.538,260.024 37.547,260.974 37.575 C 261.878 37.602,262.833 37.444,264.601 36.975 C 265.482 36.741,264.584 36.768,263.550 37.007 M273.424 36.991 C 273.887 37.107,274.960 37.392,275.811 37.625 C 276.661 37.858,277.395 38.011,277.441 37.965 C 277.568 37.838,274.605 37.029,273.529 36.897 L 272.584 36.781 273.424 36.991 M280.260 39.335 C 285.998 42.251,289.904 46.092,292.708 51.576 C 294.793 55.653,295.969 61.908,295.371 65.732 C 294.764 69.608,294.707 69.854,293.897 72.164 C 293.261 73.976,293.181 74.303,293.436 74.055 C 294.097 73.410,295.264 68.924,295.614 65.685 C 296.847 54.274,288.337 40.850,278.151 38.137 C 277.862 38.060,278.811 38.599,280.260 39.335 M291.912 40.126 C 292.714 40.935,293.418 41.597,293.476 41.597 C 293.534 41.597,292.924 40.935,292.122 40.126 C 291.319 39.317,290.615 38.655,290.557 38.655 C 290.500 38.655,291.109 39.317,291.912 40.126 M130.557 40.357 C 130.258 40.946,130.049 41.464,130.092 41.507 C 130.135 41.550,130.424 41.068,130.734 40.435 C 131.044 39.803,131.253 39.286,131.199 39.286 C 131.144 39.286,130.855 39.768,130.557 40.357 M194.474 40.439 C 194.666 40.841,194.860 41.134,194.906 41.088 C 195.002 40.992,194.364 39.706,194.221 39.706 C 194.168 39.706,194.282 40.036,194.474 40.439 M194.958 41.505 C 194.958 42.062,195.708 42.857,196.218 42.841 C 196.393 42.835,196.321 42.745,196.058 42.639 C 195.796 42.534,195.491 42.209,195.380 41.917 C 195.198 41.438,194.958 41.204,194.958 41.505 M198.214 42.437 C 197.513 42.533,198.142 42.583,200.105 42.586 C 202.253 42.590,202.763 42.547,201.996 42.427 C 200.762 42.235,199.665 42.238,198.214 42.437 M124.002 42.592 C 124.666 42.634,125.754 42.634,126.418 42.592 C 127.082 42.551,126.539 42.516,125.210 42.516 C 123.881 42.516,123.338 42.551,124.002 42.592 M120.168 42.857 C 119.752 42.990,119.730 43.025,120.063 43.025 C 120.294 43.025,120.720 42.950,121.008 42.857 C 121.424 42.724,121.446 42.689,121.113 42.689 C 120.882 42.689,120.457 42.765,120.168 42.857 M204.307 42.857 C 205.195 43.083,205.958 43.083,205.252 42.857 C 204.963 42.765,204.491 42.691,204.202 42.693 C 203.730 42.696,203.741 42.713,204.307 42.857 M208.088 43.805 C 210.370 44.587,210.558 44.636,210.084 44.324 C 209.703 44.073,206.594 43.064,206.239 43.076 C 206.101 43.081,206.933 43.409,208.088 43.805 M211.207 44.982 C 211.651 45.217,212.063 45.360,212.122 45.301 C 212.225 45.198,210.809 44.528,210.531 44.547 C 210.459 44.552,210.763 44.748,211.207 44.982 M212.500 45.531 C 212.616 45.641,213.088 45.943,213.550 46.203 C 214.013 46.462,214.202 46.518,213.971 46.326 C 213.501 45.935,212.170 45.216,212.500 45.531 M214.916 46.990 C 217.621 48.968,219.617 50.961,222.239 54.307 L 222.733 54.937 222.364 54.307 C 221.069 52.100,217.205 48.240,215.021 46.972 C 214.399 46.611,214.398 46.612,214.916 46.990 M123.739 48.546 C 122.750 48.634,123.154 48.672,125.210 48.687 C 128.097 48.707,128.644 48.615,126.366 48.492 C 125.672 48.455,124.491 48.479,123.739 48.546 M198.424 48.544 C 197.546 48.631,198.023 48.675,200.000 48.688 C 201.560 48.698,202.742 48.674,202.626 48.635 C 202.170 48.481,199.617 48.425,198.424 48.544 M119.958 49.072 C 112.679 50.991,106.837 56.852,104.939 64.139 C 104.603 65.429,104.282 68.893,104.604 67.752 C 104.702 67.405,104.793 66.754,104.807 66.304 C 104.905 63.083,107.604 57.736,110.649 54.729 C 113.412 52.001,118.659 49.179,121.008 49.158 C 121.297 49.155,121.675 49.062,121.849 48.950 C 122.326 48.641,121.353 48.704,119.958 49.072 M203.151 48.929 C 203.325 49.052,203.751 49.155,204.100 49.156 C 204.744 49.160,206.886 49.858,207.157 50.153 C 208.624 51.752,210.729 57.890,211.464 62.710 C 212.722 70.961,211.455 80.188,208.194 86.531 C 206.346 90.126,210.728 89.811,162.605 89.811 C 124.883 89.811,122.487 89.789,120.903 89.434 C 112.324 87.510,105.824 80.512,104.802 72.100 C 104.525 69.816,104.309 69.520,104.482 71.661 C 105.138 79.777,111.099 86.748,119.688 89.442 L 121.534 90.021 161.450 90.084 C 204.307 90.151,203.267 90.175,206.577 89.048 C 224.262 83.029,225.811 58.980,209.057 50.534 C 207.002 49.498,202.065 48.156,203.151 48.929 M105.979 50.473 L 104.937 51.576 106.040 50.533 C 106.647 49.960,107.143 49.463,107.143 49.430 C 107.143 49.273,106.948 49.448,105.979 50.473 M223.803 57.164 C 224.404 58.389,224.932 59.361,224.977 59.324 C 225.086 59.232,223.452 55.888,223.039 55.357 C 222.859 55.126,223.203 55.939,223.803 57.164 M101.366 56.723 C 101.186 57.069,101.087 57.353,101.145 57.353 C 101.202 57.353,101.396 57.069,101.576 56.723 C 101.755 56.376,101.854 56.092,101.797 56.092 C 101.739 56.092,101.545 56.376,101.366 56.723 M301.519 60.294 C 301.519 60.699,301.563 60.864,301.615 60.662 C 301.668 60.460,301.668 60.129,301.615 59.926 C 301.563 59.724,301.519 59.890,301.519 60.294 M225.438 60.819 C 225.431 60.935,225.611 61.597,225.838 62.290 C 226.065 62.983,226.193 63.223,226.124 62.823 C 225.985 62.025,225.457 60.482,225.438 60.819 M226.310 64.076 C 226.310 64.364,226.382 64.884,226.471 65.231 C 226.614 65.793,226.631 65.805,226.631 65.336 C 226.631 65.047,226.559 64.527,226.471 64.181 C 226.328 63.618,226.310 63.607,226.310 64.076 M301.519 66.387 C 301.519 66.791,301.563 66.956,301.615 66.754 C 301.668 66.552,301.668 66.221,301.615 66.019 C 301.563 65.817,301.519 65.982,301.519 66.387 M98.368 66.807 C 98.368 67.211,98.411 67.377,98.464 67.174 C 98.517 66.972,98.517 66.641,98.464 66.439 C 98.411 66.237,98.368 66.402,98.368 66.807 M226.737 69.223 C 226.736 71.507,226.762 71.731,226.894 70.588 C 226.980 69.837,226.981 68.608,226.895 67.857 C 226.764 66.715,226.738 66.939,226.737 69.223 M300.762 70.614 C 300.586 71.490,300.756 71.660,300.945 70.798 C 301.025 70.435,301.047 70.094,300.993 70.041 C 300.940 69.987,300.835 70.245,300.762 70.614 M98.368 71.849 C 98.368 72.253,98.411 72.419,98.464 72.216 C 98.517 72.014,98.517 71.683,98.464 71.481 C 98.411 71.279,98.368 71.444,98.368 71.849 M226.375 73.854 C 226.295 74.390,226.272 74.871,226.324 74.924 C 226.377 74.976,226.486 74.581,226.566 74.045 C 226.646 73.509,226.669 73.028,226.617 72.975 C 226.564 72.923,226.455 73.318,226.375 73.854 M292.531 75.441 C 290.703 79.050,287.349 82.895,284.176 85.020 C 283.347 85.575,282.621 86.078,282.563 86.138 C 282.505 86.198,281.371 86.793,280.042 87.460 C 278.713 88.128,277.862 88.614,278.151 88.540 C 281.665 87.643,287.767 82.988,290.592 79.050 C 291.915 77.206,293.386 74.619,293.211 74.444 C 293.148 74.380,292.842 74.829,292.531 75.441 M225.784 76.415 C 225.600 77.077,225.484 77.655,225.527 77.698 C 225.570 77.741,225.762 77.239,225.952 76.583 C 226.143 75.926,226.259 75.349,226.210 75.299 C 226.160 75.250,225.969 75.752,225.784 76.415 M298.462 77.216 C 297.968 78.251,298.038 78.427,298.554 77.449 C 298.788 77.004,298.943 76.604,298.897 76.558 C 298.852 76.513,298.656 76.809,298.462 77.216 M224.615 79.821 C 224.492 80.174,224.436 80.462,224.491 80.462 C 224.633 80.462,225.029 79.371,224.925 79.267 C 224.877 79.219,224.738 79.469,224.615 79.821 M223.484 82.115 C 222.558 83.809,221.001 85.977,219.763 87.298 C 219.267 87.827,218.904 88.302,218.956 88.354 C 219.075 88.472,221.566 85.505,222.407 84.244 C 223.293 82.914,224.430 80.872,224.336 80.779 C 224.293 80.736,223.909 81.337,223.484 82.115 M293.999 84.296 L 293.382 84.979 294.065 84.362 C 294.702 83.787,294.844 83.613,294.682 83.613 C 294.646 83.613,294.339 83.921,293.999 84.296 M291.801 86.712 L 290.441 88.130 291.859 86.771 C 292.639 86.023,293.277 85.385,293.277 85.353 C 293.277 85.198,293.063 85.395,291.801 86.712 M104.832 86.870 C 105.224 87.274,105.592 87.605,105.650 87.605 C 105.707 87.605,105.434 87.274,105.042 86.870 C 104.650 86.465,104.282 86.134,104.224 86.134 C 104.167 86.134,104.440 86.465,104.832 86.870 M217.538 89.501 C 217.317 89.744,217.236 89.991,217.347 90.078 C 217.454 90.162,229.785 90.183,244.748 90.125 L 271.954 90.019 244.663 89.967 C 217.387 89.916,217.372 89.916,217.752 89.496 C 217.961 89.265,218.085 89.076,218.027 89.076 C 217.970 89.076,217.749 89.267,217.538 89.501 M273.845 89.515 C 272.406 89.842,272.329 89.879,273.309 89.776 C 273.938 89.709,274.837 89.534,275.305 89.386 C 276.507 89.006,275.820 89.067,273.845 89.515 M114.076 93.803 C 114.364 93.968,114.695 94.103,114.811 94.103 C 114.926 94.103,114.785 93.968,114.496 93.803 C 114.207 93.637,113.876 93.502,113.761 93.502 C 113.645 93.502,113.787 93.637,114.076 93.803 M121.271 95.943 C 121.473 95.996,121.804 95.996,122.006 95.943 C 122.209 95.890,122.043 95.847,121.639 95.847 C 121.234 95.847,121.069 95.890,121.271 95.943 M160.259 96.166 C 180.633 96.195,213.910 96.195,234.208 96.166 C 254.506 96.136,237.836 96.112,197.164 96.112 C 156.492 96.112,139.884 96.136,160.259 96.166 M122.921 103.054 C 122.562 103.462,122.272 103.911,122.275 104.051 C 122.279 104.192,122.386 104.118,122.513 103.887 C 122.641 103.655,122.987 103.206,123.282 102.889 C 123.577 102.571,123.763 102.311,123.696 102.311 C 123.628 102.311,123.280 102.645,122.921 103.054 M176.961 102.998 C 177.327 103.375,177.666 103.658,177.716 103.626 C 177.836 103.547,176.644 102.311,176.449 102.311 C 176.365 102.311,176.596 102.620,176.961 102.998 M222.796 102.939 C 222.465 103.284,222.235 103.593,222.284 103.626 C 222.334 103.658,222.673 103.375,223.039 102.998 C 223.404 102.620,223.635 102.311,223.551 102.311 C 223.467 102.311,223.127 102.594,222.796 102.939 M152.836 111.029 C 152.836 114.994,152.906 118.128,152.990 117.995 C 153.075 117.861,153.145 114.727,153.145 111.029 C 153.145 107.332,153.075 104.198,152.990 104.064 C 152.906 103.931,152.836 107.065,152.836 111.029 M128.035 111.029 C 128.035 114.842,128.064 116.432,128.098 114.562 C 128.133 112.691,128.133 109.572,128.098 107.629 C 128.064 105.686,128.035 107.216,128.035 111.029 M147.153 111.029 C 147.153 114.842,147.181 116.432,147.216 114.562 C 147.251 112.691,147.251 109.572,147.216 107.629 C 147.181 105.686,147.153 107.216,147.153 111.029 M252.825 111.029 C 252.825 114.842,252.853 116.432,252.888 114.562 C 252.923 112.691,252.923 109.572,252.888 107.629 C 252.854 105.686,252.825 107.216,252.825 111.029 M271.943 111.029 C 271.943 114.842,271.971 116.432,272.006 114.562 C 272.041 112.691,272.041 109.572,272.006 107.629 C 271.971 105.686,271.943 107.216,271.943 111.029 M122.153 111.029 C 122.153 114.727,122.181 116.210,122.216 114.325 C 122.251 112.440,122.251 109.415,122.216 107.602 C 122.181 105.790,122.152 107.332,122.153 111.029 M177.991 110.855 C 177.963 114.456,177.887 117.576,177.820 117.787 C 177.711 118.136,177.721 118.139,177.928 117.818 C 178.084 117.576,178.139 115.370,178.099 110.885 L 178.040 104.307 177.991 110.855 M246.942 111.029 C 246.943 114.727,246.971 116.210,247.006 114.325 C 247.041 112.440,247.041 109.415,247.006 107.602 C 246.971 105.790,246.942 107.332,246.942 111.029 M277.825 111.029 C 277.825 114.727,277.853 116.210,277.888 114.325 C 277.923 112.440,277.923 109.415,277.888 107.602 C 277.853 105.790,277.825 107.332,277.825 111.029 M221.942 111.029 C 221.942 114.611,221.971 116.106,222.006 114.351 C 222.041 112.596,222.041 109.666,222.006 107.839 C 221.971 106.012,221.942 107.447,221.942 111.029 M203.034 111.029 C 203.034 114.496,203.063 115.943,203.098 114.246 C 203.133 112.549,203.134 109.713,203.098 107.944 C 203.063 106.174,203.034 107.563,203.034 111.029 M196.941 111.029 C 196.942 114.380,196.971 115.722,197.006 114.010 C 197.041 112.299,197.041 109.557,197.006 107.918 C 196.970 106.278,196.941 107.679,196.941 111.029 M277.521 118.016 C 277.521 118.142,277.264 118.560,276.951 118.944 C 276.482 119.519,276.466 119.569,276.865 119.225 C 277.431 118.737,277.818 118.084,277.643 117.909 C 277.576 117.842,277.521 117.890,277.521 118.016 M247.269 118.416 C 247.269 118.530,247.529 118.853,247.847 119.134 L 248.424 119.643 247.899 119.013 C 247.610 118.666,247.350 118.343,247.321 118.295 C 247.293 118.247,247.269 118.301,247.269 118.416 M151.940 119.124 C 151.563 119.467,151.332 119.748,151.428 119.748 C 151.524 119.748,151.874 119.464,152.206 119.118 C 152.978 118.312,152.829 118.315,151.940 119.124 M222.672 118.984 C 222.952 119.328,223.739 119.849,223.739 119.690 C 223.739 119.650,223.432 119.392,223.057 119.117 C 222.634 118.808,222.487 118.757,222.672 118.984 M261.450 131.102 C 261.157 131.235,261.284 131.254,261.870 131.165 C 262.332 131.094,262.749 131.002,262.798 130.960 C 262.978 130.800,261.853 130.920,261.450 131.102 M135.488 131.880 L 134.979 132.458 135.609 131.933 C 135.956 131.644,136.279 131.384,136.327 131.355 C 136.375 131.326,136.321 131.303,136.206 131.303 C 136.091 131.303,135.768 131.563,135.488 131.880 M160.316 132.045 C 159.957 132.454,159.667 132.903,159.670 133.043 C 159.674 133.183,159.781 133.109,159.908 132.878 C 160.036 132.647,160.382 132.198,160.677 131.880 C 160.972 131.563,161.158 131.303,161.090 131.303 C 161.023 131.303,160.674 131.637,160.316 132.045 M235.362 131.775 C 235.128 132.035,234.867 132.390,234.782 132.563 C 234.697 132.736,234.815 132.648,235.044 132.366 C 235.273 132.085,235.630 131.730,235.837 131.578 C 236.045 131.427,236.119 131.303,236.001 131.303 C 235.884 131.303,235.596 131.515,235.362 131.775 M189.624 131.922 C 189.752 132.101,189.962 132.437,190.090 132.668 C 190.218 132.899,190.326 132.975,190.330 132.837 C 190.333 132.699,190.123 132.364,189.863 132.092 C 189.603 131.820,189.496 131.743,189.624 131.922 M234.503 133.613 C 234.503 134.018,234.546 134.183,234.599 133.981 C 234.651 133.779,234.651 133.448,234.599 133.246 C 234.546 133.044,234.503 133.209,234.503 133.613 M190.430 140.021 C 190.430 143.834,190.458 145.424,190.493 143.553 C 190.528 141.683,190.528 138.563,190.493 136.620 C 190.459 134.678,190.430 136.208,190.430 140.021 M209.548 139.916 C 209.548 143.671,209.576 145.207,209.611 143.330 C 209.646 141.452,209.646 138.380,209.611 136.502 C 209.576 134.624,209.548 136.161,209.548 139.916 M215.430 139.916 C 215.430 143.671,215.459 145.207,215.493 143.330 C 215.528 141.452,215.528 138.380,215.493 136.502 C 215.459 134.624,215.430 136.161,215.430 139.916 M184.548 140.021 C 184.548 143.718,184.576 145.202,184.611 143.317 C 184.646 141.432,184.646 138.406,184.611 136.594 C 184.576 134.781,184.547 136.324,184.548 140.021 M240.430 139.916 C 240.430 143.556,240.458 145.045,240.493 143.225 C 240.528 141.405,240.528 138.427,240.493 136.607 C 240.458 134.787,240.430 136.276,240.430 139.916 M140.639 139.916 C 140.639 143.440,140.668 144.882,140.703 143.120 C 140.738 141.358,140.738 138.474,140.703 136.712 C 140.668 134.950,140.639 136.392,140.639 139.916 M159.547 140.021 C 159.547 143.603,159.576 145.098,159.611 143.343 C 159.646 141.588,159.646 138.657,159.611 136.830 C 159.576 135.003,159.547 136.439,159.547 140.021 M259.337 139.916 C 259.337 143.325,259.365 144.719,259.401 143.015 C 259.436 141.310,259.436 138.522,259.401 136.817 C 259.365 135.113,259.337 136.507,259.337 139.916 M265.429 139.916 C 265.429 143.325,265.458 144.719,265.493 143.015 C 265.529 141.310,265.529 138.522,265.493 136.817 C 265.458 135.113,265.429 136.507,265.429 139.916 M234.503 146.218 C 234.503 146.623,234.546 146.788,234.599 146.586 C 234.651 146.384,234.651 146.053,234.599 145.851 C 234.546 145.649,234.503 145.814,234.503 146.218 M264.968 147.111 C 264.742 147.729,264.748 147.755,265.027 147.386 C 265.295 147.033,265.452 146.429,265.277 146.429 C 265.245 146.429,265.106 146.736,264.968 147.111 M189.411 147.949 C 188.635 148.758,188.723 148.860,189.568 148.132 C 189.902 147.845,190.462 147.026,190.291 147.076 C 190.258 147.086,189.862 147.479,189.411 147.949 M209.840 147.376 C 210.059 147.828,210.620 148.367,211.134 148.621 C 211.308 148.706,211.224 148.592,210.947 148.367 C 210.671 148.142,210.263 147.732,210.041 147.456 C 209.733 147.075,209.685 147.055,209.840 147.376 M214.181 148.241 C 213.803 148.562,213.726 148.690,213.988 148.560 C 214.373 148.368,215.095 147.677,214.889 147.697 C 214.846 147.701,214.527 147.946,214.181 148.241 M137.237 148.884 C 137.440 148.937,137.770 148.937,137.973 148.884 C 138.175 148.831,138.009 148.788,137.605 148.788 C 137.201 148.788,137.035 148.831,137.237 148.884 M162.237 148.884 C 162.440 148.937,162.770 148.937,162.973 148.884 C 163.175 148.831,163.009 148.788,162.605 148.788 C 162.201 148.788,162.035 148.831,162.237 148.884 M237.027 148.884 C 237.230 148.937,237.560 148.937,237.763 148.884 C 237.965 148.831,237.799 148.788,237.395 148.788 C 236.991 148.788,236.825 148.831,237.027 148.884 M262.027 148.884 C 262.230 148.937,262.560 148.937,262.763 148.884 C 262.965 148.831,262.799 148.788,262.395 148.788 C 261.991 148.788,261.825 148.831,262.027 148.884 M124.740 160.023 C 125.001 160.073,125.379 160.071,125.580 160.018 C 125.781 159.966,125.567 159.925,125.105 159.927 C 124.643 159.929,124.479 159.972,124.740 160.023 M149.740 160.023 C 150.001 160.073,150.379 160.071,150.580 160.018 C 150.781 159.966,150.567 159.925,150.105 159.927 C 149.643 159.929,149.479 159.972,149.740 160.023 M174.740 160.023 C 175.001 160.073,175.379 160.071,175.580 160.018 C 175.781 159.966,175.567 159.925,175.105 159.927 C 174.643 159.929,174.479 159.972,174.740 160.023 M199.527 160.022 C 199.787 160.072,200.213 160.072,200.473 160.022 C 200.733 159.972,200.520 159.931,200.000 159.931 C 199.480 159.931,199.267 159.972,199.527 160.022 M224.530 160.023 C 224.791 160.073,225.169 160.071,225.370 160.018 C 225.571 159.966,225.357 159.925,224.895 159.927 C 224.433 159.929,224.268 159.972,224.530 160.023 M249.530 160.023 C 249.791 160.073,250.169 160.071,250.370 160.018 C 250.571 159.966,250.357 159.925,249.895 159.927 C 249.433 159.929,249.268 159.972,249.530 160.023 M274.530 160.023 C 274.791 160.073,275.169 160.071,275.370 160.018 C 275.571 159.966,275.357 159.925,274.895 159.927 C 274.433 159.929,274.268 159.972,274.530 160.023 M123.268 160.557 C 122.996 160.817,122.920 160.924,123.099 160.796 C 123.278 160.668,123.613 160.458,123.845 160.330 C 124.076 160.202,124.152 160.094,124.014 160.090 C 123.876 160.087,123.540 160.297,123.268 160.557 M147.983 160.798 C 147.590 161.191,147.269 161.640,147.270 161.796 C 147.270 161.952,147.454 161.778,147.679 161.409 C 147.904 161.040,148.353 160.595,148.676 160.420 C 149.000 160.244,149.137 160.097,148.981 160.092 C 148.825 160.088,148.376 160.405,147.983 160.798 M248.058 160.557 C 247.786 160.817,247.710 160.924,247.889 160.796 C 248.068 160.668,248.403 160.458,248.634 160.330 C 248.866 160.202,248.942 160.094,248.804 160.090 C 248.666 160.087,248.330 160.297,248.058 160.557 M276.400 160.491 C 276.765 160.713,277.164 161.068,277.286 161.278 C 277.408 161.488,277.511 161.550,277.515 161.416 C 277.522 161.121,276.328 160.084,275.982 160.085 C 275.846 160.085,276.034 160.268,276.400 160.491 M152.119 160.844 C 152.398 161.204,152.668 161.462,152.720 161.416 C 152.772 161.369,152.543 161.075,152.213 160.760 L 151.612 160.189 152.119 160.844 M251.888 160.821 C 252.724 161.828,252.795 161.893,252.566 161.447 C 252.447 161.215,252.128 160.837,251.858 160.608 C 251.383 160.207,251.384 160.214,251.888 160.821 M271.976 161.887 C 271.791 162.370,271.820 175.797,272.006 175.913 C 272.093 175.966,272.164 172.758,272.164 168.782 C 272.164 164.807,272.150 161.555,272.134 161.555 C 272.117 161.555,272.046 161.704,271.976 161.887 M128.034 168.172 C 128.034 171.639,128.063 173.086,128.098 171.389 C 128.133 169.692,128.134 166.856,128.098 165.087 C 128.063 163.317,128.034 164.706,128.034 168.172 M122.153 168.803 C 122.153 172.500,122.181 173.983,122.216 172.098 C 122.251 170.213,122.251 167.188,122.216 165.375 C 122.181 163.563,122.152 165.105,122.153 168.803 M147.153 168.908 C 147.153 172.663,147.181 174.199,147.216 172.321 C 147.251 170.444,147.251 167.371,147.216 165.494 C 147.181 163.616,147.153 165.152,147.153 168.908 M153.035 168.908 C 153.035 172.663,153.064 174.199,153.098 172.321 C 153.133 170.444,153.133 167.371,153.098 165.494 C 153.064 163.616,153.035 165.152,153.035 168.908 M246.895 168.803 C 246.873 172.500,246.925 175.635,247.010 175.768 C 247.150 175.990,247.141 168.185,246.995 163.866 C 246.962 162.883,246.917 165.105,246.895 168.803 M252.825 168.908 C 252.825 172.663,252.853 174.199,252.888 172.321 C 252.923 170.444,252.923 167.371,252.888 165.494 C 252.853 163.616,252.825 165.152,252.825 168.908 M277.825 168.908 C 277.825 172.663,277.853 174.199,277.888 172.321 C 277.923 170.444,277.923 167.371,277.888 165.494 C 277.853 163.616,277.825 165.152,277.825 168.908 M178.035 168.908 C 178.035 172.547,178.063 174.036,178.098 172.216 C 178.133 170.397,178.133 167.419,178.098 165.599 C 178.063 163.779,178.035 165.268,178.035 168.908 M221.942 168.908 C 221.942 172.547,221.971 174.036,222.006 172.216 C 222.041 170.397,222.041 167.419,222.006 165.599 C 221.971 163.779,221.942 165.268,221.942 168.908 M203.034 168.803 C 203.034 172.269,203.063 173.716,203.098 172.019 C 203.133 170.322,203.134 167.486,203.098 165.717 C 203.063 163.948,203.034 165.336,203.034 168.803 M196.941 168.803 C 196.942 172.153,196.971 173.495,197.006 171.783 C 197.041 170.072,197.041 167.330,197.006 165.691 C 196.970 164.051,196.941 165.452,196.941 168.803 M127.925 175.262 C 127.862 175.714,127.894 175.971,128.000 175.866 C 128.101 175.764,128.150 175.410,128.109 175.078 C 128.040 174.523,128.025 174.537,127.925 175.262 M172.455 176.402 C 172.721 176.926,173.684 177.734,174.030 177.725 C 174.159 177.721,174.076 177.618,173.845 177.495 C 173.613 177.372,173.154 176.973,172.824 176.608 C 172.424 176.168,172.301 176.098,172.455 176.402 M201.789 176.977 C 201.328 177.429,201.139 177.698,201.368 177.574 C 201.835 177.323,202.852 176.292,202.714 176.209 C 202.666 176.179,202.249 176.525,201.789 176.977 M227.305 176.482 C 227.178 176.719,226.773 177.097,226.405 177.321 C 226.037 177.546,225.841 177.730,225.970 177.730 C 226.300 177.731,227.272 176.936,227.530 176.454 C 227.649 176.232,227.699 176.050,227.641 176.050 C 227.583 176.050,227.432 176.245,227.305 176.482 M197.793 176.858 C 198.022 177.128,198.400 177.447,198.632 177.566 C 199.078 177.795,199.013 177.724,198.006 176.888 C 197.399 176.384,197.392 176.383,197.793 176.858 M161.000 189.269 C 160.637 189.491,160.266 189.798,160.176 189.951 C 160.086 190.105,160.196 190.070,160.422 189.873 C 160.647 189.676,161.160 189.372,161.561 189.198 C 161.962 189.024,162.148 188.879,161.975 188.875 C 161.801 188.870,161.363 189.048,161.000 189.269 M260.767 189.283 C 260.391 189.512,260.084 189.760,260.084 189.834 C 260.084 189.907,260.209 189.864,260.361 189.737 C 260.513 189.611,260.963 189.367,261.359 189.195 C 261.755 189.023,261.938 188.879,261.765 188.875 C 261.591 188.870,261.142 189.054,260.767 189.283 M263.463 189.139 C 263.511 189.174,263.834 189.369,264.181 189.572 L 264.811 189.941 264.315 189.508 C 264.042 189.270,263.719 189.076,263.597 189.076 C 263.475 189.076,263.415 189.104,263.463 189.139 M139.705 189.863 C 139.980 190.239,140.238 190.546,140.278 190.546 C 140.438 190.546,139.917 189.758,139.572 189.479 C 139.345 189.294,139.396 189.441,139.705 189.863 M185.208 189.932 C 184.909 190.288,184.667 190.689,184.670 190.825 C 184.674 190.961,184.781 190.882,184.909 190.651 C 185.037 190.420,185.334 190.018,185.570 189.758 C 185.805 189.498,185.942 189.286,185.875 189.286 C 185.807 189.286,185.507 189.577,185.208 189.932 M214.520 189.801 C 214.706 190.037,214.963 190.420,215.091 190.651 C 215.219 190.882,215.326 190.955,215.330 190.812 C 215.333 190.670,215.076 190.287,214.758 189.962 C 214.441 189.637,214.333 189.564,214.520 189.801 M134.868 190.558 C 134.741 190.795,134.668 191.083,134.706 191.197 C 134.744 191.311,134.884 191.117,135.016 190.765 C 135.292 190.034,135.210 189.919,134.868 190.558 M165.039 190.318 C 165.124 190.481,165.263 190.906,165.348 191.263 C 165.491 191.859,165.505 191.868,165.525 191.374 C 165.537 191.079,165.397 190.653,165.216 190.429 C 165.034 190.205,164.954 190.155,165.039 190.318 M190.430 197.794 C 190.430 201.607,190.458 203.197,190.493 201.326 C 190.528 199.456,190.528 196.336,190.493 194.394 C 190.459 192.451,190.430 193.981,190.430 197.794 M209.548 197.794 C 209.548 201.607,209.576 203.197,209.611 201.326 C 209.646 199.456,209.646 196.336,209.611 194.394 C 209.576 192.451,209.548 193.981,209.548 197.794 M234.503 191.597 C 234.503 192.001,234.546 192.166,234.599 191.964 C 234.651 191.762,234.651 191.431,234.599 191.229 C 234.546 191.027,234.503 191.192,234.503 191.597 M184.548 197.794 C 184.548 201.492,184.576 202.975,184.611 201.090 C 184.646 199.205,184.646 196.180,184.611 194.367 C 184.576 192.554,184.547 194.097,184.548 197.794 M215.386 197.724 C 215.358 201.384,215.282 204.551,215.215 204.762 C 215.106 205.110,215.116 205.113,215.323 204.793 C 215.479 204.551,215.534 202.315,215.494 197.755 L 215.435 191.071 215.386 197.724 M159.547 197.794 C 159.547 201.376,159.576 202.871,159.611 201.116 C 159.646 199.361,159.646 196.431,159.611 194.603 C 159.576 192.776,159.547 194.212,159.547 197.794 M240.430 197.899 C 240.430 201.539,240.458 203.028,240.493 201.208 C 240.528 199.388,240.528 196.410,240.493 194.590 C 240.458 192.770,240.430 194.259,240.430 197.899 M140.639 197.794 C 140.639 201.261,140.668 202.708,140.703 201.011 C 140.739 199.314,140.739 196.478,140.703 194.708 C 140.668 192.939,140.639 194.328,140.639 197.794 M265.429 197.794 C 265.429 201.261,265.458 202.708,265.493 201.011 C 265.528 199.314,265.529 196.478,265.493 194.708 C 265.458 192.939,265.429 194.328,265.429 197.794 M259.337 197.899 C 259.337 201.308,259.365 202.702,259.401 200.998 C 259.436 199.294,259.436 196.505,259.401 194.800 C 259.365 193.096,259.337 194.491,259.337 197.899 M184.665 204.804 C 184.664 204.962,185.031 205.458,185.479 205.907 C 185.928 206.356,186.424 206.722,186.582 206.722 C 186.740 206.721,186.562 206.533,186.185 206.304 C 185.808 206.074,185.313 205.578,185.083 205.202 C 184.853 204.825,184.665 204.646,184.665 204.804 M239.356 205.826 C 238.991 206.204,238.760 206.513,238.844 206.513 C 239.039 206.513,240.231 205.276,240.111 205.198 C 240.061 205.166,239.722 205.448,239.356 205.826 M259.855 205.427 C 259.968 205.639,260.226 205.946,260.428 206.110 C 260.655 206.294,260.604 206.147,260.295 205.725 C 259.743 204.971,259.536 204.831,259.855 205.427 " stroke="none" fill="#5cbded" fill-rule="evenodd"></path><path id="path4" d="M220.127 3.308 C 221.317 3.346,223.208 3.345,224.328 3.308 C 225.449 3.270,224.475 3.239,222.164 3.240 C 219.853 3.240,218.936 3.271,220.127 3.308 M218.803 9.703 C 212.608 10.382,206.598 12.412,202.101 15.343 C 201.928 15.456,201.644 15.612,201.471 15.690 C 201.297 15.767,201.108 15.885,201.050 15.951 C 200.993 16.017,200.473 16.400,199.895 16.801 C 198.320 17.895,197.640 18.512,194.505 21.680 L 191.636 24.580 190.462 24.580 C 189.405 24.580,189.197 24.501,188.393 23.795 C 187.902 23.363,187.665 23.205,187.868 23.444 C 188.070 23.682,188.235 23.944,188.235 24.025 C 188.235 24.331,185.639 28.571,185.452 28.571 C 185.344 28.571,185.761 28.983,186.378 29.487 C 189.480 32.017,193.002 36.687,195.080 41.029 C 195.689 42.300,195.939 42.635,196.199 42.526 C 197.545 41.961,204.310 42.312,206.828 43.077 C 216.809 46.109,223.472 52.779,226.233 62.500 C 227.271 66.155,227.295 73.277,226.279 75.945 C 226.191 76.176,225.906 77.020,225.647 77.821 C 224.955 79.956,223.903 82.126,222.612 84.087 C 221.384 85.950,221.076 86.320,218.938 88.506 L 217.542 89.932 244.958 89.859 C 263.812 89.808,272.636 89.714,273.214 89.557 C 273.676 89.431,274.811 89.161,275.735 88.957 C 276.660 88.752,277.506 88.506,277.616 88.410 C 277.725 88.314,277.967 88.235,278.153 88.235 C 279.700 88.235,283.698 81.195,285.074 76.050 C 288.380 63.687,286.771 50.388,280.866 41.274 C 279.052 38.472,278.845 38.367,272.479 36.979 C 270.931 36.642,265.888 36.819,263.971 37.278 C 259.793 38.278,258.889 37.878,257.579 34.454 C 256.628 31.966,256.372 31.376,255.621 29.937 C 255.259 29.244,254.862 28.464,254.740 28.205 C 254.617 27.946,254.446 27.734,254.359 27.733 C 254.273 27.732,254.202 27.637,254.202 27.522 C 254.202 27.335,253.147 25.796,251.835 24.066 C 248.887 20.182,243.370 15.573,239.444 13.713 C 238.190 13.119,236.531 12.395,236.423 12.395 C 236.357 12.395,236.005 12.264,235.641 12.104 C 234.485 11.597,233.180 11.195,230.567 10.541 C 227.017 9.652,222.320 9.317,218.803 9.703 M192.532 14.548 L 191.702 15.441 192.595 14.611 C 193.425 13.838,193.584 13.655,193.425 13.655 C 193.391 13.655,192.989 14.057,192.532 14.548 M251.996 14.916 C 252.565 15.494,253.078 15.966,253.135 15.966 C 253.193 15.966,252.775 15.494,252.206 14.916 C 251.637 14.338,251.124 13.866,251.066 13.866 C 251.008 13.866,251.427 14.338,251.996 14.916 M254.727 17.647 C 255.178 18.109,255.595 18.487,255.652 18.487 C 255.710 18.487,255.388 18.109,254.937 17.647 C 254.486 17.185,254.069 16.807,254.011 16.807 C 253.954 16.807,254.276 17.185,254.727 17.647 M189.167 17.910 L 188.550 18.592 189.233 17.975 C 189.609 17.636,189.916 17.329,189.916 17.293 C 189.916 17.130,189.743 17.273,189.167 17.910 M158.246 20.733 C 158.448 20.786,158.779 20.786,158.981 20.733 C 159.183 20.680,159.018 20.637,158.613 20.637 C 158.209 20.637,158.044 20.680,158.246 20.733 M166.229 20.733 C 166.431 20.786,166.762 20.786,166.964 20.733 C 167.166 20.680,167.001 20.637,166.597 20.637 C 166.192 20.637,166.027 20.680,166.229 20.733 M137.808 30.410 L 136.660 31.618 137.868 30.469 C 138.532 29.838,139.076 29.294,139.076 29.261 C 139.076 29.105,138.875 29.287,137.808 30.410 M262.868 30.462 C 262.915 30.636,263.182 30.795,263.462 30.816 C 263.863 30.847,263.882 30.830,263.550 30.739 C 263.319 30.676,263.052 30.516,262.957 30.385 C 262.842 30.228,262.812 30.254,262.868 30.462 M267.805 30.407 C 268.411 30.449,269.404 30.449,270.011 30.407 C 270.617 30.365,270.121 30.330,268.908 30.330 C 267.694 30.330,267.198 30.365,267.805 30.407 M290.756 38.721 C 290.756 38.757,291.064 39.065,291.439 39.404 L 292.122 40.021 291.505 39.338 C 290.930 38.702,290.756 38.559,290.756 38.721 M122.952 42.372 C 123.154 42.425,123.485 42.425,123.687 42.372 C 123.889 42.319,123.724 42.276,123.319 42.276 C 122.915 42.276,122.749 42.319,122.952 42.372 M126.208 42.375 C 126.468 42.425,126.893 42.425,127.153 42.375 C 127.413 42.325,127.201 42.284,126.681 42.284 C 126.161 42.284,125.948 42.325,126.208 42.375 M105.981 50.263 L 104.727 51.576 106.040 50.322 C 107.260 49.157,107.449 48.950,107.294 48.950 C 107.261 48.950,106.670 49.540,105.981 50.263 M301.179 57.038 C 301.351 57.810,301.472 57.978,301.467 57.440 C 301.466 57.219,301.368 56.896,301.251 56.723 C 301.095 56.493,301.076 56.578,301.179 57.038 M301.764 63.340 C 301.764 64.958,301.797 65.592,301.837 64.749 C 301.877 63.906,301.877 62.583,301.836 61.808 C 301.796 61.033,301.763 61.723,301.764 63.340 M301.285 69.153 C 301.271 69.346,301.206 69.677,301.140 69.888 C 301.025 70.253,301.031 70.254,301.259 69.899 C 301.391 69.693,301.456 69.362,301.404 69.164 C 301.319 68.838,301.307 68.837,301.285 69.153 M98.533 74.492 C 98.534 74.714,98.632 75.037,98.749 75.210 C 98.905 75.440,98.924 75.355,98.821 74.895 C 98.649 74.122,98.528 73.955,98.533 74.492 M291.272 87.447 L 290.441 88.340 291.334 87.510 C 291.825 87.053,292.227 86.651,292.227 86.617 C 292.227 86.458,292.044 86.617,291.272 87.447 M121.376 96.157 C 121.636 96.207,122.061 96.207,122.321 96.157 C 122.581 96.107,122.369 96.066,121.849 96.066 C 121.329 96.066,121.116 96.107,121.376 96.157 M272.006 96.157 C 272.266 96.207,272.692 96.207,272.952 96.157 C 273.212 96.107,272.999 96.066,272.479 96.066 C 271.959 96.066,271.746 96.107,272.006 96.157 M123.792 96.369 C 124.110 96.417,124.630 96.417,124.947 96.369 C 125.265 96.321,125.005 96.281,124.370 96.281 C 123.734 96.281,123.474 96.321,123.792 96.369 M269.065 96.370 C 269.441 96.417,270.055 96.417,270.431 96.370 C 270.806 96.324,270.499 96.286,269.748 96.286 C 268.997 96.286,268.690 96.324,269.065 96.370 M227.859 104.097 C 228.032 104.869,228.152 105.037,228.148 104.499 C 228.146 104.278,228.049 103.955,227.932 103.782 C 227.776 103.551,227.756 103.636,227.859 104.097 M277.836 111.029 C 277.836 114.878,277.907 117.983,277.994 117.930 C 278.080 117.876,278.151 114.771,278.151 111.029 C 278.151 107.288,278.080 104.183,277.994 104.129 C 277.907 104.076,277.836 107.181,277.836 111.029 M146.943 111.029 C 146.943 114.842,146.971 116.432,147.006 114.562 C 147.041 112.691,147.041 109.572,147.006 107.629 C 146.971 105.686,146.943 107.216,146.943 111.029 M153.245 111.029 C 153.245 114.842,153.274 116.432,153.308 114.562 C 153.343 112.691,153.343 109.572,153.309 107.629 C 153.274 105.686,153.245 107.216,153.245 111.029 M246.733 110.924 C 246.733 114.680,246.761 116.216,246.796 114.338 C 246.831 112.461,246.831 109.388,246.796 107.511 C 246.761 105.633,246.733 107.169,246.733 110.924 M253.035 111.029 C 253.035 114.842,253.064 116.432,253.098 114.562 C 253.133 112.691,253.133 109.572,253.098 107.629 C 253.064 105.686,253.035 107.216,253.035 111.029 M271.733 111.029 C 271.733 114.842,271.761 116.432,271.796 114.562 C 271.831 112.691,271.831 109.572,271.796 107.629 C 271.761 105.686,271.733 107.216,271.733 111.029 M121.942 111.029 C 121.943 114.727,121.971 116.210,122.006 114.325 C 122.041 112.440,122.041 109.415,122.006 107.602 C 121.971 105.790,121.942 107.332,121.942 111.029 M178.245 111.029 C 178.245 114.727,178.274 116.210,178.309 114.325 C 178.343 112.440,178.343 109.415,178.308 107.602 C 178.273 105.790,178.245 107.332,178.245 111.029 M221.732 111.029 C 221.732 114.727,221.761 116.210,221.796 114.325 C 221.831 112.440,221.831 109.415,221.796 107.602 C 221.761 105.790,221.732 107.332,221.732 111.029 M196.732 111.029 C 196.732 114.496,196.760 115.943,196.796 114.246 C 196.831 112.549,196.831 109.713,196.796 107.944 C 196.761 106.174,196.732 107.563,196.732 111.029 M203.244 111.029 C 203.244 114.496,203.273 115.943,203.308 114.246 C 203.344 112.549,203.344 109.713,203.308 107.944 C 203.273 106.174,203.244 107.563,203.244 111.029 M137.237 130.817 C 137.440 130.870,137.770 130.870,137.973 130.817 C 138.175 130.764,138.009 130.721,137.605 130.721 C 137.201 130.721,137.035 130.764,137.237 130.817 M162.237 130.817 C 162.440 130.870,162.770 130.870,162.973 130.817 C 163.175 130.764,163.009 130.721,162.605 130.721 C 162.201 130.721,162.035 130.764,162.237 130.817 M186.992 130.748 C 187.040 130.789,187.458 130.881,187.920 130.952 C 188.492 131.039,188.660 131.016,188.445 130.880 C 188.158 130.697,186.788 130.572,186.992 130.748 M211.555 130.880 C 211.340 131.016,211.508 131.039,212.080 130.952 C 213.118 130.793,213.295 130.671,212.482 130.675 C 212.145 130.677,211.728 130.769,211.555 130.880 M237.027 130.817 C 237.230 130.870,237.560 130.870,237.763 130.817 C 237.965 130.764,237.799 130.721,237.395 130.721 C 236.991 130.721,236.825 130.764,237.027 130.817 M262.027 130.817 C 262.230 130.870,262.560 130.870,262.763 130.817 C 262.965 130.764,262.799 130.721,262.395 130.721 C 261.991 130.721,261.825 130.764,262.027 130.817 M190.249 132.545 C 190.334 132.708,190.473 133.133,190.558 133.490 C 190.701 134.086,190.715 134.095,190.735 133.601 C 190.747 133.305,190.607 132.880,190.426 132.656 C 190.244 132.431,190.164 132.381,190.249 132.545 M209.339 133.037 C 209.283 133.183,209.263 136.373,209.293 140.128 L 209.349 146.954 209.454 139.863 C 209.512 135.964,209.532 132.773,209.500 132.773 C 209.467 132.773,209.395 132.892,209.339 133.037 M184.338 139.916 C 184.338 143.671,184.366 145.207,184.401 143.330 C 184.436 141.452,184.436 138.380,184.401 136.502 C 184.366 134.624,184.338 136.161,184.338 139.916 M215.546 140.063 C 215.488 143.899,215.513 146.966,215.602 146.877 C 215.690 146.789,215.737 143.650,215.707 139.903 L 215.651 133.088 215.546 140.063 M159.337 139.916 C 159.337 143.556,159.366 145.045,159.401 143.225 C 159.436 141.405,159.436 138.427,159.401 136.607 C 159.366 134.787,159.337 136.276,159.337 139.916 M240.596 139.846 C 240.568 143.448,240.492 146.567,240.425 146.779 C 240.316 147.127,240.326 147.130,240.533 146.809 C 240.689 146.568,240.744 144.362,240.704 139.877 L 240.645 133.298 240.596 139.846 M134.337 139.916 C 134.337 143.440,134.366 144.882,134.401 143.120 C 134.436 141.358,134.436 138.474,134.401 136.712 C 134.366 134.950,134.337 136.392,134.337 139.916 M265.639 139.916 C 265.639 143.440,265.668 144.882,265.703 143.120 C 265.738 141.358,265.738 138.474,265.703 136.712 C 265.668 134.950,265.639 136.392,265.639 139.916 M140.849 140.021 C 140.849 143.372,140.878 144.713,140.913 143.002 C 140.949 141.290,140.949 138.549,140.913 136.909 C 140.878 135.270,140.849 136.670,140.849 140.021 M259.260 146.651 C 259.251 146.831,259.391 147.162,259.570 147.386 C 259.892 147.788,259.894 147.787,259.704 147.374 C 259.598 147.143,259.458 146.812,259.394 146.639 C 259.293 146.366,259.275 146.368,259.260 146.651 M137.237 149.094 C 137.440 149.147,137.770 149.147,137.973 149.094 C 138.175 149.042,138.009 148.998,137.605 148.998 C 137.201 148.998,137.035 149.042,137.237 149.094 M162.237 149.094 C 162.440 149.147,162.770 149.147,162.973 149.094 C 163.175 149.042,163.009 148.998,162.605 148.998 C 162.201 148.998,162.035 149.042,162.237 149.094 M187.237 149.094 C 187.440 149.147,187.770 149.147,187.973 149.094 C 188.175 149.042,188.009 148.998,187.605 148.998 C 187.201 148.998,187.035 149.042,187.237 149.094 M237.027 149.094 C 237.230 149.147,237.560 149.147,237.763 149.094 C 237.965 149.042,237.799 148.998,237.395 148.998 C 236.991 148.998,236.825 149.042,237.027 149.094 M262.027 149.094 C 262.230 149.147,262.560 149.147,262.763 149.094 C 262.965 149.042,262.799 148.998,262.395 148.998 C 261.991 148.998,261.825 149.042,262.027 149.094 M124.387 159.741 C 124.435 159.783,124.937 159.868,125.501 159.928 C 126.128 159.996,126.414 159.967,126.236 159.855 C 125.964 159.682,124.197 159.573,124.387 159.741 M149.087 159.821 C 149.034 159.908,149.492 159.979,150.105 159.979 C 150.718 159.979,151.177 159.908,151.123 159.821 C 151.069 159.735,150.611 159.664,150.105 159.664 C 149.599 159.664,149.141 159.735,149.087 159.821 M174.082 159.830 C 174.025 159.921,174.327 159.962,174.752 159.920 C 175.915 159.805,176.053 159.699,175.065 159.680 C 174.581 159.671,174.138 159.739,174.082 159.830 M199.527 159.812 C 199.787 159.862,200.213 159.862,200.473 159.812 C 200.733 159.762,200.520 159.721,200.000 159.721 C 199.480 159.721,199.267 159.762,199.527 159.812 M224.265 159.770 C 224.745 159.938,226.013 159.984,225.918 159.830 C 225.862 159.739,225.419 159.671,224.935 159.680 C 224.451 159.690,224.149 159.730,224.265 159.770 M249.265 159.770 C 249.745 159.938,251.013 159.984,250.918 159.830 C 250.862 159.739,250.419 159.671,249.935 159.680 C 249.451 159.690,249.149 159.730,249.265 159.770 M273.764 159.855 C 273.586 159.967,273.872 159.996,274.499 159.928 C 275.063 159.868,275.565 159.783,275.613 159.741 C 275.803 159.573,274.036 159.682,273.764 159.855 M147.781 160.767 L 147.164 161.450 147.847 160.833 C 148.222 160.493,148.529 160.186,148.529 160.150 C 148.529 159.987,148.356 160.130,147.781 160.767 M251.471 160.150 C 251.471 160.186,251.778 160.493,252.153 160.833 L 252.836 161.450 252.219 160.767 C 251.644 160.130,251.471 159.987,251.471 160.150 M252.836 168.802 C 252.836 172.767,252.907 175.966,252.994 175.913 C 253.197 175.787,253.194 162.158,252.990 161.837 C 252.906 161.704,252.836 164.838,252.836 168.802 M271.686 168.815 C 271.645 174.868,271.681 175.812,271.969 176.168 C 272.151 176.392,272.222 176.434,272.127 176.261 C 272.032 176.087,271.904 172.778,271.843 168.908 L 271.733 161.870 271.686 168.815 M121.942 168.803 C 121.943 172.500,121.971 173.983,122.006 172.098 C 122.041 170.213,122.041 167.188,122.006 165.375 C 121.971 163.563,121.942 165.105,121.942 168.803 M146.943 168.908 C 146.943 172.663,146.971 174.199,147.006 172.321 C 147.041 170.444,147.041 167.371,147.006 165.494 C 146.971 163.616,146.943 165.152,146.943 168.908 M153.245 168.908 C 153.245 172.663,153.274 174.199,153.308 172.321 C 153.343 170.444,153.343 167.371,153.308 165.494 C 153.274 163.616,153.245 165.152,153.245 168.908 M246.733 168.908 C 246.733 172.663,246.761 174.199,246.796 172.321 C 246.831 170.444,246.831 167.371,246.796 165.494 C 246.761 163.616,246.733 165.152,246.733 168.908 M278.035 168.908 C 278.035 172.663,278.064 174.199,278.098 172.321 C 278.133 170.444,278.133 167.371,278.098 165.494 C 278.064 163.616,278.035 165.152,278.035 168.908 M178.245 168.908 C 178.245 172.547,178.273 174.036,178.308 172.216 C 178.343 170.397,178.343 167.419,178.308 165.599 C 178.273 163.779,178.245 165.268,178.245 168.908 M221.732 168.908 C 221.732 172.547,221.761 174.036,221.796 172.216 C 221.831 170.397,221.831 167.419,221.796 165.599 C 221.761 163.779,221.732 165.268,221.732 168.908 M203.244 168.803 C 203.244 172.269,203.273 173.716,203.308 172.019 C 203.344 170.322,203.344 167.486,203.308 165.717 C 203.273 163.948,203.244 165.336,203.244 168.803 M196.732 168.908 C 196.732 172.316,196.760 173.711,196.796 172.006 C 196.831 170.302,196.831 167.513,196.796 165.809 C 196.760 164.105,196.732 165.499,196.732 168.908 M185.191 189.704 C 184.860 190.049,184.630 190.365,184.679 190.406 C 184.729 190.447,185.038 190.165,185.367 189.778 C 186.110 188.906,186.000 188.859,185.191 189.704 M234.448 190.557 C 234.321 190.794,234.247 191.131,234.283 191.306 C 234.319 191.480,234.453 191.286,234.580 190.875 C 234.840 190.033,234.791 189.916,234.448 190.557 M215.495 195.765 C 215.525 198.614,215.577 201.796,215.609 202.836 C 215.642 203.876,215.687 201.654,215.709 197.899 C 215.732 194.144,215.680 190.962,215.596 190.828 C 215.511 190.694,215.466 192.916,215.495 195.765 M159.375 191.080 C 159.303 191.267,159.265 194.367,159.290 197.969 L 159.337 204.517 159.448 197.689 C 159.567 190.356,159.569 190.572,159.375 191.080 M209.338 197.794 C 209.338 201.607,209.366 203.197,209.401 201.326 C 209.436 199.456,209.436 196.336,209.401 194.394 C 209.366 192.451,209.338 193.981,209.338 197.794 M265.496 195.870 C 265.526 198.546,265.577 201.539,265.610 202.521 C 265.643 203.503,265.688 201.423,265.710 197.899 C 265.732 194.375,265.680 191.382,265.596 191.248 C 265.511 191.114,265.466 193.194,265.496 195.870 M184.289 197.834 C 184.264 201.554,184.315 204.641,184.401 204.695 C 184.488 204.748,184.535 202.792,184.505 200.348 C 184.403 191.903,184.334 191.096,184.289 197.834 M240.640 197.794 C 240.640 201.492,240.669 202.975,240.703 201.090 C 240.738 199.205,240.738 196.180,240.703 194.367 C 240.668 192.554,240.640 194.097,240.640 197.794 M134.337 197.794 C 134.337 201.261,134.365 202.708,134.401 201.011 C 134.436 199.314,134.436 196.478,134.401 194.708 C 134.366 192.939,134.337 194.328,134.337 197.794 M140.849 197.794 C 140.849 201.145,140.878 202.486,140.913 200.775 C 140.949 199.064,140.949 196.322,140.913 194.683 C 140.878 193.043,140.849 194.443,140.849 197.794 M190.521 204.366 C 190.452 204.783,190.483 204.979,190.599 204.863 C 190.705 204.757,190.757 204.447,190.714 204.173 C 190.648 203.753,190.618 203.782,190.521 204.366 M234.262 204.319 C 234.252 204.557,234.393 204.935,234.574 205.159 C 234.756 205.384,234.841 205.442,234.762 205.288 C 234.683 205.135,234.542 204.757,234.449 204.448 C 234.313 203.997,234.276 203.972,234.262 204.319 " stroke="none" fill="#bcf3fa" fill-rule="evenodd"></path></g></svg>