<svg id="svg" version="1.1" xmlns="http://www.w3.org/2000/svg" xmlns:xlink="http://www.w3.org/1999/xlink" width="400" height="400" viewBox="0, 0, 400,400"><g id="svgg"><path id="path0" d="M281.614 51.174 C 280.791 52.712,281.077 73.764,281.931 74.538 C 283.008 75.512,304.400 75.543,305.371 74.571 C 306.027 73.916,306.346 54.628,305.750 51.650 L 305.500 50.400 293.764 50.400 C 282.570 50.400,282.009 50.436,281.614 51.174 M107.600 90.545 C 107.600 100.018,107.707 102.390,108.149 102.757 C 108.537 103.080,112.008 103.182,120.049 103.106 L 131.400 103.000 131.400 91.000 L 131.400 79.000 119.500 78.894 L 107.600 78.788 107.600 90.545 M339.981 112.020 C 339.661 112.222,338.693 112.391,337.828 112.394 C 336.964 112.397,335.704 112.572,335.028 112.782 C 334.353 112.991,332.180 113.652,330.200 114.249 C 328.220 114.846,326.330 115.562,326.000 115.839 C 325.670 116.116,325.253 116.334,325.074 116.323 C 324.143 116.265,317.270 120.122,315.717 121.574 C 315.231 122.028,314.734 122.400,314.613 122.400 C 313.951 122.400,306.225 129.939,304.571 132.200 C 303.927 133.079,303.085 134.148,302.700 134.575 C 302.315 135.002,302.000 135.565,302.000 135.826 C 302.000 136.088,301.732 136.524,301.405 136.796 C 300.700 137.381,297.467 143.816,297.467 144.634 C 297.467 144.945,297.317 145.200,297.133 145.200 C 296.950 145.200,296.800 145.549,296.800 145.976 C 296.800 146.403,296.620 146.864,296.400 147.000 C 296.180 147.136,296.000 147.676,296.000 148.200 C 296.000 148.724,295.820 149.264,295.600 149.400 C 295.380 149.536,295.200 150.231,295.200 150.944 C 295.200 151.657,295.030 152.411,294.821 152.620 C 294.613 152.829,294.398 153.765,294.343 154.700 C 294.288 155.635,294.093 156.400,293.909 156.400 C 293.725 156.400,293.625 158.515,293.687 161.100 L 293.800 165.800 305.497 165.884 L 317.193 165.967 317.414 165.084 C 317.536 164.598,317.659 163.750,317.689 163.200 C 317.718 162.650,317.858 162.020,318.000 161.800 C 318.142 161.580,318.294 160.770,318.337 160.000 C 318.450 158.009,319.016 156.193,320.643 152.600 C 321.042 151.720,321.330 150.865,321.284 150.700 C 321.238 150.535,321.358 150.400,321.551 150.400 C 321.745 150.400,322.108 149.905,322.359 149.300 C 322.610 148.695,323.523 147.480,324.388 146.600 C 325.253 145.720,325.970 144.814,325.980 144.586 C 325.991 144.359,326.495 143.874,327.100 143.509 C 327.705 143.144,328.650 142.430,329.200 141.923 C 329.750 141.415,330.740 140.736,331.400 140.414 C 332.060 140.092,333.050 139.533,333.600 139.172 C 337.091 136.878,348.524 135.266,352.600 136.491 C 354.187 136.969,354.394 137.025,355.800 137.365 C 357.332 137.735,360.311 139.132,360.615 139.624 C 360.743 139.831,361.197 140.000,361.624 140.000 C 362.051 140.000,362.400 140.168,362.400 140.373 C 362.400 140.578,362.746 140.856,363.168 140.990 C 363.813 141.195,366.266 143.154,367.289 144.282 C 367.448 144.457,368.319 145.410,369.225 146.400 C 370.132 147.390,371.239 148.920,371.685 149.800 C 372.132 150.680,372.700 151.804,372.949 152.297 C 373.197 152.790,373.535 153.195,373.700 153.197 C 373.865 153.199,374.000 153.740,374.000 154.400 C 374.000 155.060,374.180 155.600,374.400 155.600 C 374.620 155.600,374.800 156.104,374.800 156.720 C 374.800 157.336,374.969 158.011,375.176 158.220 C 375.383 158.429,375.606 159.815,375.671 161.300 C 375.736 162.785,375.926 164.000,376.094 164.000 C 376.262 164.000,376.400 164.450,376.400 165.000 C 376.400 165.550,376.247 166.000,376.061 166.000 C 375.874 166.000,375.684 167.279,375.638 168.841 C 375.593 170.404,375.407 171.979,375.227 172.341 C 374.705 173.387,374.000 175.794,374.000 176.528 C 374.000 176.898,373.820 177.200,373.600 177.200 C 373.380 177.200,373.200 177.393,373.200 177.628 C 373.200 177.863,372.660 178.841,372.000 179.800 C 371.340 180.759,370.800 181.695,370.800 181.880 C 370.800 183.396,360.083 192.000,358.194 192.000 C 357.893 192.000,357.536 192.180,357.400 192.400 C 357.264 192.620,356.749 192.800,356.256 192.800 C 355.763 192.800,355.189 192.963,354.980 193.161 C 354.055 194.040,341.365 194.118,175.300 194.256 L -0.000 194.402 -0.000 206.605 L -0.000 218.808 176.700 218.667 C 273.885 218.589,353.670 218.476,354.000 218.415 C 354.330 218.354,355.680 218.041,357.000 217.718 C 358.320 217.396,360.120 216.992,361.000 216.820 C 362.934 216.442,364.995 215.720,366.895 214.753 C 367.277 214.559,367.862 214.400,368.195 214.400 C 368.528 214.400,368.800 214.220,368.800 214.000 C 368.800 213.780,369.235 213.600,369.767 213.600 C 370.298 213.600,370.793 213.434,370.867 213.230 C 370.940 213.027,371.263 212.802,371.584 212.730 C 371.906 212.659,372.499 212.309,372.902 211.954 C 373.305 211.598,374.437 210.895,375.418 210.391 C 376.398 209.887,377.200 209.323,377.200 209.137 C 377.200 208.952,377.470 208.800,377.800 208.800 C 378.130 208.800,378.400 208.632,378.400 208.427 C 378.400 208.222,378.719 207.953,379.110 207.829 C 380.035 207.535,387.519 200.268,389.025 198.200 C 389.667 197.320,390.463 196.330,390.796 196.000 C 391.128 195.670,391.459 195.132,391.532 194.804 C 391.605 194.476,391.785 194.116,391.932 194.004 C 392.408 193.641,395.603 187.486,396.812 184.600 C 397.651 182.598,398.800 178.872,398.800 178.153 C 398.800 177.717,399.025 177.135,399.300 176.860 C 400.009 176.151,400.020 154.388,399.312 153.535 C 399.044 153.211,398.780 152.374,398.727 151.673 C 398.673 150.973,398.488 150.400,398.315 150.400 C 398.142 150.400,398.000 149.948,398.000 149.395 C 398.000 148.842,397.843 148.077,397.652 147.695 C 396.626 145.647,395.600 143.111,395.600 142.623 C 395.600 142.317,395.464 142.007,395.298 141.933 C 395.132 141.860,394.385 140.585,393.638 139.100 C 392.891 137.615,392.127 136.400,391.940 136.400 C 391.753 136.400,391.600 136.145,391.600 135.833 C 391.600 135.522,391.457 135.207,391.281 135.133 C 391.106 135.060,390.199 133.925,389.265 132.612 C 387.405 129.996,384.771 127.183,381.576 124.400 C 380.439 123.410,379.272 122.375,378.983 122.100 C 378.694 121.825,378.347 121.600,378.212 121.600 C 377.982 121.600,375.633 120.038,375.200 119.596 C 375.090 119.484,374.280 119.036,373.400 118.600 C 372.520 118.164,371.466 117.535,371.058 117.203 C 370.650 116.872,370.243 116.649,370.154 116.708 C 370.065 116.768,369.463 116.543,368.817 116.209 C 368.171 115.875,367.318 115.537,366.921 115.459 C 366.525 115.381,365.526 115.019,364.703 114.654 C 363.879 114.290,362.754 113.954,362.203 113.908 C 361.651 113.863,361.200 113.704,361.200 113.557 C 361.200 113.409,360.525 113.172,359.700 113.030 C 358.875 112.889,357.120 112.581,355.800 112.347 C 352.678 111.791,340.733 111.545,339.981 112.020 M13.680 252.480 C 12.709 253.451,13.028 275.275,14.025 276.129 C 15.176 277.114,36.981 276.995,37.609 276.000 C 38.114 275.201,38.115 254.354,37.610 253.026 L 37.220 252.000 25.690 252.000 C 17.256 252.000,14.031 252.129,13.680 252.480 M296.607 356.894 C 296.473 357.832,296.416 363.190,296.481 368.800 L 296.600 379.000 308.600 379.000 L 320.600 379.000 320.600 367.200 L 320.600 355.400 308.725 355.294 L 296.851 355.188 296.607 356.894 " stroke="none" fill="#fcd47c" fill-rule="evenodd"></path><path id="path1" d="M360.500 20.623 C 360.124 21.032,360.000 24.086,360.000 32.983 L 360.000 44.800 372.400 44.800 L 384.800 44.800 384.800 32.624 C 384.800 24.937,384.652 20.356,384.400 20.200 C 384.180 20.064,384.000 20.143,384.000 20.376 C 384.000 20.910,361.330 20.972,361.133 20.439 C 361.060 20.241,360.775 20.323,360.500 20.623 M42.500 37.825 C 42.123 38.233,42.000 41.285,42.000 50.183 L 42.000 62.000 54.400 62.000 L 66.800 62.000 66.800 50.043 C 66.800 40.068,66.706 38.049,66.231 37.867 C 65.917 37.747,60.672 37.632,54.573 37.612 C 48.475 37.593,43.376 37.511,43.243 37.430 C 43.109 37.350,42.775 37.527,42.500 37.825 M218.656 86.678 C 218.486 86.847,217.234 87.117,215.874 87.278 C 212.001 87.734,210.411 88.059,210.173 88.444 C 210.052 88.640,209.603 88.800,209.176 88.800 C 208.749 88.800,208.400 88.980,208.400 89.200 C 208.400 89.420,207.860 89.600,207.200 89.600 C 206.540 89.600,206.000 89.780,206.000 90.000 C 206.000 90.220,205.730 90.400,205.400 90.400 C 205.070 90.400,204.800 90.580,204.800 90.800 C 204.800 91.020,204.427 91.200,203.971 91.200 C 203.516 91.200,202.871 91.472,202.539 91.804 C 202.207 92.136,201.770 92.305,201.568 92.180 C 201.365 92.055,201.200 92.143,201.200 92.376 C 201.200 92.609,200.880 92.800,200.488 92.800 C 200.097 92.800,199.517 93.160,199.200 93.600 C 198.883 94.040,198.393 94.400,198.112 94.400 C 197.830 94.400,197.600 94.580,197.600 94.800 C 197.600 95.020,197.324 95.200,196.987 95.200 C 196.651 95.200,196.271 95.470,196.145 95.800 C 196.018 96.130,195.669 96.400,195.369 96.400 C 195.069 96.400,194.425 96.940,193.937 97.600 C 193.449 98.260,192.918 98.800,192.756 98.800 C 192.595 98.800,191.653 99.610,190.663 100.600 C 189.673 101.590,188.938 102.400,189.029 102.400 C 189.203 102.400,187.965 103.942,186.600 105.427 C 186.160 105.905,185.747 106.545,185.683 106.848 C 185.619 107.152,185.214 107.699,184.783 108.064 C 184.352 108.429,184.000 109.014,184.000 109.364 C 184.000 109.714,183.820 110.000,183.600 110.000 C 183.380 110.000,183.200 110.461,183.200 111.024 C 183.200 111.604,183.027 111.940,182.800 111.800 C 182.580 111.664,182.400 111.923,182.400 112.376 C 182.400 112.829,182.250 113.200,182.067 113.200 C 181.883 113.200,181.733 113.450,181.733 113.756 C 181.733 114.629,180.742 116.800,180.344 116.800 C 180.146 116.800,180.066 117.249,180.165 117.798 C 180.266 118.351,180.095 119.048,179.782 119.360 C 179.472 119.671,179.176 120.481,179.124 121.162 C 179.072 121.843,178.915 122.400,178.775 122.400 C 178.635 122.400,178.556 123.255,178.598 124.300 C 178.641 125.345,178.514 126.307,178.315 126.438 C 178.116 126.569,177.889 128.139,177.811 129.926 L 177.668 133.176 178.934 133.407 C 179.630 133.534,185.105 133.585,191.100 133.519 C 198.177 133.442,202.003 133.540,202.006 133.800 C 202.028 135.296,202.693 132.703,202.752 130.891 C 202.793 129.648,202.955 128.534,203.113 128.416 C 203.271 128.297,203.450 127.582,203.511 126.827 C 203.573 126.072,203.820 125.217,204.060 124.927 C 204.301 124.637,204.341 124.395,204.149 124.388 C 203.957 124.381,204.119 124.190,204.508 123.963 C 204.898 123.736,205.125 123.402,205.013 123.221 C 204.901 123.039,205.077 122.668,205.404 122.396 C 205.732 122.124,206.000 121.690,206.000 121.432 C 206.000 120.905,211.983 114.412,211.993 114.927 C 211.997 115.107,212.523 114.882,213.162 114.427 C 213.801 113.972,214.521 113.600,214.762 113.600 C 215.003 113.600,215.200 113.456,215.200 113.280 C 215.200 112.873,217.590 112.000,218.705 112.000 C 219.171 112.000,219.664 111.820,219.800 111.600 C 219.942 111.371,222.004 111.200,224.624 111.200 C 227.408 111.200,229.200 111.357,229.200 111.600 C 229.200 111.820,229.830 112.000,230.600 112.000 C 231.370 112.000,232.001 112.135,232.003 112.300 C 232.007 112.659,233.944 113.600,234.680 113.600 C 234.966 113.600,235.200 113.780,235.200 114.000 C 235.200 114.220,235.470 114.400,235.800 114.400 C 236.130 114.400,236.400 114.580,236.400 114.800 C 236.400 115.020,236.586 115.200,236.813 115.200 C 237.041 115.200,237.755 115.740,238.400 116.400 C 239.045 117.060,239.759 117.600,239.987 117.600 C 240.214 117.600,240.400 117.804,240.400 118.054 C 240.400 118.304,240.839 118.915,241.375 119.412 C 241.912 119.909,242.242 120.425,242.109 120.558 C 241.976 120.691,242.048 120.800,242.270 120.800 C 242.637 120.800,244.796 124.360,244.870 125.090 C 244.911 125.491,245.131 126.222,245.473 127.100 C 245.733 127.764,245.937 129.684,246.079 132.800 C 246.160 134.557,245.606 138.867,245.232 139.400 C 245.077 139.620,244.965 140.070,244.983 140.400 C 245.001 140.730,244.697 141.349,244.308 141.775 C 243.919 142.202,243.600 142.877,243.600 143.275 C 243.600 143.674,243.420 144.000,243.200 144.000 C 242.980 144.000,242.800 144.270,242.800 144.600 C 242.800 144.930,242.620 145.200,242.400 145.200 C 242.180 145.200,242.000 145.355,242.000 145.545 C 242.000 146.108,237.844 150.401,237.300 150.400 C 237.025 150.400,236.800 150.558,236.800 150.751 C 236.800 150.945,236.260 151.327,235.600 151.600 C 234.940 151.873,234.400 152.255,234.400 152.449 C 234.400 152.642,234.040 152.800,233.600 152.800 C 233.160 152.800,232.800 152.969,232.800 153.175 C 232.800 153.381,232.485 153.559,232.100 153.570 C 230.572 153.613,230.000 153.748,230.000 154.067 C 230.000 154.250,228.729 154.400,227.176 154.400 C 225.623 154.400,224.436 154.535,224.538 154.700 C 224.707 154.973,189.183 154.973,103.138 154.700 C 85.834 154.645,71.760 154.735,71.862 154.900 C 71.964 155.065,71.764 155.200,71.418 155.200 C 70.857 155.200,70.800 156.496,70.894 167.100 L 71.000 179.000 151.722 179.097 C 205.068 179.161,232.360 179.060,232.198 178.797 C 232.050 178.557,232.663 178.400,233.753 178.400 C 234.743 178.400,235.664 178.220,235.800 178.000 C 235.936 177.780,236.677 177.600,237.447 177.600 C 238.279 177.600,238.747 177.438,238.600 177.200 C 238.453 176.962,238.921 176.800,239.753 176.800 C 240.523 176.800,241.264 176.620,241.400 176.400 C 241.536 176.180,241.997 176.000,242.424 176.000 C 242.851 176.000,243.200 175.860,243.200 175.688 C 243.200 175.516,244.100 175.027,245.200 174.600 C 246.300 174.173,247.200 173.697,247.200 173.541 C 247.200 173.385,248.145 172.810,249.300 172.263 C 250.455 171.716,251.836 170.803,252.370 170.234 C 252.903 169.665,253.501 169.200,253.698 169.200 C 254.238 169.200,255.198 168.132,254.914 167.848 C 254.778 167.711,254.884 167.600,255.149 167.600 C 255.414 167.600,256.358 166.880,257.247 166.000 C 258.136 165.120,259.040 164.400,259.255 164.400 C 259.471 164.400,259.542 164.230,259.414 164.023 C 259.286 163.815,259.815 163.011,260.591 162.236 C 261.366 161.461,262.000 160.630,262.000 160.390 C 262.000 160.149,262.180 160.064,262.400 160.200 C 262.620 160.336,262.800 160.077,262.800 159.624 C 262.800 159.171,262.980 158.800,263.200 158.800 C 263.420 158.800,263.600 158.558,263.600 158.262 C 263.600 157.966,263.960 157.398,264.400 157.000 C 264.840 156.602,265.200 155.944,265.200 155.538 C 265.200 155.132,265.380 154.800,265.600 154.800 C 265.820 154.800,266.000 154.524,266.000 154.186 C 266.000 153.848,266.308 153.101,266.685 152.526 C 267.062 151.951,267.410 151.210,267.459 150.880 C 267.507 150.550,267.754 150.152,268.008 149.995 C 268.261 149.839,268.453 149.596,268.434 149.455 C 268.252 148.096,268.462 147.188,268.900 147.441 C 269.175 147.599,269.281 147.596,269.137 147.434 C 268.992 147.272,269.047 146.568,269.258 145.870 C 269.470 145.171,269.711 144.150,269.794 143.600 C 269.877 143.050,270.143 141.721,270.386 140.646 C 270.852 138.585,270.981 127.306,270.558 125.600 C 270.422 125.050,270.219 123.970,270.108 123.200 C 269.996 122.430,269.741 121.595,269.540 121.344 C 269.339 121.093,269.135 120.345,269.087 119.683 C 269.039 119.020,268.865 118.561,268.700 118.663 C 268.535 118.764,268.400 118.207,268.400 117.424 C 268.400 116.641,268.264 116.000,268.098 116.000 C 267.800 116.000,267.626 115.656,266.034 111.900 C 265.591 110.855,265.042 110.000,264.814 110.000 C 264.586 110.000,264.400 109.640,264.400 109.200 C 264.400 108.760,264.220 108.400,264.000 108.400 C 263.780 108.400,263.600 108.128,263.600 107.796 C 263.600 107.464,263.060 106.628,262.400 105.937 C 261.740 105.246,261.200 104.510,261.200 104.301 C 261.200 104.092,260.690 103.444,260.067 102.860 C 259.443 102.277,258.718 101.397,258.455 100.904 C 258.191 100.411,257.846 100.051,257.688 100.104 C 257.530 100.157,256.995 99.795,256.500 99.300 C 256.005 98.805,255.718 98.400,255.862 98.400 C 256.006 98.400,255.613 97.960,254.987 97.423 C 254.362 96.885,253.704 96.536,253.525 96.646 C 253.346 96.757,253.200 96.537,253.200 96.157 C 253.200 95.777,253.085 95.582,252.944 95.723 C 252.803 95.863,252.038 95.483,251.244 94.877 C 250.450 94.271,249.260 93.511,248.600 93.188 C 247.940 92.864,247.051 92.285,246.625 91.900 C 246.198 91.515,245.512 91.200,245.101 91.200 C 244.689 91.200,244.436 91.065,244.538 90.900 C 244.640 90.735,244.251 90.572,243.674 90.537 C 243.097 90.502,242.559 90.277,242.479 90.037 C 242.399 89.797,242.024 89.600,241.647 89.600 C 241.269 89.600,240.781 89.421,240.562 89.202 C 240.344 88.984,239.678 88.764,239.082 88.715 C 238.487 88.666,238.000 88.485,238.000 88.313 C 238.000 88.141,237.471 88.000,236.824 88.000 C 236.177 88.000,235.536 87.820,235.400 87.600 C 235.264 87.380,234.364 87.200,233.400 87.200 C 232.436 87.200,231.546 87.037,231.423 86.837 C 231.149 86.394,219.089 86.244,218.656 86.678 M45.180 339.094 C 45.048 341.100,45.295 362.628,45.452 362.786 C 45.569 362.904,50.856 363.090,57.200 363.200 C 63.544 363.310,68.663 363.328,68.574 363.240 C 68.485 363.151,68.674 362.881,68.993 362.640 C 69.476 362.275,69.584 360.228,69.629 350.600 L 69.684 339.000 57.442 338.894 C 50.709 338.836,45.191 338.926,45.180 339.094 M199.600 351.000 L 199.600 363.200 211.557 363.200 L 223.513 363.200 223.767 362.190 C 223.906 361.634,224.006 356.144,223.987 349.990 L 223.954 338.800 211.777 338.800 L 199.600 338.800 199.600 351.000 " stroke="none" fill="#fcdc94" fill-rule="evenodd"></path><path id="path2" d="M181.867 20.267 C 181.720 20.413,181.600 25.993,181.600 32.667 L 181.600 44.800 194.211 44.800 L 206.822 44.800 206.788 32.913 C 206.766 25.143,206.606 20.849,206.328 20.513 C 205.870 19.962,182.408 19.725,181.867 20.267 M366.924 20.299 C 370.183 20.367,375.403 20.366,378.524 20.299 C 381.646 20.231,378.980 20.176,372.600 20.177 C 366.220 20.177,363.666 20.232,366.924 20.299 M280.884 63.276 C 280.838 69.588,280.935 74.836,281.100 74.939 C 281.265 75.041,281.354 71.677,281.298 67.462 C 281.107 53.163,280.969 51.766,280.884 63.276 M131.890 79.360 C 131.427 80.493,131.562 103.398,132.029 102.931 C 132.261 102.699,132.370 97.825,132.306 90.574 C 132.248 83.988,132.060 78.942,131.890 79.360 M339.600 111.545 C 339.600 111.734,340.050 111.803,340.600 111.698 C 341.150 111.593,341.600 111.438,341.600 111.353 C 341.600 111.269,341.150 111.200,340.600 111.200 C 340.050 111.200,339.600 111.355,339.600 111.545 M352.000 111.353 C 352.000 111.708,353.618 111.894,353.823 111.562 C 353.946 111.363,353.587 111.200,353.024 111.200 C 352.461 111.200,352.000 111.269,352.000 111.353 M324.500 115.834 C 323.785 116.146,323.200 116.494,323.200 116.607 C 323.200 116.815,326.006 115.727,326.346 115.387 C 326.686 115.047,325.820 115.257,324.500 115.834 M380.800 123.429 C 380.800 123.554,381.070 123.927,381.400 124.257 C 382.051 124.908,382.133 124.811,381.757 123.833 C 381.529 123.238,380.800 122.930,380.800 123.429 M385.600 127.726 C 385.600 127.884,386.222 128.619,386.983 129.357 C 387.744 130.096,388.254 130.813,388.116 130.950 C 387.979 131.088,388.077 131.200,388.333 131.200 C 389.150 131.200,388.844 130.605,387.200 129.000 C 386.320 128.141,385.600 127.567,385.600 127.726 M361.617 140.294 C 361.638 140.669,364.440 142.493,364.659 142.274 C 364.746 142.188,364.093 141.638,363.208 141.053 C 362.324 140.468,361.608 140.126,361.617 140.294 M321.322 150.674 C 321.457 150.893,321.206 151.776,320.764 152.636 C 319.967 154.187,319.967 154.192,320.759 153.200 C 321.756 151.951,322.054 150.881,321.501 150.539 C 321.267 150.394,321.187 150.455,321.322 150.674 M110.300 154.700 C 131.255 154.757,165.545 154.757,186.500 154.700 C 207.455 154.643,190.310 154.596,148.400 154.596 C 106.490 154.596,89.345 154.643,110.300 154.700 M292.900 164.957 C 292.900 165.531,293.058 166.000,293.250 166.000 C 293.695 166.000,293.691 165.164,293.244 164.457 C 293.001 164.074,292.900 164.221,292.900 164.957 M369.671 182.229 C 369.380 182.558,369.209 183.026,369.289 183.268 C 369.370 183.511,369.747 183.235,370.127 182.655 C 370.866 181.528,370.550 181.234,369.671 182.229 M86.700 194.300 C 134.495 194.356,212.705 194.356,260.500 194.300 C 308.295 194.244,269.190 194.198,173.600 194.198 C 78.010 194.198,38.905 194.244,86.700 194.300 M390.571 196.306 C 390.153 196.592,389.484 198.000,389.767 198.000 C 389.844 198.000,390.203 197.550,390.563 197.000 C 391.258 195.940,391.259 195.835,390.571 196.306 M379.256 208.013 C 378.736 208.446,378.484 208.800,378.694 208.800 C 378.905 208.800,379.493 208.440,380.000 208.000 C 381.193 206.965,380.499 206.977,379.256 208.013 M118.494 245.701 L 118.600 258.200 212.800 258.411 C 264.610 258.527,307.056 258.662,307.124 258.711 C 307.192 258.760,307.136 258.980,307.000 259.200 C 306.856 259.433,307.263 259.600,307.976 259.600 C 308.649 259.600,309.200 259.780,309.200 260.000 C 309.200 260.220,309.447 260.400,309.750 260.400 C 310.675 260.400,313.851 262.351,314.643 263.405 C 315.054 263.952,315.718 264.400,316.119 264.400 C 316.519 264.400,316.758 264.545,316.648 264.722 C 316.539 264.899,317.248 265.926,318.225 267.005 C 319.201 268.084,320.000 269.122,320.000 269.312 C 320.000 269.502,320.272 269.929,320.604 270.261 C 320.936 270.593,321.105 271.030,320.980 271.232 C 320.855 271.435,320.907 271.600,321.096 271.600 C 321.526 271.600,322.400 273.964,322.400 275.128 C 322.400 275.608,322.580 276.000,322.800 276.000 C 323.274 276.000,323.358 283.855,322.887 284.146 C 322.715 284.252,322.530 284.938,322.475 285.670 C 322.420 286.401,322.200 287.060,321.987 287.133 C 321.774 287.207,321.600 287.612,321.600 288.033 C 321.600 288.455,321.420 288.800,321.200 288.800 C 320.980 288.800,320.800 289.160,320.800 289.600 C 320.800 290.040,320.620 290.400,320.400 290.400 C 320.180 290.400,320.000 290.720,320.000 291.112 C 320.000 291.503,319.650 292.076,319.221 292.385 C 318.793 292.693,318.535 293.094,318.647 293.276 C 318.759 293.457,318.569 293.714,318.225 293.846 C 317.881 293.978,317.600 294.342,317.600 294.655 C 317.600 294.969,317.285 295.342,316.900 295.485 C 316.515 295.628,315.930 296.028,315.600 296.375 C 315.270 296.722,314.511 297.256,313.914 297.563 C 313.316 297.870,312.905 298.247,313.000 298.401 C 313.096 298.555,312.459 298.916,311.587 299.204 C 310.714 299.492,310.000 299.879,310.000 300.064 C 310.000 300.249,309.640 300.400,309.200 300.400 C 308.760 300.400,308.400 300.580,308.400 300.800 C 308.400 301.020,307.781 301.200,307.024 301.200 C 306.267 301.200,305.536 301.380,305.400 301.600 C 305.262 301.823,303.396 302.000,301.176 302.000 C 298.792 302.000,297.200 301.840,297.200 301.600 C 297.200 301.380,296.660 301.200,296.000 301.200 C 295.340 301.200,294.800 301.020,294.800 300.800 C 294.800 300.580,294.260 300.400,293.600 300.400 C 292.940 300.400,292.400 300.220,292.400 300.000 C 292.400 299.780,292.130 299.600,291.800 299.600 C 291.470 299.600,291.200 299.420,291.200 299.200 C 291.200 298.980,290.975 298.798,290.700 298.795 C 289.619 298.783,282.627 292.203,283.020 291.568 C 283.145 291.365,283.102 291.199,282.924 291.197 C 282.546 291.193,281.600 289.280,281.600 288.520 C 281.600 288.234,281.420 288.000,281.200 288.000 C 280.980 288.000,280.800 287.460,280.800 286.800 C 280.800 286.140,280.620 285.600,280.400 285.600 C 280.178 285.600,280.000 284.533,280.000 283.200 C 280.000 281.867,279.822 280.800,279.600 280.800 C 279.380 280.800,279.200 280.435,279.200 279.990 C 279.200 279.163,256.112 278.717,254.988 279.522 C 254.461 279.899,254.311 281.600,254.805 281.600 C 255.037 281.600,255.200 283.156,255.200 285.376 C 255.200 287.463,255.379 289.263,255.600 289.400 C 255.820 289.536,256.000 290.141,256.000 290.744 C 256.000 291.347,256.171 292.011,256.381 292.221 C 256.590 292.430,256.806 293.265,256.861 294.075 C 256.915 294.885,257.104 295.459,257.280 295.351 C 257.456 295.242,257.600 295.613,257.600 296.176 C 257.600 296.739,257.747 297.200,257.928 297.200 C 258.108 297.200,258.500 298.100,258.800 299.200 C 259.100 300.300,259.473 301.200,259.629 301.200 C 259.785 301.200,260.035 301.684,260.183 302.276 C 260.332 302.867,260.801 303.840,261.227 304.437 C 261.652 305.035,262.001 305.676,262.002 305.862 C 262.003 306.048,262.624 306.875,263.382 307.700 C 264.139 308.525,264.671 309.200,264.563 309.200 C 264.455 309.200,266.259 311.090,268.572 313.400 C 270.885 315.710,272.964 317.600,273.192 317.600 C 273.421 317.600,274.172 318.140,274.863 318.800 C 275.554 319.460,276.362 320.000,276.659 320.000 C 276.957 320.000,277.200 320.146,277.200 320.325 C 277.200 320.504,277.830 320.898,278.600 321.200 C 279.370 321.502,280.000 321.896,280.000 322.075 C 280.000 322.254,280.253 322.400,280.562 322.400 C 281.050 322.400,282.597 323.074,285.349 324.484 C 285.761 324.695,287.066 324.968,288.249 325.090 C 289.432 325.212,290.400 325.467,290.400 325.656 C 290.400 325.845,291.379 326.000,292.576 326.000 C 293.773 326.000,294.864 326.180,295.000 326.400 C 295.148 326.640,297.804 326.800,301.624 326.800 C 305.608 326.800,308.000 326.650,308.000 326.400 C 308.000 326.180,308.900 326.000,310.000 326.000 C 311.100 326.000,312.000 325.846,312.000 325.657 C 312.000 325.468,313.078 325.201,314.395 325.064 C 315.712 324.926,317.107 324.652,317.495 324.454 C 319.410 323.479,321.932 322.400,322.295 322.400 C 322.519 322.400,322.930 322.126,323.208 321.790 C 323.486 321.455,323.798 321.264,323.900 321.366 C 324.002 321.468,324.460 321.203,324.918 320.776 C 325.376 320.349,325.987 320.000,326.275 320.000 C 326.564 320.000,326.800 319.820,326.800 319.600 C 326.800 319.380,327.043 319.200,327.341 319.200 C 327.638 319.200,328.446 318.660,329.137 318.000 C 329.828 317.340,330.675 316.800,331.020 316.800 C 331.365 316.800,331.536 316.620,331.400 316.400 C 331.264 316.180,331.433 316.000,331.776 316.000 C 332.119 316.000,332.400 315.724,332.400 315.387 C 332.400 315.051,332.715 314.656,333.100 314.511 C 333.872 314.220,338.000 310.073,338.000 309.589 C 338.000 309.421,338.497 308.752,339.105 308.102 C 339.713 307.451,340.568 306.217,341.005 305.359 C 341.442 304.502,341.935 303.740,342.100 303.667 C 342.265 303.593,342.400 303.188,342.400 302.767 C 342.400 302.345,342.580 302.000,342.800 302.000 C 343.020 302.000,343.200 301.550,343.200 301.000 C 343.200 300.450,343.380 300.000,343.600 300.000 C 343.820 300.000,344.000 299.730,344.000 299.400 C 344.000 299.070,344.180 298.800,344.400 298.800 C 344.620 298.800,344.800 298.260,344.800 297.600 C 344.800 296.940,344.980 296.400,345.200 296.400 C 345.420 296.400,345.600 295.860,345.600 295.200 C 345.600 294.540,345.780 294.000,346.000 294.000 C 346.220 294.000,346.400 293.370,346.400 292.600 C 346.400 291.830,346.580 291.200,346.800 291.200 C 347.020 291.200,347.200 290.311,347.200 289.224 C 347.200 288.137,347.380 287.136,347.600 287.000 C 347.839 286.852,348.000 284.204,348.000 280.400 C 348.000 276.596,347.839 273.948,347.600 273.800 C 347.380 273.664,347.200 272.573,347.200 271.376 C 347.200 270.179,347.020 269.200,346.800 269.200 C 346.580 269.200,346.400 268.581,346.400 267.824 C 346.400 267.067,346.220 266.336,346.000 266.200 C 345.780 266.064,345.600 265.513,345.600 264.976 C 345.600 264.439,345.420 264.000,345.200 264.000 C 344.980 264.000,344.800 263.550,344.800 263.000 C 344.800 262.450,344.620 262.000,344.400 262.000 C 344.180 262.000,344.000 261.651,344.000 261.224 C 344.000 260.797,343.820 260.336,343.600 260.200 C 343.380 260.064,343.200 259.643,343.200 259.265 C 343.200 258.886,342.840 258.317,342.400 258.000 C 341.960 257.683,341.600 257.208,341.600 256.944 C 341.600 256.162,340.268 253.875,339.300 252.994 C 338.805 252.543,338.400 251.958,338.400 251.693 C 338.400 251.429,336.697 249.544,334.616 247.506 C 330.047 243.031,329.776 242.800,329.105 242.800 C 328.814 242.800,328.317 242.440,328.000 242.000 C 327.683 241.560,327.103 241.200,326.712 241.200 C 326.320 241.200,326.000 241.020,326.000 240.800 C 326.000 240.580,325.595 240.397,325.100 240.394 C 324.372 240.389,324.315 240.314,324.800 240.000 C 325.313 239.669,325.298 239.611,324.700 239.606 C 324.315 239.603,324.000 239.420,324.000 239.200 C 324.000 238.980,323.539 238.800,322.976 238.800 C 322.396 238.800,322.060 238.627,322.200 238.400 C 322.336 238.180,322.077 238.000,321.624 238.000 C 321.171 238.000,320.800 237.820,320.800 237.600 C 320.800 237.380,320.498 237.200,320.128 237.200 C 319.154 237.200,316.800 236.294,316.800 235.920 C 316.800 235.744,316.181 235.600,315.424 235.600 C 314.667 235.600,313.936 235.420,313.800 235.200 C 313.664 234.980,312.843 234.800,311.976 234.800 C 311.109 234.800,310.400 234.620,310.400 234.400 C 310.400 234.165,309.008 234.000,307.024 234.000 C 305.167 234.000,303.537 233.822,303.402 233.603 C 303.241 233.343,271.409 233.206,210.773 233.204 L 118.389 233.202 118.494 245.701 M12.893 264.876 C 12.830 272.669,12.937 276.437,13.227 276.616 C 13.870 277.014,14.177 276.495,13.664 275.877 C 13.360 275.511,13.176 271.752,13.100 264.367 L 12.987 253.400 12.893 264.876 M139.694 307.300 L 139.800 319.800 151.200 319.912 C 157.470 319.974,163.000 319.927,163.488 319.808 L 164.376 319.591 164.376 307.434 C 164.376 296.817,164.297 295.246,163.755 295.038 C 163.414 294.907,157.837 294.800,151.362 294.800 L 139.589 294.800 139.694 307.300 M360.000 314.390 L 360.000 326.800 372.400 326.800 L 384.800 326.800 384.800 314.421 L 384.800 302.043 372.400 302.011 L 360.000 301.980 360.000 314.390 M321.375 367.600 C 321.375 373.650,321.431 376.125,321.499 373.100 C 321.567 370.075,321.567 365.125,321.499 362.100 C 321.431 359.075,321.375 361.550,321.375 367.600 M296.662 379.700 C 296.764 379.865,302.237 380.000,308.824 380.000 C 315.411 380.000,320.800 379.865,320.800 379.700 C 320.799 379.535,315.327 379.400,308.638 379.400 C 301.949 379.400,296.559 379.535,296.662 379.700 " stroke="none" fill="#ecc474" fill-rule="evenodd"></path><path id="path3" d="" stroke="none" fill="#100d47c" fill-rule="evenodd"></path><path id="path4" d="" stroke="none" fill="#100d47c" fill-rule="evenodd"></path></g></svg>