<svg id="svg" version="1.1" xmlns="http://www.w3.org/2000/svg" xmlns:xlink="http://www.w3.org/1999/xlink" width="400" height="210" viewBox="0, 0, 400,210"><g id="svgg"><path id="path0" d="M188.866 25.099 C 184.913 25.924,185.037 25.885,181.828 27.292 C 176.600 29.584,171.268 34.206,168.476 38.866 C 168.095 39.501,167.747 40.066,167.703 40.121 C 167.659 40.176,166.653 40.192,165.468 40.158 C 160.396 40.010,154.307 41.500,150.525 43.815 C 149.947 44.169,149.316 44.518,149.121 44.591 C 148.599 44.787,145.845 46.881,144.677 47.969 L 143.660 48.917 145.891 49.975 C 149.924 51.887,153.339 54.469,155.389 57.158 C 156.098 58.087,156.723 58.490,156.723 58.018 C 156.723 57.922,157.444 57.066,158.326 56.117 C 165.867 48.000,176.481 45.446,187.131 49.186 C 193.804 51.530,200.418 58.019,202.412 64.181 C 202.599 64.758,202.831 65.420,202.928 65.651 C 203.085 66.028,203.202 66.432,203.686 68.277 C 205.486 75.133,203.602 83.805,198.986 89.916 C 198.055 91.148,195.417 93.826,194.241 94.734 L 193.130 95.591 193.008 98.373 C 192.613 107.349,188.237 115.016,180.777 119.801 C 165.354 129.693,144.315 120.548,140.853 102.447 C 140.301 99.559,140.368 99.732,139.854 99.874 C 134.914 101.237,124.788 99.155,120.447 95.884 L 119.781 95.382 119.631 96.782 C 119.404 98.903,119.671 103.438,120.148 105.567 C 121.048 109.586,121.087 109.710,122.142 112.014 C 122.443 112.671,122.689 113.263,122.689 113.330 C 122.689 114.703,130.888 124.370,132.052 124.370 C 132.116 124.370,132.579 124.677,133.080 125.053 C 133.582 125.428,134.283 125.895,134.639 126.090 L 135.285 126.446 135.158 128.401 C 134.950 131.618,135.762 136.565,136.962 139.391 C 137.060 139.622,137.308 140.284,137.514 140.861 C 137.719 141.439,138.155 142.348,138.481 142.880 C 138.808 143.413,139.076 143.918,139.076 144.003 C 139.076 144.309,140.851 146.849,141.063 146.847 C 141.183 146.846,141.801 146.599,142.437 146.299 C 147.357 143.977,153.015 143.580,157.878 145.216 C 159.670 145.819,162.317 147.103,163.631 148.007 L 164.755 148.780 165.728 147.843 C 170.075 143.655,176.584 142.083,182.458 143.802 C 195.213 147.535,199.386 163.141,190.220 172.834 C 189.028 174.094,188.966 174.371,189.876 174.368 C 190.187 174.367,191.347 174.478,192.455 174.615 C 194.475 174.865,198.248 174.589,201.366 173.963 C 208.787 172.472,216.305 167.237,220.472 160.660 L 221.502 159.034 224.446 159.034 C 227.828 159.034,230.133 158.660,233.824 157.513 C 242.068 154.951,249.657 147.488,252.360 139.286 C 253.705 135.205,254.017 133.401,254.030 129.634 L 254.040 126.482 255.014 125.917 C 262.246 121.720,268.042 113.092,269.320 104.622 C 269.879 100.919,269.822 100.517,268.939 101.943 C 267.977 103.498,266.798 104.202,265.155 104.202 C 263.810 104.202,263.376 104.055,260.128 102.503 C 258.939 101.935,257.847 101.471,257.701 101.471 C 257.556 101.471,257.330 101.364,257.199 101.233 C 256.892 100.925,253.734 100.901,253.104 101.201 C 251.397 102.015,248.927 103.155,248.214 103.459 C 247.752 103.656,247.210 103.903,247.009 104.009 C 246.247 104.411,243.811 104.236,243.052 103.725 C 242.183 103.139,240.882 101.314,239.733 99.066 C 237.593 94.881,236.765 94.312,231.303 93.271 C 225.127 92.094,224.373 90.926,225.436 84.177 C 226.148 79.655,225.890 78.890,222.425 75.255 C 217.659 70.254,217.666 69.016,222.490 63.952 C 225.726 60.555,226.074 59.369,225.314 54.325 C 224.348 47.916,225.261 46.943,233.508 45.590 C 237.118 44.999,238.752 43.522,236.750 42.661 C 232.401 40.790,230.562 40.415,224.895 40.242 C 223.046 40.186,221.486 40.137,221.427 40.133 C 221.369 40.129,221.195 39.840,221.040 39.491 C 220.885 39.142,220.650 38.739,220.516 38.595 C 220.382 38.452,219.947 37.863,219.549 37.287 C 218.037 35.101,216.318 33.340,212.885 30.458 C 211.226 29.065,205.786 26.348,203.676 25.859 C 203.099 25.725,201.822 25.423,200.840 25.189 C 197.905 24.487,192.007 24.443,188.866 25.099 " stroke="none" fill="#555555" fill-rule="evenodd"></path><path id="path1" d="M190.663 24.552 C 190.323 24.625,192.067 24.685,194.538 24.685 C 197.009 24.685,198.753 24.625,198.412 24.552 C 198.072 24.479,196.329 24.419,194.538 24.419 C 192.747 24.419,191.003 24.479,190.663 24.552 M187.815 25.105 C 186.562 25.468,187.172 25.476,188.761 25.117 C 189.545 24.940,189.783 24.833,189.391 24.832 C 189.044 24.832,188.335 24.954,187.815 25.105 M200.420 25.114 C 201.924 25.489,202.520 25.470,201.155 25.090 C 200.578 24.930,199.916 24.804,199.685 24.812 C 199.454 24.819,199.785 24.955,200.420 25.114 M185.714 25.630 C 185.282 25.769,185.263 25.802,185.609 25.816 C 185.840 25.826,186.171 25.742,186.345 25.630 C 186.713 25.392,186.457 25.392,185.714 25.630 M202.731 25.621 C 202.904 25.738,203.227 25.835,203.449 25.837 C 203.986 25.841,203.819 25.721,203.046 25.548 C 202.586 25.445,202.501 25.465,202.731 25.621 M181.828 27.093 C 181.134 27.424,180.662 27.700,180.777 27.706 C 180.893 27.713,181.555 27.444,182.248 27.109 C 182.941 26.773,183.414 26.497,183.298 26.495 C 183.183 26.493,182.521 26.762,181.828 27.093 M206.303 26.786 C 206.591 26.951,206.922 27.086,207.038 27.086 C 207.153 27.086,207.012 26.951,206.723 26.786 C 206.434 26.621,206.103 26.485,205.987 26.485 C 205.872 26.485,206.014 26.621,206.303 26.786 M179.049 28.519 C 178.346 28.952,177.549 29.478,177.278 29.688 C 176.962 29.933,177.050 29.911,177.521 29.626 C 177.925 29.381,178.753 28.893,179.359 28.541 C 180.317 27.985,180.642 27.731,180.395 27.731 C 180.358 27.731,179.753 28.086,179.049 28.519 M174.895 31.441 C 173.996 32.264,173.968 32.310,174.705 31.756 C 175.483 31.171,176.222 30.450,176.024 30.470 C 175.981 30.475,175.473 30.911,174.895 31.441 M215.086 32.276 C 215.815 32.954,216.983 34.123,217.681 34.874 L 218.951 36.239 217.655 34.725 C 216.942 33.892,215.774 32.723,215.060 32.128 L 213.761 31.045 215.086 32.276 M172.859 33.141 C 172.488 33.572,172.211 34.034,172.322 34.034 C 172.365 34.034,172.610 33.750,172.866 33.403 C 173.372 32.718,173.368 32.548,172.859 33.141 M170.459 35.862 C 170.014 36.406,169.759 36.782,169.894 36.699 C 170.179 36.523,171.510 34.874,171.366 34.874 C 171.313 34.874,170.905 35.319,170.459 35.862 M219.328 36.975 C 219.575 37.321,219.824 37.605,219.882 37.605 C 219.939 37.605,219.785 37.321,219.538 36.975 C 219.291 36.628,219.042 36.345,218.984 36.345 C 218.926 36.345,219.081 36.628,219.328 36.975 M167.647 39.811 C 167.503 39.984,167.240 40.126,167.061 40.126 C 166.883 40.126,166.793 40.182,166.861 40.250 C 167.060 40.449,167.807 40.138,167.936 39.803 C 168.087 39.409,167.978 39.412,167.647 39.811 M221.218 39.922 C 221.218 40.104,222.034 40.431,222.164 40.301 C 222.205 40.260,222.009 40.118,221.728 39.986 C 221.448 39.854,221.218 39.825,221.218 39.922 M161.397 40.271 C 161.599 40.324,161.930 40.324,162.132 40.271 C 162.335 40.218,162.169 40.175,161.765 40.175 C 161.360 40.175,161.195 40.218,161.397 40.271 M159.716 40.481 C 159.919 40.534,160.249 40.534,160.452 40.481 C 160.654 40.428,160.488 40.385,160.084 40.385 C 159.680 40.385,159.514 40.428,159.716 40.481 M149.796 44.023 C 148.836 44.700,149.166 44.691,150.165 44.013 C 150.590 43.724,150.845 43.492,150.732 43.498 C 150.618 43.503,150.197 43.740,149.796 44.023 M147.681 45.393 L 146.954 46.039 147.742 45.473 C 148.438 44.974,148.664 44.748,148.469 44.748 C 148.436 44.748,148.081 45.038,147.681 45.393 M145.470 47.111 L 144.853 47.794 145.536 47.177 C 145.911 46.838,146.218 46.530,146.218 46.494 C 146.218 46.332,146.045 46.475,145.470 47.111 M226.142 47.952 L 225.525 48.634 226.208 48.017 C 226.844 47.442,226.987 47.269,226.825 47.269 C 226.789 47.269,226.482 47.576,226.142 47.952 M174.580 47.602 C 172.268 48.007,171.534 48.175,170.159 48.615 C 166.601 49.753,164.482 50.860,161.635 53.068 C 160.017 54.323,156.723 57.643,156.723 58.018 C 156.723 58.490,156.098 58.087,155.389 57.158 C 153.341 54.472,149.924 51.887,145.905 49.981 C 143.917 49.039,143.720 48.897,144.007 48.610 C 144.596 48.021,144.336 48.022,143.721 48.612 C 143.235 49.078,143.037 49.150,142.723 48.976 C 142.284 48.732,140.299 48.344,138.866 48.220 C 138.346 48.175,137.258 48.041,136.450 47.922 C 135.440 47.774,134.518 47.774,133.508 47.922 C 132.700 48.041,131.612 48.175,131.092 48.220 C 128.443 48.449,127.248 48.821,123.001 50.737 C 122.652 50.895,122.010 51.266,121.573 51.562 C 121.137 51.858,120.689 52.101,120.579 52.101 C 120.468 52.101,120.378 52.180,120.378 52.277 C 120.378 52.374,120.141 52.562,119.851 52.694 C 118.189 53.451,113.691 58.421,112.498 60.819 C 112.268 61.282,112.032 61.707,111.974 61.765 C 111.669 62.066,110.504 64.689,110.504 65.074 C 110.504 65.320,110.419 65.574,110.314 65.639 C 110.209 65.704,110.057 66.253,109.975 66.859 C 109.894 67.466,109.754 68.057,109.664 68.172 C 109.574 68.288,109.452 68.761,109.392 69.223 C 108.729 74.327,108.734 74.173,109.135 76.792 C 109.347 78.175,109.587 79.401,109.668 79.517 C 109.750 79.632,109.881 80.147,109.959 80.660 C 110.314 82.981,112.138 87.105,113.488 88.637 C 113.751 88.936,114.352 89.701,114.824 90.336 C 115.296 90.972,116.578 92.314,117.674 93.318 C 119.467 94.962,119.663 95.214,119.631 95.839 C 119.605 96.368,119.618 96.395,119.686 95.955 L 119.775 95.377 120.444 95.882 C 124.788 99.155,134.912 101.237,139.854 99.874 C 140.368 99.732,140.301 99.559,140.853 102.447 C 144.315 120.548,165.354 129.693,180.777 119.801 C 188.237 115.016,192.613 107.349,193.008 98.373 L 193.130 95.591 194.241 94.734 C 201.592 89.063,205.549 79.037,204.019 69.958 C 203.912 69.322,203.762 68.566,203.686 68.277 C 203.202 66.432,203.085 66.028,202.928 65.651 C 202.831 65.420,202.599 64.758,202.412 64.181 C 200.456 58.138,193.867 51.596,187.395 49.271 C 183.395 47.834,177.582 47.077,174.580 47.602 M180.072 47.911 C 181.269 48.033,182.279 48.222,182.318 48.331 C 182.356 48.440,182.782 48.542,183.263 48.558 C 183.745 48.574,183.926 48.628,183.666 48.678 C 182.788 48.847,183.145 49.221,184.047 49.077 C 184.866 48.946,186.438 49.247,186.859 49.615 C 186.969 49.711,187.303 49.790,187.601 49.790 C 188.651 49.790,192.098 51.806,192.634 52.734 C 196.064 58.672,197.258 67.670,195.149 71.688 C 195.044 71.889,194.958 72.391,194.958 72.804 C 194.958 73.251,194.873 73.502,194.748 73.424 C 194.632 73.353,194.538 73.111,194.538 72.887 C 194.538 72.662,194.443 72.479,194.328 72.479 C 194.212 72.479,194.118 72.715,194.118 73.004 C 194.118 73.293,194.212 73.529,194.328 73.529 C 194.443 73.529,194.538 73.766,194.538 74.055 C 194.538 74.343,194.455 74.580,194.355 74.580 C 194.254 74.580,194.111 74.958,194.037 75.420 C 193.963 75.882,193.817 76.261,193.712 76.261 C 193.607 76.261,193.458 76.544,193.382 76.891 C 193.306 77.237,193.157 77.521,193.051 77.521 C 192.944 77.521,192.857 77.699,192.857 77.915 C 192.857 78.132,192.715 78.428,192.542 78.571 C 192.369 78.715,192.227 79.010,192.227 79.227 C 192.227 79.444,192.132 79.622,192.017 79.622 C 191.901 79.622,191.807 79.757,191.807 79.922 C 191.807 80.087,191.583 80.397,191.310 80.612 C 191.037 80.827,190.751 81.199,190.675 81.437 C 190.599 81.676,190.256 82.122,189.912 82.429 C 189.567 82.735,189.286 83.089,189.286 83.214 C 189.286 83.434,187.486 85.294,187.273 85.294 C 187.143 85.294,186.754 85.611,185.788 86.502 C 185.381 86.878,184.914 87.185,184.751 87.185 C 184.587 87.185,184.454 87.284,184.454 87.406 C 184.454 87.527,184.109 87.770,183.688 87.947 C 183.267 88.123,182.787 88.401,182.622 88.566 C 182.458 88.731,182.188 88.866,182.023 88.866 C 181.858 88.866,181.723 88.960,181.723 89.076 C 181.723 89.191,181.601 89.286,181.452 89.286 C 181.303 89.286,180.810 89.475,180.357 89.706 C 179.904 89.937,179.317 90.126,179.052 90.126 C 178.788 90.126,178.571 90.221,178.571 90.336 C 178.571 90.452,178.430 90.546,178.256 90.546 C 178.083 90.546,177.941 90.628,177.941 90.727 C 177.941 90.826,177.492 90.967,176.943 91.039 C 175.574 91.220,175.377 91.268,174.895 91.533 C 172.101 93.074,163.308 92.069,158.522 89.662 C 156.922 88.858,156.864 88.757,157.454 87.822 C 159.133 85.162,160.427 81.701,161.029 78.256 C 161.232 77.101,161.480 76.066,161.581 75.956 C 162.119 75.371,161.664 70.002,160.971 68.764 C 160.830 68.511,160.714 68.127,160.714 67.910 C 160.714 66.790,158.938 62.471,157.503 60.104 C 156.529 58.498,156.520 58.527,158.651 56.215 C 161.235 53.410,164.653 51.029,167.857 49.801 C 168.839 49.425,169.832 49.042,170.063 48.951 C 171.152 48.522,173.485 48.100,176.261 47.828 C 177.704 47.687,177.923 47.692,180.072 47.911 M185.924 50.000 C 185.924 50.116,186.113 50.210,186.345 50.210 C 186.576 50.210,186.765 50.116,186.765 50.000 C 186.765 49.884,186.576 49.790,186.345 49.790 C 186.113 49.790,185.924 49.884,185.924 50.000 M225.697 57.983 C 225.697 58.734,225.736 59.041,225.782 58.666 C 225.829 58.290,225.829 57.676,225.782 57.300 C 225.736 56.925,225.697 57.232,225.697 57.983 M220.890 65.599 L 220.273 66.282 220.956 65.664 C 221.331 65.325,221.639 65.018,221.639 64.982 C 221.639 64.819,221.465 64.962,220.890 65.599 M161.765 69.853 C 161.765 70.026,161.859 70.168,161.975 70.168 C 162.090 70.168,162.185 70.026,162.185 69.853 C 162.185 69.680,162.090 69.538,161.975 69.538 C 161.859 69.538,161.765 69.680,161.765 69.853 M221.420 74.212 C 222.290 75.140,222.479 75.307,222.479 75.149 C 222.479 75.115,222.030 74.666,221.481 74.151 L 220.483 73.214 221.420 74.212 M225.630 90.822 C 225.630 90.858,225.938 91.165,226.313 91.505 L 226.996 92.122 226.379 91.439 C 225.804 90.803,225.630 90.660,225.630 90.822 M236.765 94.814 C 236.765 94.850,237.072 95.157,237.447 95.496 L 238.130 96.113 237.513 95.431 C 236.938 94.794,236.765 94.651,236.765 94.814 M119.407 99.580 C 119.407 100.909,119.441 101.452,119.483 100.788 C 119.525 100.123,119.525 99.036,119.483 98.372 C 119.441 97.707,119.407 98.251,119.407 99.580 M269.541 100.998 C 269.550 101.458,269.952 101.764,269.955 101.313 C 269.957 101.053,269.863 100.840,269.748 100.840 C 269.632 100.840,269.539 100.911,269.541 100.998 M119.587 103.151 C 119.587 103.556,119.630 103.721,119.683 103.519 C 119.735 103.317,119.735 102.986,119.683 102.784 C 119.630 102.581,119.587 102.747,119.587 103.151 M269.376 104.412 C 269.376 104.816,269.420 104.982,269.473 104.779 C 269.525 104.577,269.525 104.246,269.473 104.044 C 269.420 103.842,269.376 104.007,269.376 104.412 M119.777 104.517 C 119.765 104.748,119.888 105.410,120.048 105.987 C 120.209 106.565,120.340 106.849,120.339 106.618 C 120.337 106.014,119.802 104.014,119.777 104.517 M120.506 107.878 C 120.679 108.651,120.799 108.818,120.795 108.281 C 120.793 108.059,120.696 107.736,120.579 107.563 C 120.423 107.333,120.403 107.418,120.506 107.878 M121.443 110.819 C 121.443 110.935,121.579 111.266,121.744 111.555 C 121.909 111.843,122.044 111.985,122.044 111.870 C 122.044 111.754,121.909 111.423,121.744 111.134 C 121.579 110.846,121.443 110.704,121.443 110.819 M123.502 115.021 C 123.616 115.252,123.863 115.630,124.051 115.861 L 124.393 116.282 124.187 115.861 C 124.073 115.630,123.826 115.252,123.638 115.021 L 123.296 114.601 123.502 115.021 M125.821 118.452 C 125.935 118.664,126.193 118.971,126.394 119.135 C 126.621 119.319,126.570 119.173,126.261 118.750 C 125.709 117.996,125.502 117.856,125.821 118.452 M128.455 121.369 C 129.489 122.435,130.380 123.262,130.434 123.208 C 130.488 123.154,130.490 123.086,130.438 123.057 C 130.387 123.028,129.497 122.201,128.460 121.219 L 126.576 119.433 128.455 121.369 M259.336 122.742 L 258.718 123.424 259.401 122.807 C 260.038 122.232,260.181 122.059,260.018 122.059 C 259.982 122.059,259.675 122.366,259.336 122.742 M132.482 124.828 C 133.413 125.531,133.594 125.587,132.886 124.953 C 132.535 124.638,132.164 124.379,132.062 124.375 C 131.960 124.372,132.149 124.576,132.482 124.828 M134.803 126.261 C 134.937 126.434,135.088 126.859,135.139 127.206 L 135.231 127.836 135.263 127.179 C 135.282 126.774,135.153 126.412,134.926 126.234 C 134.607 125.983,134.590 125.986,134.803 126.261 M254.045 128.046 C 254.047 128.508,254.090 128.673,254.140 128.411 C 254.190 128.150,254.189 127.772,254.136 127.571 C 254.083 127.370,254.042 127.584,254.045 128.046 M254.049 130.672 C 254.049 131.192,254.090 131.405,254.140 131.145 C 254.190 130.885,254.190 130.460,254.140 130.200 C 254.090 129.940,254.049 130.152,254.049 130.672 M135.347 133.718 C 135.349 134.181,135.392 134.345,135.443 134.084 C 135.493 133.822,135.491 133.444,135.438 133.243 C 135.386 133.042,135.345 133.256,135.347 133.718 M136.871 139.732 C 137.089 140.452,137.361 140.676,137.239 140.034 C 137.182 139.734,137.041 139.432,136.927 139.361 C 136.798 139.282,136.777 139.421,136.871 139.732 M138.361 143.068 C 138.676 143.647,138.974 144.079,139.023 144.030 C 139.123 143.931,138.043 142.017,137.887 142.017 C 137.833 142.017,138.046 142.490,138.361 143.068 M174.864 143.284 C 171.435 143.900,168.087 145.570,165.728 147.843 L 164.755 148.780 163.631 148.007 C 157.840 144.024,150.023 143.114,143.848 145.705 C 140.640 147.051,141.029 146.969,140.539 146.406 L 140.101 145.903 140.441 146.463 C 140.938 147.282,141.133 147.286,142.735 146.506 C 143.534 146.117,144.343 145.798,144.531 145.798 C 144.720 145.798,144.964 145.715,145.074 145.612 C 146.427 144.350,153.741 144.219,157.157 145.395 C 157.800 145.617,158.504 145.798,158.722 145.798 C 159.034 145.798,159.063 145.853,158.860 146.056 C 158.657 146.259,158.516 146.259,158.191 146.056 C 157.696 145.746,156.513 145.713,156.513 146.008 C 156.513 146.124,156.796 146.218,157.143 146.218 C 157.489 146.218,157.773 146.313,157.773 146.429 C 157.773 146.544,158.057 146.639,158.403 146.639 C 158.750 146.639,159.034 146.544,159.034 146.429 C 159.034 146.181,159.807 146.142,159.909 146.385 C 159.947 146.477,160.499 146.768,161.134 147.033 C 162.392 147.555,164.285 148.744,164.285 149.011 C 164.286 149.103,163.929 149.670,163.494 150.272 C 158.882 156.642,158.995 164.930,163.782 171.420 C 164.380 172.230,164.923 173.107,164.988 173.369 C 165.054 173.630,165.451 174.029,165.871 174.255 C 166.291 174.481,166.791 174.859,166.983 175.096 C 167.391 175.598,168.595 176.077,169.030 175.910 C 169.195 175.846,169.685 175.965,170.117 176.175 C 170.550 176.384,170.998 176.565,171.113 176.577 C 171.318 176.599,171.732 176.748,172.584 177.105 C 175.224 178.213,180.928 178.133,183.193 176.956 C 183.482 176.806,183.923 176.683,184.174 176.682 C 184.424 176.681,184.660 176.610,184.699 176.523 C 184.737 176.436,185.264 176.137,185.870 175.858 C 186.475 175.579,187.143 175.190,187.354 174.994 C 187.973 174.416,188.599 174.151,188.990 174.301 C 189.209 174.385,189.303 174.358,189.225 174.232 C 189.154 174.117,189.602 173.488,190.220 172.834 C 201.720 160.673,191.162 140.355,174.864 143.284 M160.189 147.269 C 160.118 147.384,160.259 147.479,160.504 147.479 C 160.749 147.479,160.891 147.384,160.819 147.269 C 160.748 147.153,160.606 147.059,160.504 147.059 C 160.402 147.059,160.260 147.153,160.189 147.269 M246.001 149.737 L 244.853 150.945 246.061 149.797 C 247.183 148.730,247.365 148.529,247.209 148.529 C 247.176 148.529,246.633 149.073,246.001 149.737 M217.529 164.548 L 216.912 165.231 217.595 164.614 C 218.231 164.039,218.374 163.866,218.212 163.866 C 218.175 163.866,217.868 164.173,217.529 164.548 M215.431 166.649 L 214.601 167.542 215.494 166.712 C 216.324 165.939,216.483 165.756,216.324 165.756 C 216.290 165.756,215.888 166.158,215.431 166.649 M133.824 174.160 C 133.824 174.275,133.965 174.370,134.139 174.370 C 134.312 174.370,134.454 174.275,134.454 174.160 C 134.454 174.044,134.312 173.950,134.139 173.950 C 133.965 173.950,133.824 174.044,133.824 174.160 M190.286 174.518 C 190.547 174.569,190.926 174.567,191.126 174.514 C 191.327 174.462,191.113 174.420,190.651 174.423 C 190.189 174.425,190.025 174.468,190.286 174.518 M198.267 174.518 C 198.527 174.568,198.952 174.568,199.212 174.518 C 199.472 174.468,199.259 174.427,198.739 174.427 C 198.220 174.427,198.007 174.468,198.267 174.518 M167.437 176.366 C 167.437 176.539,167.521 176.681,167.625 176.681 C 167.728 176.681,167.867 176.539,167.933 176.366 C 168.007 176.174,167.933 176.050,167.746 176.050 C 167.576 176.050,167.437 176.192,167.437 176.366 M156.133 184.049 C 156.174 184.174,156.298 184.275,156.408 184.275 C 156.517 184.275,156.641 184.174,156.682 184.049 C 156.724 183.925,156.600 183.824,156.408 183.824 C 156.215 183.824,156.091 183.925,156.133 184.049 " stroke="none" fill="#838384" fill-rule="evenodd"></path><path id="path2" d="M0.000 105.042 L 0.000 210.084 200.000 210.084 L 400.000 210.084 400.000 105.042 L 400.000 0.000 200.000 0.000 L 0.000 0.000 0.000 105.042 M200.355 24.672 C 208.893 26.381,216.652 31.658,220.892 38.637 L 221.636 39.862 225.681 39.986 C 230.598 40.137,233.319 40.735,236.827 42.438 C 238.323 43.164,238.268 43.207,239.916 40.002 C 242.769 34.453,244.262 33.979,250.105 36.765 C 254.792 38.999,255.508 39.003,260.074 36.824 C 266.097 33.951,267.520 34.339,270.196 39.586 C 272.472 44.048,273.557 45.033,276.786 45.568 C 285.102 46.945,285.948 47.847,285.082 54.412 C 284.336 60.065,284.346 60.096,288.311 64.350 C 292.692 69.049,292.598 70.506,287.579 75.735 C 284.400 79.046,284.324 79.371,285.178 85.924 C 285.790 90.623,284.613 92.392,280.419 93.076 C 277.637 93.530,276.818 93.707,275.000 94.245 C 272.479 94.991,270.088 98.817,269.894 102.416 C 269.793 104.286,269.588 105.364,268.678 108.824 C 268.541 109.343,268.348 109.859,268.248 109.968 C 268.149 110.078,268.067 110.308,268.067 110.478 C 268.067 110.903,266.534 114.037,265.497 115.733 C 263.094 119.662,259.444 123.417,255.765 125.743 C 255.078 126.177,254.482 126.561,254.439 126.597 C 254.396 126.632,254.377 127.641,254.396 128.838 C 254.662 145.511,241.227 159.193,224.545 159.236 L 221.675 159.244 221.002 160.347 C 214.861 170.413,203.020 176.100,190.918 174.796 C 188.460 174.531,188.459 174.531,187.862 175.028 C 183.849 178.367,175.912 179.158,170.553 176.753 C 169.823 176.425,169.236 176.274,169.132 176.385 C 169.035 176.490,168.354 177.300,167.618 178.185 C 158.438 189.239,141.617 188.137,133.877 175.976 C 128.241 167.121,130.760 154.342,139.338 148.273 C 140.804 147.236,140.800 147.403,139.407 145.191 C 136.282 140.233,134.895 135.409,134.869 129.412 L 134.856 126.576 133.027 125.390 C 124.303 119.737,119.332 110.334,119.252 99.337 L 119.223 95.209 117.392 93.496 C 101.458 78.587,108.169 53.284,129.441 48.071 C 132.467 47.329,137.866 47.385,141.008 48.190 L 143.255 48.765 144.994 47.263 C 150.710 42.324,157.043 39.916,164.319 39.916 L 167.399 39.916 168.398 38.393 C 175.306 27.860,188.336 22.265,200.355 24.672 M268.277 56.933 C 266.782 57.129,266.667 57.227,258.988 64.877 L 251.695 72.141 247.842 68.325 C 243.804 64.325,243.152 63.866,241.512 63.866 C 238.396 63.866,236.299 67.409,237.875 70.012 C 238.502 71.048,249.057 81.641,249.863 82.043 C 250.958 82.589,252.920 82.449,254.003 81.748 C 254.517 81.416,258.921 77.138,263.791 72.242 L 272.645 63.340 272.887 62.158 C 273.527 59.027,271.328 56.534,268.277 56.933 " stroke="none" fill="#fbfbfb" fill-rule="evenodd"></path><path id="path3" d="M243.374 35.475 C 242.302 36.129,241.127 37.660,239.944 39.945 C 237.659 44.356,236.867 44.993,232.668 45.796 C 227.926 46.702,227.164 46.978,226.120 48.167 C 224.982 49.463,224.864 50.428,225.385 54.180 C 226.215 60.157,226.270 60.010,221.068 65.546 C 217.983 68.829,218.225 70.534,222.435 75.162 C 226.076 79.165,226.157 79.427,225.420 84.830 C 224.565 91.098,225.327 92.096,231.878 93.286 C 236.869 94.193,237.603 94.761,240.024 99.580 C 242.076 103.665,244.299 105.063,246.996 103.962 C 248.182 103.478,251.066 102.175,253.104 101.202 C 253.734 100.901,256.892 100.925,257.199 101.233 C 257.330 101.364,257.556 101.471,257.701 101.471 C 257.847 101.471,258.939 101.935,260.128 102.503 C 263.376 104.055,263.810 104.202,265.155 104.202 C 267.376 104.202,268.439 103.212,270.540 99.186 C 272.779 94.896,273.599 94.263,277.941 93.471 C 282.486 92.643,283.340 92.337,284.306 91.189 C 285.345 89.954,285.590 86.731,284.874 83.718 C 284.110 80.508,284.801 78.504,287.725 75.447 C 292.669 70.279,292.705 69.143,288.078 64.209 C 284.520 60.415,284.245 59.573,284.978 54.709 C 285.961 48.184,285.073 47.058,277.941 45.792 C 273.566 45.016,272.732 44.418,270.772 40.651 C 267.488 34.340,266.226 33.889,260.074 36.824 C 255.508 39.003,254.792 38.999,250.105 36.765 C 246.260 34.932,244.742 34.641,243.374 35.475 M271.068 57.378 C 272.914 58.643,273.671 61.086,272.772 62.878 C 272.374 63.671,254.841 81.331,253.815 81.972 C 252.895 82.547,250.556 82.576,249.656 82.025 C 248.800 81.500,238.064 70.609,237.670 69.865 C 236.281 67.244,238.545 63.642,241.570 63.660 C 243.069 63.669,244.042 64.364,247.892 68.177 C 249.931 70.196,251.689 71.849,251.797 71.849 C 251.905 71.849,255.256 68.595,259.243 64.618 C 265.284 58.591,266.649 57.331,267.437 57.053 C 268.641 56.628,270.174 56.765,271.068 57.378 " stroke="none" fill="#f7a31b" fill-rule="evenodd"></path><path id="path4" d="M193.443 24.315 C 194.170 24.357,195.304 24.356,195.964 24.315 C 196.624 24.273,196.029 24.239,194.643 24.240 C 193.256 24.240,192.716 24.274,193.443 24.315 M188.235 24.784 C 186.601 25.136,185.162 25.585,185.564 25.617 C 185.655 25.624,186.506 25.446,187.455 25.220 C 188.404 24.995,189.653 24.722,190.231 24.615 C 190.943 24.482,191.079 24.416,190.651 24.409 C 190.305 24.404,189.217 24.572,188.235 24.784 M198.845 24.615 C 199.422 24.722,200.687 24.999,201.655 25.229 C 202.622 25.459,203.452 25.609,203.499 25.563 C 203.706 25.356,199.137 24.343,198.228 24.395 C 197.989 24.408,198.267 24.507,198.845 24.615 M184.454 25.840 C 184.174 26.021,184.174 26.044,184.454 26.044 C 184.627 26.044,184.911 25.952,185.084 25.840 C 185.364 25.659,185.364 25.637,185.084 25.637 C 184.911 25.637,184.627 25.728,184.454 25.840 M205.042 26.142 C 210.660 28.117,216.112 32.252,219.741 37.290 C 220.787 38.743,221.259 39.257,220.704 38.340 C 218.761 35.131,214.215 30.711,210.714 28.630 C 208.338 27.218,204.659 25.600,203.927 25.646 C 203.789 25.654,204.291 25.878,205.042 26.142 M182.055 26.782 C 181.140 27.181,180.289 27.610,180.164 27.735 C 180.039 27.860,180.646 27.643,181.513 27.253 C 182.379 26.863,183.325 26.440,183.613 26.312 C 183.902 26.184,184.044 26.074,183.929 26.067 C 183.813 26.061,182.970 26.382,182.055 26.782 M177.377 29.337 C 173.524 31.962,170.842 34.667,168.398 38.393 L 167.399 39.916 164.109 39.941 C 162.300 39.954,160.536 40.031,160.189 40.110 C 159.842 40.190,161.261 40.219,163.340 40.175 C 167.950 40.079,167.390 40.283,168.772 38.195 C 170.931 34.935,174.347 31.539,177.579 29.440 C 178.863 28.605,179.162 28.361,178.900 28.361 C 178.849 28.361,178.164 28.800,177.377 29.337 M221.226 39.455 C 221.533 40.101,221.382 40.079,226.050 40.181 C 228.307 40.231,229.675 40.200,229.097 40.112 C 228.519 40.024,226.616 39.944,224.868 39.934 C 221.826 39.917,221.675 39.896,221.343 39.443 L 220.996 38.971 221.226 39.455 M157.353 40.672 C 155.156 41.259,152.192 42.388,152.374 42.570 C 152.433 42.629,152.751 42.542,153.079 42.376 C 153.813 42.005,157.325 40.873,158.613 40.593 C 159.164 40.473,159.340 40.382,159.034 40.375 C 158.745 40.369,157.988 40.503,157.353 40.672 M230.882 40.574 C 231.287 40.691,232.081 40.923,232.648 41.090 C 233.215 41.256,233.715 41.355,233.759 41.311 C 233.879 41.191,231.952 40.610,230.987 40.477 L 230.147 40.360 230.882 40.574 M234.349 41.588 C 235.991 42.271,237.048 42.648,236.870 42.487 C 236.594 42.238,234.465 41.383,234.163 41.400 C 234.034 41.407,234.118 41.492,234.349 41.588 M149.811 43.801 C 147.649 45.079,146.789 45.706,144.696 47.533 L 143.278 48.771 141.019 48.192 C 137.865 47.384,132.473 47.328,129.441 48.071 C 107.980 53.330,101.401 79.028,117.729 93.816 C 119.296 95.235,119.328 95.285,119.361 96.319 L 119.394 97.374 119.528 96.324 L 119.663 95.273 117.406 93.067 C 116.165 91.854,114.884 90.483,114.560 90.021 C 114.236 89.559,113.754 88.936,113.490 88.637 C 112.142 87.114,110.315 82.985,109.959 80.660 C 109.881 80.147,109.750 79.632,109.668 79.517 C 109.587 79.401,109.347 78.175,109.135 76.792 C 108.734 74.173,108.729 74.327,109.392 69.223 C 109.452 68.761,109.574 68.288,109.664 68.172 C 109.754 68.057,109.894 67.466,109.975 66.859 C 110.057 66.253,110.209 65.704,110.314 65.639 C 110.419 65.574,110.504 65.320,110.504 65.074 C 110.504 64.689,111.669 62.066,111.974 61.765 C 112.032 61.707,112.268 61.282,112.498 60.819 C 113.691 58.421,118.189 53.451,119.851 52.694 C 120.141 52.562,120.378 52.374,120.378 52.277 C 120.378 52.180,120.468 52.101,120.579 52.101 C 120.689 52.101,121.137 51.858,121.573 51.562 C 122.010 51.266,122.652 50.895,123.001 50.737 C 127.248 48.821,128.443 48.449,131.092 48.220 C 131.612 48.176,132.700 48.041,133.508 47.922 C 134.518 47.774,135.440 47.774,136.450 47.922 C 137.258 48.041,138.346 48.175,138.866 48.220 C 140.288 48.343,142.283 48.732,142.715 48.971 C 143.031 49.146,143.343 48.967,144.477 47.963 C 146.589 46.093,150.242 43.487,150.752 43.487 C 150.795 43.487,151.140 43.299,151.518 43.068 C 151.896 42.837,152.106 42.648,151.985 42.648 C 151.864 42.647,150.885 43.166,149.811 43.801 M176.261 47.828 C 173.485 48.100,171.152 48.522,170.063 48.951 C 169.832 49.042,168.839 49.425,167.857 49.801 C 164.653 51.029,161.235 53.410,158.651 56.215 C 156.520 58.527,156.529 58.498,157.503 60.104 C 158.938 62.471,160.714 66.790,160.714 67.910 C 160.714 68.127,160.830 68.511,160.971 68.764 C 161.664 70.002,162.119 75.371,161.581 75.956 C 161.480 76.066,161.232 77.101,161.029 78.256 C 160.427 81.701,159.133 85.162,157.454 87.822 C 156.864 88.757,156.922 88.858,158.522 89.662 C 163.308 92.069,172.101 93.074,174.895 91.533 C 175.377 91.268,175.574 91.220,176.943 91.039 C 177.492 90.967,177.941 90.826,177.941 90.727 C 177.941 90.628,178.083 90.546,178.256 90.546 C 178.430 90.546,178.571 90.452,178.571 90.336 C 178.571 90.221,178.788 90.126,179.052 90.126 C 179.317 90.126,179.904 89.937,180.357 89.706 C 180.810 89.475,181.303 89.286,181.452 89.286 C 181.601 89.286,181.723 89.191,181.723 89.076 C 181.723 88.960,181.858 88.866,182.023 88.866 C 182.188 88.866,182.458 88.731,182.622 88.566 C 182.787 88.401,183.267 88.123,183.688 87.947 C 184.109 87.770,184.454 87.527,184.454 87.406 C 184.454 87.284,184.587 87.185,184.751 87.185 C 184.914 87.185,185.381 86.878,185.788 86.502 C 186.754 85.611,187.143 85.294,187.273 85.294 C 187.486 85.294,189.286 83.434,189.286 83.214 C 189.286 83.089,189.567 82.735,189.912 82.429 C 190.256 82.122,190.599 81.676,190.675 81.437 C 190.751 81.199,191.037 80.827,191.310 80.612 C 191.583 80.397,191.807 80.087,191.807 79.922 C 191.807 79.757,191.901 79.622,192.017 79.622 C 192.132 79.622,192.227 79.444,192.227 79.227 C 192.227 79.010,192.369 78.715,192.542 78.571 C 192.715 78.428,192.857 78.132,192.857 77.915 C 192.857 77.699,192.944 77.521,193.051 77.521 C 193.157 77.521,193.306 77.237,193.382 76.891 C 193.458 76.544,193.607 76.261,193.712 76.261 C 193.817 76.261,193.963 75.882,194.037 75.420 C 194.111 74.958,194.254 74.580,194.355 74.580 C 194.455 74.580,194.538 74.343,194.538 74.055 C 194.538 73.766,194.443 73.529,194.328 73.529 C 194.212 73.529,194.118 73.293,194.118 73.004 C 194.118 72.715,194.212 72.479,194.328 72.479 C 194.443 72.479,194.538 72.662,194.538 72.887 C 194.538 73.111,194.632 73.353,194.748 73.424 C 194.873 73.502,194.958 73.251,194.958 72.804 C 194.958 72.391,195.044 71.889,195.149 71.688 C 197.258 67.670,196.064 58.672,192.634 52.734 C 192.098 51.806,188.651 49.790,187.601 49.790 C 187.303 49.790,186.969 49.711,186.859 49.615 C 186.438 49.247,184.866 48.946,184.047 49.077 C 183.145 49.221,182.788 48.847,183.666 48.678 C 183.926 48.628,183.745 48.574,183.263 48.558 C 182.782 48.542,182.356 48.440,182.318 48.331 C 182.279 48.222,181.269 48.033,180.072 47.911 C 177.923 47.692,177.704 47.687,176.261 47.828 M186.765 50.000 C 186.765 50.116,186.576 50.210,186.345 50.210 C 186.113 50.210,185.924 50.116,185.924 50.000 C 185.924 49.884,186.113 49.790,186.345 49.790 C 186.576 49.790,186.765 49.884,186.765 50.000 M241.022 63.806 C 241.341 63.855,241.814 63.853,242.072 63.803 C 242.331 63.753,242.069 63.714,241.492 63.716 C 240.914 63.717,240.702 63.758,241.022 63.806 M247.899 68.382 C 249.803 70.289,251.408 71.849,251.466 71.849 C 251.524 71.849,250.013 70.289,248.109 68.382 C 246.205 66.476,244.600 64.916,244.543 64.916 C 244.485 64.916,245.995 66.476,247.899 68.382 M162.185 69.853 C 162.185 70.026,162.090 70.168,161.975 70.168 C 161.859 70.168,161.765 70.026,161.765 69.853 C 161.765 69.680,161.859 69.538,161.975 69.538 C 162.090 69.538,162.185 69.680,162.185 69.853 M287.907 75.263 L 287.290 75.945 287.973 75.328 C 288.348 74.989,288.655 74.682,288.655 74.646 C 288.655 74.483,288.482 74.626,287.907 75.263 M246.849 79.517 C 247.241 79.921,247.609 80.252,247.666 80.252 C 247.724 80.252,247.451 79.921,247.059 79.517 C 246.667 79.112,246.299 78.782,246.241 78.782 C 246.183 78.782,246.457 79.112,246.849 79.517 M247.899 80.528 C 247.899 80.564,248.206 80.871,248.582 81.211 L 249.265 81.828 248.648 81.145 C 248.073 80.509,247.899 80.366,247.899 80.528 M285.347 88.340 C 285.349 88.803,285.392 88.967,285.443 88.706 C 285.493 88.444,285.491 88.066,285.438 87.865 C 285.386 87.664,285.345 87.878,285.347 88.340 M119.188 99.580 C 119.188 100.446,119.225 100.801,119.271 100.368 C 119.316 99.934,119.316 99.225,119.271 98.792 C 119.225 98.359,119.188 98.713,119.188 99.580 M269.587 103.624 C 269.448 104.693,269.286 105.851,269.227 106.197 C 269.169 106.544,269.259 106.355,269.428 105.777 C 269.729 104.751,270.103 101.681,269.928 101.681 C 269.879 101.681,269.725 102.555,269.587 103.624 M119.353 102.854 C 119.366 103.422,119.454 104.170,119.547 104.517 C 119.650 104.901,119.671 104.533,119.600 103.571 C 119.466 101.762,119.316 101.326,119.353 102.854 M119.868 105.987 C 120.025 107.132,120.419 108.556,120.507 108.298 C 120.546 108.183,120.392 107.426,120.165 106.618 C 119.918 105.736,119.799 105.484,119.868 105.987 M268.818 107.473 C 268.740 107.781,268.724 108.080,268.782 108.138 C 268.840 108.196,268.950 107.991,269.028 107.683 C 269.105 107.375,269.121 107.076,269.063 107.018 C 269.005 106.960,268.895 107.165,268.818 107.473 M120.618 108.824 C 120.618 108.997,120.699 109.328,120.798 109.559 C 120.912 109.824,120.979 109.862,120.979 109.664 C 120.979 109.491,120.898 109.160,120.798 108.929 C 120.685 108.664,120.618 108.625,120.618 108.824 M268.487 108.667 C 268.487 108.697,268.395 109.045,268.281 109.441 C 268.167 109.837,268.155 110.073,268.254 109.965 C 268.469 109.730,268.752 108.613,268.596 108.613 C 268.536 108.613,268.487 108.638,268.487 108.667 M121.136 110.504 C 121.469 111.855,124.521 117.437,124.926 117.437 C 125.047 117.437,124.896 117.173,124.106 116.007 C 123.596 115.254,122.513 113.164,121.255 110.504 L 121.006 109.979 121.136 110.504 M267.874 110.445 C 267.859 110.678,267.040 112.585,266.564 113.498 C 266.458 113.700,266.429 113.866,266.498 113.866 C 266.717 113.866,268.098 110.698,267.992 110.438 C 267.916 110.252,267.886 110.254,267.874 110.445 M265.498 115.389 C 265.038 116.097,264.626 116.941,264.857 116.702 C 265.151 116.396,266.018 114.916,265.903 114.916 C 265.849 114.916,265.667 115.129,265.498 115.389 M125.415 118.219 C 126.807 120.333,131.645 124.811,133.680 125.869 C 134.344 126.214,134.160 126.060,131.828 124.318 C 129.879 122.862,127.706 120.771,125.771 118.487 C 125.280 117.909,125.142 117.805,125.415 118.219 M263.228 118.707 C 262.857 119.175,262.589 119.590,262.632 119.629 C 262.675 119.669,263.020 119.287,263.400 118.779 C 264.266 117.621,264.132 117.565,263.228 118.707 M260.814 121.440 C 259.561 122.708,258.325 123.730,255.665 125.699 C 255.153 126.078,255.154 126.079,255.777 125.722 C 257.405 124.792,262.945 119.958,262.384 119.958 C 262.326 119.958,261.619 120.625,260.814 121.440 M134.506 126.343 C 134.824 126.584,134.876 127.016,134.886 129.540 C 134.893 131.145,134.969 132.836,135.056 133.298 C 135.143 133.761,135.173 132.437,135.124 130.357 C 135.037 126.755,134.913 126.042,134.376 126.057 C 134.245 126.061,134.304 126.189,134.506 126.343 M254.197 126.523 C 254.094 127.720,254.124 133.190,254.230 132.458 C 254.388 131.374,254.432 126.471,254.285 126.471 C 254.239 126.471,254.200 126.494,254.197 126.523 M135.336 134.874 C 135.336 135.163,135.412 135.636,135.504 135.924 L 135.672 136.450 135.672 135.924 C 135.672 135.636,135.597 135.163,135.504 134.874 L 135.336 134.349 135.336 134.874 M253.603 135.329 C 253.586 135.638,253.517 136.063,253.451 136.275 C 253.336 136.639,253.343 136.639,253.569 136.287 C 253.701 136.082,253.769 135.656,253.721 135.341 L 253.634 134.769 253.603 135.329 M135.714 136.760 C 135.714 137.257,137.302 141.597,137.483 141.597 C 137.604 141.597,137.362 140.687,137.176 140.441 C 137.088 140.326,136.760 139.404,136.446 138.393 C 135.918 136.695,135.714 136.239,135.714 136.760 M253.099 137.290 C 253.018 137.637,252.897 138.157,252.830 138.445 C 252.748 138.796,252.819 138.729,253.043 138.243 C 253.228 137.843,253.349 137.323,253.312 137.087 C 253.261 136.755,253.213 136.800,253.099 137.290 M252.334 139.729 C 252.205 140.100,252.136 140.441,252.181 140.486 C 252.226 140.531,252.368 140.264,252.498 139.893 C 252.627 139.521,252.696 139.181,252.651 139.136 C 252.606 139.091,252.464 139.358,252.334 139.729 M137.605 141.884 C 137.605 142.127,138.596 143.982,138.967 144.433 C 139.157 144.664,138.960 144.191,138.528 143.382 C 137.669 141.771,137.605 141.667,137.605 141.884 M250.540 143.624 C 250.240 144.162,250.036 144.644,250.088 144.696 C 250.140 144.747,250.426 144.308,250.725 143.718 C 251.404 142.378,251.274 142.312,250.540 143.624 M147.164 144.976 C 146.239 145.193,145.319 145.467,145.118 145.585 C 144.918 145.702,144.626 145.798,144.471 145.798 C 144.315 145.798,143.534 146.117,142.735 146.506 C 141.024 147.339,140.973 147.329,140.114 145.990 C 139.750 145.422,139.404 144.958,139.345 144.958 C 139.245 144.958,139.569 145.511,140.263 146.528 C 140.713 147.187,140.618 147.367,139.338 148.273 C 130.760 154.342,128.241 167.121,133.877 175.976 C 141.625 188.150,158.482 189.235,167.653 178.151 C 168.370 177.285,169.036 176.490,169.133 176.385 C 169.236 176.274,169.824 176.426,170.553 176.753 C 175.912 179.158,183.849 178.367,187.862 175.028 C 188.459 174.531,188.460 174.531,190.917 174.796 C 193.783 175.105,198.646 174.937,200.420 174.469 C 201.056 174.301,201.245 174.208,200.840 174.262 C 196.432 174.851,191.546 174.904,189.404 174.386 C 188.538 174.177,188.087 174.310,187.354 174.994 C 187.143 175.190,186.475 175.579,185.870 175.858 C 185.264 176.137,184.737 176.436,184.699 176.523 C 184.660 176.610,184.424 176.681,184.174 176.682 C 183.923 176.683,183.482 176.806,183.193 176.956 C 181.928 177.614,180.520 177.836,177.626 177.836 C 174.881 177.836,174.030 177.712,172.584 177.105 C 171.732 176.748,171.318 176.599,171.113 176.577 C 170.998 176.565,170.550 176.384,170.117 176.175 C 169.685 175.965,169.195 175.846,169.030 175.910 C 168.595 176.077,167.391 175.598,166.983 175.096 C 166.791 174.859,166.291 174.481,165.871 174.255 C 165.451 174.029,165.054 173.630,164.988 173.369 C 164.923 173.107,164.380 172.230,163.782 171.420 C 158.995 164.930,158.882 156.642,163.494 150.272 C 163.929 149.670,164.286 149.103,164.285 149.011 C 164.285 148.744,162.392 147.555,161.134 147.033 C 160.499 146.768,159.947 146.477,159.909 146.385 C 159.807 146.142,159.034 146.181,159.034 146.429 C 159.034 146.544,158.750 146.639,158.403 146.639 C 158.057 146.639,157.773 146.544,157.773 146.429 C 157.773 146.313,157.489 146.218,157.143 146.218 C 156.796 146.218,156.513 146.124,156.513 146.008 C 156.513 145.713,157.696 145.746,158.191 146.056 C 158.516 146.259,158.657 146.259,158.860 146.056 C 159.063 145.853,159.034 145.798,158.722 145.798 C 158.504 145.798,157.800 145.617,157.157 145.395 C 154.334 144.423,150.246 144.251,147.164 144.976 M248.587 146.745 C 247.867 147.726,247.318 148.529,247.366 148.529 C 247.470 148.529,249.138 146.367,249.675 145.536 C 250.417 144.387,249.867 144.998,248.587 146.745 M160.819 147.269 C 160.891 147.384,160.749 147.479,160.504 147.479 C 160.259 147.479,160.118 147.384,160.189 147.269 C 160.260 147.153,160.402 147.059,160.504 147.059 C 160.606 147.059,160.748 147.153,160.819 147.269 M245.089 150.745 C 244.064 151.722,242.599 152.961,241.833 153.499 C 240.186 154.655,239.749 155.046,240.721 154.494 C 241.789 153.888,244.494 151.658,245.897 150.228 C 247.693 148.397,247.269 148.668,245.089 150.745 M237.605 156.092 C 236.970 156.428,236.524 156.707,236.614 156.713 C 236.837 156.726,238.866 155.691,238.866 155.564 C 238.866 155.423,238.895 155.411,237.605 156.092 M234.349 157.465 C 233.823 157.718,233.806 157.748,234.244 157.641 C 234.839 157.495,235.508 157.154,235.189 157.159 C 235.074 157.160,234.695 157.298,234.349 157.465 M231.092 158.331 C 228.775 158.862,228.319 159.017,229.412 158.902 C 230.397 158.798,231.737 158.483,232.458 158.185 C 233.074 157.931,232.636 157.978,231.092 158.331 M221.565 159.191 C 221.512 159.278,222.475 159.324,223.706 159.294 C 227.689 159.195,228.120 159.112,224.855 159.072 C 223.100 159.051,221.619 159.105,221.565 159.191 M220.593 160.705 C 220.103 161.621,218.122 164.075,216.517 165.756 L 214.811 167.542 216.448 165.966 C 218.303 164.180,221.378 160.294,220.935 160.294 C 220.868 160.294,220.714 160.479,220.593 160.705 M213.971 168.000 C 213.624 168.289,212.527 169.061,211.532 169.715 C 210.538 170.368,209.545 171.023,209.326 171.169 C 209.108 171.315,209.259 171.278,209.664 171.088 C 210.068 170.897,211.203 170.186,212.185 169.507 C 214.458 167.937,214.801 167.672,214.691 167.563 C 214.641 167.514,214.317 167.711,213.971 168.000 M206.092 172.590 C 205.226 172.975,204.310 173.296,204.057 173.304 C 203.803 173.313,203.544 173.404,203.480 173.507 C 203.414 173.614,203.656 173.628,204.046 173.538 C 204.802 173.364,207.983 172.069,207.983 171.934 C 207.983 171.780,207.687 171.883,206.092 172.590 M201.891 173.950 C 201.489 174.209,201.921 174.209,202.731 173.950 L 203.256 173.781 202.731 173.764 C 202.442 173.754,202.064 173.838,201.891 173.950 M134.454 174.160 C 134.454 174.275,134.312 174.370,134.139 174.370 C 133.965 174.370,133.824 174.275,133.824 174.160 C 133.824 174.044,133.965 173.950,134.139 173.950 C 134.312 173.950,134.454 174.044,134.454 174.160 M167.933 176.366 C 167.867 176.539,167.728 176.681,167.625 176.681 C 167.521 176.681,167.437 176.539,167.437 176.366 C 167.437 176.192,167.576 176.050,167.746 176.050 C 167.933 176.050,168.007 176.174,167.933 176.366 M156.682 184.049 C 156.641 184.174,156.517 184.275,156.408 184.275 C 156.298 184.275,156.174 184.174,156.133 184.049 C 156.091 183.925,156.215 183.824,156.408 183.824 C 156.600 183.824,156.724 183.925,156.682 184.049 " stroke="none" fill="#94949b" fill-rule="evenodd"></path></g></svg>