<svg id="svg" version="1.1" xmlns="http://www.w3.org/2000/svg" xmlns:xlink="http://www.w3.org/1999/xlink" width="400" height="400" viewBox="0, 0, 400,400"><g id="svgg"><path id="path0" d="M40.328 0.900 C 40.240 1.521,39.774 1.938,38.828 2.243 C 38.073 2.487,37.067 3.139,36.593 3.691 C 36.118 4.243,35.205 4.945,34.565 5.250 C 33.775 5.627,33.360 6.155,33.275 6.890 C 33.174 7.763,32.891 8.022,31.821 8.223 C 30.821 8.410,29.465 9.514,26.346 12.681 C 24.066 14.996,21.451 17.407,20.536 18.039 C 19.621 18.671,18.506 19.782,18.057 20.507 C 17.609 21.232,15.269 23.777,12.857 26.162 C 9.552 29.429,8.409 30.826,8.222 31.824 C 8.021 32.892,7.762 33.174,6.887 33.275 C 6.123 33.363,5.641 33.761,5.265 34.613 C 4.971 35.279,4.206 36.126,3.565 36.494 C 2.924 36.862,2.191 37.621,1.936 38.181 C 1.680 38.742,1.140 39.200,0.736 39.200 C 0.044 39.200,0.000 39.717,0.000 47.800 C 0.000 56.307,0.009 56.400,0.852 56.400 C 1.803 56.400,5.312 53.609,9.712 49.354 C 10.420 48.669,11.403 47.898,11.896 47.642 C 12.389 47.386,13.057 46.663,13.382 46.035 C 13.707 45.407,14.440 44.776,15.012 44.633 C 15.691 44.462,16.250 43.900,16.620 43.014 C 16.989 42.130,17.503 41.613,18.093 41.529 C 18.641 41.451,19.237 40.906,19.600 40.151 C 19.930 39.464,20.706 38.711,21.325 38.476 C 21.995 38.223,22.634 37.564,22.904 36.849 C 23.179 36.122,23.738 35.552,24.320 35.406 C 24.901 35.260,25.462 34.690,25.734 33.969 C 26.038 33.163,26.566 32.676,27.359 32.471 C 28.006 32.303,28.684 31.859,28.867 31.483 C 29.050 31.107,29.354 30.485,29.543 30.100 C 29.731 29.715,30.226 29.336,30.643 29.257 C 31.766 29.045,32.278 28.509,32.522 27.290 C 32.671 26.543,33.123 26.053,33.952 25.740 C 34.689 25.463,35.259 24.905,35.406 24.320 C 35.552 23.738,36.122 23.179,36.849 22.904 C 37.564 22.634,38.223 21.995,38.476 21.325 C 38.711 20.706,39.464 19.930,40.151 19.600 C 40.906 19.237,41.451 18.641,41.529 18.093 C 41.613 17.503,42.130 16.989,43.014 16.620 C 43.900 16.250,44.462 15.691,44.633 15.012 C 44.776 14.440,45.407 13.707,46.035 13.382 C 46.663 13.057,47.385 12.389,47.640 11.896 C 48.088 11.031,48.597 10.452,51.946 7.000 C 53.403 5.498,54.800 2.429,54.800 0.729 C 54.800 -0.544,40.509 -0.375,40.328 0.900 M109.200 0.914 C 109.200 1.502,108.779 2.076,108.019 2.525 C 107.370 2.909,106.458 3.757,105.992 4.411 C 105.526 5.065,104.904 5.600,104.608 5.600 C 104.313 5.600,103.582 6.185,102.984 6.900 C 102.386 7.615,101.515 8.294,101.048 8.409 C 100.582 8.525,99.870 9.290,99.467 10.109 C 99.034 10.989,98.445 11.600,98.029 11.600 C 97.168 11.600,96.000 12.823,96.000 13.724 C 96.000 14.114,95.550 14.492,94.900 14.648 C 93.435 14.998,92.800 15.540,92.800 16.444 C 92.800 16.918,92.289 17.403,91.394 17.777 C 90.361 18.208,89.925 18.677,89.752 19.541 C 89.572 20.442,89.242 20.772,88.342 20.952 C 87.525 21.115,87.010 21.559,86.653 22.410 C 86.363 23.099,85.546 23.931,84.781 24.317 C 83.966 24.727,83.333 25.394,83.197 25.985 C 83.058 26.590,82.605 27.057,82.023 27.195 C 81.090 27.415,80.671 27.911,80.238 29.309 C 80.117 29.699,79.699 30.117,79.309 30.238 C 77.911 30.671,77.415 31.090,77.195 32.023 C 77.057 32.606,76.591 33.057,75.985 33.195 C 75.370 33.335,74.732 33.964,74.286 34.870 C 73.842 35.772,73.190 36.416,72.561 36.574 C 71.936 36.731,71.336 37.320,70.990 38.114 C 70.435 39.391,70.431 39.393,70.416 38.329 C 70.396 36.990,69.442 36.000,68.171 36.000 C 67.433 36.000,67.199 35.785,67.194 35.100 C 67.185 33.730,66.726 33.278,65.197 33.133 C 64.118 33.030,63.772 32.802,63.676 32.129 C 63.310 29.558,58.400 29.648,58.400 32.226 C 58.400 33.032,58.176 33.170,56.700 33.277 C 55.104 33.392,54.992 33.480,54.875 34.700 C 54.767 35.819,54.597 36.000,53.655 36.000 C 52.265 36.000,51.600 36.665,51.600 38.055 C 51.600 38.997,51.419 39.167,50.300 39.275 C 49.113 39.389,48.989 39.531,48.876 40.900 C 48.755 42.358,48.708 42.400,47.176 42.400 C 45.604 42.400,45.600 42.404,45.600 44.000 L 45.600 45.600 44.000 45.600 L 42.400 45.600 42.400 50.200 L 42.400 54.800 44.000 54.800 L 45.600 54.800 45.600 56.400 L 45.600 58.000 47.223 58.000 L 48.846 58.000 48.723 59.684 C 48.621 61.085,48.438 61.406,47.638 61.593 C 47.109 61.717,46.552 62.084,46.401 62.409 C 45.556 64.227,45.236 64.602,44.362 64.802 C 43.786 64.934,43.175 65.528,42.840 66.283 C 42.511 67.023,41.881 67.644,41.314 67.786 C 40.717 67.936,40.134 68.540,39.788 69.367 C 39.425 70.236,38.863 70.798,38.189 70.967 C 37.549 71.128,36.955 71.690,36.644 72.431 C 36.363 73.100,35.536 73.936,34.781 74.317 C 33.966 74.727,33.333 75.394,33.197 75.985 C 33.058 76.590,32.605 77.057,32.023 77.195 C 31.090 77.415,30.671 77.911,30.238 79.309 C 30.117 79.699,29.699 80.117,29.309 80.238 C 27.911 80.671,27.415 81.090,27.195 82.023 C 27.057 82.605,26.590 83.058,25.985 83.197 C 25.394 83.333,24.727 83.966,24.317 84.781 C 23.931 85.546,23.099 86.363,22.410 86.653 C 21.559 87.010,21.115 87.525,20.952 88.342 C 20.772 89.242,20.442 89.572,19.541 89.752 C 18.677 89.925,18.208 90.361,17.777 91.394 C 17.403 92.289,16.918 92.800,16.444 92.800 C 15.540 92.800,14.998 93.435,14.648 94.900 C 14.480 95.602,14.121 96.000,13.654 96.000 C 12.782 96.000,11.600 97.208,11.600 98.099 C 11.600 98.448,10.929 99.064,10.109 99.467 C 9.290 99.870,8.525 100.582,8.409 101.048 C 8.294 101.515,7.615 102.386,6.900 102.984 C 6.185 103.582,5.600 104.313,5.600 104.608 C 5.600 104.904,5.065 105.526,4.411 105.992 C 3.757 106.458,2.909 107.370,2.525 108.019 C 2.076 108.779,1.502 109.200,0.914 109.200 L 0.000 109.200 0.000 117.452 L 0.000 125.705 1.427 125.473 C 3.155 125.193,7.096 122.655,7.658 121.461 C 7.881 120.988,8.634 120.237,9.331 119.794 C 10.029 119.350,10.654 118.609,10.721 118.146 C 10.800 117.597,11.274 117.180,12.079 116.949 C 13.284 116.603,13.714 116.138,14.159 114.700 C 14.278 114.315,14.755 114.000,15.219 114.000 C 15.975 114.000,20.241 110.220,23.531 106.635 C 24.119 105.995,26.201 103.925,28.157 102.035 C 30.113 100.146,32.183 98.087,32.757 97.460 C 34.113 95.979,45.979 84.113,47.460 82.757 C 48.087 82.183,50.152 80.113,52.048 78.157 C 56.691 73.368,58.199 72.016,59.825 71.188 L 61.200 70.486 61.200 72.043 C 61.200 73.593,61.207 73.600,62.800 73.600 C 64.362 73.600,64.400 73.633,64.400 75.000 C 64.400 76.333,64.467 76.400,65.800 76.400 C 67.167 76.400,67.200 76.438,67.200 78.000 L 67.200 79.600 68.800 79.600 L 70.400 79.600 70.400 81.200 L 70.400 82.800 72.000 82.800 C 73.427 82.800,73.600 82.905,73.600 83.771 C 73.600 85.199,74.626 86.000,76.455 86.000 C 78.678 86.000,79.600 85.417,79.600 84.010 C 79.600 82.956,79.739 82.837,81.100 82.724 C 82.519 82.607,82.607 82.519,82.724 81.100 C 82.841 79.692,82.930 79.600,84.181 79.600 C 85.589 79.600,86.000 79.096,86.000 77.367 C 86.000 76.534,86.188 76.400,87.357 76.400 C 88.738 76.400,89.200 75.896,89.200 74.393 C 89.200 73.848,89.546 73.617,90.500 73.525 C 91.687 73.411,91.811 73.269,91.924 71.900 C 92.034 70.571,92.171 70.399,93.124 70.394 C 95.108 70.383,95.239 70.066,95.115 65.567 L 95.000 61.400 93.500 61.276 C 92.092 61.159,92.000 61.070,92.000 59.819 C 92.000 58.457,91.489 58.000,89.967 58.000 C 89.422 58.000,89.200 57.720,89.200 57.029 C 89.200 55.786,88.214 54.800,86.971 54.800 C 86.210 54.800,86.000 54.590,86.000 53.829 C 86.000 52.586,85.014 51.600,83.771 51.600 C 82.956 51.600,82.800 51.405,82.800 50.387 C 82.800 49.721,82.555 49.081,82.255 48.966 C 81.531 48.688,90.490 39.138,97.460 32.757 C 98.087 32.183,100.159 30.113,102.064 28.157 C 106.123 23.989,107.657 22.449,112.865 17.312 C 115.731 14.484,116.794 13.157,116.978 12.176 C 117.159 11.213,117.467 10.818,118.107 10.726 C 118.591 10.657,119.350 10.029,119.794 9.331 C 120.237 8.634,120.988 7.881,121.461 7.658 C 122.655 7.096,125.193 3.155,125.473 1.427 L 125.705 0.000 117.452 0.000 L 109.200 0.000 109.200 0.914 M142.400 18.395 L 142.400 36.791 139.441 39.695 C 137.814 41.293,135.969 43.074,135.341 43.654 C 134.714 44.234,133.121 45.899,131.802 47.354 C 130.482 48.809,129.201 50.000,128.953 50.000 C 128.706 50.000,128.078 50.620,127.559 51.378 C 127.040 52.136,126.206 52.942,125.707 53.169 C 125.208 53.397,124.799 53.812,124.797 54.091 C 124.796 54.371,123.694 55.590,122.349 56.800 C 121.004 58.010,119.629 59.289,119.294 59.642 C 118.500 60.477,110.477 68.500,109.642 69.294 C 109.289 69.629,108.010 71.004,106.800 72.349 C 105.590 73.694,104.371 74.796,104.091 74.797 C 103.812 74.799,103.397 75.208,103.169 75.707 C 102.942 76.206,102.136 77.040,101.378 77.559 C 100.620 78.078,100.000 78.706,100.000 78.953 C 100.000 79.201,98.809 80.482,97.354 81.802 C 95.899 83.121,94.234 84.716,93.654 85.346 C 92.291 86.828,86.828 92.291,85.346 93.654 C 84.716 94.234,83.121 95.899,81.802 97.354 C 80.482 98.809,79.201 100.000,78.953 100.000 C 78.706 100.000,78.078 100.620,77.559 101.378 C 77.040 102.136,76.206 102.942,75.707 103.169 C 75.208 103.397,74.799 103.812,74.797 104.091 C 74.796 104.371,73.694 105.590,72.349 106.800 C 71.004 108.010,69.629 109.289,69.294 109.642 C 68.500 110.477,60.477 118.500,59.642 119.294 C 59.289 119.629,58.010 121.004,56.800 122.349 C 55.590 123.694,54.371 124.796,54.091 124.797 C 53.812 124.799,53.396 125.211,53.167 125.713 C 52.938 126.216,52.206 126.981,51.541 127.413 C 50.876 127.846,50.172 128.605,49.976 129.100 L 49.620 130.000 29.028 130.000 L 8.436 130.000 8.203 131.300 C 8.074 132.015,8.021 138.900,8.085 146.600 L 8.200 160.600 13.305 160.712 C 17.908 160.813,18.360 160.886,17.905 161.460 C 17.627 161.810,15.391 164.139,12.935 166.635 C 10.012 169.605,8.380 171.582,8.210 172.356 C 8.025 173.199,7.603 173.660,6.744 173.960 C 5.980 174.226,5.374 174.815,5.090 175.566 C 4.831 176.253,4.257 176.849,3.728 176.982 C 3.226 177.108,2.537 177.749,2.197 178.406 C 1.828 179.120,1.262 179.600,0.790 179.600 C 0.027 179.600,0.000 179.905,0.000 188.400 C 0.000 198.223,0.190 198.757,2.723 196.047 C 3.315 195.412,4.372 194.604,5.072 194.251 C 5.771 193.898,6.448 193.279,6.576 192.877 C 6.704 192.474,7.440 191.843,8.213 191.474 C 8.986 191.106,9.793 190.344,10.007 189.782 C 10.232 189.191,10.907 188.581,11.610 188.337 C 12.278 188.104,13.088 187.403,13.411 186.779 C 13.733 186.155,14.488 185.410,15.087 185.122 C 15.686 184.835,16.393 184.167,16.656 183.637 C 16.920 183.108,17.666 182.452,18.314 182.179 C 19.032 181.877,19.594 181.278,19.753 180.644 C 19.922 179.970,20.484 179.408,21.353 179.045 C 22.212 178.686,22.784 178.120,22.948 177.464 C 23.089 176.901,23.694 176.207,24.291 175.921 C 24.888 175.634,25.584 174.983,25.838 174.474 C 26.092 173.965,26.902 173.245,27.638 172.874 C 28.376 172.503,29.072 171.795,29.188 171.297 C 29.308 170.786,30.007 170.092,30.800 169.697 C 31.693 169.252,32.248 168.663,32.332 168.068 C 32.419 167.456,32.870 166.995,33.645 166.724 C 34.401 166.461,35.025 165.837,35.379 164.989 C 35.743 164.117,36.251 163.619,36.866 163.532 C 37.458 163.448,38.020 162.926,38.400 162.109 L 39.000 160.817 46.486 160.809 C 55.595 160.798,54.800 161.635,54.800 152.054 C 54.800 144.894,54.805 144.855,55.700 144.728 C 56.277 144.646,56.863 144.062,57.333 143.100 C 57.756 142.233,58.356 141.600,58.753 141.600 C 59.652 141.600,60.400 140.828,60.400 139.900 C 60.400 139.432,60.914 138.945,61.793 138.577 C 62.679 138.207,63.276 137.637,63.433 137.011 C 63.583 136.412,64.246 135.749,65.130 135.314 C 66.036 134.868,66.665 134.230,66.805 133.615 C 66.947 132.991,67.391 132.547,68.015 132.405 C 68.630 132.265,69.268 131.636,69.714 130.730 C 70.149 129.846,70.812 129.183,71.411 129.033 C 72.037 128.876,72.607 128.279,72.977 127.393 C 73.345 126.514,73.832 126.000,74.300 126.000 C 75.231 126.000,76.000 125.251,76.000 124.344 C 76.000 123.961,76.180 123.536,76.400 123.400 C 76.647 123.248,76.800 123.932,76.800 125.185 C 76.800 126.907,76.662 127.280,75.896 127.629 C 72.311 129.262,72.403 162.258,75.996 163.399 C 77.685 163.935,77.112 167.126,75.300 167.276 C 73.881 167.393,73.793 167.481,73.676 168.900 C 73.565 170.238,73.433 170.400,72.456 170.400 C 71.058 170.400,70.400 171.065,70.400 172.480 C 70.400 173.399,70.226 173.600,69.429 173.600 C 68.125 173.600,67.200 174.602,67.200 176.014 C 67.200 176.760,66.917 177.323,66.404 177.598 C 65.308 178.184,64.400 180.079,64.400 181.780 C 64.400 183.087,64.306 183.200,63.214 183.200 C 61.671 183.200,61.200 184.117,61.200 187.124 C 61.200 189.448,61.173 189.505,59.992 189.742 C 59.052 189.930,58.730 190.248,58.545 191.176 C 58.362 192.089,57.984 192.475,56.936 192.821 C 55.905 193.162,55.508 193.558,55.336 194.421 C 55.163 195.285,54.767 195.681,53.736 196.021 C 52.708 196.361,52.308 196.758,52.137 197.613 C 51.978 198.412,51.559 198.876,50.739 199.161 C 49.998 199.420,49.420 199.998,49.161 200.739 C 48.876 201.559,48.412 201.978,47.613 202.137 C 46.758 202.308,46.361 202.708,46.021 203.736 C 45.681 204.767,45.285 205.163,44.421 205.336 C 43.558 205.508,43.162 205.905,42.821 206.936 C 42.475 207.984,42.089 208.362,41.176 208.545 C 40.252 208.730,39.930 209.052,39.745 209.976 C 39.562 210.889,39.184 211.275,38.136 211.621 C 37.105 211.962,36.708 212.358,36.536 213.221 C 36.363 214.085,35.967 214.481,34.936 214.821 C 33.915 215.158,33.508 215.560,33.341 216.395 C 33.175 217.224,32.824 217.575,31.995 217.741 C 31.160 217.908,30.758 218.315,30.421 219.336 C 30.081 220.367,29.685 220.763,28.821 220.936 C 27.948 221.110,27.562 221.504,27.206 222.583 C 26.905 223.495,26.486 224.000,26.031 224.000 C 25.187 224.000,24.139 225.094,23.939 226.182 C 23.858 226.625,23.363 227.064,22.798 227.194 C 22.186 227.334,21.530 227.961,21.103 228.812 C 20.709 229.595,20.012 230.291,19.503 230.408 C 19.006 230.523,18.336 231.159,18.014 231.822 C 17.691 232.485,16.881 233.291,16.214 233.614 C 15.474 233.971,14.948 234.565,14.868 235.134 C 14.781 235.749,14.283 236.257,13.411 236.621 C 12.548 236.982,11.940 237.598,11.663 238.392 C 11.429 239.062,10.914 239.726,10.519 239.866 C 9.350 240.282,8.400 241.270,8.400 242.072 C 8.400 242.498,7.978 242.980,7.419 243.193 C 6.880 243.398,6.156 244.112,5.811 244.779 C 5.466 245.446,4.782 246.256,4.292 246.577 C 3.801 246.899,3.057 247.801,2.637 248.581 C 2.097 249.585,1.600 250.000,0.937 250.000 L 0.000 250.000 0.000 258.200 C 0.000 266.177,0.022 266.400,0.813 266.400 C 1.951 266.400,4.400 265.325,4.400 264.826 C 4.400 264.598,4.999 264.160,5.731 263.855 C 6.549 263.513,7.256 262.830,7.565 262.084 C 7.872 261.344,8.462 260.771,9.076 260.617 C 9.689 260.463,10.252 259.916,10.515 259.219 C 10.802 258.458,11.360 257.957,12.174 257.727 C 13.067 257.475,13.501 257.040,13.773 256.126 C 14.042 255.220,14.446 254.811,15.225 254.655 C 15.975 254.505,22.618 248.133,37.052 233.720 L 57.800 213.000 58.018 222.800 C 58.138 228.190,58.273 232.645,58.318 232.700 C 58.363 232.755,59.030 232.800,59.800 232.800 L 61.200 232.800 61.200 236.426 C 61.200 240.579,61.516 241.430,63.197 241.799 C 64.241 242.029,64.400 242.240,64.400 243.399 C 64.400 244.978,65.511 247.109,66.500 247.428 C 66.961 247.577,67.200 248.064,67.200 248.853 C 67.200 249.513,67.394 250.416,67.632 250.860 C 68.061 251.662,67.722 252.128,64.146 255.646 C 63.426 256.355,56.130 263.655,55.746 264.050 C 55.556 264.247,53.915 265.857,52.100 267.629 C 50.285 269.401,48.800 271.007,48.800 271.199 C 48.800 271.390,48.459 271.654,48.042 271.787 C 47.626 271.919,46.861 272.650,46.342 273.411 C 45.824 274.172,45.249 274.796,45.065 274.797 C 44.792 274.799,42.501 277.083,40.148 279.698 C 39.900 279.974,39.180 280.678,38.548 281.262 C 37.917 281.847,37.220 282.513,37.000 282.742 C 36.482 283.283,33.559 286.206,32.862 286.880 C 32.567 287.166,31.847 287.917,31.262 288.548 C 30.678 289.180,29.974 289.900,29.698 290.148 C 27.083 292.501,24.799 294.792,24.797 295.065 C 24.796 295.249,24.172 295.824,23.411 296.342 C 22.650 296.861,21.932 297.581,21.816 297.942 C 21.700 298.304,21.054 298.960,20.381 299.400 C 19.707 299.840,18.543 301.046,17.794 302.079 C 17.044 303.113,14.640 305.700,12.451 307.830 C 9.466 310.733,8.408 312.032,8.222 313.024 C 8.041 313.987,7.733 314.382,7.093 314.474 C 6.609 314.543,5.850 315.160,5.406 315.845 C 4.963 316.530,4.105 317.377,3.500 317.727 C 2.895 318.077,2.191 318.821,1.936 319.381 C 1.680 319.942,1.140 320.400,0.736 320.400 C 0.044 320.400,0.000 320.917,0.000 329.000 C 0.000 339.715,-0.246 339.544,6.487 333.502 C 7.406 332.678,8.454 331.910,8.818 331.794 C 9.181 331.679,9.678 331.147,9.922 330.612 C 10.166 330.076,10.909 329.358,11.573 329.014 C 12.236 328.671,13.017 327.938,13.306 327.386 C 13.595 326.833,14.455 326.071,15.216 325.691 C 16.005 325.297,16.650 324.648,16.717 324.181 C 16.787 323.696,17.327 323.177,18.042 322.906 C 18.779 322.628,19.421 321.997,19.689 321.289 C 19.950 320.597,20.597 319.950,21.289 319.689 C 22.003 319.419,22.629 318.779,22.913 318.025 C 23.168 317.350,23.667 316.800,24.026 316.800 C 24.839 316.800,26.000 315.553,26.000 314.680 C 26.000 314.278,26.492 313.895,27.267 313.695 C 27.964 313.514,28.684 313.059,28.867 312.683 C 29.050 312.307,29.354 311.685,29.543 311.300 C 29.731 310.915,30.226 310.536,30.643 310.457 C 31.726 310.252,32.400 309.613,32.400 308.791 C 32.400 308.399,33.024 307.711,33.787 307.261 C 34.550 306.811,35.281 306.017,35.411 305.497 C 35.567 304.876,36.087 304.423,36.924 304.176 C 37.857 303.901,38.298 303.467,38.565 302.565 C 38.826 301.679,39.276 301.226,40.152 300.965 C 40.958 300.724,41.451 300.272,41.597 299.638 C 41.798 298.764,42.173 298.444,43.991 297.599 C 44.316 297.448,44.680 296.908,44.800 296.400 C 44.998 295.560,45.379 295.242,47.191 294.399 C 47.516 294.248,47.880 293.708,48.000 293.200 C 48.215 292.289,48.717 291.869,50.108 291.438 C 50.498 291.318,50.918 290.708,51.043 290.084 C 51.200 289.298,51.636 288.811,52.460 288.500 C 53.190 288.224,53.824 287.590,54.100 286.860 C 54.412 286.033,54.898 285.600,55.692 285.442 C 56.520 285.276,56.997 284.825,57.423 283.806 C 57.797 282.911,58.282 282.400,58.756 282.400 C 59.660 282.400,60.202 281.765,60.552 280.300 C 60.720 279.598,61.079 279.200,61.546 279.200 C 62.428 279.200,63.600 277.988,63.600 277.076 C 63.600 276.686,64.050 276.308,64.700 276.152 C 66.214 275.791,66.800 275.255,66.800 274.234 C 66.800 273.599,67.150 273.262,68.100 272.983 C 69.058 272.701,69.496 272.274,69.765 271.363 C 70.007 270.542,70.520 269.979,71.290 269.688 C 71.997 269.422,72.628 268.779,72.906 268.044 C 73.216 267.223,73.674 266.800,74.340 266.719 C 75.228 266.611,75.539 266.263,76.401 264.409 C 76.552 264.084,77.092 263.720,77.600 263.600 C 78.510 263.385,78.847 262.983,79.444 261.400 C 79.685 260.760,79.791 260.920,79.973 262.200 L 80.200 263.800 83.077 263.917 L 85.954 264.034 86.077 265.517 C 86.196 266.956,86.251 267.004,87.919 267.124 C 89.291 267.223,89.710 267.436,89.993 268.182 C 90.551 269.649,92.537 270.400,95.861 270.400 C 98.640 270.400,98.800 270.449,98.806 271.300 C 98.820 273.365,98.930 273.391,108.485 273.531 C 116.373 273.648,117.254 273.724,116.132 274.199 C 115.343 274.532,114.814 275.072,114.732 275.626 C 114.612 276.435,114.246 276.747,112.409 277.601 C 112.084 277.752,111.720 278.292,111.600 278.800 C 111.480 279.308,111.071 279.876,110.691 280.062 C 110.311 280.248,109.685 280.553,109.300 280.740 C 108.915 280.928,108.545 281.537,108.478 282.095 C 108.386 282.859,108.061 283.168,107.160 283.348 C 106.286 283.523,105.812 283.952,105.397 284.947 C 105.025 285.835,104.468 286.397,103.788 286.567 C 103.112 286.737,102.551 287.298,102.188 288.167 C 101.850 288.976,101.258 289.599,100.691 289.741 C 100.146 289.878,99.513 290.520,99.177 291.277 C 98.827 292.068,98.222 292.664,97.638 292.798 C 97.109 292.919,96.524 293.329,96.338 293.709 C 96.152 294.089,95.848 294.711,95.662 295.091 C 95.476 295.471,94.908 295.880,94.400 296.000 C 93.487 296.215,93.071 296.715,92.634 298.119 C 92.511 298.514,91.867 299.027,91.203 299.259 C 90.447 299.523,89.904 300.044,89.751 300.654 C 89.599 301.260,88.999 301.840,88.167 302.188 C 87.298 302.551,86.737 303.112,86.567 303.788 C 86.397 304.468,85.835 305.025,84.947 305.397 C 83.952 305.812,83.523 306.286,83.348 307.160 C 83.168 308.061,82.859 308.386,82.095 308.478 C 81.537 308.545,80.928 308.915,80.740 309.300 C 80.553 309.685,80.248 310.311,80.062 310.691 C 79.876 311.071,79.308 311.480,78.800 311.600 C 78.292 311.720,77.724 312.129,77.538 312.509 C 77.352 312.889,77.047 313.515,76.859 313.900 C 76.672 314.285,76.116 314.660,75.625 314.732 C 75.058 314.816,74.531 315.347,74.180 316.185 C 73.824 317.038,73.259 317.599,72.588 317.767 C 71.912 317.937,71.351 318.498,70.988 319.367 C 70.625 320.236,70.063 320.798,69.389 320.967 C 68.739 321.130,68.154 321.693,67.828 322.468 C 67.523 323.193,66.801 323.920,66.086 324.221 C 65.337 324.536,64.813 325.079,64.732 325.626 C 64.612 326.435,64.246 326.747,62.409 327.601 C 62.084 327.752,61.720 328.292,61.600 328.800 C 61.480 329.308,61.071 329.876,60.691 330.062 C 60.311 330.248,59.685 330.553,59.300 330.740 C 58.915 330.928,58.545 331.537,58.478 332.095 C 58.386 332.859,58.061 333.168,57.160 333.348 C 56.286 333.523,55.812 333.952,55.397 334.947 C 55.025 335.835,54.468 336.397,53.788 336.567 C 53.112 336.737,52.551 337.298,52.188 338.167 C 51.850 338.976,51.258 339.599,50.691 339.741 C 50.146 339.878,49.513 340.520,49.177 341.277 C 48.827 342.068,48.222 342.664,47.638 342.798 C 47.109 342.919,46.524 343.329,46.338 343.709 C 46.152 344.089,45.848 344.711,45.662 345.091 C 45.476 345.471,44.908 345.880,44.400 346.000 C 43.487 346.215,43.071 346.715,42.634 348.119 C 42.511 348.514,41.867 349.027,41.203 349.259 C 40.447 349.523,39.904 350.044,39.751 350.654 C 39.599 351.260,38.999 351.840,38.167 352.188 C 37.298 352.551,36.737 353.112,36.567 353.788 C 36.397 354.468,35.835 355.025,34.947 355.397 C 33.952 355.812,33.523 356.286,33.348 357.160 C 33.168 358.061,32.859 358.386,32.095 358.478 C 31.537 358.545,30.956 358.870,30.803 359.200 C 29.966 361.012,29.641 361.401,28.800 361.600 C 27.959 361.799,27.636 362.185,26.796 364.000 C 26.643 364.330,26.117 364.659,25.626 364.732 C 25.079 364.813,24.536 365.337,24.221 366.086 C 23.917 366.808,23.192 367.524,22.447 367.837 C 21.572 368.205,21.117 368.716,20.958 369.511 C 20.788 370.361,20.405 370.750,19.465 371.027 C 18.541 371.299,18.101 371.736,17.833 372.644 C 17.574 373.522,17.088 374.024,16.181 374.352 C 15.235 374.694,14.834 375.131,14.658 376.008 C 14.496 376.821,14.182 377.200,13.672 377.200 C 12.776 377.200,11.600 378.404,11.600 379.321 C 11.600 379.683,11.052 380.263,10.383 380.609 C 9.713 380.955,8.949 381.725,8.685 382.319 C 8.420 382.914,7.663 383.965,7.002 384.655 C 5.457 386.267,3.329 389.042,2.367 390.700 C 1.910 391.487,1.294 392.000,0.806 392.000 C 0.052 392.000,0.000 392.257,0.000 396.000 L 0.000 400.000 4.000 400.000 C 7.678 400.000,8.000 399.938,8.000 399.232 C 8.000 398.666,8.525 398.290,9.994 397.802 C 11.262 397.381,12.292 396.713,12.822 395.970 C 13.280 395.326,13.904 394.800,14.208 394.800 C 15.328 394.800,16.745 393.875,16.964 393.001 C 17.116 392.394,17.592 392.022,18.428 391.854 C 19.306 391.679,19.792 391.275,20.097 390.467 C 20.350 389.796,21.005 389.147,21.689 388.889 C 22.395 388.622,23.028 387.980,23.304 387.249 C 23.575 386.530,24.138 385.952,24.704 385.810 C 25.760 385.545,27.201 384.299,31.132 380.255 C 32.599 378.746,34.764 376.586,35.941 375.455 C 37.119 374.325,38.919 372.513,39.941 371.429 C 40.964 370.344,42.374 368.904,43.075 368.229 C 47.675 363.796,48.798 362.688,50.460 360.948 C 51.483 359.876,53.553 357.798,55.060 356.330 C 56.567 354.861,58.643 352.791,59.673 351.730 C 60.703 350.668,62.773 348.585,64.273 347.101 C 65.773 345.616,67.552 343.816,68.226 343.101 C 68.901 342.385,70.341 340.964,71.426 339.941 C 72.512 338.919,74.325 337.119,75.455 335.941 C 76.586 334.764,78.746 332.596,80.255 331.125 C 81.765 329.654,83.828 327.584,84.839 326.525 C 85.850 325.466,87.200 324.131,87.839 323.557 C 88.478 322.983,90.195 321.273,91.657 319.757 C 93.118 318.241,95.278 316.076,96.457 314.948 C 97.635 313.819,99.437 312.019,100.460 310.948 C 101.483 309.876,103.598 307.764,105.160 306.254 L 108.000 303.509 108.000 327.928 L 108.000 352.348 105.062 355.324 C 103.447 356.961,101.647 358.613,101.062 358.996 C 100.478 359.379,100.000 359.861,100.000 360.067 C 100.000 360.556,85.695 374.800,85.204 374.800 C 84.997 374.800,84.626 375.178,84.379 375.640 C 84.131 376.102,82.426 378.037,80.590 379.940 C 70.473 390.422,68.153 392.956,67.698 394.025 C 67.422 394.673,66.477 395.923,65.598 396.802 C 62.498 399.902,62.718 400.000,72.800 400.000 C 81.209 400.000,81.600 399.966,81.600 399.233 C 81.600 398.789,82.182 398.105,82.979 397.613 C 83.738 397.144,84.465 396.427,84.594 396.019 C 84.723 395.611,85.452 394.982,86.214 394.620 C 86.975 394.259,87.873 393.431,88.210 392.782 C 88.547 392.130,89.147 391.600,89.548 391.600 C 90.319 391.600,91.322 390.643,91.714 389.534 C 91.843 389.168,92.454 388.626,93.071 388.330 C 93.688 388.035,94.429 387.300,94.717 386.699 C 95.005 386.097,95.701 385.489,96.264 385.348 C 96.915 385.185,97.486 384.614,97.836 383.775 C 98.190 382.927,98.710 382.411,99.292 382.329 C 99.875 382.246,100.439 381.684,100.879 380.748 C 101.313 379.825,101.931 379.204,102.578 379.041 C 103.240 378.875,103.799 378.299,104.177 377.393 C 104.552 376.497,105.030 376.000,105.518 376.000 C 106.424 376.000,107.600 374.800,107.600 373.876 C 107.600 373.498,108.045 373.103,108.642 372.954 C 109.274 372.795,109.876 372.234,110.173 371.530 C 110.442 370.890,111.273 370.059,112.019 369.683 C 112.845 369.268,113.466 368.608,113.605 368.000 C 113.759 367.325,114.152 366.955,114.816 366.862 C 116.183 366.669,116.800 366.069,116.800 364.930 C 116.800 364.208,117.111 363.850,118.013 363.536 C 118.811 363.257,119.419 362.649,119.792 361.756 C 120.181 360.826,120.623 360.400,121.198 360.400 C 121.707 360.400,122.303 359.937,122.713 359.223 L 123.388 358.047 130.862 357.923 C 134.972 357.855,138.485 357.650,138.668 357.468 C 138.850 357.285,139.056 353.651,139.124 349.392 L 139.247 341.649 140.322 341.524 C 141.136 341.430,141.445 341.133,141.598 340.296 C 141.737 339.537,142.237 338.975,143.200 338.496 C 144.095 338.051,144.648 337.463,144.732 336.866 C 144.820 336.245,145.320 335.742,146.225 335.364 C 147.075 335.009,147.678 334.430,147.830 333.824 C 147.980 333.225,148.524 332.695,149.250 332.442 C 150.020 332.174,150.628 331.552,151.007 330.645 C 151.388 329.734,151.898 329.213,152.493 329.129 C 153.055 329.049,153.660 328.479,154.083 327.631 C 154.468 326.861,155.293 326.040,155.969 325.756 C 156.645 325.472,157.277 324.845,157.411 324.325 C 157.542 323.816,158.219 323.130,158.916 322.800 C 159.618 322.468,160.276 321.797,160.392 321.297 C 160.509 320.788,161.205 320.091,161.988 319.697 C 162.842 319.269,163.465 318.615,163.605 318.000 C 163.745 317.385,164.157 316.953,164.675 316.878 C 165.672 316.733,166.660 315.711,166.861 314.618 C 166.942 314.175,167.437 313.736,168.002 313.606 C 168.614 313.466,169.270 312.839,169.697 311.988 C 170.091 311.205,170.788 310.509,171.297 310.392 C 171.797 310.276,172.468 309.618,172.800 308.916 C 173.130 308.219,173.816 307.542,174.325 307.411 C 174.845 307.277,175.472 306.645,175.756 305.969 C 176.040 305.293,176.861 304.468,177.631 304.083 C 178.479 303.660,179.049 303.055,179.129 302.493 C 179.213 301.900,179.732 301.388,180.631 301.013 C 181.424 300.682,182.170 300.004,182.395 299.412 C 182.610 298.848,183.248 298.210,183.812 297.995 C 184.404 297.770,185.082 297.024,185.413 296.231 C 185.788 295.332,186.300 294.813,186.893 294.729 C 187.460 294.648,188.061 294.076,188.496 293.200 C 188.975 292.237,189.537 291.737,190.296 291.598 C 191.150 291.442,191.429 291.140,191.530 290.265 C 191.627 289.413,191.996 288.994,193.023 288.565 C 193.899 288.199,194.477 287.633,194.640 286.983 C 194.803 286.335,195.381 285.768,196.249 285.405 C 197.026 285.081,197.772 284.400,197.995 283.812 C 198.210 283.248,198.848 282.610,199.412 282.395 C 200.000 282.172,200.681 281.426,201.005 280.649 C 201.368 279.781,201.935 279.203,202.583 279.040 C 203.239 278.875,203.800 278.296,204.177 277.393 C 204.552 276.497,205.030 276.000,205.518 276.000 C 206.337 276.000,207.600 274.829,207.600 274.069 C 207.600 273.715,213.833 273.600,232.900 273.601 C 257.254 273.601,258.148 273.627,256.800 274.301 C 255.948 274.726,255.351 275.344,255.275 275.877 C 255.190 276.473,254.704 276.902,253.758 277.214 C 252.721 277.556,252.309 277.957,252.144 278.781 C 251.995 279.524,251.511 280.072,250.672 280.445 C 249.918 280.780,249.333 281.388,249.198 281.978 C 249.043 282.654,248.586 283.056,247.717 283.282 C 246.770 283.527,246.349 283.941,246.014 284.957 C 245.681 285.967,245.280 286.364,244.421 286.536 C 243.566 286.707,243.162 287.105,242.834 288.096 C 242.538 288.993,242.011 289.571,241.216 289.872 C 240.479 290.150,239.940 290.701,239.779 291.340 C 239.602 292.048,239.097 292.504,238.144 292.819 C 237.105 293.162,236.709 293.556,236.536 294.421 C 236.364 295.280,235.967 295.681,234.957 296.014 C 233.941 296.349,233.527 296.770,233.282 297.717 C 233.056 298.586,232.654 299.043,231.978 299.198 C 231.388 299.333,230.780 299.918,230.445 300.672 C 230.072 301.511,229.524 301.995,228.781 302.144 C 227.957 302.309,227.556 302.721,227.214 303.758 C 226.902 304.704,226.473 305.190,225.877 305.275 C 225.343 305.351,224.727 305.948,224.301 306.800 C 223.827 307.752,223.214 308.301,222.388 308.515 C 221.474 308.752,221.116 309.119,220.940 309.999 C 220.763 310.887,220.375 311.278,219.336 311.621 C 218.308 311.961,217.908 312.358,217.737 313.213 C 217.578 314.012,217.159 314.476,216.339 314.761 C 215.598 315.020,215.020 315.598,214.761 316.339 C 214.476 317.159,214.012 317.578,213.213 317.737 C 212.358 317.908,211.961 318.308,211.621 319.336 C 211.278 320.375,210.887 320.763,209.999 320.940 C 209.119 321.116,208.752 321.474,208.515 322.388 C 208.301 323.214,207.752 323.827,206.800 324.301 C 205.948 324.727,205.351 325.343,205.275 325.877 C 205.190 326.473,204.704 326.902,203.758 327.214 C 202.721 327.556,202.309 327.957,202.144 328.781 C 201.995 329.524,201.511 330.072,200.672 330.445 C 199.918 330.780,199.333 331.388,199.198 331.978 C 199.043 332.654,198.586 333.056,197.717 333.282 C 196.770 333.527,196.349 333.941,196.014 334.957 C 195.681 335.967,195.280 336.364,194.421 336.536 C 193.566 336.707,193.162 337.105,192.834 338.096 C 192.538 338.993,192.011 339.571,191.216 339.872 C 190.471 340.153,189.940 340.701,189.775 341.358 L 189.513 342.400 183.157 342.400 L 176.800 342.400 176.800 348.772 C 176.800 355.076,176.790 355.146,175.900 355.272 C 175.341 355.352,174.735 355.930,174.301 356.800 C 173.827 357.752,173.214 358.301,172.388 358.515 C 171.474 358.752,171.116 359.119,170.940 359.999 C 170.763 360.887,170.375 361.278,169.336 361.621 C 168.308 361.961,167.908 362.358,167.737 363.213 C 167.578 364.012,167.159 364.476,166.339 364.761 C 165.598 365.020,165.020 365.598,164.761 366.339 C 164.476 367.159,164.012 367.578,163.213 367.737 C 162.358 367.908,161.961 368.308,161.621 369.336 C 161.278 370.375,160.887 370.763,159.999 370.940 C 159.119 371.116,158.752 371.474,158.515 372.388 C 158.301 373.214,157.752 373.827,156.800 374.301 C 155.948 374.727,155.351 375.343,155.275 375.877 C 155.191 376.470,154.706 376.901,153.779 377.207 C 152.736 377.551,152.329 377.964,152.078 378.929 C 151.876 379.712,151.452 380.254,150.975 380.342 C 149.854 380.550,149.200 381.186,149.200 382.069 C 149.200 382.568,148.721 383.041,147.844 383.408 C 146.949 383.781,146.343 384.389,146.063 385.192 C 145.829 385.862,145.314 386.526,144.919 386.666 C 143.793 387.066,142.800 388.060,142.800 388.787 C 142.800 389.151,142.250 389.856,141.579 390.352 C 140.907 390.849,140.160 391.689,139.918 392.220 C 139.676 392.751,139.144 393.291,138.735 393.421 C 138.326 393.550,137.702 394.229,137.349 394.928 C 136.996 395.628,136.188 396.685,135.553 397.277 C 132.885 399.770,133.463 400.000,142.400 400.000 C 149.972 400.000,150.400 399.960,150.400 399.246 C 150.400 398.777,150.930 398.240,151.799 397.827 C 152.569 397.462,153.461 396.656,153.782 396.035 C 154.161 395.301,154.796 394.821,155.597 394.661 C 156.387 394.503,157.071 393.992,157.503 393.239 C 157.909 392.532,158.623 391.975,159.297 391.841 C 160.148 391.670,160.475 391.326,160.658 390.408 C 160.810 389.649,161.146 389.200,161.561 389.200 C 162.665 389.200,164.000 388.011,164.000 387.027 C 164.000 386.326,164.280 386.044,165.148 385.870 C 165.917 385.717,168.029 383.929,171.548 380.451 L 176.800 375.262 176.800 387.631 L 176.800 400.000 199.400 400.000 C 221.090 400.000,222.000 399.970,222.000 399.263 C 222.000 398.834,222.573 398.218,223.370 397.788 C 224.123 397.383,224.930 396.633,225.163 396.122 C 225.395 395.612,226.201 394.900,226.954 394.541 C 227.706 394.183,228.520 393.454,228.762 392.923 C 229.004 392.392,229.747 391.768,230.413 391.535 C 231.082 391.302,231.896 390.587,232.231 389.939 C 232.565 389.294,233.289 388.594,233.839 388.385 C 234.395 388.174,235.021 387.486,235.246 386.839 C 235.498 386.116,236.027 385.579,236.639 385.426 C 237.181 385.290,237.968 384.614,238.388 383.923 C 238.808 383.233,239.689 382.442,240.346 382.166 C 241.205 381.805,241.577 381.347,241.670 380.535 C 241.757 379.781,242.065 379.359,242.600 379.262 C 243.714 379.061,244.800 378.016,244.800 377.146 C 244.800 376.679,245.198 376.320,245.900 376.152 C 247.350 375.806,248.000 375.261,248.000 374.391 C 248.000 373.999,248.624 373.311,249.387 372.861 C 250.150 372.411,250.881 371.617,251.011 371.097 C 251.167 370.476,251.687 370.023,252.524 369.776 C 253.471 369.497,253.897 369.069,254.177 368.119 C 254.458 367.167,254.817 366.808,255.577 366.719 C 256.305 366.634,256.812 366.167,257.333 365.100 C 257.736 364.275,258.293 363.600,258.571 363.600 C 259.265 363.600,260.400 362.281,260.400 361.476 C 260.400 361.086,260.850 360.708,261.500 360.552 C 262.967 360.202,263.600 359.659,263.600 358.751 C 263.600 358.086,263.930 358.000,266.500 357.998 C 272.488 357.993,273.157 357.396,273.493 351.762 C 273.685 348.548,273.818 348.000,274.410 348.000 C 275.262 348.000,275.808 347.341,276.152 345.900 C 276.320 345.198,276.679 344.800,277.146 344.800 C 278.028 344.800,279.200 343.588,279.200 342.676 C 279.200 342.286,279.650 341.908,280.300 341.752 C 281.765 341.402,282.400 340.860,282.400 339.956 C 282.400 339.482,282.911 338.997,283.806 338.623 C 284.843 338.190,285.275 337.724,285.450 336.850 C 285.614 336.030,285.988 335.589,286.665 335.420 C 287.202 335.285,288.011 334.550,288.461 333.787 C 288.911 333.024,289.599 332.400,289.991 332.400 C 290.813 332.400,291.452 331.726,291.657 330.643 C 291.736 330.226,292.115 329.731,292.500 329.543 C 292.885 329.354,293.507 329.050,293.883 328.867 C 294.259 328.684,294.714 327.964,294.895 327.267 C 295.111 326.430,295.469 326.000,295.949 326.000 C 296.740 326.000,298.000 324.817,298.000 324.074 C 298.000 323.819,298.633 323.346,299.406 323.023 C 300.426 322.597,300.876 322.120,301.042 321.290 C 301.212 320.439,301.595 320.050,302.535 319.773 C 303.465 319.499,303.899 319.065,304.173 318.135 C 304.447 317.205,304.840 316.812,305.662 316.648 C 306.463 316.487,306.946 316.024,307.369 315.012 C 307.755 314.088,308.226 313.600,308.731 313.600 C 309.608 313.600,310.248 312.949,310.457 311.843 C 310.536 311.426,310.915 310.931,311.300 310.743 C 311.685 310.554,312.315 310.247,312.700 310.059 C 313.085 309.872,313.460 309.316,313.532 308.825 C 313.618 308.249,314.154 307.728,315.044 307.356 C 316.025 306.946,316.489 306.456,316.648 305.662 C 316.812 304.840,317.205 304.447,318.135 304.173 C 319.065 303.899,319.499 303.465,319.773 302.535 C 320.050 301.595,320.439 301.212,321.290 301.042 C 322.120 300.876,322.597 300.426,323.023 299.406 C 323.397 298.511,323.882 298.000,324.356 298.000 C 325.210 298.000,325.850 297.339,326.057 296.243 C 326.136 295.826,326.515 295.331,326.900 295.143 C 327.285 294.954,327.911 294.648,328.291 294.462 C 328.671 294.276,329.080 293.708,329.200 293.200 C 329.320 292.692,329.729 292.124,330.109 291.938 C 330.489 291.752,331.111 291.448,331.491 291.262 C 331.871 291.076,332.276 290.534,332.391 290.057 C 332.506 289.580,333.180 288.838,333.889 288.408 C 334.598 287.977,335.288 287.189,335.422 286.656 C 335.589 285.988,336.033 285.613,336.850 285.450 C 337.724 285.275,338.190 284.843,338.623 283.806 C 338.997 282.911,339.482 282.400,339.956 282.400 C 340.860 282.400,341.402 281.765,341.752 280.300 C 341.920 279.598,342.279 279.200,342.746 279.200 C 343.628 279.200,344.800 277.988,344.800 277.076 C 344.800 276.686,345.250 276.308,345.900 276.152 C 347.365 275.802,348.000 275.260,348.000 274.356 C 348.000 273.882,348.511 273.397,349.406 273.023 C 350.443 272.590,350.875 272.124,351.050 271.250 C 351.215 270.427,351.588 269.989,352.270 269.818 C 352.811 269.682,353.556 269.045,353.925 268.402 C 354.364 267.637,355.072 267.121,355.975 266.907 C 357.081 266.645,357.420 266.325,357.688 265.290 C 357.983 264.154,358.186 264.000,359.387 264.000 C 360.675 264.000,360.759 263.916,360.876 262.500 L 361.000 261.000 363.000 260.895 C 366.218 260.727,366.733 260.517,366.874 259.313 C 366.975 258.440,367.264 258.175,368.352 257.954 C 369.845 257.651,370.385 257.056,370.394 255.700 C 370.399 254.982,370.627 254.800,371.520 254.800 C 372.941 254.800,373.600 254.141,373.600 252.720 C 373.600 251.883,373.794 251.600,374.367 251.600 C 375.897 251.600,376.400 251.144,376.400 249.757 C 376.400 248.537,376.513 248.400,377.520 248.400 C 379.000 248.400,379.600 247.733,379.600 246.089 C 379.600 245.035,379.952 244.399,381.200 243.200 C 382.362 242.084,382.800 241.338,382.800 240.476 C 382.800 239.436,382.974 239.256,384.198 239.027 C 385.460 238.790,385.621 238.608,385.854 237.151 C 386.046 235.950,386.356 235.445,387.063 235.176 C 387.586 234.977,388.183 234.370,388.390 233.826 C 388.597 233.283,389.294 232.565,389.939 232.231 C 390.587 231.896,391.302 231.082,391.535 230.413 C 391.768 229.747,392.392 229.004,392.923 228.762 C 393.454 228.520,394.183 227.706,394.541 226.954 C 394.900 226.201,395.629 225.387,396.161 225.145 C 397.043 224.743,398.400 222.162,398.400 220.887 C 398.400 220.619,398.760 220.400,399.200 220.400 C 399.970 220.400,400.000 220.133,400.000 213.200 L 400.000 206.000 398.980 206.000 C 397.798 206.000,395.600 207.042,395.600 207.603 C 395.600 207.813,395.133 208.102,394.562 208.245 C 393.991 208.389,393.182 209.067,392.763 209.753 L 392.003 211.000 392.001 207.327 C 392.000 204.004,392.076 203.630,392.800 203.400 C 394.599 202.829,394.692 200.643,392.945 199.979 L 392.000 199.620 392.000 189.993 C 392.000 179.905,392.044 180.178,390.100 178.216 C 389.337 177.447,389.200 176.877,389.200 174.483 C 389.200 171.370,388.671 170.400,386.971 170.400 C 386.024 170.400,386.000 170.322,386.000 167.200 C 386.000 164.073,386.022 164.000,386.977 164.000 C 388.009 164.000,389.200 162.693,389.200 161.561 C 389.200 161.146,389.649 160.810,390.408 160.658 C 391.331 160.474,391.670 160.148,391.843 159.283 C 391.998 158.508,392.436 158.011,393.226 157.712 C 393.862 157.472,394.611 156.764,394.891 156.138 C 395.171 155.512,395.895 154.579,396.500 154.064 C 397.105 153.550,397.600 152.883,397.600 152.583 C 397.600 151.475,398.550 150.000,399.264 150.000 C 399.953 150.000,400.000 149.506,400.000 142.200 C 400.000 133.332,399.840 132.987,397.027 135.800 C 396.257 136.570,395.431 137.200,395.191 137.200 C 394.951 137.200,394.245 137.759,393.621 138.441 C 392.998 139.124,392.063 139.892,391.544 140.148 C 391.025 140.405,390.430 140.999,390.222 141.469 C 390.014 141.938,389.294 142.565,388.622 142.861 C 387.950 143.158,387.158 143.910,386.862 144.534 C 386.565 145.160,385.798 145.852,385.149 146.078 C 384.390 146.342,383.774 146.967,383.408 147.844 C 383.053 148.693,382.564 149.200,382.100 149.200 C 381.172 149.200,380.400 149.948,380.400 150.847 C 380.400 151.244,379.767 151.844,378.900 152.267 C 377.938 152.737,377.354 153.323,377.272 153.900 C 377.069 155.330,376.460 154.944,376.324 153.300 C 376.211 151.937,376.084 151.789,374.924 151.676 C 373.812 151.569,373.631 151.388,373.524 150.276 C 373.412 149.120,373.261 148.988,371.923 148.877 C 370.535 148.762,370.438 148.665,370.323 147.277 C 370.207 145.885,370.114 145.793,368.700 145.676 C 367.426 145.570,367.200 145.410,367.200 144.609 C 367.200 142.908,366.784 142.400,365.389 142.400 C 364.250 142.400,364.028 142.236,363.807 141.233 C 363.512 139.891,363.131 139.693,360.166 139.344 C 358.249 139.119,358.000 138.984,358.000 138.173 C 358.000 136.573,356.990 136.000,354.171 136.000 C 351.773 136.000,351.600 135.939,351.594 135.100 C 351.585 133.734,351.128 133.280,349.597 133.114 L 348.200 132.963 349.319 132.484 C 349.969 132.206,350.677 131.436,351.005 130.649 C 351.368 129.781,351.935 129.203,352.583 129.040 C 353.239 128.875,353.800 128.296,354.177 127.393 C 354.552 126.497,355.030 126.000,355.518 126.000 C 356.380 126.000,357.596 124.819,357.609 123.969 C 357.613 123.656,358.198 123.130,358.909 122.800 C 359.726 122.420,360.248 121.858,360.332 121.266 C 360.419 120.651,360.917 120.143,361.789 119.779 C 362.650 119.419,363.261 118.802,363.536 118.013 C 363.850 117.111,364.208 116.800,364.930 116.800 C 366.069 116.800,366.669 116.183,366.862 114.816 C 366.955 114.152,367.325 113.759,368.000 113.605 C 368.615 113.465,369.269 112.842,369.697 111.988 C 370.091 111.205,370.788 110.509,371.297 110.392 C 371.803 110.275,372.464 109.620,372.800 108.900 C 373.130 108.195,373.687 107.613,374.038 107.609 C 374.857 107.598,376.000 106.339,376.000 105.448 C 376.000 105.040,376.567 104.522,377.393 104.177 C 378.299 103.799,378.875 103.240,379.041 102.578 C 379.204 101.931,379.825 101.313,380.748 100.879 C 381.684 100.439,382.246 99.875,382.329 99.292 C 382.411 98.710,382.927 98.190,383.775 97.836 C 384.614 97.486,385.185 96.915,385.348 96.264 C 385.489 95.701,386.097 95.005,386.699 94.717 C 387.300 94.429,388.035 93.688,388.330 93.071 C 388.626 92.454,389.168 91.843,389.534 91.714 C 390.643 91.322,391.600 90.319,391.600 89.548 C 391.600 89.147,392.130 88.547,392.782 88.210 C 393.431 87.873,394.250 86.994,394.601 86.255 C 394.952 85.516,395.669 84.715,396.196 84.475 C 396.822 84.189,397.402 83.339,397.871 82.019 C 398.365 80.627,398.807 80.000,399.294 80.000 C 399.943 80.000,400.000 79.403,400.000 72.548 L 400.000 65.095 398.543 65.332 C 397.741 65.462,396.706 65.914,396.243 66.337 C 395.779 66.760,394.818 67.401,394.106 67.760 C 393.388 68.123,392.705 68.838,392.573 69.366 C 392.426 69.951,391.822 70.525,391.002 70.858 C 389.671 71.399,385.461 75.100,379.641 80.844 C 377.945 82.518,376.162 84.099,375.679 84.358 C 375.195 84.617,374.800 84.997,374.800 85.204 C 374.800 85.695,360.556 100.000,360.067 100.000 C 359.861 100.000,359.389 100.462,359.019 101.027 C 358.147 102.358,352.358 108.147,351.027 109.019 C 350.462 109.389,350.000 109.861,350.000 110.067 C 350.000 110.556,335.695 124.800,335.204 124.800 C 334.997 124.800,334.623 125.184,334.372 125.653 C 334.121 126.122,333.129 127.292,332.168 128.253 L 330.421 130.000 317.037 130.000 C 304.003 130.000,303.647 129.979,303.400 129.200 C 303.260 128.759,302.798 128.213,302.373 127.986 C 301.797 127.677,301.599 127.141,301.598 125.886 C 301.594 122.895,300.909 121.202,299.598 120.940 C 298.573 120.735,298.428 120.520,298.321 119.054 C 298.209 117.526,298.105 117.391,296.954 117.279 L 295.708 117.157 296.376 115.879 C 297.147 114.404,298.977 112.273,301.730 109.643 C 302.791 108.629,304.861 106.567,306.330 105.060 C 307.798 103.553,309.876 101.483,310.948 100.460 C 312.019 99.437,313.819 97.635,314.948 96.457 C 316.076 95.278,318.241 93.118,319.757 91.657 C 321.273 90.195,322.983 88.478,323.557 87.839 C 324.131 87.200,325.466 85.850,326.525 84.839 C 327.584 83.828,329.654 81.765,331.125 80.255 C 332.596 78.746,334.764 76.586,335.941 75.455 C 337.119 74.325,338.919 72.512,339.941 71.426 C 340.964 70.341,342.385 68.901,343.101 68.226 C 343.816 67.552,345.616 65.773,347.101 64.273 C 348.585 62.773,350.668 60.703,351.730 59.673 C 352.791 58.643,354.861 56.567,356.330 55.060 C 357.798 53.553,359.876 51.483,360.948 50.460 C 362.019 49.437,363.819 47.635,364.948 46.457 C 366.076 45.278,368.241 43.118,369.757 41.657 C 371.273 40.195,372.983 38.478,373.557 37.839 C 374.131 37.200,375.466 35.850,376.525 34.839 C 377.584 33.828,379.654 31.766,381.125 30.257 C 382.596 28.749,384.916 26.428,386.281 25.099 C 387.681 23.736,388.868 22.200,389.006 21.572 C 389.173 20.811,389.623 20.331,390.431 20.049 C 391.280 19.753,391.680 19.301,391.852 18.442 C 392.020 17.601,392.424 17.131,393.214 16.855 C 393.832 16.639,394.554 16.044,394.818 15.532 C 395.082 15.019,395.706 14.150,396.205 13.600 C 396.703 13.050,397.406 11.565,397.767 10.300 C 398.280 8.499,398.594 8.000,399.211 8.000 C 399.944 8.000,400.000 7.714,400.000 4.000 L 400.000 0.000 396.000 0.000 C 392.236 0.000,392.000 0.048,392.000 0.819 C 392.000 1.322,391.521 1.899,390.754 2.319 C 390.068 2.693,388.791 3.585,387.916 4.300 C 387.041 5.015,386.084 5.600,385.791 5.600 C 385.498 5.600,384.750 6.205,384.129 6.945 C 383.508 7.685,382.597 8.500,382.104 8.757 C 381.611 9.014,380.932 9.758,380.594 10.412 C 380.254 11.069,379.654 11.600,379.252 11.600 C 378.364 11.600,377.200 12.815,377.200 13.741 C 377.200 14.174,376.769 14.506,376.008 14.658 C 375.131 14.834,374.694 15.235,374.352 16.181 C 374.024 17.088,373.522 17.574,372.644 17.833 C 371.736 18.101,371.299 18.541,371.027 19.465 C 370.750 20.405,370.361 20.788,369.511 20.958 C 368.716 21.117,368.205 21.572,367.837 22.447 C 367.524 23.192,366.808 23.917,366.086 24.221 C 365.337 24.536,364.813 25.079,364.732 25.626 C 364.659 26.117,364.285 26.672,363.900 26.859 C 363.515 27.047,362.889 27.352,362.509 27.538 C 362.129 27.724,361.720 28.292,361.600 28.800 C 361.480 29.308,361.071 29.876,360.691 30.062 C 360.311 30.248,359.685 30.553,359.300 30.740 C 358.915 30.928,358.545 31.537,358.478 32.095 C 358.386 32.859,358.061 33.168,357.160 33.348 C 356.286 33.523,355.812 33.952,355.397 34.947 C 355.025 35.835,354.468 36.397,353.788 36.567 C 353.112 36.737,352.551 37.298,352.188 38.167 C 351.850 38.976,351.258 39.599,350.691 39.741 C 350.146 39.878,349.513 40.520,349.177 41.277 C 348.827 42.068,348.222 42.664,347.638 42.798 C 347.109 42.919,346.524 43.329,346.338 43.709 C 346.152 44.089,345.848 44.711,345.662 45.091 C 345.476 45.471,344.908 45.880,344.400 46.000 C 343.487 46.215,343.071 46.715,342.634 48.119 C 342.511 48.514,341.867 49.027,341.203 49.259 C 340.447 49.523,339.904 50.044,339.751 50.654 C 339.599 51.260,338.999 51.840,338.167 52.188 C 337.298 52.551,336.737 53.112,336.567 53.788 C 336.397 54.468,335.835 55.025,334.947 55.397 C 333.952 55.812,333.523 56.286,333.348 57.160 C 333.168 58.061,332.859 58.386,332.095 58.478 C 331.537 58.545,330.928 58.915,330.740 59.300 C 330.553 59.685,330.248 60.311,330.062 60.691 C 329.876 61.071,329.308 61.480,328.800 61.600 C 328.292 61.720,327.752 62.084,327.601 62.409 C 326.747 64.246,326.435 64.612,325.625 64.732 C 325.058 64.816,324.531 65.347,324.180 66.185 C 323.824 67.038,323.259 67.599,322.588 67.767 C 321.912 67.937,321.351 68.498,320.988 69.367 C 320.625 70.236,320.063 70.798,319.389 70.967 C 318.739 71.130,318.154 71.693,317.828 72.468 C 317.523 73.193,316.801 73.920,316.086 74.221 C 315.337 74.536,314.813 75.079,314.732 75.626 C 314.659 76.117,314.285 76.672,313.900 76.859 C 313.515 77.047,312.889 77.352,312.509 77.538 C 312.129 77.724,311.720 78.292,311.600 78.800 C 311.480 79.308,311.071 79.876,310.691 80.062 C 310.311 80.248,309.685 80.553,309.300 80.740 C 308.915 80.928,308.545 81.537,308.478 82.095 C 308.386 82.859,308.061 83.168,307.160 83.348 C 306.286 83.523,305.812 83.952,305.397 84.947 C 305.025 85.835,304.468 86.397,303.788 86.567 C 303.112 86.737,302.551 87.298,302.188 88.167 C 301.850 88.976,301.258 89.599,300.691 89.741 C 300.146 89.878,299.513 90.520,299.177 91.277 C 298.827 92.068,298.222 92.664,297.638 92.798 C 297.109 92.919,296.524 93.329,296.338 93.709 C 296.152 94.089,295.848 94.711,295.662 95.091 C 295.476 95.471,294.908 95.880,294.400 96.000 C 293.487 96.215,293.071 96.715,292.634 98.119 C 292.511 98.514,291.881 99.022,291.234 99.248 C 290.508 99.501,289.910 100.084,289.670 100.770 C 289.002 102.688,286.752 102.738,284.827 100.878 C 280.255 96.462,279.208 95.650,277.922 95.527 C 276.710 95.411,276.590 95.275,276.476 93.900 C 276.358 92.481,276.277 92.400,274.976 92.400 C 273.786 92.400,273.600 92.269,273.600 91.429 C 273.600 90.134,272.600 89.200,271.215 89.200 C 270.337 89.200,270.029 88.972,269.829 88.174 C 269.529 86.978,267.554 86.000,265.438 86.000 C 264.165 86.000,264.040 85.893,263.925 84.700 L 263.800 83.400 260.900 83.282 C 258.586 83.189,256.475 82.400,258.538 82.400 C 259.258 82.400,260.400 81.099,260.400 80.280 C 260.400 79.878,260.892 79.495,261.667 79.295 C 262.364 79.114,263.084 78.659,263.267 78.283 C 263.450 77.907,263.754 77.285,263.943 76.900 C 264.131 76.515,264.626 76.136,265.043 76.057 C 266.181 75.842,266.800 75.201,266.800 74.239 C 266.800 73.643,267.180 73.232,268.025 72.913 C 268.778 72.629,269.419 72.003,269.688 71.290 C 269.979 70.520,270.542 70.007,271.363 69.765 C 272.274 69.496,272.701 69.058,272.983 68.100 C 273.262 67.150,273.599 66.800,274.234 66.800 C 275.255 66.800,275.791 66.214,276.152 64.700 C 276.320 63.998,276.679 63.600,277.146 63.600 C 278.028 63.600,279.200 62.388,279.200 61.476 C 279.200 61.086,279.650 60.708,280.300 60.552 C 281.765 60.202,282.400 59.660,282.400 58.756 C 282.400 58.282,282.911 57.797,283.806 57.423 C 284.825 56.997,285.276 56.520,285.442 55.692 C 285.600 54.898,286.033 54.412,286.860 54.100 C 287.579 53.828,288.224 53.191,288.488 52.490 C 288.777 51.725,289.344 51.205,290.151 50.965 C 290.958 50.724,291.451 50.272,291.597 49.638 C 291.719 49.109,292.129 48.524,292.509 48.338 C 292.889 48.152,293.507 47.850,293.883 47.667 C 294.259 47.484,294.714 46.764,294.895 46.067 C 295.111 45.230,295.469 44.800,295.949 44.800 C 296.827 44.800,298.000 43.587,298.000 42.680 C 298.000 42.273,298.495 41.897,299.300 41.692 C 300.271 41.445,300.692 41.054,300.965 40.145 C 301.225 39.277,301.682 38.825,302.565 38.565 C 303.467 38.298,303.901 37.857,304.176 36.924 C 304.423 36.087,304.876 35.567,305.497 35.411 C 306.017 35.281,306.811 34.550,307.261 33.787 C 307.711 33.024,308.399 32.400,308.791 32.400 C 309.613 32.400,310.252 31.726,310.457 30.643 C 310.536 30.226,310.915 29.731,311.300 29.543 C 311.685 29.354,312.307 29.050,312.683 28.867 C 313.059 28.684,313.514 27.964,313.695 27.267 C 313.911 26.430,314.269 26.000,314.749 26.000 C 315.595 26.000,316.800 24.799,316.800 23.956 C 316.800 23.637,317.351 23.167,318.025 22.913 C 318.779 22.629,319.419 22.003,319.689 21.289 C 319.950 20.597,320.597 19.950,321.289 19.689 C 321.997 19.421,322.628 18.779,322.906 18.042 C 323.177 17.327,323.696 16.787,324.181 16.717 C 324.648 16.650,325.297 16.005,325.691 15.216 C 326.071 14.455,326.833 13.595,327.386 13.306 C 327.938 13.017,328.671 12.236,329.014 11.573 C 329.358 10.909,330.076 10.166,330.612 9.922 C 331.147 9.678,331.686 9.159,331.810 8.767 C 331.934 8.376,332.635 7.459,333.366 6.728 C 334.622 5.475,336.000 2.335,336.000 0.729 C 336.000 -0.544,321.709 -0.375,321.528 0.900 C 321.441 1.514,320.978 1.937,320.071 2.230 C 319.340 2.466,318.260 3.144,317.671 3.737 C 317.082 4.329,316.105 5.184,315.500 5.636 C 314.895 6.088,314.400 6.797,314.400 7.211 C 314.400 7.754,314.012 8.037,313.009 8.225 C 311.969 8.420,310.935 9.212,308.905 11.371 C 307.412 12.958,305.654 14.604,304.997 15.028 C 303.636 15.908,298.800 20.747,298.800 21.228 C 298.800 21.403,298.459 21.654,298.042 21.787 C 297.626 21.919,296.861 22.650,296.342 23.411 C 295.824 24.172,295.249 24.796,295.065 24.797 C 294.792 24.799,292.501 27.083,290.148 29.698 C 289.900 29.974,289.180 30.678,288.548 31.262 C 287.917 31.847,287.193 32.540,286.940 32.802 C 286.344 33.421,283.421 36.344,282.802 36.940 C 282.540 37.193,281.847 37.917,281.262 38.548 C 280.678 39.180,279.974 39.900,279.698 40.148 C 277.083 42.501,274.799 44.792,274.797 45.065 C 274.796 45.249,274.172 45.824,273.411 46.342 C 272.650 46.861,271.924 47.609,271.798 48.005 C 271.414 49.215,270.400 49.328,270.400 48.161 C 270.400 46.521,269.694 45.600,268.437 45.600 C 267.422 45.600,267.275 45.431,267.046 44.000 C 266.805 42.488,266.714 42.400,265.395 42.400 C 264.115 42.400,264.000 42.302,264.000 41.214 C 264.000 39.961,263.113 39.200,261.652 39.200 C 261.040 39.200,260.821 38.892,260.725 37.900 C 260.621 36.823,260.377 36.534,259.300 36.217 C 258.489 35.978,258.000 35.577,258.000 35.150 C 258.000 33.660,257.530 33.200,256.007 33.200 C 254.666 33.200,254.475 33.073,254.269 32.046 C 253.794 29.669,249.752 29.632,249.201 32.000 C 249.005 32.844,248.705 33.019,247.284 33.123 C 245.662 33.242,245.600 33.295,245.600 34.599 C 245.600 35.873,245.513 35.959,244.100 36.076 C 242.681 36.193,242.593 36.281,242.476 37.700 C 242.365 39.038,242.233 39.200,241.256 39.200 C 239.864 39.200,239.200 39.864,239.200 41.256 C 239.200 42.233,239.038 42.365,237.700 42.476 C 236.281 42.593,236.193 42.681,236.076 44.100 C 235.958 45.519,235.877 45.600,234.576 45.600 C 233.237 45.600,233.200 45.643,233.200 47.200 L 233.200 48.800 231.600 48.800 C 230.043 48.800,230.000 48.837,230.000 50.176 C 230.000 51.477,229.919 51.558,228.500 51.676 C 227.081 51.793,226.993 51.881,226.876 53.300 C 226.765 54.638,226.633 54.800,225.656 54.800 C 224.258 54.800,223.600 55.465,223.600 56.880 C 223.600 57.798,223.425 58.000,222.633 58.000 C 220.904 58.000,220.400 58.411,220.400 59.819 C 220.400 61.070,220.308 61.159,218.900 61.276 L 217.400 61.400 217.400 65.800 L 217.400 70.200 218.860 70.322 C 220.243 70.437,220.328 70.527,220.471 72.022 L 220.621 73.600 213.279 73.600 L 205.937 73.600 204.380 75.221 C 202.283 77.404,198.703 77.512,198.465 75.400 C 198.390 74.740,198.150 73.983,197.931 73.718 C 197.641 73.368,205.740 65.027,227.532 43.228 C 248.916 21.838,257.603 12.895,257.780 12.092 C 257.947 11.332,258.408 10.821,259.196 10.524 C 259.914 10.253,260.461 9.695,260.617 9.076 C 260.771 8.462,261.344 7.872,262.084 7.565 C 262.830 7.256,263.513 6.549,263.855 5.731 C 264.160 4.999,264.598 4.400,264.826 4.400 C 265.325 4.400,266.400 1.951,266.400 0.813 C 266.400 0.022,266.177 0.000,258.200 0.000 L 250.000 0.000 250.000 0.937 C 250.000 1.600,249.585 2.097,248.581 2.637 C 247.801 3.057,246.899 3.801,246.577 4.292 C 246.256 4.782,245.446 5.466,244.779 5.811 C 244.112 6.156,243.398 6.880,243.193 7.419 C 242.980 7.978,242.498 8.400,242.072 8.400 C 241.270 8.400,240.282 9.350,239.866 10.519 C 239.726 10.914,239.062 11.429,238.392 11.663 C 237.598 11.940,236.982 12.548,236.621 13.411 C 236.257 14.283,235.749 14.781,235.134 14.868 C 234.565 14.948,233.971 15.474,233.614 16.214 C 233.291 16.881,232.485 17.691,231.822 18.014 C 231.159 18.336,230.523 19.006,230.408 19.503 C 230.291 20.012,229.595 20.709,228.812 21.103 C 227.961 21.530,227.334 22.186,227.194 22.798 C 227.064 23.363,226.625 23.858,226.182 23.939 C 225.094 24.139,224.000 25.187,224.000 26.031 C 224.000 26.486,223.495 26.905,222.583 27.206 C 221.504 27.562,221.110 27.948,220.936 28.821 C 220.763 29.685,220.367 30.081,219.336 30.421 C 218.315 30.758,217.908 31.160,217.741 31.995 C 217.575 32.824,217.224 33.175,216.395 33.341 C 215.560 33.508,215.158 33.915,214.821 34.936 C 214.481 35.967,214.085 36.363,213.221 36.536 C 212.358 36.708,211.962 37.105,211.621 38.136 C 211.275 39.184,210.889 39.562,209.976 39.745 C 209.052 39.930,208.730 40.252,208.545 41.176 C 208.362 42.089,207.984 42.475,206.936 42.821 C 205.905 43.162,205.508 43.558,205.336 44.421 C 205.163 45.285,204.767 45.681,203.736 46.021 C 202.708 46.361,202.308 46.758,202.137 47.613 C 201.978 48.412,201.559 48.876,200.739 49.161 C 199.998 49.420,199.420 49.998,199.161 50.739 C 198.876 51.559,198.412 51.978,197.613 52.137 C 196.758 52.308,196.361 52.708,196.021 53.736 C 195.681 54.767,195.285 55.163,194.421 55.336 C 193.558 55.508,193.162 55.905,192.821 56.936 C 192.475 57.984,192.089 58.362,191.176 58.545 C 190.252 58.730,189.930 59.052,189.745 59.976 C 189.562 60.889,189.184 61.275,188.136 61.621 C 187.105 61.962,186.708 62.358,186.536 63.221 C 186.364 64.081,185.967 64.481,184.953 64.816 C 184.052 65.113,183.518 65.586,183.356 66.231 C 183.018 67.581,176.400 67.769,176.400 66.429 C 176.400 64.379,176.612 64.400,155.814 64.400 C 134.920 64.400,136.000 64.289,136.000 66.433 C 136.000 67.077,135.727 67.192,134.300 67.147 L 132.600 67.095 134.000 66.847 C 135.234 66.629,135.415 66.442,135.528 65.270 C 135.630 64.207,135.894 63.856,136.840 63.526 C 137.610 63.258,138.224 62.638,138.592 61.756 C 138.947 60.907,139.436 60.400,139.900 60.400 C 140.828 60.400,141.600 59.652,141.600 58.753 C 141.600 58.356,142.233 57.756,143.100 57.333 C 144.088 56.850,144.645 56.281,144.732 55.666 C 144.820 55.045,145.320 54.542,146.225 54.164 C 147.113 53.793,147.677 53.234,147.846 52.558 C 148.014 51.888,148.528 51.374,149.296 51.107 C 150.060 50.840,150.683 50.220,151.036 49.375 C 151.391 48.526,151.909 48.012,152.493 47.929 C 153.055 47.849,153.628 47.309,154.000 46.509 L 154.600 45.217 161.851 45.209 C 170.945 45.198,170.162 45.996,170.331 36.563 C 170.460 29.407,170.482 29.245,171.331 29.124 C 171.848 29.050,172.473 28.453,172.874 27.650 C 173.245 26.907,173.965 26.092,174.474 25.838 C 174.983 25.584,175.634 24.888,175.921 24.291 C 176.207 23.694,176.901 23.089,177.464 22.948 C 178.120 22.784,178.686 22.212,179.045 21.353 C 179.408 20.484,179.970 19.922,180.644 19.753 C 181.278 19.594,181.877 19.032,182.179 18.314 C 182.452 17.666,183.108 16.920,183.637 16.656 C 184.167 16.393,184.835 15.686,185.122 15.087 C 185.410 14.488,186.155 13.733,186.779 13.411 C 187.403 13.088,188.104 12.278,188.337 11.610 C 188.581 10.907,189.191 10.232,189.782 10.007 C 190.344 9.793,191.098 9.002,191.458 8.248 C 191.817 7.494,192.505 6.698,192.986 6.479 C 193.756 6.128,195.600 1.834,195.600 0.392 C 195.600 0.150,192.761 0.000,188.200 0.000 C 181.142 0.000,180.800 0.036,180.800 0.776 C 180.800 1.645,180.353 2.016,178.600 2.600 C 177.940 2.820,177.234 3.377,177.032 3.838 C 176.829 4.299,176.150 4.870,175.522 5.107 C 174.806 5.377,174.220 5.997,173.951 6.769 C 173.715 7.446,173.314 8.001,173.061 8.002 C 172.807 8.004,172.105 8.263,171.500 8.579 L 170.400 9.153 170.400 4.576 L 170.400 0.000 156.400 0.000 L 142.400 0.000 142.400 18.395 M157.077 92.702 C 155.952 93.163,155.496 93.618,155.331 94.447 C 155.163 95.283,154.756 95.684,153.736 96.021 C 152.708 96.361,152.308 96.758,152.137 97.613 C 151.978 98.412,151.559 98.876,150.739 99.161 C 149.998 99.420,149.420 99.998,149.161 100.739 C 148.876 101.559,148.412 101.978,147.613 102.137 C 146.758 102.308,146.361 102.708,146.021 103.736 C 145.681 104.767,145.285 105.163,144.421 105.336 C 143.558 105.508,143.162 105.905,142.821 106.936 C 142.475 107.984,142.089 108.362,141.176 108.545 C 140.252 108.730,139.930 109.052,139.745 109.976 C 139.562 110.889,139.184 111.275,138.136 111.621 C 137.105 111.962,136.708 112.358,136.536 113.221 C 136.363 114.085,135.967 114.481,134.936 114.821 C 133.915 115.158,133.508 115.560,133.341 116.395 C 133.175 117.224,132.824 117.575,131.995 117.741 C 131.160 117.908,130.758 118.315,130.421 119.336 C 130.081 120.367,129.685 120.763,128.821 120.936 C 127.948 121.110,127.562 121.504,127.206 122.583 C 126.930 123.417,126.476 124.000,126.100 124.000 C 125.218 124.000,124.000 125.178,124.000 126.031 C 124.000 126.486,123.495 126.905,122.583 127.206 C 121.504 127.562,121.110 127.948,120.936 128.821 C 120.763 129.685,120.367 130.081,119.336 130.421 C 118.315 130.758,117.908 131.160,117.741 131.995 C 117.575 132.824,117.224 133.175,116.395 133.341 C 115.560 133.508,115.158 133.915,114.821 134.936 C 114.481 135.967,114.085 136.363,113.221 136.536 C 112.358 136.708,111.962 137.105,111.621 138.136 C 111.275 139.184,110.889 139.562,109.976 139.745 C 109.052 139.930,108.730 140.252,108.545 141.176 C 108.363 142.084,107.984 142.475,106.957 142.814 C 105.954 143.145,105.513 143.586,105.240 144.530 C 104.984 145.413,104.861 143.333,104.836 137.700 L 104.800 129.600 105.976 129.600 C 107.499 129.600,107.758 129.139,108.000 126.004 C 108.170 123.803,108.322 123.387,109.000 123.270 C 110.295 123.047,110.800 121.997,110.800 119.524 C 110.800 117.333,110.855 117.200,111.767 117.200 C 113.504 117.200,114.000 116.791,114.000 115.357 C 114.000 114.286,114.162 114.000,114.767 114.000 C 116.104 114.000,116.800 113.542,116.806 112.657 C 116.814 111.545,117.140 111.133,118.600 110.387 C 119.281 110.038,119.855 109.390,119.928 108.887 C 120.012 108.302,120.419 107.922,121.128 107.767 C 123.055 107.347,123.200 107.237,123.200 106.200 C 123.200 105.160,123.340 105.055,125.300 104.626 C 126.243 104.419,126.400 104.186,126.400 102.992 C 126.400 101.653,126.458 101.599,127.900 101.581 C 129.963 101.554,132.168 100.417,132.328 99.298 C 132.441 98.500,132.687 98.399,134.528 98.394 C 137.195 98.387,138.563 97.701,138.727 96.291 L 138.853 95.200 143.350 95.200 L 147.847 95.200 149.023 93.609 L 150.200 92.019 154.400 92.048 L 158.600 92.078 157.077 92.702 M214.545 105.400 C 214.418 105.730,214.165 106.000,213.983 106.000 C 213.721 106.000,210.510 109.138,205.746 114.050 C 205.556 114.247,203.915 115.857,202.100 117.629 C 200.285 119.401,198.800 121.007,198.800 121.199 C 198.800 121.390,198.459 121.654,198.042 121.787 C 197.626 121.919,196.861 122.650,196.342 123.411 C 195.824 124.172,195.249 124.796,195.065 124.797 C 194.792 124.799,192.501 127.083,190.148 129.698 C 189.900 129.974,189.180 130.678,188.548 131.262 C 187.917 131.847,187.166 132.567,186.880 132.862 C 186.208 133.557,183.557 136.208,182.862 136.880 C 182.567 137.166,181.847 137.917,181.262 138.548 C 180.678 139.180,179.974 139.900,179.698 140.148 C 177.083 142.501,174.799 144.792,174.797 145.065 C 174.796 145.249,174.172 145.824,173.411 146.342 C 172.650 146.861,171.919 147.626,171.787 148.042 C 171.654 148.459,171.390 148.800,171.199 148.800 C 171.007 148.800,169.401 150.285,167.629 152.100 C 165.857 153.915,164.212 155.580,163.974 155.800 C 163.736 156.020,162.925 156.830,162.172 157.600 L 160.804 159.000 160.802 153.491 C 160.800 148.158,160.829 147.970,161.705 147.571 C 163.245 146.869,164.000 145.026,164.000 141.968 C 164.000 139.304,164.036 139.200,164.971 139.200 C 166.623 139.200,167.200 138.215,167.200 135.396 L 167.200 132.848 168.700 132.724 C 170.119 132.607,170.207 132.519,170.324 131.100 C 170.426 129.863,170.602 129.599,171.324 129.594 C 172.657 129.585,173.100 129.139,173.408 127.499 C 173.562 126.675,173.911 126.000,174.183 126.000 C 174.920 126.000,175.899 124.757,176.231 123.400 C 176.534 122.160,178.077 120.422,178.921 120.371 C 179.838 120.315,181.802 118.946,182.186 118.097 C 182.439 117.537,183.081 117.155,184.047 116.992 C 185.334 116.775,185.554 116.571,185.775 115.395 C 186.002 114.182,186.177 114.034,187.514 113.923 C 188.913 113.807,189.007 113.713,189.123 112.317 L 189.246 110.834 192.123 110.717 L 195.000 110.600 195.125 109.300 L 195.251 108.000 197.925 107.998 C 201.784 107.995,203.593 107.403,204.134 105.968 L 204.575 104.800 209.675 104.800 C 214.044 104.800,214.742 104.886,214.545 105.400 M237.331 107.756 C 237.809 107.884,239.235 107.992,240.500 107.995 C 242.481 107.999,242.800 108.104,242.800 108.751 C 242.800 109.926,243.772 110.455,246.365 110.690 C 248.608 110.894,248.776 110.980,249.013 112.057 C 249.336 113.528,250.250 114.000,252.774 114.000 L 254.800 114.000 254.800 115.357 C 254.800 116.791,255.296 117.200,257.033 117.200 C 257.790 117.200,258.000 117.411,258.000 118.171 C 258.000 119.414,258.986 120.400,260.229 120.400 C 261.039 120.400,261.200 120.597,261.200 121.586 C 261.200 122.853,262.089 123.600,263.597 123.600 C 264.938 123.600,264.611 126.872,263.238 127.193 C 262.293 127.414,261.871 127.908,261.441 129.300 C 261.099 130.410,258.000 130.296,258.000 129.174 C 258.000 127.710,257.245 126.800,256.030 126.800 C 255.043 126.800,254.854 126.611,254.627 125.402 C 254.391 124.145,254.205 123.978,252.782 123.751 C 251.909 123.611,251.200 123.272,251.200 122.993 C 251.200 121.704,249.786 120.761,247.500 120.525 C 245.220 120.290,245.200 120.277,245.200 118.987 C 245.200 117.422,244.749 117.200,241.567 117.200 C 239.500 117.200,239.200 117.103,239.200 116.433 C 239.200 114.558,238.892 114.400,235.232 114.400 C 231.911 114.400,231.698 114.346,230.638 113.240 C 229.401 111.949,229.386 110.688,230.605 110.462 C 231.736 110.252,232.400 109.621,232.400 108.756 C 232.400 108.284,232.907 107.799,233.786 107.432 C 234.736 107.035,235.263 106.499,235.463 105.726 L 235.754 104.600 236.107 106.061 C 236.347 107.053,236.741 107.598,237.331 107.756 M211.713 138.879 C 211.981 139.049,212.785 139.191,213.500 139.194 C 214.503 139.199,214.800 139.372,214.800 139.951 C 214.800 141.470,215.881 141.794,221.439 141.939 L 226.756 142.077 226.878 143.539 C 226.992 144.900,227.098 145.008,228.437 145.120 C 229.613 145.219,229.975 145.471,230.437 146.512 C 230.823 147.384,231.406 147.898,232.291 148.147 C 233.000 148.347,233.687 148.845,233.818 149.255 C 233.948 149.665,234.177 150.006,234.327 150.013 C 236.457 150.112,237.042 154.521,235.036 155.359 C 233.953 155.812,233.527 156.267,233.348 157.160 C 233.168 158.061,232.859 158.386,232.095 158.478 C 231.175 158.589,230.863 158.933,229.999 160.791 C 229.848 161.116,229.308 161.480,228.800 161.600 C 228.292 161.720,227.724 162.129,227.538 162.509 C 227.352 162.889,227.047 163.515,226.859 163.900 C 226.672 164.285,226.117 164.659,225.626 164.732 C 225.079 164.813,224.536 165.337,224.221 166.086 C 223.920 166.801,223.193 167.523,222.468 167.828 C 221.693 168.154,221.130 168.739,220.967 169.389 C 220.798 170.063,220.236 170.625,219.367 170.988 C 218.498 171.351,217.937 171.912,217.767 172.588 C 217.599 173.259,217.038 173.824,216.185 174.180 C 215.347 174.531,214.816 175.058,214.732 175.625 C 214.660 176.116,214.285 176.672,213.900 176.859 C 213.515 177.047,212.889 177.352,212.509 177.538 C 212.129 177.724,211.720 178.292,211.600 178.800 C 211.480 179.308,211.071 179.876,210.691 180.062 C 210.311 180.248,209.685 180.553,209.300 180.740 C 208.915 180.928,208.545 181.537,208.478 182.095 C 208.386 182.859,208.061 183.168,207.160 183.348 C 206.286 183.523,205.812 183.952,205.397 184.947 C 205.025 185.835,204.468 186.397,203.788 186.567 C 203.112 186.737,202.551 187.298,202.188 188.167 C 201.850 188.976,201.258 189.599,200.691 189.741 C 200.146 189.878,199.513 190.520,199.177 191.277 C 198.827 192.068,198.222 192.664,197.638 192.798 C 196.764 192.998,196.444 193.373,195.599 195.191 C 195.448 195.516,194.908 195.880,194.400 196.000 C 193.487 196.215,193.071 196.715,192.634 198.119 C 192.511 198.514,191.867 199.027,191.203 199.259 C 190.447 199.523,189.904 200.044,189.751 200.654 C 189.599 201.260,188.999 201.840,188.167 202.188 C 187.298 202.551,186.737 203.112,186.567 203.788 C 186.397 204.468,185.835 205.025,184.947 205.397 C 183.952 205.812,183.523 206.286,183.348 207.160 C 183.168 208.061,182.859 208.386,182.095 208.478 C 181.537 208.545,180.928 208.915,180.740 209.300 C 180.553 209.685,180.248 210.311,180.062 210.691 C 179.876 211.071,179.308 211.480,178.800 211.600 C 177.959 211.799,177.636 212.185,176.796 214.000 C 176.643 214.330,176.116 214.660,175.625 214.732 C 175.058 214.816,174.531 215.347,174.180 216.185 C 173.824 217.038,173.259 217.599,172.588 217.767 C 171.912 217.937,171.351 218.498,170.988 219.367 C 170.625 220.236,170.063 220.798,169.389 220.967 C 168.739 221.130,168.154 221.693,167.828 222.468 C 167.523 223.193,166.801 223.920,166.086 224.221 C 165.337 224.536,164.813 225.079,164.732 225.626 C 164.659 226.117,164.285 226.672,163.900 226.859 C 163.515 227.047,162.889 227.352,162.509 227.538 C 162.129 227.724,161.720 228.292,161.600 228.800 C 161.401 229.641,161.012 229.966,159.200 230.803 C 158.870 230.956,158.545 231.537,158.478 232.095 C 158.386 232.859,158.061 233.168,157.160 233.348 C 156.286 233.523,155.812 233.952,155.397 234.947 C 155.025 235.835,154.468 236.397,153.788 236.567 C 153.112 236.737,152.551 237.298,152.188 238.167 C 151.850 238.976,151.258 239.599,150.691 239.741 C 150.146 239.878,149.513 240.520,149.177 241.277 C 148.827 242.068,148.222 242.664,147.638 242.798 C 146.693 243.014,146.272 243.507,145.841 244.900 C 145.640 245.551,144.512 245.600,129.581 245.600 L 113.537 245.600 112.000 244.000 C 110.496 242.435,110.402 242.400,107.689 242.400 L 104.916 242.400 104.545 241.100 C 104.243 240.044,103.891 239.730,102.671 239.425 L 101.167 239.051 102.484 238.625 C 103.451 238.313,103.899 237.865,104.173 236.935 C 104.450 235.995,104.839 235.612,105.690 235.442 C 106.520 235.276,106.997 234.826,107.423 233.806 C 107.746 233.033,108.219 232.400,108.474 232.400 C 109.217 232.400,110.400 231.140,110.400 230.349 C 110.400 229.869,110.830 229.511,111.667 229.295 C 112.364 229.114,113.056 228.704,113.204 228.383 C 114.028 226.602,114.357 226.187,115.043 226.057 C 116.181 225.842,116.800 225.201,116.800 224.239 C 116.800 223.643,117.180 223.232,118.025 222.913 C 118.778 222.629,119.419 222.003,119.688 221.290 C 119.979 220.520,120.542 220.007,121.363 219.765 C 122.274 219.496,122.701 219.058,122.983 218.100 C 123.262 217.150,123.599 216.800,124.234 216.800 C 125.255 216.800,125.791 216.214,126.152 214.700 C 126.308 214.050,126.686 213.600,127.076 213.600 C 127.988 213.600,129.200 212.428,129.200 211.546 C 129.200 211.079,129.598 210.720,130.300 210.552 C 131.765 210.202,132.400 209.660,132.400 208.756 C 132.400 208.282,132.911 207.797,133.806 207.423 C 134.825 206.997,135.276 206.520,135.442 205.692 C 135.600 204.898,136.033 204.412,136.860 204.100 C 137.579 203.828,138.224 203.191,138.488 202.490 C 138.777 201.725,139.344 201.205,140.151 200.965 C 140.958 200.724,141.451 200.272,141.597 199.638 C 141.719 199.109,142.129 198.524,142.509 198.338 C 142.889 198.152,143.507 197.850,143.883 197.667 C 144.259 197.484,144.714 196.764,144.895 196.067 C 145.095 195.292,145.478 194.800,145.880 194.800 C 146.787 194.800,148.000 193.627,148.000 192.749 C 148.000 192.264,148.432 191.913,149.300 191.692 C 150.271 191.445,150.692 191.054,150.965 190.145 C 151.225 189.277,151.682 188.825,152.565 188.565 C 153.467 188.298,153.901 187.857,154.176 186.924 C 154.423 186.087,154.876 185.567,155.497 185.411 C 156.017 185.281,156.811 184.550,157.261 183.787 C 157.711 183.024,158.399 182.400,158.791 182.400 C 159.613 182.400,160.252 181.726,160.457 180.643 C 160.536 180.226,160.915 179.731,161.300 179.543 C 161.685 179.354,162.307 179.050,162.683 178.867 C 163.059 178.684,163.514 177.964,163.695 177.267 C 163.895 176.492,164.278 176.000,164.680 176.000 C 165.556 176.000,166.800 174.838,166.800 174.021 C 166.800 173.627,167.318 173.213,168.100 172.983 C 169.057 172.701,169.496 172.274,169.765 171.365 C 170.027 170.474,170.474 170.027,171.365 169.765 C 172.274 169.496,172.701 169.057,172.983 168.100 C 173.193 167.385,173.629 166.800,173.951 166.800 C 174.798 166.800,176.000 165.597,176.000 164.749 C 176.000 164.269,176.430 163.911,177.267 163.695 C 177.964 163.514,178.684 163.059,178.867 162.683 C 179.050 162.307,179.354 161.685,179.543 161.300 C 179.731 160.915,180.226 160.536,180.643 160.457 C 181.739 160.250,182.400 159.610,182.400 158.756 C 182.400 158.282,182.911 157.797,183.806 157.423 C 184.826 156.997,185.276 156.520,185.442 155.690 C 185.612 154.839,185.995 154.450,186.935 154.173 C 187.856 153.901,188.299 153.464,188.565 152.565 C 188.825 151.682,189.277 151.225,190.145 150.965 C 191.054 150.692,191.445 150.271,191.692 149.300 C 191.897 148.495,192.273 148.000,192.680 148.000 C 193.587 148.000,194.800 146.827,194.800 145.949 C 194.800 145.469,195.230 145.111,196.067 144.895 C 196.764 144.714,197.484 144.259,197.667 143.883 C 197.850 143.507,198.152 142.889,198.338 142.509 C 198.524 142.129,199.109 141.719,199.638 141.597 C 200.272 141.451,200.724 140.958,200.965 140.151 C 201.205 139.344,201.725 138.777,202.490 138.488 C 203.191 138.224,203.828 137.579,204.100 136.860 C 204.412 136.033,204.898 135.600,205.692 135.442 C 206.520 135.276,206.997 134.825,207.423 133.806 C 207.797 132.911,208.282 132.400,208.756 132.400 C 209.656 132.400,210.172 131.799,210.645 130.200 C 210.909 129.307,211.029 130.223,211.113 133.785 C 211.190 136.996,211.387 138.671,211.713 138.879 M133.200 141.600 C 133.200 145.569,133.192 145.600,132.229 145.600 C 130.610 145.600,130.000 146.594,130.000 149.229 L 130.000 151.600 124.590 151.600 L 119.179 151.600 126.090 144.635 C 129.890 140.804,133.045 137.654,133.100 137.635 C 133.155 137.616,133.200 139.400,133.200 141.600 M274.542 141.694 C 274.794 141.856,275.405 141.991,275.900 141.994 C 276.754 142.000,276.800 142.156,276.800 145.038 C 276.800 148.300,277.572 150.083,279.210 150.603 C 279.951 150.838,280.000 151.232,280.000 156.947 C 280.000 163.520,280.140 164.000,282.063 164.000 C 283.162 164.000,283.167 164.011,283.283 167.100 L 283.400 170.200 286.700 170.158 C 288.515 170.135,290.000 170.184,290.000 170.267 C 290.000 170.634,285.642 174.800,285.257 174.800 C 285.021 174.800,284.620 175.189,284.366 175.663 C 283.765 176.786,276.786 183.765,275.663 184.366 C 275.189 184.620,274.800 184.997,274.800 185.204 C 274.800 185.695,260.556 200.000,260.067 200.000 C 259.861 200.000,259.389 200.462,259.019 201.027 C 258.147 202.358,252.358 208.147,251.027 209.019 C 250.462 209.389,250.000 209.861,250.000 210.067 C 250.000 210.556,235.695 224.800,235.204 224.800 C 234.997 224.800,234.620 225.189,234.366 225.663 C 233.765 226.786,226.786 233.765,225.663 234.366 C 225.189 234.620,224.800 235.017,224.800 235.247 C 224.800 235.478,222.524 237.902,219.742 240.633 L 214.685 245.600 190.327 245.600 C 168.197 245.600,166.016 245.542,166.484 244.969 C 166.768 244.622,168.241 243.137,169.757 241.669 C 171.273 240.201,172.983 238.478,173.557 237.839 C 174.131 237.200,175.466 235.850,176.525 234.839 C 177.584 233.828,179.654 231.765,181.125 230.255 C 182.596 228.746,184.764 226.586,185.941 225.455 C 187.119 224.325,188.919 222.512,189.941 221.426 C 190.964 220.341,192.385 218.901,193.101 218.226 C 193.816 217.552,195.616 215.773,197.101 214.273 C 198.585 212.773,200.668 210.703,201.730 209.673 C 202.791 208.643,204.861 206.567,206.330 205.060 C 207.798 203.553,209.876 201.483,210.948 200.460 C 212.688 198.798,213.796 197.675,218.229 193.075 C 218.904 192.374,220.344 190.964,221.429 189.941 C 222.513 188.919,224.325 187.119,225.455 185.941 C 226.586 184.764,228.746 182.596,230.255 181.125 C 231.765 179.654,233.832 177.570,234.850 176.494 C 235.867 175.418,237.127 174.187,237.650 173.758 C 238.172 173.330,239.440 172.063,240.467 170.942 C 242.026 169.241,242.366 169.028,242.530 169.652 C 242.716 170.364,243.375 170.400,256.168 170.400 C 269.882 170.400,270.192 170.370,272.100 168.838 C 273.388 167.804,272.526 164.400,270.977 164.400 C 270.495 164.400,270.400 163.173,270.400 156.934 C 270.400 148.877,270.557 149.553,268.100 147.032 C 266.522 145.412,266.897 144.228,269.860 141.473 C 271.323 140.113,272.718 138.794,272.960 138.542 C 273.284 138.204,273.490 138.519,273.742 139.742 C 273.930 140.654,274.290 141.532,274.542 141.694 M330.000 158.920 C 330.000 160.539,330.702 160.800,335.056 160.800 L 339.152 160.800 339.276 162.300 C 339.397 163.759,339.447 163.803,341.119 163.924 C 342.434 164.019,342.934 164.256,343.240 164.929 C 343.782 166.118,345.768 167.200,347.408 167.200 C 348.672 167.200,348.759 167.289,348.876 168.700 C 348.989 170.063,349.116 170.211,350.277 170.324 C 351.434 170.436,351.566 170.587,351.677 171.924 C 351.792 173.307,351.892 173.408,353.260 173.522 C 355.448 173.704,355.779 176.547,353.693 177.235 C 352.720 177.556,352.306 177.970,352.144 178.781 C 351.995 179.524,351.511 180.072,350.672 180.445 C 349.918 180.780,349.333 181.388,349.198 181.978 C 349.043 182.654,348.586 183.056,347.717 183.282 C 346.770 183.527,346.349 183.941,346.014 184.957 C 345.681 185.967,345.280 186.364,344.421 186.536 C 343.556 186.709,343.162 187.105,342.819 188.144 C 342.504 189.097,342.048 189.602,341.340 189.779 C 340.701 189.940,340.150 190.479,339.872 191.216 C 339.571 192.011,338.993 192.538,338.096 192.834 C 337.105 193.162,336.707 193.566,336.536 194.421 C 336.364 195.280,335.967 195.681,334.957 196.014 C 333.941 196.349,333.527 196.770,333.282 197.717 C 333.056 198.586,332.654 199.043,331.978 199.198 C 331.388 199.333,330.780 199.918,330.445 200.672 C 330.072 201.511,329.524 201.995,328.781 202.144 C 327.957 202.309,327.556 202.721,327.214 203.758 C 326.902 204.704,326.473 205.190,325.877 205.275 C 325.343 205.351,324.727 205.948,324.301 206.800 C 323.827 207.752,323.214 208.301,322.388 208.515 C 321.474 208.752,321.116 209.119,320.940 209.999 C 320.763 210.887,320.375 211.278,319.336 211.621 C 318.308 211.961,317.908 212.358,317.737 213.213 C 317.578 214.012,317.159 214.476,316.339 214.761 C 315.598 215.020,315.020 215.598,314.761 216.339 C 314.476 217.159,314.012 217.578,313.213 217.737 C 312.358 217.908,311.961 218.308,311.621 219.336 C 311.278 220.375,310.887 220.763,309.999 220.940 C 309.119 221.116,308.752 221.474,308.515 222.388 C 308.301 223.214,307.752 223.827,306.800 224.301 C 305.948 224.727,305.351 225.343,305.275 225.877 C 305.190 226.473,304.704 226.902,303.758 227.214 C 302.721 227.556,302.309 227.957,302.144 228.781 C 301.995 229.524,301.511 230.072,300.672 230.445 C 299.918 230.780,299.333 231.388,299.198 231.978 C 299.043 232.654,298.586 233.056,297.717 233.282 C 296.770 233.527,296.349 233.941,296.014 234.957 C 295.681 235.967,295.280 236.364,294.421 236.536 C 293.566 236.707,293.162 237.105,292.834 238.096 C 292.538 238.993,292.011 239.571,291.216 239.872 C 290.479 240.150,289.940 240.701,289.779 241.340 C 289.602 242.048,289.097 242.504,288.144 242.819 C 287.098 243.164,286.709 243.555,286.533 244.437 L 286.300 245.600 260.870 245.600 C 238.439 245.600,233.139 245.409,237.000 244.739 C 237.451 244.661,238.120 243.945,238.533 243.100 C 238.956 242.233,239.556 241.600,239.953 241.600 C 240.833 241.600,241.600 240.833,241.600 239.953 C 241.600 239.556,242.233 238.956,243.100 238.533 C 244.067 238.060,244.646 237.478,244.729 236.893 C 244.813 236.298,245.334 235.788,246.245 235.407 C 247.158 235.026,247.774 234.420,248.047 233.637 C 248.307 232.891,248.785 232.401,249.329 232.324 C 249.861 232.248,250.449 231.662,250.853 230.805 C 251.251 229.960,251.882 229.326,252.455 229.196 C 253.034 229.064,253.684 228.403,254.133 227.491 C 254.536 226.671,255.152 226.000,255.501 226.000 C 256.392 226.000,257.600 224.818,257.600 223.946 C 257.600 223.492,257.995 223.116,258.642 222.954 C 259.274 222.795,259.876 222.234,260.173 221.530 C 260.442 220.890,261.273 220.059,262.019 219.683 C 262.845 219.268,263.466 218.608,263.605 218.000 C 263.759 217.325,264.152 216.955,264.816 216.862 C 266.183 216.669,266.800 216.069,266.800 214.930 C 266.800 214.208,267.111 213.850,268.013 213.536 C 268.802 213.261,269.419 212.650,269.779 211.789 C 270.143 210.917,270.651 210.419,271.266 210.332 C 271.858 210.248,272.420 209.726,272.800 208.909 C 273.130 208.198,273.656 207.613,273.969 207.609 C 274.819 207.596,276.000 206.380,276.000 205.518 C 276.000 205.030,276.497 204.552,277.393 204.177 C 278.296 203.800,278.875 203.239,279.040 202.583 C 279.203 201.935,279.781 201.368,280.649 201.005 C 281.426 200.681,282.172 200.000,282.395 199.412 C 282.610 198.848,283.248 198.210,283.812 197.995 C 284.400 197.772,285.081 197.026,285.405 196.249 C 285.768 195.381,286.335 194.803,286.983 194.640 C 287.633 194.477,288.199 193.899,288.565 193.023 C 288.994 191.996,289.413 191.627,290.265 191.530 C 291.140 191.429,291.442 191.150,291.598 190.296 C 291.737 189.537,292.237 188.975,293.200 188.496 C 294.095 188.051,294.648 187.463,294.732 186.866 C 294.820 186.245,295.320 185.742,296.225 185.364 C 297.075 185.009,297.678 184.430,297.830 183.824 C 297.980 183.225,298.524 182.695,299.250 182.442 C 300.020 182.174,300.628 181.552,301.007 180.645 C 301.388 179.734,301.898 179.213,302.493 179.129 C 303.055 179.049,303.660 178.479,304.083 177.631 C 304.468 176.861,305.293 176.040,305.969 175.756 C 306.645 175.472,307.277 174.845,307.411 174.325 C 307.542 173.816,308.219 173.130,308.916 172.800 C 309.618 172.468,310.276 171.797,310.392 171.297 C 310.509 170.788,311.205 170.091,311.988 169.697 C 312.842 169.269,313.465 168.615,313.605 168.000 C 313.745 167.385,314.157 166.953,314.675 166.878 C 315.672 166.733,316.660 165.711,316.861 164.618 C 316.942 164.174,317.436 163.737,318.002 163.608 C 318.638 163.463,319.266 162.840,319.733 161.891 C 320.208 160.925,320.742 160.400,321.252 160.400 C 321.706 160.400,322.325 159.895,322.719 159.203 C 323.668 157.534,330.000 157.288,330.000 158.920 M139.104 180.658 C 138.286 181.240,137.523 182.005,137.407 182.358 C 137.291 182.711,136.582 183.397,135.832 183.882 C 135.081 184.367,134.143 185.312,133.747 185.982 C 133.351 186.653,132.725 187.297,132.356 187.414 C 131.987 187.531,131.261 188.250,130.742 189.011 C 130.224 189.772,129.689 190.396,129.554 190.397 C 129.170 190.402,124.800 194.690,124.797 195.065 C 124.796 195.249,124.172 195.824,123.411 196.342 C 122.650 196.861,121.919 197.626,121.787 198.042 C 121.654 198.459,121.390 198.800,121.199 198.800 C 121.007 198.800,119.401 200.285,117.629 202.100 C 115.857 203.915,114.271 205.532,114.104 205.693 C 113.708 206.075,106.198 213.584,105.746 214.050 C 105.556 214.247,103.915 215.857,102.100 217.629 C 100.285 219.401,98.800 221.007,98.800 221.199 C 98.800 221.390,98.459 221.654,98.042 221.787 C 97.626 221.919,96.861 222.650,96.342 223.411 C 95.824 224.172,95.196 224.796,94.947 224.797 C 94.699 224.799,94.003 225.445,93.401 226.234 C 92.615 227.264,92.186 227.546,91.874 227.234 C 91.635 226.995,90.936 226.800,90.320 226.800 C 89.209 226.800,89.200 226.778,89.200 224.229 C 89.200 221.384,88.627 220.400,86.971 220.400 L 86.000 220.400 86.000 212.645 L 86.000 204.889 87.356 204.635 C 88.908 204.343,89.186 203.719,89.195 200.500 C 89.199 198.694,89.308 198.400,89.971 198.400 C 91.425 198.400,92.000 197.316,92.000 194.571 L 92.000 192.000 93.600 192.000 C 95.157 192.000,95.200 191.963,95.200 190.624 C 95.200 189.323,95.281 189.242,96.700 189.124 C 98.119 189.007,98.207 188.919,98.324 187.500 C 98.445 186.034,98.486 185.999,100.124 185.953 C 103.306 185.863,104.174 185.506,104.399 184.197 C 104.602 183.015,104.642 182.997,107.602 182.800 L 110.600 182.600 110.724 181.100 L 110.848 179.600 125.719 179.600 L 140.590 179.600 139.104 180.658 M363.027 192.000 L 364.414 192.000 364.307 201.500 L 364.200 211.000 362.800 211.200 L 361.400 211.400 361.283 214.516 C 361.177 217.326,361.077 217.667,360.266 217.975 C 358.892 218.497,358.395 219.328,358.133 221.538 C 357.916 223.371,357.784 223.584,356.723 223.817 C 355.498 224.086,354.800 225.244,354.800 227.005 C 354.800 228.119,353.201 230.000,352.254 230.000 C 351.758 230.000,351.600 230.386,351.600 231.600 C 351.600 233.138,351.550 233.200,350.300 233.201 C 348.763 233.203,346.400 234.532,346.400 235.394 C 346.400 235.769,346.029 236.000,345.426 236.000 C 343.491 236.000,342.400 236.697,342.400 237.933 C 342.400 239.051,342.325 239.094,339.941 239.343 C 337.180 239.632,336.400 240.085,336.400 241.402 C 336.400 242.270,336.239 242.313,332.447 242.466 C 328.291 242.633,327.342 243.001,327.124 244.529 C 327.001 245.395,326.937 245.401,316.697 245.507 L 306.393 245.614 333.697 218.284 C 352.876 199.086,361.095 191.110,361.320 191.478 C 361.496 191.765,362.264 192.000,363.027 192.000 M186.400 274.200 C 186.126 274.530,185.660 274.800,185.365 274.800 C 185.070 274.800,184.620 275.189,184.366 275.663 C 183.765 276.786,176.786 283.765,175.663 284.366 C 175.189 284.620,174.800 284.997,174.800 285.204 C 174.800 285.695,160.556 300.000,160.067 300.000 C 159.861 300.000,159.389 300.462,159.019 301.027 C 158.147 302.358,152.358 308.147,151.027 309.019 C 150.462 309.389,150.000 309.872,150.000 310.093 C 150.000 310.314,147.573 312.882,144.606 315.801 L 139.212 321.108 139.106 310.054 L 139.000 299.000 125.895 298.895 L 112.790 298.789 114.895 296.551 C 116.053 295.320,118.241 293.118,119.757 291.657 C 121.273 290.195,122.983 288.478,123.557 287.839 C 124.131 287.200,125.466 285.850,126.525 284.839 C 127.584 283.828,129.654 281.767,131.125 280.260 C 132.596 278.752,134.694 276.637,135.787 275.560 L 137.775 273.600 162.336 273.600 C 184.124 273.600,186.842 273.668,186.400 274.200 M326.960 274.161 C 326.841 274.469,326.384 274.816,325.943 274.931 C 325.502 275.046,325.054 275.472,324.948 275.878 C 324.842 276.284,324.141 277.036,323.391 277.550 C 322.641 278.064,321.931 278.781,321.814 279.142 C 321.697 279.504,320.977 280.224,320.214 280.742 C 319.451 281.261,318.731 281.981,318.614 282.342 C 318.497 282.704,317.816 283.400,317.101 283.890 C 316.385 284.379,315.440 285.325,315.000 285.992 C 314.560 286.659,313.904 287.300,313.542 287.416 C 313.181 287.532,312.461 288.250,311.942 289.011 C 311.424 289.772,310.877 290.396,310.726 290.397 C 310.493 290.400,307.175 293.658,305.748 295.285 C 305.500 295.568,304.780 296.278,304.148 296.862 C 303.517 297.447,302.777 298.167,302.504 298.462 C 301.860 299.159,298.937 302.082,298.366 302.600 C 298.123 302.820,297.447 303.517,296.862 304.148 C 296.278 304.780,295.568 305.500,295.285 305.748 C 293.658 307.175,290.400 310.493,290.397 310.726 C 290.396 310.877,289.772 311.424,289.011 311.942 C 288.250 312.461,287.531 313.181,287.414 313.542 C 287.297 313.904,286.616 314.600,285.901 315.090 C 285.185 315.579,284.240 316.525,283.800 317.192 C 283.360 317.859,282.704 318.500,282.342 318.616 C 281.981 318.732,281.261 319.451,280.742 320.214 C 280.224 320.977,279.504 321.697,279.142 321.814 C 278.781 321.931,278.064 322.641,277.550 323.391 C 277.036 324.141,276.298 324.838,275.910 324.940 C 275.522 325.041,275.081 325.456,274.931 325.862 C 273.980 328.436,273.793 326.683,273.600 313.371 C 273.431 301.689,273.308 299.512,272.800 299.191 C 272.467 298.981,267.982 298.810,262.705 298.806 L 253.210 298.800 265.705 286.235 L 278.200 273.670 302.687 273.635 C 323.535 273.605,327.143 273.683,326.960 274.161 M396.800 276.399 C 395.810 277.267,394.488 278.474,393.861 279.081 C 393.235 279.688,392.207 280.402,391.575 280.667 C 390.916 280.944,390.324 281.565,390.183 282.126 C 390.018 282.784,389.524 283.219,388.669 283.459 C 387.823 283.697,387.219 284.223,386.859 285.036 C 386.544 285.745,385.821 286.443,385.134 286.703 C 384.420 286.972,383.775 287.611,383.511 288.311 C 383.261 288.975,382.606 289.649,381.983 289.884 C 381.384 290.110,380.648 290.806,380.347 291.431 C 380.046 292.055,379.367 292.668,378.838 292.792 C 378.309 292.916,377.724 293.329,377.538 293.709 C 377.352 294.089,377.047 294.715,376.859 295.100 C 376.672 295.485,376.139 295.857,375.676 295.926 C 375.135 296.006,374.656 296.542,374.338 297.421 C 373.978 298.416,373.483 298.909,372.521 299.226 C 371.643 299.516,371.117 299.992,370.953 300.645 C 370.801 301.252,370.208 301.836,369.407 302.171 C 368.579 302.517,367.958 303.145,367.693 303.904 C 367.430 304.659,366.911 305.186,366.270 305.347 C 365.575 305.521,365.119 306.034,364.800 307.000 C 364.450 308.060,364.115 308.400,363.418 308.400 C 362.403 308.400,361.761 309.001,361.543 310.157 C 361.464 310.574,361.085 311.069,360.700 311.257 C 360.315 311.446,359.685 311.753,359.300 311.940 C 358.915 312.128,358.544 312.747,358.476 313.317 C 358.382 314.096,358.009 314.467,356.975 314.808 C 356.046 315.115,355.520 315.581,355.353 316.245 C 355.201 316.852,354.608 317.436,353.807 317.771 C 352.979 318.117,352.358 318.745,352.093 319.504 C 351.830 320.259,351.311 320.786,350.670 320.947 C 349.991 321.117,349.520 321.630,349.227 322.518 C 348.907 323.489,348.453 323.938,347.508 324.218 C 346.645 324.475,346.152 324.915,346.003 325.562 C 345.881 326.091,345.471 326.676,345.091 326.862 C 344.711 327.048,344.089 327.352,343.709 327.538 C 343.329 327.724,342.919 328.309,342.798 328.838 C 342.664 329.426,342.066 330.027,341.262 330.384 C 340.376 330.777,339.876 331.318,339.732 332.042 C 339.573 332.837,339.211 333.178,338.342 333.352 C 337.515 333.517,337.010 333.960,336.637 334.847 C 336.317 335.607,335.607 336.317,334.847 336.637 C 333.960 337.010,333.517 337.515,333.352 338.342 C 333.175 339.223,332.839 339.572,332.004 339.739 C 331.226 339.895,330.766 340.323,330.473 341.161 L 330.055 342.361 319.841 342.481 C 306.829 342.633,308.245 341.218,308.058 354.248 L 307.911 364.473 306.753 364.876 C 306.043 365.124,305.501 365.657,305.351 366.254 C 305.201 366.851,304.603 367.439,303.807 367.771 C 302.979 368.117,302.358 368.745,302.093 369.504 C 301.830 370.259,301.311 370.786,300.670 370.947 C 299.991 371.117,299.520 371.630,299.227 372.518 C 298.907 373.489,298.453 373.938,297.508 374.218 C 296.645 374.475,296.152 374.915,296.003 375.562 C 295.802 376.436,295.427 376.756,293.609 377.601 C 293.284 377.752,292.916 378.309,292.792 378.838 C 292.668 379.367,292.055 380.046,291.431 380.347 C 290.806 380.648,290.110 381.384,289.884 381.983 C 289.649 382.606,288.975 383.261,288.311 383.511 C 287.611 383.775,286.972 384.420,286.703 385.134 C 286.443 385.821,285.745 386.544,285.036 386.859 C 284.216 387.223,283.697 387.823,283.453 388.691 C 283.253 389.400,282.742 390.091,282.317 390.226 C 281.892 390.361,281.234 390.982,280.854 391.607 C 280.475 392.231,279.671 393.250,279.068 393.871 C 273.059 400.059,273.021 400.000,283.000 400.000 C 290.955 400.000,291.200 399.976,291.200 399.194 C 291.200 398.675,291.671 398.163,292.517 397.759 C 293.242 397.413,294.097 396.672,294.417 396.113 C 294.738 395.553,295.625 394.893,296.390 394.647 C 297.161 394.399,297.992 393.772,298.258 393.237 C 298.521 392.708,299.284 392.044,299.954 391.762 C 300.660 391.466,301.272 390.853,301.410 390.304 C 301.552 389.738,302.130 389.175,302.849 388.904 C 303.603 388.620,304.223 387.994,304.513 387.225 C 304.767 386.551,305.161 385.999,305.388 385.998 C 305.614 385.996,306.295 385.737,306.900 385.421 L 308.000 384.847 308.000 392.424 L 308.000 400.000 323.600 400.000 L 339.200 400.000 339.200 376.685 L 339.200 353.371 341.500 351.110 C 346.873 345.829,348.660 344.043,349.658 342.954 C 350.240 342.319,354.380 338.155,358.858 333.700 C 363.336 329.245,367.218 325.375,367.485 325.100 C 368.692 323.856,374.652 317.888,375.107 317.468 C 379.510 313.400,385.699 306.787,385.863 305.974 C 385.999 305.304,386.482 304.794,387.260 304.500 C 387.995 304.223,388.624 303.590,388.904 302.849 C 389.175 302.130,389.738 301.552,390.305 301.409 C 390.882 301.264,391.471 300.648,391.812 299.833 C 392.175 298.964,392.737 298.402,393.412 298.233 C 394.087 298.063,394.649 297.502,395.011 296.634 C 395.319 295.899,395.856 295.187,396.205 295.053 C 396.555 294.919,397.215 293.907,397.673 292.805 C 398.252 291.412,398.735 290.800,399.253 290.800 C 399.957 290.800,400.000 290.343,400.000 282.800 C 400.000 273.620,399.990 273.601,396.800 276.399 M241.500 359.277 C 240.895 359.870,240.399 360.500,240.397 360.677 C 240.396 360.855,239.772 361.424,239.011 361.942 C 238.250 362.461,237.531 363.181,237.414 363.542 C 237.297 363.904,236.616 364.600,235.901 365.090 C 235.185 365.579,234.240 366.525,233.800 367.192 C 233.360 367.859,232.704 368.500,232.342 368.616 C 231.981 368.732,231.261 369.451,230.742 370.214 C 230.224 370.977,229.504 371.697,229.142 371.814 C 228.781 371.931,228.064 372.641,227.550 373.391 C 227.036 374.141,226.284 374.842,225.878 374.948 C 225.472 375.054,225.054 375.472,224.948 375.878 C 224.842 376.284,224.141 377.036,223.391 377.550 C 222.641 378.064,221.931 378.781,221.814 379.142 C 221.697 379.504,220.971 380.228,220.201 380.752 C 219.430 381.275,218.800 381.831,218.800 381.987 C 218.800 382.458,216.421 385.135,212.300 389.302 C 210.155 391.470,208.400 393.565,208.400 393.957 C 208.400 394.348,207.590 395.490,206.600 396.494 L 204.800 398.320 204.800 372.757 L 204.800 347.194 223.500 328.497 L 242.200 309.800 242.400 334.000 L 242.600 358.200 241.500 359.277 M397.600 346.690 C 397.270 346.815,396.430 347.386,395.733 347.959 C 395.036 348.531,394.001 349.323,393.433 349.719 C 392.865 350.114,392.400 350.681,392.400 350.980 C 392.400 351.278,391.833 351.719,391.140 351.961 C 388.492 352.884,351.046 390.179,349.271 393.661 C 348.889 394.410,347.816 395.784,346.888 396.712 C 343.688 399.912,343.878 400.000,354.000 400.000 C 362.409 400.000,362.800 399.966,362.800 399.233 C 362.800 398.798,363.366 398.116,364.106 397.658 C 364.824 397.214,365.820 396.300,366.318 395.626 C 366.816 394.951,367.495 394.400,367.825 394.400 C 368.156 394.400,368.799 393.770,369.253 393.000 C 369.707 392.230,370.393 391.600,370.778 391.600 C 371.529 391.600,372.800 390.411,372.800 389.708 C 372.800 389.472,373.433 388.906,374.206 388.449 C 374.980 387.993,375.783 387.170,375.992 386.621 C 376.212 386.043,376.817 385.511,377.429 385.357 C 378.123 385.183,378.679 384.630,379.048 383.746 C 379.397 382.913,379.890 382.400,380.343 382.400 C 381.229 382.400,382.400 381.189,382.400 380.274 C 382.400 379.899,382.985 379.366,383.746 379.048 C 384.630 378.679,385.183 378.123,385.357 377.429 C 385.511 376.817,386.043 376.212,386.621 375.992 C 387.170 375.783,387.993 374.980,388.449 374.206 C 388.906 373.433,389.503 372.800,389.778 372.800 C 390.453 372.800,391.600 371.484,391.600 370.708 C 391.600 370.362,392.230 369.707,393.000 369.253 C 393.770 368.799,394.400 368.160,394.400 367.834 C 394.400 367.508,395.030 366.760,395.801 366.172 C 396.710 365.479,397.444 364.419,397.894 363.152 C 398.369 361.815,398.810 361.200,399.294 361.200 C 399.943 361.200,400.000 360.605,400.000 353.800 L 400.000 346.400 399.100 346.432 C 398.605 346.449,397.930 346.565,397.600 346.690 " stroke="none" fill="#040404" fill-rule="evenodd"></path><path id="path1" d="" stroke="none" fill="#080404" fill-rule="evenodd"></path><path id="path2" d="" stroke="none" fill="#080404" fill-rule="evenodd"></path><path id="path3" d="" stroke="none" fill="#080404" fill-rule="evenodd"></path><path id="path4" d="" stroke="none" fill="#080404" fill-rule="evenodd"></path></g></svg>