<svg id="svg" version="1.1" xmlns="http://www.w3.org/2000/svg" xmlns:xlink="http://www.w3.org/1999/xlink" width="400" height="400" viewBox="0, 0, 400,400"><g id="svgg"><path id="path0" d="M32.394 8.300 C 22.978 17.530,19.421 21.091,7.900 32.823 L 0.000 40.868 0.000 48.834 C 0.000 53.215,0.076 56.800,0.168 56.800 C 0.261 56.800,1.033 56.125,1.885 55.300 C 2.736 54.475,6.269 51.100,9.735 47.800 C 13.202 44.500,19.584 38.225,23.919 33.856 C 28.254 29.487,32.490 25.257,33.333 24.456 C 34.176 23.655,35.405 22.432,36.063 21.737 C 36.722 21.043,40.172 17.527,43.730 13.924 C 50.609 6.960,56.123 1.172,56.574 0.443 C 56.770 0.125,54.597 -0.000,48.854 -0.000 L 40.861 0.000 32.394 8.300 M109.400 1.699 C 77.372 33.598,6.400 104.574,3.700 107.408 L 0.000 111.290 0.000 119.289 L 0.000 127.288 4.095 123.544 C 9.498 118.605,120.547 7.560,124.344 3.300 L 127.285 0.000 119.142 0.053 L 111.000 0.106 109.400 1.699 M180.000 1.460 C 173.978 7.301,3.018 178.329,1.700 179.831 L 0.000 181.768 0.000 189.484 C 0.000 193.728,0.114 197.200,0.254 197.200 C 1.644 197.200,197.200 1.645,197.200 0.255 C 197.200 0.115,193.645 0.023,189.300 0.051 L 181.400 0.102 180.000 1.460 M237.906 13.600 C 230.370 21.080,224.083 27.200,223.935 27.200 C 223.788 27.200,223.603 27.391,223.525 27.624 C 223.409 27.973,170.653 80.899,149.517 101.872 C 146.372 104.992,135.665 115.702,125.721 125.672 C 115.778 135.643,107.318 144.085,106.921 144.433 C 106.525 144.780,105.643 145.680,104.962 146.433 C 104.281 147.185,103.201 148.266,102.562 148.835 C 101.923 149.405,100.933 150.395,100.363 151.035 C 98.739 152.859,95.294 156.000,94.917 156.000 C 94.730 156.000,94.317 156.360,94.000 156.800 C 93.683 157.240,93.232 157.600,92.998 157.600 C 92.177 157.600,82.800 166.375,82.800 167.144 C 82.800 167.326,82.350 167.999,81.800 168.638 C 81.251 169.277,80.801 169.946,80.800 170.123 C 80.800 170.676,75.326 176.202,33.891 217.480 C 32.301 219.064,24.025 227.390,15.500 235.983 L 0.000 251.606 0.000 259.603 C 0.000 264.001,0.114 267.600,0.253 267.600 C 0.906 267.600,11.485 257.259,41.870 226.919 L 74.800 194.038 74.800 198.219 C 74.800 200.740,74.959 202.400,75.200 202.400 C 75.420 202.400,75.600 203.109,75.600 203.976 C 75.600 204.843,75.780 205.664,76.000 205.800 C 76.220 205.936,76.400 206.577,76.400 207.224 C 76.400 207.871,76.560 208.400,76.755 208.400 C 76.950 208.400,77.231 209.210,77.379 210.200 C 77.528 211.190,77.818 212.000,78.025 212.000 C 78.231 212.000,78.400 212.360,78.400 212.800 C 78.400 213.240,78.580 213.600,78.800 213.600 C 79.020 213.600,79.200 213.960,79.200 214.400 C 79.200 214.840,79.380 215.200,79.600 215.200 C 79.820 215.200,80.000 215.560,80.000 216.000 C 80.000 216.440,80.180 216.800,80.400 216.800 C 80.620 216.800,80.800 217.036,80.800 217.325 C 80.800 217.613,81.120 218.198,81.511 218.625 C 81.902 219.051,82.665 220.030,83.206 220.800 C 84.278 222.324,87.794 226.000,88.181 226.000 C 88.313 226.000,89.245 226.824,90.252 227.831 L 92.082 229.661 91.141 230.673 C 90.623 231.230,88.775 233.061,87.034 234.743 C 85.292 236.424,83.582 238.094,83.234 238.454 C 81.276 240.475,41.715 280.107,36.824 284.948 C 33.621 288.118,24.025 297.747,15.500 306.346 L 0.000 321.981 0.000 330.010 C 0.000 336.731,0.090 337.988,0.553 337.720 C 1.891 336.946,19.044 320.023,59.767 279.300 C 99.899 239.169,104.400 234.802,104.400 236.000 C 104.400 236.220,104.940 236.400,105.600 236.400 C 106.260 236.400,106.800 236.562,106.800 236.760 C 106.800 237.498,111.142 237.701,132.184 237.947 L 153.768 238.200 150.384 241.753 C 148.523 243.707,146.388 245.867,145.641 246.553 C 144.893 247.239,143.653 248.470,142.886 249.290 C 142.118 250.109,141.335 250.683,141.145 250.566 C 140.451 250.137,140.826 250.863,141.804 251.840 C 143.601 253.638,144.734 257.899,143.600 258.600 C 143.380 258.736,143.200 259.197,143.200 259.624 C 143.200 260.051,143.020 260.400,142.800 260.400 C 142.580 260.400,142.400 260.670,142.400 261.000 C 142.400 261.330,142.220 261.600,142.000 261.600 C 141.780 261.600,141.600 261.788,141.600 262.017 C 141.600 262.246,141.423 262.651,141.207 262.917 C 140.283 264.054,134.865 272.353,133.974 273.998 C 133.438 274.987,132.687 276.143,132.304 276.569 C 131.922 276.994,131.683 277.416,131.773 277.506 C 131.864 277.597,132.572 276.970,133.346 276.112 C 136.332 272.807,160.948 248.414,161.121 248.588 C 161.222 248.689,161.011 249.390,160.652 250.146 C 160.294 250.902,160.000 251.809,160.000 252.160 C 160.000 252.512,159.820 252.800,159.600 252.800 C 159.380 252.800,159.200 253.160,159.200 253.600 C 159.200 254.040,159.020 254.400,158.800 254.400 C 158.580 254.400,158.400 254.760,158.400 255.200 C 158.400 255.640,158.220 256.000,158.000 256.000 C 157.780 256.000,157.600 256.360,157.600 256.800 C 157.600 257.240,157.420 257.600,157.200 257.600 C 156.980 257.600,156.800 257.960,156.800 258.400 C 156.800 258.840,156.665 259.201,156.500 259.203 C 156.141 259.207,155.200 261.144,155.200 261.880 C 155.200 262.166,155.065 262.401,154.900 262.401 C 154.735 262.402,154.150 263.392,153.600 264.600 C 153.050 265.808,152.465 266.798,152.300 266.799 C 152.135 266.799,152.000 267.034,152.000 267.320 C 152.000 268.056,151.059 269.993,150.700 269.997 C 150.535 269.999,150.400 270.253,150.400 270.562 C 150.400 271.228,148.732 274.541,148.300 274.733 C 148.135 274.807,148.000 275.083,148.000 275.348 C 148.000 275.613,147.010 277.803,145.801 280.215 C 144.591 282.627,143.601 284.825,143.601 285.100 C 143.600 285.375,143.420 285.600,143.200 285.600 C 142.980 285.600,142.800 285.845,142.800 286.144 C 142.800 286.801,140.324 291.745,139.900 291.933 C 139.735 292.007,139.600 292.412,139.600 292.833 C 139.600 293.255,139.420 293.600,139.200 293.600 C 138.980 293.600,138.800 293.837,138.800 294.126 C 138.800 294.415,137.540 297.148,136.000 300.200 C 134.460 303.252,133.200 305.985,133.200 306.274 C 133.200 306.563,133.020 306.800,132.800 306.800 C 132.580 306.800,132.400 307.160,132.400 307.600 C 132.400 308.040,132.220 308.400,132.000 308.400 C 131.780 308.400,131.600 308.760,131.600 309.200 C 131.600 309.640,131.420 310.000,131.200 310.000 C 130.980 310.000,130.800 310.450,130.800 311.000 C 130.800 313.146,133.349 311.145,139.400 304.251 C 140.500 302.998,142.885 300.417,144.700 298.515 C 146.515 296.613,148.000 294.910,148.000 294.731 C 148.000 294.552,149.759 292.649,151.909 290.503 C 154.059 288.356,156.444 285.821,157.209 284.868 C 157.974 283.916,160.130 281.543,162.000 279.594 C 165.292 276.165,171.069 270.007,173.576 267.258 C 174.249 266.519,174.800 265.760,174.800 265.571 C 174.800 265.381,176.735 263.250,179.100 260.834 C 187.392 252.367,193.200 246.048,193.200 245.496 C 193.200 245.305,194.145 244.254,195.300 243.162 C 196.455 242.070,198.120 240.459,199.000 239.582 L 200.600 237.988 212.400 238.094 L 224.200 238.200 218.907 243.440 L 213.614 248.681 215.639 249.782 C 219.073 251.652,220.240 254.605,218.993 258.273 C 218.595 259.443,218.164 260.401,218.035 260.403 C 217.906 260.405,217.592 260.855,217.338 261.403 C 216.539 263.124,217.019 262.682,229.481 250.200 L 241.662 238.000 259.808 238.000 C 271.473 238.000,278.041 237.857,278.200 237.600 C 278.336 237.380,279.337 237.200,280.424 237.200 C 281.511 237.200,282.400 237.020,282.400 236.800 C 282.400 236.580,283.019 236.400,283.776 236.400 C 284.533 236.400,285.264 236.220,285.400 236.000 C 285.536 235.780,285.999 235.600,286.429 235.600 C 287.184 235.600,287.574 235.456,289.495 234.462 C 289.987 234.208,290.662 234.000,290.995 234.000 C 291.328 234.000,291.600 233.820,291.600 233.600 C 291.600 233.380,291.960 233.200,292.400 233.200 C 292.840 233.200,293.200 233.020,293.200 232.800 C 293.200 232.580,293.560 232.400,294.000 232.400 C 294.440 232.400,294.800 232.220,294.800 232.000 C 294.800 231.780,295.160 231.600,295.600 231.600 C 296.040 231.600,296.400 231.420,296.400 231.200 C 296.400 230.980,296.760 230.800,297.200 230.800 C 297.640 230.800,298.000 230.620,298.000 230.400 C 298.000 230.180,298.236 230.000,298.525 230.000 C 298.813 230.000,299.436 229.640,299.908 229.200 C 300.380 228.760,300.927 228.400,301.124 228.400 C 301.321 228.400,302.046 227.860,302.737 227.200 C 303.428 226.540,304.174 226.000,304.396 226.000 C 304.618 226.000,304.800 225.820,304.800 225.600 C 304.800 225.380,305.025 225.202,305.300 225.204 C 305.847 225.209,313.600 217.301,313.600 216.739 C 313.600 216.549,314.140 215.828,314.800 215.137 C 315.460 214.446,316.000 213.638,316.000 213.341 C 316.000 213.043,316.158 212.800,316.351 212.800 C 316.545 212.800,316.927 212.260,317.200 211.600 C 317.473 210.940,317.855 210.400,318.049 210.400 C 318.242 210.400,318.400 210.040,318.400 209.600 C 318.400 209.160,318.546 208.800,318.725 208.800 C 318.904 208.800,319.298 208.170,319.600 207.400 C 319.902 206.630,320.296 206.000,320.475 206.000 C 320.654 206.000,320.800 205.728,320.800 205.395 C 320.800 205.062,320.959 204.477,321.153 204.095 C 322.275 201.889,324.000 196.835,324.000 195.753 C 324.000 195.317,324.225 194.735,324.500 194.460 C 325.184 193.777,325.213 170.531,324.533 168.200 C 324.276 167.320,323.840 165.790,323.563 164.800 C 323.287 163.810,322.912 162.829,322.730 162.620 C 322.549 162.411,322.400 161.837,322.400 161.344 C 322.400 160.851,322.220 160.336,322.000 160.200 C 320.509 159.278,321.736 157.963,357.700 121.928 C 377.555 102.034,395.199 84.212,396.909 82.323 L 400.017 78.889 399.909 70.945 L 399.800 63.000 395.856 66.800 C 393.687 68.890,374.647 87.835,353.544 108.900 C 332.442 129.965,315.079 147.200,314.960 147.200 C 314.650 147.200,313.600 146.109,313.600 145.787 C 313.600 145.639,312.475 144.372,311.100 142.971 C 309.725 141.570,308.223 140.013,307.763 139.512 C 306.682 138.335,304.467 136.400,304.200 136.400 C 304.086 136.400,303.428 135.860,302.737 135.200 C 302.046 134.540,301.238 134.000,300.941 134.000 C 300.643 134.000,300.400 133.842,300.400 133.649 C 300.400 133.455,299.860 133.073,299.200 132.800 C 298.540 132.527,298.000 132.145,298.000 131.951 C 298.000 131.758,297.640 131.600,297.200 131.600 C 296.760 131.600,296.400 131.420,296.400 131.200 C 296.400 130.980,296.040 130.800,295.600 130.800 C 295.160 130.800,294.800 130.620,294.800 130.400 C 294.800 130.180,294.440 130.000,294.000 130.000 C 293.560 130.000,293.200 129.820,293.200 129.600 C 293.200 129.380,292.840 129.200,292.400 129.200 C 291.960 129.200,291.600 129.020,291.600 128.800 C 291.600 128.580,291.251 128.400,290.824 128.400 C 290.397 128.400,289.939 128.225,289.807 128.012 C 289.675 127.798,288.675 127.505,287.584 127.360 C 286.493 127.215,285.600 126.952,285.600 126.774 C 285.600 126.596,285.047 126.394,284.372 126.325 C 283.213 126.207,286.168 123.172,336.674 72.600 C 366.116 43.120,392.408 16.663,395.102 13.807 L 400.000 8.614 400.000 4.307 L 400.000 0.000 396.476 0.000 C 392.540 0.000,392.528 0.006,387.402 5.000 C 386.273 6.100,384.820 7.466,384.174 8.035 C 383.529 8.604,382.439 9.684,381.754 10.435 C 381.069 11.186,379.629 12.655,378.554 13.700 C 377.479 14.745,376.369 15.825,376.086 16.100 C 375.804 16.375,372.614 19.570,368.999 23.200 C 365.383 26.830,362.242 29.980,362.017 30.200 C 361.792 30.420,357.602 34.624,352.704 39.543 C 347.807 44.462,343.376 48.872,342.858 49.343 C 342.172 49.967,321.462 70.680,315.305 76.900 C 315.033 77.175,310.763 81.450,305.815 86.400 C 300.867 91.350,296.680 95.541,296.509 95.713 C 296.339 95.885,293.230 98.980,289.600 102.591 C 285.970 106.201,282.794 109.391,282.543 109.678 C 282.292 109.965,278.750 113.485,274.673 117.500 L 267.261 124.800 263.230 124.800 C 260.810 124.800,259.200 124.960,259.200 125.200 C 259.200 125.814,256.418 125.675,255.771 125.029 C 255.457 124.714,255.200 124.174,255.200 123.829 C 255.200 123.483,255.020 123.200,254.800 123.200 C 254.580 123.200,254.400 122.840,254.400 122.400 C 254.400 121.960,254.220 121.600,254.000 121.600 C 253.780 121.600,253.600 121.364,253.600 121.075 C 253.600 120.787,253.240 120.164,252.800 119.692 C 252.360 119.220,252.000 118.596,252.000 118.305 C 252.000 118.014,251.640 117.517,251.200 117.200 C 250.760 116.883,250.400 116.420,250.400 116.171 C 250.400 115.922,249.860 115.154,249.200 114.463 C 248.540 113.772,248.000 113.089,248.000 112.945 C 248.000 112.801,246.468 111.134,244.596 109.241 C 242.724 107.349,240.542 105.125,239.748 104.300 C 238.953 103.475,238.145 102.800,237.952 102.800 C 236.500 102.800,242.662 96.401,281.900 57.159 C 323.573 15.481,336.967 1.902,337.720 0.567 C 337.991 0.086,336.825 0.000,330.015 0.000 L 321.990 -0.000 308.318 13.500 C 300.799 20.925,294.146 27.542,293.535 28.204 C 292.610 29.206,249.291 72.473,247.255 74.429 C 246.895 74.775,246.133 75.585,245.561 76.229 C 244.990 76.873,243.910 77.958,243.161 78.641 C 242.413 79.323,238.475 83.238,234.410 87.341 C 227.508 94.307,225.200 96.081,225.200 94.418 C 225.200 94.208,224.570 93.918,223.800 93.774 C 223.030 93.629,222.400 93.351,222.400 93.155 C 222.400 92.960,222.040 92.800,221.600 92.800 C 221.160 92.800,220.800 92.620,220.800 92.400 C 220.800 92.180,220.260 92.000,219.600 92.000 C 218.940 92.000,218.400 91.820,218.400 91.600 C 218.400 91.380,217.950 91.200,217.400 91.200 C 216.850 91.200,216.400 91.020,216.400 90.800 C 216.400 90.580,215.770 90.400,215.000 90.400 C 214.230 90.400,213.600 90.220,213.600 90.000 C 213.600 89.780,213.060 89.600,212.400 89.600 C 211.740 89.600,211.200 89.420,211.200 89.200 C 211.200 88.980,210.401 88.800,209.424 88.800 C 208.447 88.800,207.536 88.620,207.400 88.400 C 207.264 88.180,206.274 88.000,205.200 88.000 C 204.126 88.000,203.136 87.820,203.000 87.600 C 202.646 87.028,184.114 87.059,183.923 87.632 C 183.843 87.870,183.153 88.005,182.389 87.932 C 181.016 87.801,181.422 87.378,218.200 50.612 C 254.283 14.540,267.600 0.982,267.600 0.320 C 267.600 0.144,264.002 0.000,259.604 0.000 L 251.608 0.000 237.906 13.600 M198.200 100.006 C 200.840 100.224,203.720 100.570,204.600 100.773 C 205.480 100.977,207.100 101.353,208.200 101.609 C 209.300 101.865,210.560 102.220,211.000 102.398 C 211.440 102.576,212.880 103.137,214.200 103.645 C 217.897 105.066,223.477 108.000,224.955 109.300 C 225.393 109.685,225.987 110.000,226.275 110.000 C 226.564 110.000,226.800 110.141,226.800 110.314 C 226.800 110.486,227.385 110.972,228.100 111.393 C 231.039 113.124,240.800 123.687,240.800 125.136 C 240.800 125.391,240.959 125.600,241.153 125.600 C 241.348 125.600,241.610 125.915,241.736 126.300 C 241.862 126.685,242.511 127.900,243.178 129.000 C 243.846 130.100,244.643 131.540,244.950 132.200 C 246.571 135.690,247.200 137.249,247.200 137.772 C 247.200 138.091,247.357 138.450,247.548 138.568 C 247.740 138.686,248.005 139.327,248.138 139.992 C 248.397 141.284,249.642 141.629,251.105 140.813 C 256.430 137.843,270.095 136.344,277.200 137.950 C 278.190 138.174,279.540 138.470,280.200 138.609 C 281.522 138.886,281.612 138.919,286.200 140.816 C 287.960 141.544,289.878 142.468,290.462 142.870 C 291.046 143.271,291.721 143.600,291.962 143.600 C 292.203 143.600,292.400 143.780,292.400 144.000 C 292.400 144.220,292.625 144.403,292.900 144.407 C 294.596 144.432,305.600 155.520,305.600 157.204 C 305.600 157.422,305.735 157.601,305.900 157.603 C 306.065 157.605,306.405 158.010,306.655 158.503 C 306.905 158.996,307.664 160.480,308.342 161.800 C 309.020 163.120,309.581 164.515,309.587 164.900 C 309.594 165.285,309.780 165.600,310.000 165.600 C 310.220 165.600,310.400 166.039,310.400 166.576 C 310.400 167.113,310.580 167.664,310.800 167.800 C 311.020 167.936,311.200 168.541,311.200 169.144 C 311.200 169.747,311.362 170.411,311.559 170.620 C 312.535 171.653,312.932 185.879,312.094 189.800 C 310.746 196.109,306.580 205.521,304.392 207.200 C 304.249 207.310,303.964 207.707,303.759 208.083 C 301.290 212.615,287.292 222.795,283.524 222.799 C 283.152 222.800,282.736 222.980,282.600 223.200 C 282.464 223.420,281.859 223.600,281.256 223.600 C 280.653 223.600,279.989 223.762,279.780 223.959 C 279.571 224.156,278.590 224.452,277.600 224.615 C 275.169 225.016,211.531 225.291,211.142 224.902 C 210.973 224.733,211.862 223.515,213.117 222.195 C 214.373 220.876,216.300 218.800,217.400 217.583 C 218.500 216.366,221.290 213.319,223.600 210.811 C 230.965 202.816,232.919 200.686,236.600 196.646 C 238.580 194.473,241.145 191.704,242.300 190.494 C 243.455 189.283,244.400 188.137,244.400 187.946 C 244.400 187.756,237.380 187.600,228.800 187.600 C 217.559 187.600,213.200 187.475,213.200 187.152 C 213.200 186.810,218.519 179.871,219.602 178.800 C 219.714 178.690,220.296 177.941,220.896 177.135 C 221.497 176.329,222.216 175.424,222.494 175.125 C 222.772 174.825,223.628 173.775,224.394 172.790 C 225.161 171.806,226.008 170.730,226.275 170.400 C 226.543 170.070,229.140 166.830,232.046 163.200 L 237.330 156.600 214.240 156.497 C 196.103 156.416,191.045 156.501,190.662 156.897 C 190.393 157.174,189.734 158.030,189.198 158.800 C 188.661 159.570,188.079 160.380,187.904 160.600 C 187.729 160.820,185.779 163.430,183.571 166.400 C 181.362 169.370,179.338 172.070,179.072 172.400 C 178.806 172.730,178.150 173.630,177.614 174.400 C 177.077 175.170,176.531 175.890,176.400 176.000 C 176.269 176.110,175.729 176.830,175.200 177.600 C 174.671 178.370,174.132 179.090,174.002 179.200 C 173.872 179.310,171.627 182.280,169.013 185.800 C 166.400 189.320,164.149 192.290,164.012 192.400 C 163.874 192.510,163.329 193.230,162.800 194.000 C 162.271 194.770,161.731 195.490,161.600 195.600 C 161.469 195.710,160.929 196.430,160.400 197.200 C 159.871 197.970,159.331 198.690,159.200 198.800 C 159.069 198.910,158.529 199.630,158.000 200.400 C 157.471 201.170,156.939 201.890,156.818 202.000 C 156.389 202.388,144.800 217.993,144.800 218.182 C 144.800 218.288,152.075 218.425,160.967 218.487 C 169.859 218.549,177.240 218.706,177.369 218.835 C 177.499 218.965,176.922 220.405,176.087 222.035 L 174.570 225.000 143.807 225.103 C 123.568 225.170,112.907 225.067,112.643 224.803 C 112.421 224.581,111.734 224.400,111.115 224.400 C 110.496 224.400,109.677 224.241,109.295 224.047 C 108.913 223.852,108.150 223.515,107.600 223.297 C 101.530 220.894,92.800 213.991,92.800 211.595 C 92.800 211.378,92.663 211.200,92.496 211.200 C 92.218 211.200,89.931 206.918,89.184 205.000 C 87.871 201.628,87.200 197.842,87.200 193.800 C 87.200 189.758,87.871 185.972,89.184 182.600 C 89.931 180.682,92.218 176.400,92.496 176.400 C 92.663 176.400,92.800 176.146,92.800 175.837 C 92.800 173.540,105.207 164.000,108.194 164.000 C 108.533 164.000,109.123 163.838,109.505 163.639 C 112.520 162.072,127.258 162.076,128.227 163.644 C 128.348 163.840,128.752 164.003,129.124 164.006 C 129.496 164.009,131.456 164.614,133.479 165.350 L 137.159 166.689 137.335 157.644 C 137.431 152.670,137.706 147.610,137.945 146.400 C 138.183 145.190,138.493 143.523,138.633 142.696 C 138.774 141.869,139.049 141.094,139.244 140.973 C 139.440 140.852,139.600 140.311,139.600 139.771 C 139.600 139.231,139.759 138.477,139.953 138.095 C 140.148 137.713,140.486 136.950,140.705 136.400 C 141.298 134.915,144.548 128.231,144.790 128.000 C 144.906 127.890,145.247 127.350,145.550 126.800 C 147.895 122.534,155.235 114.359,159.200 111.597 C 159.970 111.061,160.949 110.302,161.375 109.911 C 161.802 109.520,162.387 109.200,162.675 109.200 C 162.964 109.200,163.200 109.053,163.200 108.874 C 163.200 108.532,164.989 107.488,169.000 105.490 C 171.509 104.240,172.099 103.990,174.400 103.200 C 175.170 102.936,176.160 102.574,176.600 102.397 C 177.040 102.219,178.300 101.865,179.400 101.609 C 180.500 101.353,182.120 100.973,183.000 100.764 C 183.880 100.555,186.400 100.232,188.600 100.047 C 190.800 99.862,192.780 99.687,193.000 99.659 C 193.220 99.631,195.560 99.787,198.200 100.006 M399.000 133.992 C 398.105 134.779,317.724 214.836,316.800 215.861 C 316.250 216.471,315.187 217.517,314.439 218.185 C 313.690 218.853,312.610 219.914,312.039 220.541 C 311.467 221.169,272.210 260.513,224.800 307.972 C 134.205 398.661,133.600 399.270,133.600 399.718 C 133.600 399.873,137.134 400.000,141.453 400.000 L 149.307 400.000 153.529 396.100 C 169.365 381.473,256.000 293.987,256.000 292.623 C 256.000 291.840,256.180 291.200,256.400 291.200 C 256.620 291.200,256.800 290.855,256.800 290.433 C 256.800 290.012,256.957 289.607,257.149 289.533 C 257.341 289.460,261.232 283.730,265.797 276.800 C 270.362 269.870,274.210 264.110,274.349 264.000 C 274.488 263.890,274.856 263.305,275.168 262.700 C 275.480 262.095,275.885 261.600,276.068 261.600 C 276.250 261.600,276.402 261.375,276.405 261.100 C 276.408 260.825,276.765 260.150,277.197 259.600 C 277.630 259.050,279.112 256.899,280.492 254.821 C 283.855 249.753,286.099 248.435,289.786 249.361 C 291.146 249.702,294.000 252.301,294.000 253.198 C 294.000 256.062,293.589 256.450,344.484 205.512 C 371.608 178.365,395.195 154.613,396.900 152.731 L 400.000 149.308 400.000 141.454 C 400.000 133.931,399.902 133.199,399.000 133.992 M124.667 149.467 C 124.571 149.562,123.367 149.586,121.991 149.520 L 119.490 149.400 122.045 146.800 L 124.600 144.200 124.720 146.746 C 124.786 148.147,124.762 149.371,124.667 149.467 M211.572 168.774 C 212.129 169.127,211.352 170.515,209.506 172.465 C 209.228 172.759,208.508 173.659,207.906 174.465 C 207.304 175.271,206.584 176.176,206.306 176.475 C 206.028 176.775,205.172 177.825,204.406 178.810 C 203.639 179.794,202.789 180.870,202.517 181.200 C 202.246 181.530,200.287 183.960,198.163 186.600 C 196.040 189.240,193.793 192.030,193.170 192.800 C 189.715 197.068,188.000 199.341,188.000 199.651 C 188.000 199.843,194.482 200.000,202.429 200.000 C 214.524 200.000,216.838 200.090,216.729 200.554 C 216.658 200.859,214.417 203.424,211.748 206.254 C 209.079 209.085,204.592 213.920,201.777 217.000 C 186.492 233.720,182.521 237.855,182.129 237.463 C 181.951 237.285,185.270 230.268,189.504 221.869 L 197.202 206.600 183.001 206.495 C 175.190 206.437,168.800 206.240,168.800 206.056 C 168.800 205.709,176.274 195.552,176.788 195.200 C 176.949 195.090,177.152 194.812,177.240 194.582 C 177.399 194.168,190.374 176.783,190.811 176.400 C 190.936 176.290,191.471 175.570,192.000 174.800 C 192.529 174.030,193.061 173.310,193.183 173.200 C 193.305 173.090,193.937 172.286,194.588 171.414 C 196.959 168.237,196.446 168.399,204.100 168.406 C 207.895 168.409,211.257 168.575,211.572 168.774 M382.099 220.900 C 372.725 230.195,364.542 238.355,363.914 239.033 C 363.286 239.711,352.679 250.331,340.344 262.633 C 328.008 274.935,317.439 285.524,316.858 286.165 C 316.276 286.805,315.267 287.795,314.615 288.365 C 313.963 288.934,312.900 289.978,312.254 290.685 C 311.608 291.392,307.388 295.622,302.877 300.085 C 298.365 304.548,294.154 308.757,293.518 309.438 C 292.882 310.120,282.273 320.740,269.942 333.038 C 257.610 345.337,247.044 355.924,246.461 356.565 C 245.877 357.205,244.873 358.195,244.229 358.765 C 243.585 359.334,242.775 360.093,242.429 360.452 C 240.094 362.873,225.327 377.706,224.285 378.677 C 220.571 382.141,204.000 399.213,204.000 399.576 C 204.000 399.861,206.599 399.996,211.900 399.989 L 219.800 399.977 225.737 394.289 C 233.384 386.962,385.845 234.501,393.892 226.134 L 399.984 219.800 399.992 211.900 C 399.997 206.541,399.862 204.000,399.571 204.000 C 399.335 204.000,391.473 211.605,382.099 220.900 M136.200 326.182 C 69.446 393.066,63.200 399.362,63.200 399.759 C 63.200 399.891,66.734 400.000,71.053 400.000 L 78.907 400.000 83.144 396.100 C 85.475 393.955,108.509 371.095,134.331 345.300 C 160.153 319.505,181.412 298.400,181.572 298.400 C 181.733 298.400,181.643 297.325,181.372 296.010 C 180.626 292.388,180.975 291.356,184.970 285.400 C 185.855 284.080,186.809 282.762,187.090 282.471 C 187.370 282.181,187.600 281.804,187.600 281.634 C 187.600 281.464,188.050 280.801,188.600 280.162 C 189.149 279.523,189.599 278.775,189.600 278.500 C 189.600 278.225,189.750 278.000,189.932 278.000 C 190.115 278.000,190.520 277.505,190.832 276.900 C 191.145 276.295,191.715 275.451,192.100 275.025 C 192.485 274.598,192.800 274.013,192.800 273.725 C 192.800 273.436,192.968 273.200,193.173 273.200 C 193.378 273.200,193.653 272.862,193.784 272.449 C 193.916 272.036,194.468 271.181,195.012 270.549 C 195.556 269.917,196.276 268.860,196.612 268.200 C 197.306 266.834,197.741 266.113,199.319 263.707 C 199.935 262.768,200.385 262.013,200.319 262.028 C 200.254 262.044,171.400 290.913,136.200 326.182 M394.450 279.100 C 385.705 287.674,383.034 290.320,379.333 294.077 C 377.316 296.125,372.996 300.446,369.733 303.679 C 366.470 306.913,359.030 314.349,353.200 320.204 C 347.370 326.059,341.880 331.539,341.000 332.382 C 340.120 333.224,335.948 337.398,331.729 341.657 C 327.510 345.916,322.380 351.033,320.329 353.028 C 318.278 355.024,316.224 357.094,315.764 357.628 C 315.304 358.163,314.314 359.147,313.564 359.815 C 312.814 360.483,311.730 361.563,311.156 362.215 C 310.582 362.867,308.242 365.230,305.956 367.467 C 303.670 369.703,300.514 372.853,298.941 374.467 C 297.369 376.080,295.479 377.947,294.741 378.615 C 294.004 379.283,292.933 380.363,292.362 381.015 C 291.792 381.667,290.892 382.579,290.362 383.043 C 288.067 385.054,274.400 399.223,274.400 399.592 C 274.400 399.855,277.180 400.000,282.240 400.000 L 290.079 400.000 291.968 398.100 C 293.622 396.435,296.736 393.465,302.221 388.319 C 303.090 387.504,303.999 386.604,304.241 386.319 C 304.484 386.033,305.474 385.056,306.441 384.146 C 307.409 383.236,308.485 382.156,308.833 381.746 C 309.180 381.336,310.080 380.442,310.833 379.761 C 311.585 379.080,312.949 377.730,313.865 376.761 C 314.781 375.792,319.069 371.490,323.393 367.200 C 327.717 362.910,331.942 358.680,332.782 357.800 C 333.621 356.920,334.644 355.912,335.054 355.560 C 335.464 355.208,337.276 353.408,339.079 351.560 C 340.882 349.712,345.043 345.540,348.324 342.290 C 351.606 339.039,354.922 335.709,355.694 334.890 C 356.466 334.070,358.786 331.735,360.849 329.699 C 362.912 327.664,364.806 325.774,365.059 325.499 C 365.311 325.225,367.201 323.343,369.259 321.317 C 372.298 318.326,385.325 305.343,386.836 303.800 C 387.051 303.580,388.413 302.140,389.862 300.600 C 391.311 299.060,394.185 296.053,396.248 293.917 L 400.000 290.033 400.000 282.217 C 400.000 277.574,399.846 274.400,399.622 274.400 C 399.414 274.400,397.087 276.515,394.450 279.100 M107.400 284.660 C 103.440 288.691,99.864 292.306,99.454 292.694 C 99.044 293.082,97.964 294.191,97.054 295.159 C 96.144 296.126,95.179 297.116,94.908 297.359 C 93.681 298.460,82.110 309.966,81.359 310.831 C 80.651 311.647,79.272 313.024,76.082 316.100 C 75.797 316.375,72.647 319.539,69.082 323.132 C 65.517 326.724,61.809 330.414,60.842 331.332 C 59.875 332.249,55.645 336.488,51.442 340.752 C 47.239 345.015,43.371 348.885,42.848 349.352 C 39.432 352.394,4.607 387.667,1.500 391.231 C 0.010 392.940,0.000 392.976,0.000 396.476 L 0.000 400.000 4.300 400.000 L 8.600 400.000 13.400 395.502 C 16.040 393.028,38.690 370.544,63.734 345.537 L 109.268 300.069 108.188 298.858 C 106.224 296.653,104.950 291.200,106.400 291.200 C 106.620 291.200,106.800 291.014,106.800 290.787 C 106.800 290.559,108.029 288.534,109.532 286.287 C 112.714 281.526,115.299 277.172,114.887 277.266 C 114.729 277.302,111.360 280.629,107.400 284.660 M395.793 348.100 C 386.766 356.758,345.286 398.451,344.654 399.500 C 344.417 399.893,346.047 400.000,352.293 400.000 L 360.233 400.000 365.014 395.500 C 370.754 390.097,390.640 370.218,396.100 364.425 L 400.000 360.287 400.000 352.344 C 400.000 347.975,399.921 344.400,399.825 344.400 C 399.729 344.400,397.914 346.065,395.793 348.100 " stroke="none" fill="#30383a" fill-rule="evenodd"></path><path id="path1" d="M209.741 249.417 C 209.049 249.720,208.106 250.471,207.646 251.084 C 207.185 251.698,206.626 252.418,206.403 252.685 C 206.179 252.952,205.788 253.627,205.534 254.185 C 205.280 254.743,204.920 255.200,204.736 255.200 C 204.551 255.200,204.400 255.470,204.400 255.800 C 204.400 256.130,204.220 256.400,204.000 256.400 C 203.780 256.400,203.600 256.670,203.600 257.000 C 203.600 257.330,203.420 257.600,203.200 257.600 C 202.980 257.600,202.800 257.836,202.800 258.125 C 202.800 258.413,202.440 259.036,202.000 259.508 C 201.560 259.980,201.200 260.474,201.200 260.605 C 201.200 260.736,200.525 261.873,199.700 263.131 C 197.696 266.187,197.329 266.790,196.612 268.200 C 196.276 268.860,195.556 269.917,195.012 270.549 C 194.468 271.181,193.916 272.036,193.784 272.449 C 193.653 272.862,193.378 273.200,193.173 273.200 C 192.968 273.200,192.800 273.436,192.800 273.725 C 192.800 274.013,192.485 274.598,192.100 275.025 C 191.715 275.451,191.145 276.295,190.832 276.900 C 190.520 277.505,190.115 278.000,189.932 278.000 C 189.750 278.000,189.600 278.225,189.600 278.500 C 189.599 278.775,189.149 279.523,188.600 280.162 C 188.050 280.801,187.600 281.464,187.600 281.634 C 187.600 281.804,187.370 282.181,187.090 282.471 C 186.524 283.058,183.871 286.962,182.433 289.324 C 179.055 294.874,181.533 300.400,187.400 300.400 L 190.421 300.400 192.211 298.611 C 193.195 297.626,194.000 296.626,194.000 296.387 C 194.000 296.148,194.180 296.064,194.400 296.200 C 194.620 296.336,194.800 296.116,194.800 295.712 C 194.800 295.307,195.150 294.724,195.579 294.415 C 196.007 294.107,196.273 293.719,196.171 293.553 C 196.069 293.387,196.438 292.798,196.992 292.244 C 197.547 291.690,198.000 291.050,198.000 290.823 C 198.000 290.456,198.525 289.707,199.800 288.255 C 200.020 288.005,200.455 287.305,200.768 286.700 C 201.080 286.095,201.485 285.600,201.668 285.600 C 201.850 285.600,202.000 285.404,202.000 285.165 C 202.000 284.765,204.285 281.258,204.844 280.800 C 204.978 280.690,205.403 279.987,205.787 279.238 C 206.445 277.953,206.775 277.478,207.847 276.267 C 208.093 275.990,208.420 275.366,208.574 274.881 C 208.728 274.397,209.022 274.000,209.227 274.000 C 209.432 274.000,209.600 273.730,209.600 273.400 C 209.600 273.070,209.780 272.800,210.000 272.800 C 210.220 272.800,210.400 272.564,210.400 272.275 C 210.400 271.987,210.760 271.364,211.200 270.892 C 211.640 270.420,212.000 269.929,212.000 269.801 C 212.000 269.463,213.746 267.024,214.100 266.867 C 214.265 266.793,214.400 266.512,214.400 266.242 C 214.400 265.972,214.715 265.394,215.100 264.958 C 215.988 263.953,217.183 262.009,217.471 261.100 C 217.593 260.715,217.823 260.400,217.982 260.400 C 218.598 260.400,219.715 256.139,219.457 254.773 C 218.629 250.389,213.710 247.677,209.741 249.417 M247.285 249.384 C 245.765 250.223,244.554 251.546,243.589 253.421 C 243.086 254.399,242.523 255.200,242.337 255.200 C 242.152 255.200,242.000 255.436,242.000 255.725 C 242.000 256.013,241.685 256.598,241.300 257.025 C 240.915 257.451,240.345 258.295,240.032 258.900 C 239.720 259.505,239.315 260.000,239.132 260.000 C 238.950 260.000,238.800 260.270,238.800 260.600 C 238.800 260.930,238.620 261.200,238.400 261.200 C 238.180 261.200,238.000 261.470,238.000 261.800 C 238.000 262.130,237.865 262.401,237.700 262.402 C 237.535 262.403,236.770 263.392,236.000 264.600 C 235.230 265.808,234.465 266.797,234.300 266.798 C 234.135 266.799,234.000 266.993,234.000 267.228 C 234.000 267.735,231.591 271.341,231.123 271.533 C 230.945 271.607,230.800 271.847,230.800 272.068 C 230.800 272.446,228.486 275.967,227.954 276.400 C 227.819 276.510,227.581 277.005,227.427 277.500 C 227.272 277.995,226.978 278.400,226.773 278.400 C 226.568 278.400,226.400 278.636,226.400 278.925 C 226.400 279.213,226.085 279.798,225.700 280.225 C 225.315 280.651,224.745 281.495,224.432 282.100 C 224.120 282.705,223.715 283.200,223.532 283.200 C 223.350 283.200,223.200 283.571,223.200 284.024 C 223.200 284.477,223.020 284.736,222.800 284.600 C 222.580 284.464,222.400 284.618,222.400 284.943 C 222.400 285.268,222.233 285.593,222.030 285.667 C 221.826 285.740,221.601 286.070,221.530 286.400 C 221.458 286.730,221.085 287.291,220.700 287.647 C 220.315 288.003,220.000 288.618,220.000 289.014 C 220.000 289.409,219.883 289.616,219.739 289.473 C 219.152 288.886,218.400 291.460,218.400 294.056 C 218.400 296.797,218.415 296.836,220.189 298.611 L 221.979 300.400 225.058 300.400 L 228.137 300.400 230.268 298.146 C 231.441 296.906,232.400 295.646,232.400 295.346 C 232.400 295.046,232.568 294.800,232.773 294.800 C 232.978 294.800,233.260 294.441,233.399 294.002 C 233.538 293.564,233.897 292.960,234.196 292.661 C 234.495 292.363,235.665 290.699,236.797 288.966 C 237.929 287.232,238.978 285.720,239.127 285.607 C 239.509 285.318,241.205 282.346,241.472 281.500 C 241.594 281.115,241.852 280.800,242.047 280.800 C 242.241 280.800,242.400 280.530,242.400 280.200 C 242.400 279.870,242.580 279.600,242.800 279.600 C 243.020 279.600,243.200 279.330,243.200 279.000 C 243.200 278.670,243.350 278.400,243.532 278.400 C 243.715 278.400,244.120 277.905,244.432 277.300 C 244.745 276.695,245.315 275.851,245.700 275.425 C 246.085 274.998,246.400 274.453,246.400 274.213 C 246.400 273.973,246.760 273.517,247.200 273.200 C 247.640 272.883,248.000 272.476,248.000 272.295 C 248.000 272.114,248.360 271.580,248.800 271.108 C 249.240 270.636,249.600 270.013,249.600 269.725 C 249.600 269.436,249.780 269.200,250.000 269.200 C 250.220 269.200,250.400 268.975,250.401 268.700 C 250.401 268.425,250.941 267.570,251.600 266.800 C 252.259 266.030,252.799 265.255,252.799 265.078 C 252.800 264.729,255.967 259.927,256.412 259.600 C 257.207 259.015,257.732 254.399,257.078 253.745 C 256.925 253.592,256.800 253.219,256.800 252.916 C 256.800 250.277,250.143 247.806,247.285 249.384 M285.208 249.646 C 283.641 250.272,282.838 251.155,280.337 255.000 C 279.050 256.980,277.640 259.050,277.204 259.600 C 276.768 260.150,276.408 260.825,276.405 261.100 C 276.402 261.375,276.250 261.600,276.068 261.600 C 275.885 261.600,275.480 262.095,275.168 262.700 C 274.856 263.305,274.488 263.890,274.349 264.000 C 274.210 264.110,270.362 269.870,265.797 276.800 C 261.232 283.730,257.341 289.460,257.149 289.533 C 256.957 289.607,256.800 290.012,256.800 290.433 C 256.800 290.855,256.620 291.200,256.400 291.200 C 254.960 291.200,256.017 296.838,257.789 298.611 L 259.579 300.400 262.651 300.400 C 265.983 300.400,267.406 299.483,269.453 296.018 C 269.849 295.348,270.314 294.800,270.486 294.800 C 270.659 294.800,270.800 294.564,270.800 294.275 C 270.800 293.987,271.115 293.402,271.500 292.975 C 271.885 292.549,272.454 291.708,272.764 291.107 C 273.074 290.505,273.635 289.684,274.010 289.282 C 274.384 288.880,275.006 287.886,275.391 287.075 C 275.776 286.264,276.251 285.600,276.446 285.600 C 276.641 285.600,276.800 285.330,276.800 285.000 C 276.800 284.670,276.980 284.400,277.200 284.400 C 277.420 284.400,277.600 284.130,277.600 283.800 C 277.600 283.470,277.768 283.200,277.973 283.200 C 278.178 283.200,278.453 282.862,278.584 282.449 C 278.716 282.036,279.267 281.181,279.811 280.549 C 280.354 279.917,280.799 279.175,280.800 278.900 C 280.800 278.625,280.980 278.400,281.200 278.400 C 281.420 278.400,281.600 278.130,281.600 277.800 C 281.600 277.470,281.780 277.200,282.000 277.200 C 282.220 277.200,282.400 276.930,282.400 276.600 C 282.400 276.270,282.580 276.000,282.800 276.000 C 283.020 276.000,283.200 275.807,283.200 275.571 C 283.200 275.336,283.425 274.906,283.700 274.616 C 284.660 273.605,285.600 272.389,285.600 272.159 C 285.600 271.943,288.758 267.242,289.200 266.800 C 289.310 266.690,289.743 265.925,290.163 265.100 C 290.583 264.275,291.078 263.600,291.263 263.600 C 291.448 263.600,291.600 263.280,291.600 262.888 C 291.600 262.497,291.960 261.917,292.400 261.600 C 292.840 261.283,293.200 260.703,293.200 260.312 C 293.200 259.920,293.380 259.600,293.600 259.600 C 293.820 259.600,294.000 259.240,294.000 258.800 C 294.000 258.360,294.180 258.000,294.400 258.000 C 294.620 258.000,294.800 257.201,294.800 256.224 C 294.800 255.247,294.620 254.336,294.400 254.200 C 294.180 254.064,294.000 253.639,294.000 253.255 C 294.000 252.504,291.954 250.380,290.526 249.648 C 289.467 249.105,286.568 249.104,285.208 249.646 M135.000 250.000 C 134.864 250.220,134.485 250.400,134.158 250.400 C 133.464 250.400,132.181 251.626,130.811 253.600 C 130.276 254.370,129.721 255.090,129.578 255.200 C 129.435 255.310,129.001 256.075,128.614 256.900 C 128.226 257.725,127.749 258.400,127.554 258.400 C 127.359 258.400,127.200 258.720,127.200 259.112 C 127.200 259.503,126.840 260.083,126.400 260.400 C 125.960 260.717,125.600 261.207,125.600 261.488 C 125.600 261.770,125.420 262.000,125.200 262.000 C 124.980 262.000,124.800 262.270,124.800 262.600 C 124.800 262.930,124.620 263.200,124.400 263.200 C 124.180 263.200,124.000 263.470,124.000 263.800 C 124.000 264.130,123.820 264.400,123.600 264.400 C 123.380 264.400,123.200 264.670,123.200 265.000 C 123.200 265.330,123.020 265.600,122.800 265.600 C 122.580 265.600,122.400 265.870,122.400 266.200 C 122.400 266.530,122.220 266.800,122.000 266.800 C 121.780 266.800,121.600 267.070,121.600 267.400 C 121.600 267.730,121.420 268.000,121.200 268.000 C 120.980 268.000,120.800 268.270,120.800 268.600 C 120.800 268.930,120.650 269.200,120.468 269.200 C 120.285 269.200,119.880 269.695,119.568 270.300 C 119.256 270.905,118.880 271.492,118.733 271.604 C 118.585 271.716,118.405 272.076,118.332 272.404 C 118.259 272.732,117.930 273.272,117.600 273.604 C 117.270 273.937,116.740 274.657,116.422 275.204 C 114.319 278.824,111.256 283.742,109.201 286.798 C 107.881 288.762,106.800 290.556,106.800 290.785 C 106.800 291.013,106.620 291.200,106.400 291.200 C 105.811 291.200,105.913 295.341,106.532 296.535 C 109.523 302.299,115.893 302.044,119.453 296.018 C 119.849 295.348,120.314 294.800,120.486 294.800 C 120.659 294.800,120.800 294.564,120.800 294.275 C 120.800 293.987,121.115 293.402,121.500 292.975 C 121.885 292.549,122.454 291.708,122.764 291.107 C 123.074 290.505,123.635 289.684,124.010 289.282 C 124.384 288.880,125.006 287.886,125.391 287.075 C 125.776 286.264,126.251 285.600,126.446 285.600 C 126.641 285.600,126.800 285.330,126.800 285.000 C 126.800 284.670,126.980 284.400,127.200 284.400 C 127.420 284.400,127.600 284.130,127.600 283.800 C 127.600 283.470,127.758 283.200,127.951 283.200 C 128.145 283.200,128.527 282.660,128.800 282.000 C 129.073 281.340,129.455 280.800,129.649 280.800 C 129.842 280.800,130.000 280.564,130.000 280.275 C 130.000 279.987,130.360 279.364,130.800 278.892 C 131.240 278.420,131.600 277.880,131.600 277.692 C 131.600 277.504,131.915 277.001,132.300 276.573 C 132.685 276.145,133.438 274.987,133.974 273.998 C 134.865 272.353,140.283 264.054,141.207 262.917 C 141.423 262.651,141.600 262.246,141.600 262.017 C 141.600 261.788,141.780 261.600,142.000 261.600 C 142.220 261.600,142.400 261.330,142.400 261.000 C 142.400 260.670,142.580 260.400,142.800 260.400 C 143.020 260.400,143.200 260.051,143.200 259.624 C 143.200 259.197,143.380 258.736,143.600 258.600 C 145.302 257.548,142.045 250.400,139.863 250.400 C 139.524 250.400,139.136 250.220,139.000 250.000 C 138.864 249.780,137.964 249.600,137.000 249.600 C 136.036 249.600,135.136 249.780,135.000 250.000 " stroke="none" fill="#046c8b" fill-rule="evenodd"></path><path id="path2" d="M188.000 100.636 C 172.540 102.540,158.164 110.310,150.115 121.110 C 149.504 121.929,148.892 122.690,148.754 122.800 C 147.158 124.073,141.677 134.665,140.371 139.000 C 140.106 139.880,139.746 140.960,139.572 141.400 C 139.397 141.840,139.145 142.830,139.012 143.600 C 138.879 144.370,138.577 145.900,138.342 147.000 C 138.107 148.100,137.832 153.113,137.730 158.139 C 137.562 166.469,137.486 167.260,136.873 167.071 C 136.503 166.956,133.793 166.041,130.852 165.036 C 127.730 163.971,124.109 163.037,122.152 162.794 C 109.298 161.197,96.450 168.432,90.623 180.548 C 89.477 182.931,89.220 183.759,88.182 188.400 C 86.927 194.009,88.107 202.460,90.842 207.445 C 92.182 209.889,92.603 210.603,92.819 210.800 C 92.940 210.910,93.475 211.630,94.008 212.400 C 96.622 216.176,100.001 218.968,104.600 221.154 C 106.140 221.885,107.713 222.645,108.095 222.842 C 108.477 223.039,109.152 223.200,109.595 223.200 C 110.038 223.200,110.400 223.380,110.400 223.600 C 110.400 223.820,111.109 224.000,111.976 224.000 C 112.843 224.000,113.664 224.180,113.800 224.400 C 113.961 224.661,124.451 224.800,143.964 224.800 L 173.880 224.800 175.202 222.195 C 175.929 220.763,176.391 219.458,176.229 219.295 C 176.067 219.133,168.659 218.939,159.767 218.865 C 150.875 218.791,143.600 218.600,143.600 218.441 C 143.600 218.281,143.915 217.800,144.300 217.371 C 144.685 216.941,145.630 215.769,146.400 214.765 C 147.170 213.761,148.376 212.233,149.081 211.369 C 149.785 210.506,159.113 198.100,169.809 183.800 C 180.506 169.500,189.704 157.395,190.251 156.900 L 191.245 156.000 214.122 156.006 C 226.705 156.009,237.229 156.157,237.508 156.335 C 237.870 156.564,234.496 161.042,225.835 171.829 L 213.653 187.000 217.126 187.258 C 219.037 187.399,226.150 187.534,232.933 187.558 C 240.147 187.582,245.211 187.751,245.133 187.964 C 245.001 188.324,240.600 193.195,234.800 199.400 C 233.150 201.166,230.833 203.688,229.650 205.005 C 228.468 206.322,226.478 208.480,225.227 209.800 C 223.977 211.120,222.694 212.579,222.377 213.042 C 222.060 213.505,219.823 216.001,217.406 218.588 C 214.989 221.175,212.772 223.633,212.480 224.051 C 211.575 225.342,277.618 224.856,278.980 223.561 C 279.189 223.363,279.853 223.200,280.456 223.200 C 281.059 223.200,281.664 223.020,281.800 222.800 C 281.936 222.580,282.399 222.400,282.829 222.400 C 283.259 222.400,283.923 222.242,284.305 222.050 C 284.687 221.857,286.530 220.937,288.400 220.005 C 291.763 218.329,294.607 216.486,296.714 214.618 C 297.311 214.089,298.279 213.238,298.865 212.728 C 300.453 211.345,304.925 205.833,305.860 204.108 C 306.309 203.279,307.065 201.920,307.538 201.088 C 308.012 200.256,308.400 199.311,308.400 198.988 C 308.400 198.665,308.547 198.400,308.728 198.400 C 308.908 198.400,309.304 197.489,309.607 196.375 C 309.910 195.261,310.303 194.260,310.479 194.151 C 310.656 194.042,310.800 193.369,310.800 192.656 C 310.800 191.943,310.963 191.189,311.161 190.980 C 312.434 189.641,312.424 172.156,311.150 171.369 C 310.957 171.250,310.800 170.634,310.800 170.000 C 310.800 169.366,310.620 168.736,310.400 168.600 C 310.180 168.464,310.000 167.924,310.000 167.400 C 310.000 166.876,309.820 166.336,309.600 166.200 C 309.380 166.064,309.200 165.603,309.200 165.176 C 309.200 164.749,309.020 164.400,308.800 164.400 C 308.580 164.400,308.400 164.147,308.400 163.838 C 308.400 163.172,306.732 159.859,306.300 159.667 C 306.135 159.593,306.000 159.358,306.000 159.145 C 306.000 155.010,292.997 144.013,283.800 140.370 C 280.074 138.894,273.151 137.600,268.978 137.600 C 264.929 137.600,257.258 139.033,253.800 140.435 C 249.004 142.380,248.367 142.310,247.438 139.739 C 239.148 116.785,222.575 103.392,199.000 100.598 C 193.503 99.946,193.604 99.946,188.000 100.636 " stroke="none" fill="#e4ecf2" fill-rule="evenodd"></path><path id="path3" d="M196.605 169.595 C 196.209 170.032,189.897 178.357,182.578 188.095 L 169.270 205.800 183.202 206.000 C 190.865 206.110,197.248 206.314,197.386 206.452 C 197.525 206.591,194.389 213.155,190.419 221.040 C 182.520 236.726,182.210 237.520,185.300 234.162 C 186.455 232.907,187.850 231.396,188.400 230.803 C 209.308 208.278,216.174 200.795,216.333 200.363 C 216.412 200.150,210.425 200.000,201.833 200.000 C 193.785 200.000,187.200 199.908,187.200 199.796 C 187.200 199.504,210.938 169.827,211.300 169.667 C 212.664 169.061,210.607 168.800,204.462 168.800 C 197.847 168.800,197.271 168.858,196.605 169.595 " stroke="none" fill="#f7e044" fill-rule="evenodd"></path><path id="path4" d="M193.105 99.883 C 193.602 99.979,194.322 99.975,194.705 99.875 C 195.087 99.775,194.680 99.696,193.800 99.701 C 192.920 99.705,192.607 99.787,193.105 99.883 M186.000 100.269 C 185.230 100.347,183.790 100.601,182.800 100.833 C 181.810 101.066,180.190 101.440,179.200 101.665 C 178.210 101.890,177.040 102.219,176.600 102.397 C 176.160 102.574,175.170 102.936,174.400 103.200 C 172.099 103.990,171.509 104.240,169.000 105.490 C 164.989 107.488,163.200 108.532,163.200 108.874 C 163.200 109.053,162.964 109.200,162.675 109.200 C 162.387 109.200,161.802 109.520,161.375 109.911 C 160.949 110.302,159.970 111.061,159.200 111.597 C 155.235 114.359,147.895 122.534,145.550 126.800 C 145.247 127.350,144.906 127.890,144.790 128.000 C 144.548 128.231,141.298 134.915,140.705 136.400 C 140.486 136.950,140.148 137.713,139.953 138.095 C 139.759 138.477,139.600 139.231,139.600 139.771 C 139.600 140.311,139.440 140.852,139.244 140.973 C 139.049 141.094,138.774 141.869,138.633 142.696 C 138.493 143.523,138.183 145.190,137.945 146.400 C 137.706 147.610,137.431 152.670,137.335 157.644 L 137.159 166.689 133.479 165.350 C 131.456 164.614,129.496 164.009,129.124 164.006 C 128.752 164.003,128.336 163.820,128.200 163.600 C 128.064 163.380,127.468 163.212,126.876 163.227 C 126.033 163.248,132.185 165.614,136.873 167.070 C 137.486 167.260,137.562 166.469,137.730 158.139 C 137.832 153.113,138.107 148.100,138.342 147.000 C 138.577 145.900,138.879 144.370,139.012 143.600 C 139.145 142.830,139.397 141.840,139.572 141.400 C 139.746 140.960,140.106 139.880,140.371 139.000 C 141.677 134.665,147.158 124.073,148.754 122.800 C 148.892 122.690,149.504 121.929,150.115 121.110 C 157.993 110.540,172.884 102.376,187.200 100.778 C 189.070 100.569,190.960 100.333,191.400 100.253 C 192.423 100.069,187.855 100.082,186.000 100.269 M196.200 100.221 C 196.640 100.318,198.530 100.569,200.400 100.778 C 213.276 102.215,224.798 107.931,234.028 117.461 C 239.670 123.287,242.830 128.274,246.410 137.000 C 246.590 137.440,247.053 138.673,247.438 139.739 C 248.367 142.310,249.004 142.380,253.800 140.435 C 257.258 139.033,264.929 137.600,268.978 137.600 C 273.151 137.600,280.074 138.894,283.800 140.370 C 292.997 144.013,306.000 155.010,306.000 159.145 C 306.000 159.358,306.135 159.593,306.300 159.667 C 306.732 159.859,308.400 163.172,308.400 163.838 C 308.400 164.147,308.580 164.400,308.800 164.400 C 309.020 164.400,309.200 164.749,309.200 165.176 C 309.200 165.603,309.380 166.064,309.600 166.200 C 309.820 166.336,310.000 166.876,310.000 167.400 C 310.000 167.924,310.180 168.464,310.400 168.600 C 310.620 168.736,310.800 169.366,310.800 170.000 C 310.800 170.634,310.957 171.250,311.150 171.369 C 312.424 172.156,312.434 189.641,311.161 190.980 C 310.963 191.189,310.800 191.943,310.800 192.656 C 310.800 193.369,310.656 194.042,310.479 194.151 C 310.303 194.260,309.910 195.261,309.607 196.375 C 309.304 197.489,308.908 198.400,308.728 198.400 C 308.547 198.400,308.400 198.665,308.400 198.988 C 308.400 199.311,308.012 200.256,307.538 201.088 C 307.065 201.920,306.309 203.279,305.860 204.108 C 304.925 205.833,300.453 211.345,298.865 212.728 C 298.279 213.238,297.311 214.089,296.714 214.618 C 294.607 216.486,291.763 218.329,288.400 220.005 C 286.530 220.937,284.687 221.857,284.305 222.050 C 283.923 222.242,283.259 222.400,282.829 222.400 C 282.399 222.400,281.936 222.580,281.800 222.800 C 281.664 223.020,281.059 223.200,280.456 223.200 C 279.853 223.200,279.189 223.363,278.980 223.561 C 277.618 224.856,211.575 225.342,212.480 224.051 C 212.772 223.633,214.989 221.175,217.406 218.588 C 219.823 216.001,222.060 213.505,222.377 213.042 C 222.694 212.579,223.977 211.120,225.227 209.800 C 226.478 208.480,228.468 206.322,229.650 205.005 C 230.833 203.688,233.150 201.166,234.800 199.400 C 244.323 189.211,245.694 187.600,244.833 187.600 C 244.595 187.600,244.400 187.756,244.400 187.946 C 244.400 188.137,243.455 189.283,242.300 190.494 C 241.145 191.704,238.580 194.473,236.600 196.646 C 232.919 200.686,230.965 202.816,223.600 210.811 C 221.290 213.319,218.500 216.366,217.400 217.583 C 216.300 218.800,214.373 220.876,213.117 222.195 C 211.862 223.515,210.973 224.733,211.142 224.902 C 211.531 225.291,275.169 225.016,277.600 224.615 C 278.590 224.452,279.571 224.156,279.780 223.959 C 279.989 223.762,280.653 223.600,281.256 223.600 C 281.859 223.600,282.464 223.420,282.600 223.200 C 282.736 222.980,283.152 222.800,283.524 222.799 C 287.292 222.795,301.290 212.615,303.759 208.083 C 303.964 207.707,304.249 207.310,304.392 207.200 C 306.580 205.521,310.746 196.109,312.094 189.800 C 312.932 185.879,312.535 171.653,311.559 170.620 C 311.362 170.411,311.200 169.747,311.200 169.144 C 311.200 168.541,311.020 167.936,310.800 167.800 C 310.580 167.664,310.400 167.113,310.400 166.576 C 310.400 166.039,310.220 165.600,310.000 165.600 C 309.780 165.600,309.594 165.285,309.587 164.900 C 309.581 164.515,309.020 163.120,308.342 161.800 C 307.664 160.480,306.905 158.996,306.655 158.503 C 306.405 158.010,306.065 157.605,305.900 157.603 C 305.735 157.601,305.600 157.422,305.600 157.204 C 305.600 155.520,294.596 144.432,292.900 144.407 C 292.625 144.403,292.400 144.220,292.400 144.000 C 292.400 143.780,292.203 143.600,291.962 143.600 C 291.721 143.600,291.046 143.271,290.462 142.870 C 289.878 142.468,287.960 141.544,286.200 140.816 C 281.612 138.919,281.522 138.886,280.200 138.609 C 279.540 138.470,278.190 138.174,277.200 137.950 C 270.095 136.344,256.430 137.843,251.105 140.813 C 249.642 141.629,248.397 141.284,248.138 139.992 C 248.005 139.327,247.740 138.686,247.548 138.568 C 247.357 138.450,247.200 138.091,247.200 137.772 C 247.200 137.249,246.571 135.690,244.950 132.200 C 244.643 131.540,243.846 130.100,243.178 129.000 C 242.511 127.900,241.862 126.685,241.736 126.300 C 241.610 125.915,241.348 125.600,241.153 125.600 C 240.959 125.600,240.800 125.391,240.800 125.136 C 240.800 123.687,231.039 113.124,228.100 111.393 C 227.385 110.972,226.800 110.486,226.800 110.314 C 226.800 110.141,226.564 110.000,226.275 110.000 C 225.987 110.000,225.393 109.685,224.955 109.300 C 223.477 108.000,217.897 105.066,214.200 103.645 C 212.880 103.137,211.440 102.572,211.000 102.389 C 210.560 102.206,209.210 101.841,208.000 101.578 C 206.790 101.315,205.301 100.951,204.691 100.768 C 204.081 100.585,201.741 100.348,199.491 100.240 C 197.241 100.133,195.760 100.124,196.200 100.221 M214.165 156.395 L 237.330 156.600 232.046 163.200 C 229.140 166.830,226.543 170.070,226.275 170.400 C 226.008 170.730,225.161 171.806,224.394 172.790 C 223.628 173.775,222.772 174.825,222.494 175.125 C 222.216 175.424,221.497 176.329,220.896 177.135 C 220.296 177.941,219.714 178.690,219.602 178.800 C 218.519 179.871,213.200 186.810,213.200 187.152 C 213.200 187.452,214.289 187.576,216.500 187.527 L 219.800 187.453 216.726 187.227 L 213.653 187.000 225.835 171.829 C 234.496 161.042,237.870 156.564,237.508 156.335 C 237.229 156.157,226.650 156.052,214.000 156.101 L 191.000 156.190 214.165 156.395 M187.345 160.470 C 185.623 162.742,176.599 174.770,167.290 187.200 C 157.982 199.630,149.789 210.506,149.083 211.369 C 148.377 212.233,147.170 213.761,146.400 214.765 C 145.630 215.769,144.685 216.941,144.300 217.371 C 143.915 217.800,143.600 218.281,143.600 218.441 C 143.600 218.600,150.875 218.791,159.767 218.865 C 168.659 218.939,176.067 219.133,176.229 219.295 C 176.391 219.458,175.929 220.763,175.202 222.195 L 173.880 224.800 143.964 224.800 C 124.451 224.800,113.961 224.661,113.800 224.400 C 113.664 224.180,112.843 224.000,111.976 224.000 C 111.109 224.000,110.400 223.820,110.400 223.600 C 110.400 223.380,110.038 223.200,109.595 223.200 C 109.152 223.200,108.477 223.039,108.095 222.842 C 107.713 222.645,106.140 221.885,104.600 221.154 C 100.001 218.968,96.622 216.176,94.008 212.400 C 93.475 211.630,92.940 210.910,92.819 210.800 C 92.603 210.603,92.182 209.889,90.842 207.445 C 89.964 205.845,88.876 202.498,88.163 199.200 C 87.194 194.723,87.429 191.101,89.129 184.348 C 90.165 180.232,93.585 174.843,97.516 171.135 C 100.624 168.203,103.532 166.355,108.000 164.475 C 108.732 164.167,108.809 164.047,108.289 164.027 C 105.338 163.915,92.800 173.475,92.800 175.837 C 92.800 176.146,92.663 176.400,92.496 176.400 C 92.218 176.400,89.931 180.682,89.184 182.600 C 87.871 185.972,87.200 189.758,87.200 193.800 C 87.200 197.842,87.871 201.628,89.184 205.000 C 89.931 206.918,92.218 211.200,92.496 211.200 C 92.663 211.200,92.800 211.378,92.800 211.595 C 92.800 213.991,101.530 220.894,107.600 223.297 C 108.150 223.515,108.913 223.852,109.295 224.047 C 109.677 224.241,110.496 224.400,111.115 224.400 C 111.734 224.400,112.421 224.581,112.643 224.803 C 112.907 225.067,123.568 225.170,143.807 225.103 L 174.570 225.000 176.087 222.035 C 176.922 220.405,177.499 218.965,177.369 218.835 C 177.240 218.706,169.859 218.549,160.967 218.487 C 152.075 218.425,144.800 218.288,144.800 218.182 C 144.800 217.993,156.389 202.388,156.818 202.000 C 156.939 201.890,157.471 201.170,158.000 200.400 C 158.529 199.630,159.069 198.910,159.200 198.800 C 159.331 198.690,159.871 197.970,160.400 197.200 C 160.929 196.430,161.469 195.710,161.600 195.600 C 161.731 195.490,162.271 194.770,162.800 194.000 C 163.329 193.230,163.874 192.510,164.012 192.400 C 164.149 192.290,166.400 189.320,169.013 185.800 C 171.627 182.280,173.872 179.310,174.002 179.200 C 174.132 179.090,174.671 178.370,175.200 177.600 C 175.729 176.830,176.269 176.110,176.400 176.000 C 176.531 175.890,177.077 175.170,177.614 174.400 C 178.150 173.630,178.806 172.730,179.072 172.400 C 179.338 172.070,181.362 169.370,183.571 166.400 C 185.779 163.430,187.729 160.820,187.904 160.600 C 188.079 160.380,188.658 159.570,189.192 158.800 C 189.725 158.030,190.345 157.275,190.569 157.122 C 190.793 156.969,190.864 156.730,190.725 156.592 C 190.587 156.454,189.066 158.199,187.345 160.470 M111.400 162.897 C 110.740 163.124,109.949 163.379,109.643 163.464 C 109.336 163.549,109.166 163.700,109.265 163.799 C 109.364 163.897,110.125 163.791,110.955 163.561 C 111.786 163.332,113.576 163.000,114.933 162.823 L 117.400 162.501 115.000 162.493 C 113.680 162.489,112.060 162.671,111.400 162.897 M120.433 162.544 C 120.525 162.623,121.770 162.802,123.200 162.940 C 124.949 163.110,125.604 163.065,125.200 162.802 C 124.659 162.451,120.035 162.200,120.433 162.544 M196.486 169.114 C 196.093 169.507,195.239 170.542,194.588 171.414 C 193.937 172.286,193.305 173.090,193.183 173.200 C 193.061 173.310,192.529 174.030,192.000 174.800 C 191.471 175.570,190.938 176.290,190.814 176.400 C 190.126 177.014,177.191 194.524,177.326 194.659 C 177.415 194.748,181.760 189.154,186.982 182.228 C 192.204 175.301,196.698 169.451,196.968 169.227 C 197.246 168.996,200.474 168.768,204.429 168.700 L 211.400 168.580 204.300 168.490 C 197.945 168.409,197.125 168.475,196.486 169.114 M211.400 169.340 C 207.802 173.475,187.216 199.743,187.423 199.935 C 187.581 200.081,187.787 199.982,187.883 199.716 C 188.038 199.281,189.990 196.728,193.170 192.800 C 193.793 192.030,196.040 189.240,198.163 186.600 C 200.287 183.960,202.246 181.530,202.517 181.200 C 202.789 180.870,203.639 179.794,204.406 178.810 C 205.172 177.825,206.028 176.775,206.306 176.475 C 206.584 176.176,207.304 175.271,207.906 174.465 C 208.508 173.659,209.228 172.759,209.506 172.465 C 210.534 171.379,212.107 169.174,211.956 169.029 C 211.870 168.948,211.620 169.088,211.400 169.340 M172.884 200.216 C 170.840 202.967,169.066 205.483,168.941 205.809 C 168.743 206.325,170.516 206.388,182.857 206.308 L 197.000 206.216 183.161 206.008 L 169.321 205.800 171.871 202.400 C 176.323 196.463,177.206 195.200,176.899 195.207 C 176.735 195.211,174.928 197.465,172.884 200.216 M216.333 200.363 C 216.174 200.795,209.308 208.278,188.400 230.803 C 187.850 231.396,186.455 232.907,185.300 234.162 C 182.210 237.520,182.520 236.726,190.419 221.040 C 194.389 213.155,197.564 206.631,197.474 206.541 C 197.384 206.451,193.822 213.299,189.559 221.759 C 185.295 230.218,181.952 237.285,182.130 237.463 C 182.521 237.855,186.497 233.714,201.777 217.000 C 204.592 213.920,209.079 209.085,211.748 206.254 C 214.417 203.424,216.658 200.859,216.729 200.554 C 216.872 199.943,216.546 199.785,216.333 200.363 " stroke="none" fill="#717165" fill-rule="evenodd"></path></g></svg>